<?xml version="1.0" encoding="utf-8"?>
<!-- Generator: Adobe Illustrator 21.0.0, SVG Export Plug-In . SVG Version: 6.00 Build 0)  -->
<svg version="1.1" id="Layer_1" xmlns="http://www.w3.org/2000/svg" xmlns:xlink="http://www.w3.org/1999/xlink" x="0px" y="0px"
	 viewBox="0 0 184.7 187" style="enable-background:new 0 0 184.7 187;" xml:space="preserve">
<style type="text/css">
	.st0{fill:none;stroke:#3CB6AB;stroke-miterlimit:10;}
	.st1{fill-rule:evenodd;clip-rule:evenodd;fill:#F79980;}
	.st2{fill-rule:evenodd;clip-rule:evenodd;fill:#F0D4D0;}
	.st3{fill-rule:evenodd;clip-rule:evenodd;fill:#F1D953;}
	.st4{fill-rule:evenodd;clip-rule:evenodd;fill:#3CB6AB;}
	.st5{fill-rule:evenodd;clip-rule:evenodd;fill:#CCE0E1;}
	.st6{fill-rule:evenodd;clip-rule:evenodd;fill:#C5C8D1;}
	.st7{fill-rule:evenodd;clip-rule:evenodd;fill:#06749C;}
	.st8{fill-rule:evenodd;clip-rule:evenodd;fill:#FFFFFF;}
	.st9{fill-rule:evenodd;clip-rule:evenodd;}
	.st10{fill:#06749C;}
	.st11{fill:#F79980;}
	.st12{fill:#F0D4D0;}
	.st13{fill:#F1D953;}
	.st14{clip-path:url(#SVGID_2_);}
	.st15{fill:none;stroke:#F1D953;stroke-width:0.75;}
	.st16{fill:#CCE0E1;}
	.st17{fill:none;stroke:#000000;stroke-width:0.75;}
	.st18{fill:none;stroke:#F0D4D0;stroke-miterlimit:10;}
	.st19{fill:none;stroke:#F1D953;stroke-miterlimit:10;}
	.st20{clip-path:url(#SVGID_4_);}
	.st21{clip-path:url(#SVGID_6_);}
	.st22{fill:#C5C8D1;}
	.st23{clip-path:url(#SVGID_8_);}
	.st24{fill:none;stroke:#000000;stroke-miterlimit:10;}
	.st25{clip-path:url(#SVGID_10_);}
	.st26{clip-path:url(#SVGID_12_);}
	.st27{fill:none;stroke:#F1D953;stroke-width:1.948;}
	.st28{fill:none;stroke:#000000;stroke-width:1.948;}
	.st29{fill:none;stroke:#F0D4D0;stroke-width:2.5973;stroke-miterlimit:10;}
	.st30{fill:none;stroke:#F1D953;stroke-width:2.5973;stroke-miterlimit:10;}
	.st31{fill:none;stroke:#000000;stroke-width:2.5973;stroke-miterlimit:10;}
	.st32{fill:#FFFFFF;}
	.st33{fill:#72B4A6;}
	.st34{fill:#F0D4D0;stroke:#C5C8D1;stroke-width:1.3638;stroke-miterlimit:10;}
	.st35{fill:none;stroke:#000000;stroke-linejoin:bevel;stroke-miterlimit:10;}
	.st36{fill:none;stroke:#C5C8D1;stroke-width:1.2346;stroke-miterlimit:10;}
	.st37{fill:#C5C8D1;stroke:#C5C8D1;stroke-width:1.2346;stroke-miterlimit:10;}
	.st38{fill:none;stroke:#C5C8D1;stroke-width:1.2346;stroke-linejoin:bevel;stroke-miterlimit:10;}
	.st39{fill:#F1D953;stroke:#72B4A6;stroke-miterlimit:10;}
	.st40{fill:#C5C8D1;stroke:#C5C8D1;stroke-width:0.5;stroke-miterlimit:10;}
	.st41{fill:none;stroke:#F79980;stroke-miterlimit:10;}
	.st42{fill:none;stroke:#72B4A6;stroke-miterlimit:10;}
	.st43{fill:none;stroke:#CCE0E1;stroke-width:2;stroke-miterlimit:10;}
	.st44{fill:#06749C;stroke:#06749C;stroke-miterlimit:10;}
	.st45{fill:none;stroke:#3CB6AB;stroke-width:0.6231;stroke-miterlimit:10;}
	.st46{fill:none;stroke:#3CB6AB;stroke-width:0.6231;stroke-linejoin:round;stroke-miterlimit:10;}
	.st47{fill:none;stroke:#06749C;stroke-miterlimit:10;}
	.st48{fill:none;stroke:#000000;stroke-linejoin:round;stroke-miterlimit:10;}
	.st49{fill:#F79980;stroke:#000000;stroke-width:0.5;stroke-miterlimit:10;}
	.st50{fill:#C5C8D1;stroke:#C5C8D1;stroke-width:1.3736;stroke-miterlimit:10;}
	.st51{fill:#E85B3F;}
	.st52{fill:#3CB6AB;stroke:#3CB6AB;stroke-width:1.3736;stroke-miterlimit:10;}
	.st53{fill:#F0D4D0;stroke:#F0D4D0;stroke-width:1.3736;stroke-miterlimit:10;}
	.st54{fill:none;stroke:#F0D4D0;stroke-width:1.3736;stroke-miterlimit:10;}
	.st55{fill:#CCE0E1;stroke:#CCE0E1;stroke-width:1.3736;stroke-miterlimit:10;}
	.st56{fill:#06749C;stroke:#06749C;stroke-width:1.3736;stroke-miterlimit:10;}
	.st57{fill:none;stroke:#3CB6AB;stroke-width:1.3736;stroke-miterlimit:10;}
	.st58{fill:#72B4A6;stroke:#72B4A6;stroke-width:1.3736;stroke-miterlimit:10;}
	.st59{fill:#F1D953;stroke:#F1D953;stroke-width:1.3736;stroke-miterlimit:10;}
	.st60{fill:none;stroke:#B3B3B3;stroke-miterlimit:10;}
	.st61{fill:none;stroke:#999999;stroke-miterlimit:10;}
	.st62{fill:#E6E6E6;stroke:#CCCCCC;stroke-miterlimit:10;}
	.st63{fill:none;stroke:#CCCCCC;stroke-miterlimit:10;}
	.st64{fill:#CCCCCC;}
	.st65{fill:#4D4D4D;}
	.st66{fill:#999999;}
	.st67{fill:#666666;}
	.st68{fill:#B3B3B3;}
	.st69{fill:#CCCCCC;stroke:#999999;stroke-width:1.3638;stroke-miterlimit:10;}
	.st70{fill:none;stroke:#CCCCCC;stroke-width:1.3746;stroke-miterlimit:10;}
	.st71{fill:#999999;stroke:#CCCCCC;stroke-width:1.1135;stroke-miterlimit:10;}
	.st72{fill:none;stroke:#CCCCCC;stroke-width:1.3746;stroke-linejoin:bevel;stroke-miterlimit:10;}
	.st73{fill:none;stroke:#808080;stroke-width:1.2346;stroke-miterlimit:10;}
	.st74{fill:#999999;stroke:#808080;stroke-width:1.2346;stroke-miterlimit:10;}
	.st75{fill:none;stroke:#808080;stroke-width:1.2346;stroke-linejoin:bevel;stroke-miterlimit:10;}
	.st76{fill:#808080;stroke:#CCCCCC;stroke-miterlimit:10;}
	.st77{fill:#999999;stroke:#999999;stroke-width:0.5;stroke-miterlimit:10;}
	.st78{fill:none;stroke:#C5C8D1;stroke-miterlimit:10;}
	.st79{fill:#C5C8D1;stroke:#C5C8D1;stroke-miterlimit:10;}
	.st80{fill:none;stroke:#999999;stroke-width:1.3428;stroke-miterlimit:10;}
	.st81{fill:#999999;stroke:#999999;stroke-miterlimit:10;}
	.st82{fill:none;stroke:#B3B3B3;stroke-width:2;stroke-miterlimit:10;}
	.st83{fill:#666666;stroke:#999999;stroke-miterlimit:10;}
	.st84{fill:none;stroke:#999999;stroke-width:0.8128;stroke-miterlimit:10;}
	.st85{fill:none;stroke:#999999;stroke-width:0.8128;stroke-linejoin:round;stroke-miterlimit:10;}
	.st86{fill:#B3B3B3;stroke:#999999;stroke-miterlimit:10;}
	.st87{fill:#666666;stroke:#666666;stroke-miterlimit:10;}
	.st88{fill:none;stroke:#666666;stroke-miterlimit:10;}
	.st89{fill:#CCCCCC;stroke:#F2F2F2;stroke-miterlimit:10;}
	.st90{fill:none;stroke:#F2F2F2;stroke-miterlimit:10;}
	.st91{fill:#808080;}
	.st92{fill:#E6E6E6;}
	.st93{fill:none;stroke:#B3B3B3;stroke-width:1.3736;stroke-miterlimit:10;}
	.st94{fill:#E6E6E6;stroke:#E6E6E6;stroke-width:1.3736;stroke-miterlimit:10;}
	.st95{fill:#06749C;stroke:#808080;stroke-width:1.3736;stroke-miterlimit:10;}
	.st96{fill:none;stroke:#CCCCCC;stroke-width:1.3736;stroke-miterlimit:10;}
	.st97{fill:#999999;stroke:#999999;stroke-width:1.3736;stroke-miterlimit:10;}
	.st98{fill:#3CB6AB;stroke:#E6E6E6;stroke-width:1.3736;stroke-miterlimit:10;}
	.st99{fill:#F1D953;stroke:#666666;stroke-width:1.3736;stroke-miterlimit:10;}
	.st100{fill:#F2F2F2;}
	.st101{clip-path:url(#SVGID_14_);fill:url(#);stroke:#231F20;stroke-width:0.36;}
	.st102{fill:#3CB6AB;}
	.st103{fill:url(#);}
	.st104{fill:none;}
	.st105{fill:#06749C;stroke:#3CB6AB;stroke-miterlimit:10;}
	.st106{fill:#1A1A1A;}
	.st107{fill:#F0D4D0;stroke:#F0D4D0;stroke-width:1.3638;stroke-miterlimit:10;}
	.st108{fill:#06749C;stroke:#06749C;stroke-width:1.2346;stroke-miterlimit:10;}
	.st109{fill:none;stroke:#F79980;stroke-width:1.2346;stroke-miterlimit:10;}
	.st110{fill:#3CB6AB;stroke:#F79980;stroke-width:1.2346;stroke-miterlimit:10;}
	.st111{fill:none;stroke:#F79980;stroke-width:1.2346;stroke-linejoin:bevel;stroke-miterlimit:10;}
	.st112{fill:#F79980;stroke:#F79980;stroke-width:0.5;stroke-miterlimit:10;}
	.st113{fill:none;stroke:#3CB6AB;stroke-width:1.3428;stroke-miterlimit:10;}
	.st114{fill:#3CB6AB;stroke:#3CB6AB;stroke-miterlimit:10;}
	.st115{fill:none;stroke:#3CB6AB;stroke-width:1.2346;stroke-miterlimit:10;}
	.st116{fill:#3CB6AB;stroke:#3CB6AB;stroke-width:1.2346;stroke-miterlimit:10;}
	.st117{fill:none;stroke:#3CB6AB;stroke-width:1.2346;stroke-linejoin:bevel;stroke-miterlimit:10;}
	.st118{fill:none;stroke:#3CB6AB;stroke-width:0.8128;stroke-miterlimit:10;}
	.st119{fill:none;stroke:#3CB6AB;stroke-width:0.8128;stroke-linejoin:round;stroke-miterlimit:10;}
	.st120{fill:#CCE0E1;stroke:#CCE0E1;stroke-miterlimit:10;}
	.st121{fill:none;stroke:#CCE0E1;stroke-miterlimit:10;}
</style>
<g>
	<path class="st12" d="M56.3,122.7c-0.5-0.2-1-0.4-1.5-0.5c-0.6-0.1-1.3,0-1.9,0.1c-0.3,0-0.6,0.1-0.9,0.1c-0.7,0-1-0.3-0.8-1
		c0.2-0.6,0.4-1.1,0.7-1.6c0.6-1.2,0.9-2.4,1.3-3.6c0.3-1,0.1-1.5-0.9-2.3c-0.4-0.3-0.9-0.4-1.4,0c-0.9,0.8-1.8,1.5-2,2.8
		c0,0.3-0.1,0.6-0.3,0.8c-0.7,1.1-1.4,2.2-2.1,3.3c-0.4,0.5-0.8,1-1.2,1.5c-0.2,0.2-0.4,0.3-0.7,0.5c-0.2-0.2-0.4-0.4-0.6-0.6
		c-1-0.9-2.1-1.3-3.4-1.3c-0.4,0-0.9,0-1.3-0.1c-0.3,0-0.5-0.2-0.8-0.4c0.3-0.9,0.8-1.5,1.3-2.2c0.8-1,1.4-2.1,1.9-3.3
		c0.2-0.4,0.3-1,0.2-1.4c-0.1-1.1-1.2-1.7-2.2-1.2c-0.9,0.4-1.7,1-2.1,2c-0.3,0.8-0.9,1.4-1.5,2c-0.4,0.4-0.8,0.9-1.2,1.3
		c-0.2,0.3-0.5,0.5-0.7,0.7c-0.6,0.6-1.2,1.1-1.8,1.8c-0.5,0.6-0.5,1-0.1,1.7c0.3,0.5,0.6,0.9,0.8,1.4c0.5,0.9,1.2,1.4,2.2,1.6
		c2.1,0.3,4.3,0.8,6.5,0.7c1.6-0.1,1.6,0,2.6-1.3c0.2,0.1,0.4,0.2,0.6,0.4c0.5,0.5,0.9,0.9,1.3,1.4c0.8,0.9,1.7,1.2,2.9,1.1
		c0.7-0.1,1.5-0.1,2.2-0.2c1.3-0.2,2.6-0.3,3.9-0.6c1.7-0.3,1.7-0.7,1.7-2.4C57.1,123.5,56.8,123,56.3,122.7z"/>
	<path class="st12" d="M55.7,132.4c-0.5-1.2-1.5-1.7-2.7-1.8c-0.6-0.1-1.2-0.2-1.8-0.2c-1.5-0.1-3-0.4-4.6-0.4c-0.9,0-1.6,0.3-2,1.2
		c0,0.1-0.2,0.2-0.4,0.3c-0.5-0.5-1.1-1-1.5-1.6c-0.7-1-1.6-1.4-2.8-1.4c-1.9,0-3.7,0.2-5.6,0.5c-0.6,0.1-1.3,0.3-1.9,0.4
		c-0.4,0.1-0.7,0.4-0.8,0.8c-0.3,1.8,0,2.5,1.8,3c0.3,0.1,0.6,0.1,0.9,0.1c0.7,0,1.5-0.1,2.2-0.2c0.4,0,0.9-0.2,1.4,0.3
		c-0.2,0.6-0.5,1.2-0.7,1.8c-0.6,1.2-1.1,2.5-1.3,3.8c-0.1,0.4-0.1,0.8-0.1,1.2c0,0.7,0.4,1.2,1,1.6c0.6,0.3,1.2,0,1.6-0.3
		c0.8-0.6,1.4-1.4,1.6-2.4c0.2-0.7,0.5-1.4,0.9-2c0.8-1.2,1.6-2.4,2.4-3.6c0.2-0.3,0.4-0.7,0.9-0.7c0.1,0.1,0.2,0.1,0.3,0.2
		c0.9,1.2,2.1,1.6,3.5,1.6c0.5,0,1.1,0.1,1.6,0.2c0.2,0.1,0.5,0.3,0.7,0.5c-0.2,0.7-0.7,1.2-1.1,1.7c-1,1.2-1.7,2.7-2.3,4.1
		c-0.1,0.2-0.1,0.4-0.1,0.6c-0.1,1.2,1,2.1,2.1,1.7c0.4-0.1,0.7-0.3,1-0.5c0.6-0.5,1.1-1,1.4-1.7c0.2-0.4,0.4-0.9,0.7-1.1
		c1-0.9,1.8-2.1,3-2.9c0.5-0.4,1-0.9,1.4-1.3c0.5-0.6,0.5-1.1,0.1-1.8C56.3,133.3,55.9,132.9,55.7,132.4z"/>
	<path class="st12" d="M162.4,130.1c-1.3-0.6-2.6-1.3-3.8-2.1c-0.6-0.4-1.3-0.6-1.9-0.7c-0.6-0.2-1.3-0.2-1.9-0.3
		c-0.7-0.1-1.3-0.3-2.1-0.5c0.2-0.9,0.6-1.3,1-1.8c0.7-0.9,1.6-1.8,2-2.9c0.5-1.5,0.9-3,1.1-4.6c0.1-0.7-0.2-1.3-0.7-1.7
		c-0.3-0.3-0.6-0.5-1-0.7c-2.3-1.5-4.8-2.8-7.2-4.1c-0.6-0.3-1-0.2-1.5,0.2c-0.4,0.4-0.6,0.8-0.4,1.3c0.3,0.9,0.8,1.9,1.6,2.5
		c0.9,0.7,1.8,1.2,2.7,1.8c0.9,0.6,1.8,1.2,2.7,1.8c0.5,0.3,0.5,0.6,0.2,1.2c-0.3,0.6-0.7,1.1-1,1.6c-0.5,0.7-1,1.4-1.4,2.1
		c-0.7,1.2-1,2.5-0.4,3.8c0.1,0.3,0.2,0.6,0.2,0.9c0.2,1.5,1.1,2.4,2.5,2.7c1.2,0.3,2.4,0.7,3.6,1c0.4,0.1,0.8,0.2,0.8,0.8
		c-0.2,0.2-0.5,0.4-0.8,0.6c-1.1,0.6-2.3,1.2-3.4,1.8c-0.4,0.2-0.8,0.4-1.2,0.6c-0.9,0.7-1.2,1.7-0.4,2.6c0.2,0.2,0.3,0.4,0.5,0.6
		c0.4,0.4,0.8,0.6,1.3,0.4c0.7-0.3,1.5-0.5,2.2-0.9c1.5-0.7,2.9-1.5,4.3-2.2c1-0.6,2.1-1.1,3.1-1.7c0.4-0.2,0.7-0.6,0.7-1.1
		c0.1-0.8-0.2-1.5-0.4-2.2C163.3,130.5,162.8,130.4,162.4,130.1z"/>
	<path class="st12" d="M123.8,40.5c0-0.5-0.1-1.1-0.2-1.6c-0.1-0.8-0.3-1.6-0.5-2.3c0-0.2-0.1-0.5-0.2-0.7c-0.2-0.8-0.8-1.2-1.6-1.5
		c-0.6-0.2-1.1,0-1.6,0.5c-0.2,0.2-0.6,0.3-0.9,0.4c-0.7,0.2-1,0.6-1,1.3c0,1.3,0,2.7,0.1,4c0,0.7,0.2,1.5,0.2,2.2c0,0-0.1,0-0.1,0
		c0,0.5,0,1,0,1.5c0,0.7-0.3,0.9-1,0.8c-1.4-0.2-2.8-0.4-4.2-0.6c-0.5-0.1-1-0.1-1.5-0.1c-0.4,0-1,0.1-1.2,0.4
		c-0.6,0.7-1.6,0.9-2.1,1.8c-0.2,0.4-0.1,0.9,0.3,1c0.6,0.3,1.2,0.5,1.8,0.6c0.4,0.1,0.9,0.1,1.3,0.2c1.6,0.3,3.2,0.6,4.8,0.9
		c0.3,0.1,0.7,0.1,1,0.1c1.2-0.3,2.3-0.1,3.5,0c0.4,0.1,0.9,0,1.3,0c0.2,0,0.5,0,0.7-0.1c0.6-0.1,0.8-0.5,0.7-1.1c0,0,0-0.1,0-0.1
		c-0.4-0.8-0.2-1.5,0.2-2.3c0.3-0.5,0.4-1,0.3-1.6C123.7,43.1,123.8,41.8,123.8,40.5z"/>
	<path class="st12" d="M96.1,94.5c0-0.7-0.2-1.3-0.4-1.9c-0.4-0.9-0.7-1.8-1.1-2.6c-0.6-1.4-1.3-2.8-2-4.1c-0.3-0.5-0.7-1-1.1-1.4
		c-0.6-0.5-1.2-0.9-1.8-1.3c-0.3-0.2-0.7-0.3-1.1-0.3c-0.6,0-1.1,0.3-1.1,0.9c0,0.6,0,1.2,0.1,1.8c0.2,1,0.5,1.9,0.7,2.9
		c0.3,1.1,0.5,2.1,0.7,3.2c0,0.1,0,0.3,0,0.4c-0.4,0.5-1,0.6-1.5,0.6c-0.9,0-1.9-0.1-2.8-0.1c-0.6,0-1.2-0.1-1.8,0
		c-0.8,0.1-1.1,0.6-1,1.3c0.1,0.6,0.3,1.2,0.5,1.7c0.2,0.7,0.8,1.2,1.4,1.6c1.4,0.8,2.9,0.8,4.3,0.8c1.6,0,3.1-0.4,4.7-0.6
		c0.5-0.1,1.1-0.1,1.6-0.2c0.5-0.1,1.1-0.2,1.6-0.3c0.4-0.1,0.6-0.5,0.5-0.9C96.3,95.5,96,95,96.1,94.5z"/>
	<path class="st12" d="M94.7,106.4c-0.3-0.6-0.9-1-1.6-1c-1.2,0-2.2-0.6-3.2-1c-1.7-0.6-3.3-1.2-5.1-1.4c-0.6-0.1-1.3-0.1-1.9,0
		c-0.6,0-0.9,0.4-0.7,1c0.2,0.9,0.5,1.7,0.9,2.5c0.5,1.1,1.4,1.7,2.7,1.6c0.9-0.1,1.7,0.2,2.8,0.5c-0.6,0.7-1.1,1.1-1.7,1.5
		c-1.1,0.7-2.3,1.4-3.4,2.2c-1.4,1-1.5,1.5-0.8,3c0.1,0.1,0.1,0.3,0.2,0.4c0.3,0.5,0.7,0.8,1.3,0.9c1,0.1,1.9-0.1,2.8-0.6
		c1.5-1,3-1.9,4.6-2.8c1.5-0.8,2.7-1.8,4-2.8c0.4-0.4,0.6-0.8,0.4-1.3C95.6,108.1,95.2,107.2,94.7,106.4z"/>
	<path class="st12" d="M142.9,37.5c0,0-0.1-0.1-0.1-0.1c-0.8-0.5-1.1-0.6-1.8,0c-2.2,1.8-4.6,3.2-6.8,5c-0.1,0.1-0.3,0.2-0.5,0.3
		c-0.2-0.5-0.1-0.9,0-1.2c0.5-1.6,0.5-3.3,0.7-5c0-0.3,0-0.6-0.1-0.9c-0.3-1.4-1.1-2.5-1.9-3.7c-0.2-0.3-0.8-0.3-1,0.2
		c-0.1,0.4-0.2,0.8-0.3,1.1c-0.3,2.2-0.6,4.4-1.2,6.6c-0.4,1.2-0.5,2.4-0.6,3.7c0,0.5-0.2,1.1-0.3,1.6c-0.2,0.6-0.3,1.3-0.2,1.9
		c0.1,0.3,0.2,0.7,0.5,0.9c0.9,0.6,2,1,3.1,1c0.4,0,0.8-0.2,1.1-0.4c0.6-0.4,1.2-0.9,1.7-1.4c2-1.9,4.2-3.7,6.4-5.5
		c0.5-0.4,1-0.8,1.4-1.3C144.4,39,144.3,38.6,142.9,37.5z"/>
	<path class="st12" d="M146.8,132.2c-0.8,0-1.7,0.1-2.3,0.8c-1,1.2-2.3,2.2-2.9,3.7c-0.1,0.3-0.2,0.7-0.7,0.7
		c-0.1-0.1-0.2-0.2-0.3-0.3c-0.2-0.5-0.5-1-0.7-1.5c-0.6-1.2-1.1-2.4-1.7-3.6c-0.6-1.2-1.7-2-3-2.4c-0.1,0.1-0.2,0.1-0.3,0.2
		c-1.6,1.4-1.6,2.5-0.9,4.1c0.7,1.5,1.3,3,2.2,4.4c0.7,1.1,1.3,2.2,1.9,3.4c0.3,0.5,0.5,1.1,0.8,1.6c1,1.5,2.8,1.7,3.9,0.3
		c0.1-0.1,0.2-0.3,0.4-0.5c0.6-0.8,1.1-1.6,1.7-2.4c1.1-1.6,1.9-3.4,2.8-5c0.2-0.4,0.3-0.8,0.4-1.3c0.1-0.3,0.1-0.6,0-0.9
		C148,132.8,147.4,132.2,146.8,132.2z"/>
	<path class="st12" d="M178.4,100c-0.9-0.6-1.8-1.3-2.6-2.2c-0.6-0.6-1.3-1-2-1.1c-1.1-0.2-2.2,0.5-2.2,1.5c0,1.3,0,2.6,1.2,3.5
		c0.8,0.7,1.5,1.5,2.3,2.3c0.6,0.6,0.6,1.1,0,1.7c-0.3,0.3-0.6,0.6-0.9,1c-0.5,0.7-1.2,1.3-1.9,1.9c-0.5,0.4-1,0.8-1.5,1.2
		c-0.5,0.4-0.8,0.9-1,1.5c-0.1,0.5-0.3,1-0.3,1.4c-0.1,1.1-0.3,2.1-0.9,2.9c-0.1,0.1-0.1,0.3-0.2,0.4c-0.2,0.5,0,1,0.4,1.4
		c0.4,0.4,0.9,0.4,1.4,0.2c0.6-0.3,0.9-0.7,1.2-1.3c0.3-0.6,0.6-1.2,1.1-1.6c0.8-0.8,1.6-1.4,2.5-2.1c1-0.8,2-1.7,2.6-2.8
		c0.2-0.3,0.5-0.6,0.7-0.9c1.3-1.5,1.9-3.4,2.4-5.2c0-0.1,0-0.2,0.1-0.4c-0.1-0.2-0.1-0.6-0.3-0.9
		C179.8,101.4,179.2,100.5,178.4,100z"/>
	<path class="st12" d="M139.5,157.4c-1,0.4-1.9,0.8-2.9,1.1c-0.4,0.2-0.9,0.5-1.6,0.2c0.2-0.5,0.4-0.9,0.6-1.3
		c0.7-1.3,1.3-2.5,2-3.8c0.3-0.6,0.5-1.2,0.8-1.8c0.2-0.5,0.1-0.9-0.2-1.2c-0.2-0.2-0.4-0.4-0.7-0.6c-0.7-0.5-1.5-0.9-2.3-1.4
		c-0.5-0.3-1-0.2-1.3,0.2c-0.3,0.3-0.5,0.6-0.6,1c-1.4,3-2.7,6-4.1,9.1c0,0.1-0.1,0.2-0.1,0.3c-0.4,0.9-0.3,1.8-0.2,2.8
		c0.1,0.5,0.3,1,0.7,1.2c0.9,0.5,1.8,0.8,2.8,0.5c1.3-0.4,2.6-0.9,3.9-1.4c0.5-0.2,0.9-0.4,1.3-0.7c0.5-0.3,1-0.6,1.5-0.9
		c0.7-0.4,1.3-0.9,1.8-1.5c0.4-0.5,0.3-1.2-0.1-1.7C140.5,157.2,140,157.2,139.5,157.4z"/>
	<path class="st12" d="M133.1,142.5c-1.4-0.1-2.8,0-4.1,0.6c-0.8,0.4-1.7,0.5-2.7,0.8c0-0.4-0.1-0.6,0-0.7c0.5-0.9,0.9-2,1.2-3
		c0.2-0.6,0.5-1.1,0.8-1.6c0.4-0.7,0.4-1.4,0.1-2.1c-0.4-0.9-1.2-1.3-2-1.7c-0.9-0.5-1.6-0.2-2.1,0.7c-0.2,0.4-0.4,0.9-0.5,1.4
		c-0.5,1.8-1.1,3.5-1.6,5.3c-0.4,1.6-0.7,3.2-1.1,4.8c-0.1,0.7,0.1,1.2,0.7,1.5c1,0.4,1.9,0.7,2.9,0.9c0.4,0.1,0.9,0,1.3-0.2
		c1.1-0.4,2.2-0.8,3.3-1.2c0.3-0.1,0.6-0.3,0.9-0.5c1.1-0.6,2.3-1.2,3.4-1.8c0.3-0.2,0.6-0.4,0.8-0.6c0.2-0.2,0.3-0.4,0.3-0.7
		C134.9,143.4,134.1,142.6,133.1,142.5z"/>
	<path class="st12" d="M41.3,159c-0.9-0.1-1.8,0-2.7,0c-0.6,0-1.3,0.1-1.9,0.2c-1.7,0.1-3.4,0.2-5.2,0.3c-0.6,0-1.2,0.3-1.6,0.7
		c-0.5,0.5-0.9,1-1.4,1.7c0.2,0.3,0.3,0.5,0.5,0.5c1.6,0.8,3.2,1.6,5,1.6c0.5,0,1,0,1.5,0c1.1,0,1.3,0.4,0.7,1.3
		c-0.4,0.6-0.7,1.3-1.2,1.9c-0.8,1-1.1,2.3-1.5,3.5c-0.1,0.4-0.1,0.9,0,1.3c0.1,0.5,0.4,0.9,1,1c0.5,0.1,0.7-0.3,1-0.6
		c0.5-0.6,0.9-1.2,1.4-1.7c1.2-1.1,2.2-2.4,3.1-3.8c0.6-0.9,1.3-1.9,2.3-2.5c0.4-0.3,0.6-0.6,0.9-0.9c0.4-0.4,0.5-0.8,0.5-1.4
		C43.9,160.5,42.9,159.2,41.3,159z"/>
	<path class="st12" d="M59.6,93c-1-0.4-1.9-0.8-2.9-1.1c-1-0.3-2-0.4-3.1-0.2c-0.2,0-0.4,0.1-0.6,0.1c-0.7,0-1-0.6-0.6-1.1
		c0.4-0.6,0.7-1.2,1.1-1.7c0.9-0.9,1.2-2.1,1.6-3.3c0.3-0.7,0.3-1.4,0.1-2c-0.1-0.5-0.5-0.8-0.9-0.8c-0.4-0.1-0.8,0.2-1,0.5
		c-0.6,1-1.4,1.8-2.3,2.5c-0.3,0.2-0.5,0.5-0.7,0.8c-0.5,0.7-1,1.3-1.5,2c-0.8,1-1.5,2.1-2.6,2.8c-0.2,0.1-0.4,0.3-0.5,0.5
		c-0.7,0.6-0.8,1.4-0.6,2.3c0.1,0.4,0.3,0.7,0.5,1.1c0.4,0.9,1.2,1.3,2.1,1.3c0.6,0,1.3,0,1.9,0c0,0,0,0,0,0
		c2.1-0.1,4.1-0.2,6.2-0.4c0.2,0,0.4-0.1,0.6-0.1c2.1-0.3,2.1-0.3,3.4-1.9C60.3,93.7,60.3,93.2,59.6,93z"/>
	<path class="st12" d="M132.5,116.7c-0.6-0.4-1.3-0.7-1.9-1.1c-1-0.6-1.9-1.2-2.9-1.8c-0.3-0.2-0.7-0.4-1-0.5
		c-1.5-0.7-2.9-1.4-4.4-2.1c-0.4-0.2-0.9-0.4-1.4-0.5c-0.3-0.1-0.7,0-0.9,0.3c-0.8,0.9-0.9,2.3-0.2,3.3c0.3,0.5,0.8,0.7,1.3,0.9
		c1.4,0.5,2.8,1,4.2,1.5c0.6,0.2,1.3,0.4,1.9,1.2c-1.3,0.5-2.4,0.9-3.5,1.2c-1.8,0.4-3.7,0.7-5.4,1.4c-0.8,0.4-1.3,1.3-0.9,2
		c0.6,1.5,2,2.1,3.5,1.5c3-1.1,6-2.1,9.1-3.2c1-0.4,1.9-0.8,2.9-1.2c0.3-0.1,0.6-0.4,0.6-0.8C133.3,118,133.3,117.2,132.5,116.7z"/>
	<path class="st12" d="M153.2,56.3c-1-0.8-1.8-1.8-2.5-2.9c-0.6-0.9-1.3-1.6-1.9-2.4c-0.9-1.1-2.3-1.3-3.6-1.6
		c-0.3-0.1-0.7,0.3-0.6,0.7c0.1,0.4,0.2,0.8,0.3,1.1c0.6,1.3,1.5,2.5,2.3,3.6c0.6,0.9,1.3,1.7,1.9,2.8c-1.1,0.8-2.2,1.2-3.3,1.7
		c-0.7,0.3-1.3,0.7-2,1c-0.3,0.2-0.6,0.4-0.9,0.5c-1,0.4-1.8,1.2-2.4,2.2c-0.6,0.9-0.7,1.5,0.7,2.3c0.3,0.2,0.6,0.3,1,0.3
		c0.9,0.1,1.8,0.1,2.6-0.3c1.1-0.4,2.2-0.9,3.2-1.4c1.2-0.6,2.3-1.3,3.5-1.9c0.7-0.4,1.4-0.7,2.1-1c0.9-0.4,1.1-0.8,0.9-1.8
		C154.5,58.1,154.2,57.1,153.2,56.3z"/>
	<path class="st12" d="M106.5,121.8c-0.2-0.6-0.7-1-1.3-1c-0.2,0-0.4,0-0.6,0.1c-0.6,0.2-1.1,0-1.5-0.3c-0.9-0.6-1.8-1.1-2.8-1.4
		c-0.3-0.1-0.5-0.3-0.8-0.4c-1.2-0.7-2.3-1.5-3.5-2.1c-0.6-0.3-1.2-0.6-1.8-0.7c-0.8-0.2-1.3,0.2-1,1c0.1,0.5,0.4,0.9,0.5,1.4
		c0.4,1,1,1.8,2.1,2.2c1,0.4,2,1.1,3.1,2c-0.5,0.2-0.8,0.4-1,0.4c-0.8,0.3-1.7,0.5-2.6,0.8c-0.4,0.1-0.8,0.3-1.2,0.6
		c-0.7,0.5-0.9,1.1-0.6,2c0.2,0.6,0.5,1.1,0.7,1.6c0.3,0.6,0.7,0.9,1.4,1c1.1,0.1,2.2,0,3.3-0.5c1.6-0.6,3.1-1.2,4.7-1.8
		c0.9-0.4,1.8-0.8,2.7-1.2c0.3-0.1,0.4-0.4,0.4-0.7c0-0.6,0-1.3,0-1.9C106.7,122.4,106.6,122.1,106.5,121.8z"/>
	<path class="st12" d="M124.1,11.6c-0.3-0.6-0.7-1.1-0.9-1.7c-0.5-1.1-1.1-2-2-2.8c-0.6-0.5-1.1-1.1-1.7-1.7c-1-1-2.1-1.7-3.4-2.3
		c-0.6-0.2-1.1-0.3-1.7-0.2c-0.4,0.1-0.6,0.5-0.4,0.8c0.2,0.5,0.5,0.9,0.7,1.4c0.7,1.6,1.4,3.2,2.4,4.6c0.8,1.1,0.6,1.7-0.8,1.8
		c-1.7,0.1-3.3,0.4-4.9,1.1c-1.4,0.6-1.9,1.6-2,3c0,0.1,0,0.2,0,0.3c0.1,0.9,0.4,1.2,1.3,1.2c0.3,0,0.7-0.1,1-0.1
		c0.7-0.2,1.3-0.3,2-0.6c2.4-0.8,4.9-1.2,7.3-1.7c1-0.2,1.9-0.7,2.7-1.1c0.5-0.3,0.7-0.8,0.6-1.4C124.4,12.1,124.3,11.9,124.1,11.6z
		"/>
	<path class="st12" d="M123.4,158.4c-0.4-1.2-1.1-2.1-1.9-3c-1.1-1.3-2.2-2.5-3.6-3.5c-1-0.7-2.1-1.1-3.3-1.2c-0.7-0.1-1,0.4-0.7,1
		c0,0,0,0.1,0.1,0.1c1.2,2.1,2,4.3,3.4,6.2c0.1,0.1,0.1,0.2,0.1,0.3c0.2,0.4,0,0.8-0.4,0.9c-0.3,0.1-0.6,0.1-0.9,0.1
		c-1.7,0.2-3.3,0.4-4.9,1c-1.6,0.6-2.4,2.2-1.8,3.8c0.2,0.6,0.5,0.8,1.1,0.7c0.9-0.1,1.8-0.3,2.7-0.6c2.6-0.6,5.2-1.4,7.9-1.9
		c0.8-0.2,1.5-0.5,2.2-0.7c0.6-0.2,0.8-0.7,0.8-1.6c-0.1-0.2-0.2-0.6-0.4-1C123.8,159,123.5,158.7,123.4,158.4z"/>
	<path class="st12" d="M113.5,24c-0.2-1.3-1.1-2-2.2-2.8c-0.4,0.4-0.8,0.7-1.2,1.1c-0.9,1-1.9,1.9-3,2.6c-0.7,0.4-1.4,0.9-2,1.5
		c-0.8,0.8-1.4,1.6-2.1,2.5c-0.7,0.8-0.6,1.7-0.1,2.5c0.3,0.5,0.7,0.9,1.1,1.2c0.6,0.5,1,0.5,1.6,0c0.5-0.5,1-1,1.5-1.5
		c0.9-1,1.8-1.9,2.7-2.9c0.3-0.4,0.8-0.3,0.9,0.2c0.1,0.4,0.2,0.8,0.2,1.2c0,0.8,0,1.7,0,2.5c0,1.4,0.6,2.6,1.2,3.8
		c0.2,0.5,0.7,0.6,1.3,0.5c0.5-0.1,1-0.3,1.2-0.8c0.4-0.7,0.8-1.5,0.8-2.4c0.1-2.5-0.3-4.9-1-7.3C114,25.3,113.6,24.7,113.5,24z"/>
	<path class="st12" d="M67.5,47.9c-0.2-1-0.2-2.1-0.3-3.1C67.1,43.9,67,43,66.9,42c0-0.4-0.1-0.8-0.2-1.1c-0.4-0.7-0.8-1.4-1.3-2
		c-0.5-0.6-1-1.1-1.6-1.6c-0.6-0.5-1.3-0.1-1.5,0.6c0,0.2,0,0.4,0,0.6c0.1,1.5,0.2,3,0.3,4.4c0,0-0.1,0-0.1,0c0,1,0,2.1,0,3.1
		c0,0.3-0.1,0.7-0.1,1c-0.1,0.3-0.3,0.5-0.7,0.5c-0.3,0-0.6-0.1-0.9-0.2c-0.7-0.2-1.3-0.5-2-0.6c-1.3-0.3-2.5-0.4-3.8,0.1
		c-0.8,0.3-1,1-0.5,1.7c0.5,0.6,1,1.2,1.8,1.4c0.7,0.2,1.4,0.4,2.1,0.5c1.7,0.4,3.5,0.5,4.7,2.1c0.3,0.3,0.7,0.5,1.1,0.3
		c0.6-0.3,1.1-0.1,1.7,0.1c1.3,0.3,2.3-0.8,2-2C67.9,49.9,67.7,48.9,67.5,47.9z"/>
	<path class="st12" d="M114.9,179.7c0.1-2.3-0.4-4.5-1.1-6.7c-0.2-0.5-0.3-0.9-0.4-1.4c-0.3-1.2-1.2-1.9-2.1-2.4
		c-0.6,0.2-0.8,0.7-1.2,1c-0.7,0.6-1.3,1.4-2.1,1.9c-1.9,1.1-3.7,2.5-5,4.4c-0.7,1-0.8,2.1,0,3.1c0.2,0.3,0.5,0.6,0.8,0.9
		c0.6,0.5,1,0.6,1.6,0.1c0.6-0.5,1.1-1.1,1.7-1.7c0.8-0.9,1.6-1.7,2.4-2.6c0.2-0.2,0.4-0.3,0.7-0.4c0.6,0.6,0.6,1.2,0.6,1.8
		c0,0.7,0.1,1.4,0,2.1c-0.1,1.5,0.6,2.7,1.1,4c0.2,0.4,0.5,0.6,0.9,0.6c0.7,0,1.3-0.2,1.6-0.8c0.5-0.9,1-1.8,0.6-3
		C114.9,180.2,114.9,179.9,114.9,179.7z"/>
	<path class="st12" d="M33.9,58.6c-0.8-0.5-1.5-0.9-2.4-1c-0.9-0.1-1.7-0.3-2.6-0.5c-1.1-0.2-2.2-0.6-2.9-1.6
		c-0.2-0.2-0.6-0.5-0.9-0.5c-0.8,0.1-1.7-0.1-2.5-0.1c-1.3,0-1.9,0.9-1.7,2.2c0.1,0.6,0.3,1.3,0.4,1.9c0.1,0.4,0.2,0.9,0.2,1.3
		c0,1.4,0.2,2.7,0.5,4c0.1,0.4,0.1,0.8,0.1,1.2c-0.1,0.9,0.3,1.7,0.7,2.5c0.5,0.9,1.3,1.6,2.1,2.3c0.1,0.1,0.3,0.2,0.5,0.3
		c0.4,0.1,0.8-0.1,1-0.5c0.1-0.2,0.1-0.4,0.1-0.6c0-1.7,0.1-3.4-0.1-5.1c-0.1-1.2,0.2-2.4,0.2-3.5c0-0.4,0.4-0.7,0.9-0.6
		c0.4,0.1,0.9,0.2,1.3,0.3c1,0.4,2.1,0.6,3.4,0.5c0.2,0,0.7,0,1.2,0c0.5,0,1-0.2,1.2-0.7c0.2-0.5-0.1-1-0.4-1.4
		C34.2,58.8,34.1,58.7,33.9,58.6z"/>
	<path class="st12" d="M142.6,88.9c-1-0.7-2.1-1.4-3.1-2.1c-0.3-0.2-0.6-0.4-1-0.7c0.2-0.3,0.3-0.5,0.4-0.7c1.3-2.1,2.6-4.2,3.9-6.3
		c0.2-0.4,0.4-0.8,0.5-1.2c0.2-0.9-0.2-1.7-1.2-2.2c-0.8-0.4-1.3-0.3-2,0.4c-0.5,0.5-1,1-1.5,1.5c-0.9,0.9-1.7,1.8-2.3,2.9
		c-0.2,0.4-0.6,0.8-0.9,1.2c-0.4,0.5-0.9,0.9-1.3,1.4c-1,1.1-1.7,2.2-1.2,3.7c0,0,0,0.1,0,0.1c0,0.7,0.3,1.1,0.9,1.4
		c0.4,0.2,0.7,0.4,1,0.6c0.9,0.5,1.9,1,2.7,1.6c1.5,1.1,3.2,1.6,4.9,2.1c0.4,0.1,0.8,0,1.1-0.2c0.6-0.5,0.7-1,0.5-1.7
		C143.7,89.9,143.2,89.4,142.6,88.9z"/>
	<path class="st12" d="M109,56.7c-1.4,0-2.8,0-4.1,0.1c-0.4,0-0.8,0.1-1.2,0.1c-0.7,0-1-0.3-0.8-0.9c0.3-1.1,0.5-2.2,1.1-3.2
		c0.5-1,0.9-2.1,0.8-3.3c0-0.5-0.1-1-0.4-1.4c-0.6-0.8-1.2-1.7-1.8-2.5c-0.2-0.2-0.4-0.4-0.8-0.3c-0.3,0.1-0.4,0.4-0.5,0.7
		c0,0.1-0.1,0.3,0,0.4c0,1.3-0.4,2.4-0.8,3.6c-0.4,1-0.8,1.9-1.1,2.9c-0.4,1.1-0.8,2.2-1.2,3.4c-0.2,0.6-0.5,1.2-0.9,1.7
		c-0.2,0.2-0.4,0.5-0.5,0.7c-0.4,1-0.1,1.8,1,2.1c0.3,0.1,0.7,0.1,1,0.1c0.5,0,1,0,1.5,0c0,0,0,0.1,0,0.1c1.2-0.1,2.3-0.3,3.5-0.4
		c1.1-0.1,2.2-0.3,3.4-0.3c1.1,0,2-0.4,3-0.7c0.7-0.2,0.9-0.7,0.6-1.4C110.5,57.3,109.9,56.7,109,56.7z"/>
	<path class="st12" d="M145.9,120.6c-0.2-0.4-0.6-0.7-0.8-1.1c-1.4-2-3.1-3.8-4.8-5.6c-0.7-0.7-1.4-1.2-2.3-0.5
		c-0.1,0.1-0.2,0-0.3,0.1c-0.7,0.2-0.9,0.4-1,1.1c0,0.3,0,0.7,0.1,1c0.2,1,0.8,1.9,1.3,2.8c0.4,0.5,0.7,1.1,1,1.7
		c0.3,0.6,0.1,1-0.6,1.2c-1.3,0.4-2.5,0.8-3.8,1.2c-0.3,0.1-0.7,0.2-1,0.3c-1,0.4-1.5,1.5-1.3,2.6c0.2,1.1,0.7,1.4,2,1.4
		c0.3,0,0.8-0.1,1.3-0.2c2.9-0.8,5.8-1.7,8.6-2.5c0.6-0.2,1.1-0.4,1.6-0.7c0.7-0.3,0.8-0.8,0.6-1.5
		C146.4,121.4,146.2,121,145.9,120.6z"/>
	<path class="st12" d="M137,57.6c-1.8-0.3-3.5-0.6-5.2-0.9c-0.6-0.1-1.3-0.1-1.9,0c-1.3,0.1-2.6,0.3-3.9,0.5c-0.3,0.1-0.7,0.2-1,0.3
		c-0.4,0.2-0.5,0.6-0.4,1c0.2,1.1,1.5,2.2,2.6,2.3c0.8,0,1.7,0,2.5,0c0,0,0,0,0,0c0.6,0,1.3-0.1,1.9-0.1c0.1,0,0.3,0,0.4,0
		c0.4,0,0.6,0.4,0.4,0.7c-0.1,0.1-0.1,0.2-0.2,0.2c-1.1,1.2-2.3,2.5-3.4,3.7c-0.1,0.1-0.3,0.3-0.4,0.4c-0.6,0.8-0.5,1.7,0.3,2.3
		c0.2,0.2,0.4,0.3,0.6,0.4c0.6,0.4,1.2,0.4,1.8,0c0.5-0.3,1-0.7,1.4-1.1c1.3-1.3,2.6-2.7,4-4c0.6-0.6,1.2-1.2,1.8-1.8
		c0.7-0.6,1-1.4,0.6-2.3C138.4,58.6,138,57.7,137,57.6z"/>
	<path class="st12" d="M180.9,88.4c-1-0.8-2.1-1.5-3.1-2.3c-0.4-0.3-0.7-0.5-1.1-0.8c-0.4-0.4-0.5-0.7-0.2-1.2
		c0.4-0.7,0.8-1.4,1.2-2c0.3-0.5,0.6-1,0.9-1.5c0.3-0.5,0.5-1.1,0.8-1.6c0.5-0.8,0.7-1.7,0.7-2.7c0-0.4,0-0.9-0.1-1.3
		c-0.1-0.5-0.3-0.9-0.7-1.3c-0.4-0.4-1-0.4-1.3,0c-0.5,0.6-1,1.2-1.4,1.9c-0.4,0.7-0.7,1.5-1.2,2.2c-0.6,1-1.1,2-1.7,2.9
		c-0.4,0.8-0.9,1.5-1.6,2.1c-1.2,1.1-1.3,2.6-0.2,3.8c0.5,0.5,1,1.1,1.7,1.4c2,1.2,4,2.5,6.1,3.6c1.7,0.9,1.6,0.7,2.9-0.5
		c0.4-0.3,0.4-0.7,0.1-1.1C182.1,89.6,181.5,89,180.9,88.4z"/>
	<path class="st12" d="M98.9,151.4c-1.8-0.4-3.5-0.9-5.5-1.4c0.3-0.6,0.5-1,0.8-1.3c0.5-0.7,1.1-1.4,1.7-2.1
		c0.7-0.9,1.3-1.7,1.9-2.6c0.2-0.3,0.3-0.7,0.1-1.1c-0.2-0.4-0.6-0.7-1.1-0.6c-1.4,0.2-2.8,0.6-3.6,2c-0.4,0.7-0.9,1.2-1.6,1.7
		c-0.7,0.6-1.3,1.3-1.9,1.9c-1,0.9-1.6,2.1-2.6,3c-0.4,0.3-0.5,0.7-0.4,1.2c0.3,1.2,0.9,2,2.1,2.2c1.9,0.4,3.9,0.8,5.8,0.7
		c1.1-0.1,2.2-0.2,3.2-0.3c0.7-0.1,1.3-0.4,2-0.6c0.3-0.1,0.6-0.4,0.8-0.6c0.3-0.3,0.2-0.6,0-1C100.2,151.9,99.6,151.6,98.9,151.4z"
		/>
	<path class="st12" d="M127.3,83.7c-0.2-0.6-0.6-1-1.2-1.2c-1.6-0.7-3.2-1.5-4.8-2.2c-0.2-0.1-0.4-0.2-0.5-0.3
		c-0.4-0.3-0.5-0.6-0.3-1c0.2-0.4,0.4-0.8,0.8-1.1c1.2-1.1,1.9-2.5,2.8-3.8c0.4-0.5,0.6-1.2,0.6-2c-0.2-0.9-0.5-2.1-0.8-3.3
		c0-0.1-0.1-0.2-0.1-0.3c-0.2-0.4-0.7-0.4-1-0.1c-0.3,0.4-0.6,0.8-0.9,1.2c-1.5,2.3-3.2,4.5-5.1,6.5c-0.7,0.8-1.2,1.7-1.8,2.5
		c-0.2,0.3-0.2,0.7,0,1c0.8,1.4,2,2.5,3.6,3c1.2,0.3,2.3,0.8,3.4,1.4c0.4,0.2,0.9,0.4,1.4,0.6c0.8,0.3,1.5,0.7,2.3,1
		c0.5,0.2,1,0.4,1.5,0.5c0.4,0.1,0.7,0,0.9-0.3c0.2-0.3,0.1-0.7-0.1-1C127.7,84.4,127.5,84.1,127.3,83.7z"/>
	<path class="st12" d="M115.7,114.7c-0.7-0.2-1.5-0.4-2.3-0.5c-1.4-0.3-2.9-0.6-4.6-1.1c0.4-0.4,0.6-0.6,0.8-0.8
		c1.1-0.7,2.1-1.5,3.2-2.1c0.9-0.4,1.7-1.1,2.3-1.9c0.4-0.5,0.3-1-0.2-1.6c-0.4-0.5-0.8-0.6-1.4-0.3c-1.2,0.6-2.4,1.1-3.6,1.7
		c-2.4,1.2-4.7,2.6-6.9,4c-0.5,0.3-1,0.7-1.4,1.1c-1.1,1.1-0.4,2.7,0.8,3c0.2,0.1,0.5,0.2,0.7,0.2c1.2,0.1,2.4,0.2,3.7,0.4
		c1,0.1,2,0.1,2.9,0.2c1.6,0.2,3.1,0.4,4.7,0.6c0.3,0,0.7,0,1,0c0.7-0.1,1.1-0.6,1.2-1.3C116.7,115.5,116.5,115,115.7,114.7z"/>
	<path class="st12" d="M98.4,39.1c-0.2-0.8-0.8-1.1-1.6-1c-1.3,0.1-2.5,0.3-3.8,0.5c-0.3,0-0.6,0.1-0.9,0.2c-0.5,0.1-1,0.3-1.6,0.4
		c-1.2,0.2-2.3,0.5-3.5,0.7c-0.4,0.1-0.9,0.2-1.3,0.4c-1,0.5-1.3,1.5-0.9,2.5c0.3,0.6,0.6,1.2,1,1.8c1.1,1.5,2.3,2.8,3.7,4
		c1.1,0.9,2.1,1.8,3.2,2.6c0.3,0.3,0.8,0.4,1.2,0.5c0.5,0.1,1-0.2,1.1-0.8c0.1-0.3,0.1-0.6,0-0.9c-0.2-0.5-0.4-1-0.6-1.5
		c-0.6-1.1-1.6-1.9-2.4-2.8c-0.5-0.6-1.1-1.1-1.4-1.9c0.2-0.2,0.3-0.3,0.3-0.3c0.7-0.2,1.3-0.4,2-0.6c1.7-0.3,3.2-1.3,4.8-1.9
		c0.5-0.2,0.7-0.6,0.6-1.1C98.5,39.7,98.5,39.4,98.4,39.1z"/>
	<path class="st12" d="M130.9,22.5c-0.9,0.1-1.7,0.4-2.6,0.6c-0.5,0.1-1,0.4-1.7,0.2c-0.2-0.8,0.2-1.3,0.4-1.9
		c0.4-0.9,0.9-1.8,1.2-2.7c0.2-0.5,0.3-1.1,0-1.6c-0.3-0.6-0.7-1.2-1.1-1.7c-0.3-0.4-0.9-0.4-1.3,0c-0.3,0.3-0.6,0.7-0.8,1.1
		c-1.1,1.8-2.2,3.7-3.2,5.5c-0.3,0.5-0.4,1-0.6,1.5c-0.3,0.8-0.6,1.7-0.9,2.5c-0.2,0.5-0.1,1,0.2,1.4c0.3,0.4,0.7,0.7,1,1.1
		c0.5,0.8,1.2,1,2,0.7c0.2-0.1,0.4-0.1,0.6-0.2c2.4-1,4.7-1.9,7.1-2.9c0.8-0.3,1.4-0.9,1.9-1.6c0.1-0.2,0.2-0.5,0.1-0.7
		C132.9,23,131.7,22.3,130.9,22.5z"/>
	<path class="st12" d="M130.8,170.3c-0.9,0.2-1.9,0.2-2.7,0.6c-0.5,0.3-1.1,0.4-1.7,0.2c-0.3-0.5,0-0.9,0.2-1.3
		c0.4-0.8,0.8-1.6,1.2-2.4c0.8-1.6,0.4-3.1-0.8-4.4c-0.3-0.3-0.7-0.4-1,0c-0.3,0.3-0.6,0.7-0.8,1.1c-0.9,1.4-1.7,2.9-2.6,4.3
		c-0.6,1-1.2,2.1-1.6,3.2c-0.2,0.5-0.2,1-0.4,1.4c-0.6,1.1-0.4,2.1,0.5,2.9c0.1,0.1,0.1,0.2,0.2,0.2c0.6,1,1.4,1.1,2.4,0.8
		c0.2-0.1,0.5-0.1,0.7-0.2c2.2-0.9,4.4-1.8,6.6-2.7c0.7-0.3,1.2-0.8,1.8-1.3c0.3-0.3,0.4-0.7,0.2-1.1
		C132.7,170.8,131.8,170.1,130.8,170.3z"/>
	<path class="st12" d="M91.8,62.3c-0.2-0.8-0.7-1.2-1.5-1.2c-0.8,0-1.7,0-2.5,0c-0.9-0.1-1.8-0.2-2.6-0.4c-0.5-0.1-0.7-0.5-0.5-1
		c0.3-0.7,0.7-1.4,1-2.1c0.3-0.6,0.5-1.2,0.5-1.8c0-0.7-0.1-1.3-0.6-1.8c-0.2-0.3-0.4-0.6-0.6-0.8c-0.9-1.1-1.4-1.1-2,0.2
		c-0.3,0.7-0.5,1.4-0.9,2c-1.2,2.3-2.4,4.7-4,6.7c-0.9,1.1-0.4,2.4,0.9,2.8c0.3,0.1,0.6,0.1,0.9,0.1c2,0,3.9-0.1,5.9-0.1
		c1.5,0,2.9-0.4,4.4,0c0.2,0.1,0.4,0,0.6,0c1-0.1,1.4-0.6,1.3-1.6C92,63,91.9,62.7,91.8,62.3z"/>
	<path class="st12" d="M104,14.9c-0.8-0.2-1.5-0.4-2.3-0.7c-2-0.6-4-1.2-5.9-1.8c-0.1,0-0.3-0.1-0.4-0.1c-0.8,0-1.4,0.4-2,0.8
		c-0.7,0.4-0.8,1.1-0.2,1.7c0.8,0.8,1.7,1.3,2.8,1.5c0.3,0,0.7,0,1,0.1c0.8,0.1,1.5,0.3,2.2,0.8c0.5,0.4,0.5,0.9,0,1.2
		c-0.9,0.6-1.9,1.3-2.8,1.9c-0.8,0.5-1.5,1.2-2.1,1.8c-0.4,0.4-0.6,0.9-0.4,1.5c0.1,0.2,0.1,0.5,0.1,0.7c0.2,1,0.8,1.4,1.8,1.2
		c0.8-0.2,1.6-0.6,2.3-1.1c1-0.7,2-1.4,3-2.2c0.5-0.4,1.1-0.9,1.6-1.3c0.8-0.7,1.6-1.4,2.4-2.2c0.3-0.3,0.6-0.5,0.8-0.8
		c0.5-0.6,0.5-1,0.1-1.6C105.5,15.6,104.8,15.1,104,14.9z"/>
	<path class="st12" d="M122.5,59.5c-0.1-0.2-0.1-0.5-0.2-0.7c-0.2-1.4-1.1-2.5-1.7-3.8c-1-0.9-2-1.8-3-2.6c-0.3-0.3-0.8,0-0.8,0.5
		c0,0.9,0.1,1.9,0.2,2.8c0,0.3,0.1,0.6,0.2,0.9c0.5,2.3,1,4.5,1.5,6.8c0.2,0.7-0.1,1-0.8,1.1c-0.2,0-0.5,0-0.7,0
		c-0.8,0.1-1.7,0.2-2.5,0.3c-1.1,0.1-2.2,0.4-3.3,0.5c-0.7,0.1-1.1,0.4-1.3,1c-0.3,0.6-0.1,1.2,0.4,1.6c0.5,0.5,1.1,0.7,1.7,0.7
		c0.1,0,0.1,0,0.2,0c3.2-0.3,6.4-1.1,9.6-1.8c0.3-0.1,0.6-0.2,0.8-0.4c0.9-0.5,1.2-0.9,0.9-1.9C123.3,62.7,123.2,61,122.5,59.5z"/>
	<path class="st12" d="M151.7,158.6c-1.4-1.7-2.7-3.4-4.2-5c-1-1.1-2.3-1.3-3.6-1.5c-0.4-0.1-0.8,0.3-0.8,0.7c0.1,1,0.1,2.1,0.7,3
		c0.5,0.7,1,1.4,1.5,2c0.4,0.5,0.9,0.9,1.3,1.4c0.9,1.2,0.8,1.5-0.6,1.8c-1.6,0.3-3.3,0.8-4.8,1.6c-0.9,0.5-1.2,1.1-0.7,2.1
		c0.3,0.6,0.7,0.9,1.4,1c0.3,0,0.7,0,1,0c1.2,0.1,2.3-0.3,3.5-0.5c2-0.3,3.8-1.2,5.5-2.1c0.5-0.3,0.9-0.6,1.2-1
		c0.6-0.7,0.5-1.3-0.1-2C152.6,159.7,152.2,159.2,151.7,158.6z"/>
	<path class="st12" d="M105.3,163.4c-0.6-0.5-1.3-0.8-2-1c-0.7-0.2-1.3-0.4-2-0.6c-1.6-0.5-3.3-1-4.9-1.6c-1.1-0.4-2.1,0-3.1,0.6
		c-0.6,0.4-0.8,1.1-0.3,1.7c0.2,0.3,0.5,0.5,0.7,0.7c0.7,0.5,1.4,0.7,2.2,0.8c1,0.1,2.1,0.3,3,0.9c0.3,0.2,0.5,0.4,0.7,0.6
		c-0.1,0.5-0.5,0.7-0.8,0.9c-1.2,0.8-2.4,1.6-3.5,2.4c-1.5,1.1-1.7,1.6-1.3,3.4c0,0,0,0.1,0,0.1c0.2,0.8,0.8,1.2,1.6,1
		c0.5-0.1,1.1-0.3,1.5-0.6c1.5-1,3-2,4.3-3.1c1.2-1,2.3-2.1,3.5-3.2c0.2-0.2,0.4-0.4,0.6-0.6C106.2,165,106.1,164.2,105.3,163.4z"/>
	<polygon class="st12" points="76.1,68.6 76.1,68.6 76.1,68.6 	"/>
	<path class="st12" d="M76.3,65.8c-0.1-0.7-0.4-1.2-1-1.3c-1.6-0.3-2.8-1.3-4-2.1c-1.2-0.8-2.4-1.7-3.6-2.6
		c-0.1-0.1-0.3-0.2-0.4-0.2c-0.6-0.3-1,0-1.2,0.6c-0.1,0.2-0.1,0.5-0.2,0.7c-0.4,1.1,0.2,1.8,1.2,2.2c0.1,0,0.3,0.1,0.4,0.1
		c0.6,0.2,0.9,0.5,1.2,1c0.1,0.3,0.3,0.6,0.5,0.9c0.3,0.6,0.2,0.9-0.4,1.2c-0.6,0.3-1.1,0.6-1.7,0.9c-1,0.6-1.9,1.3-2.8,1.9
		c-1.9,1.1-1.6,2.3-0.4,3.6c0.4,0.4,0.8,0.6,1.3,0.4c0.6-0.1,1.2-0.3,1.7-0.5c1.9-0.9,3.7-1.8,5.6-2.7c1.2-0.5,2.4-1,3.5-1.5
		C76.3,67.7,76.4,66.7,76.3,65.8z"/>
	<path class="st12" d="M20.8,73.9c-0.9-1.3-1.7-2.7-2.6-4c-0.2-0.3-0.5-0.6-0.8-0.9c-0.5-0.5-1.1-0.5-1.8-0.3
		c-1.2,0.5-1.6,1.3-1.4,2.6c0.2,0.8,0.6,1.6,1.1,2.3c0.3,0.4,0.5,0.7,0.8,1.1c0.3,0.5,0.1,0.9-0.4,1c-0.1,0-0.2,0-0.3,0
		c-1.1,0.1-2.3,0.2-3.4,0.3c-0.7,0.1-1.4,0.3-2.2,0.5c-0.4,0.1-0.7,0.3-1,0.5c-0.9,0.8-0.8,2,0.3,2.5c0.9,0.5,1.9,0.7,3,0.5
		c1.1-0.3,2.2-0.2,3.4,0c1.2,0.2,2.3,0.3,3.3,0.4c0.3,0,0.5,0,0.6,0c1.2,0,1.4-0.3,1.8-1.4c0.1-0.4,0.2-0.9,0.4-1.3
		c0.6-1.1,0.3-2-0.3-2.9C21.3,74.6,21.1,74.2,20.8,73.9z"/>
	<path class="st12" d="M31.6,133.7c-0.6-0.7-1.2-0.9-2.1-0.5c-0.7,0.2-1.2,0.6-1.7,1.1c-0.5,0.6-1.1,1.2-1.6,1.7
		c-0.5,0.5-0.8,0.4-1.1-0.3c-0.1-0.4-0.2-0.8-0.3-1.1c-0.4-1.3-0.9-2.6-1.6-3.8c-0.3-0.6-0.7-1.1-1.3-1.4c-0.9-0.5-1.6-0.2-2,0.7
		c-0.3,0.7-0.4,1.4-0.2,2.2c0.2,0.5,0.4,1,0.6,1.5c0.2,0.5,0.3,0.9,0.4,1.4c0.1,0.7,0.2,1.4,0.4,2c0.1,0.4,0.1,0.9,0.2,1.3
		c-0.1,0-0.1,0-0.2,0c0.1,0.8,0.2,1.6,0.3,2.3c0.1,0.7,0.6,1.1,1.2,1.1c0.8,0.1,1.6,0.1,2.3,0.1c1.1,0.1,1.9-0.3,2.6-1.1
		c0.7-0.9,1.5-1.7,2.3-2.5c0.7-0.9,1.5-1.7,2.2-2.6c0.4-0.5,0.4-1.1,0-1.6C31.9,134.1,31.8,133.9,31.6,133.7z"/>
	<path class="st12" d="M67.8,117.4c-0.1-0.8-0.2-1.7-0.3-2.5c-0.1-0.8-0.5-1.1-1.3-1.2c-0.6-0.1-1.2-0.1-1.8-0.2
		c-1.1-0.2-2,0.1-2.8,0.9c-0.8,0.8-1.6,1.6-2.4,2.4c-0.8,0.8-1.5,1.7-2.1,2.6c-0.7,1-0.6,1.7,0.2,2.5c0.6,0.6,1.3,0.7,2,0.5
		c1-0.3,1.8-0.9,2.5-1.8c0.4-0.6,0.8-1.2,1.6-1.5c0.2,0.4,0.3,0.6,0.4,0.9c0.3,0.8,0.5,1.7,0.9,2.5c0.3,0.8,0.7,1.6,1.1,2.4
		c0.2,0.3,0.4,0.7,0.7,0.9c1,0.9,2.3,0.5,2.6-0.8c0.2-0.9,0.3-1.8-0.2-2.6C68.1,120.9,68,119.1,67.8,117.4z"/>
	<path class="st12" d="M79.7,28.1c-0.4-0.2-0.8-0.3-1.3-0.3c-0.6,0-1.3,0.1-1.9,0.1c-0.4,0-0.8,0.1-1.2,0.1
		c-1.5-0.1-2.9-0.3-4.4-0.5c-0.5-0.1-1.1-0.1-1.6-0.2c-0.8-0.1-1.2,0.2-1.5,0.9c-0.2,0.6-0.4,1.2-0.7,1.8c-0.4,0.9-0.4,1.9,0.2,2.7
		c1.2,1.8,2.3,3.6,3.5,5.3c0.2,0.3,0.5,0.6,0.8,0.9c0.2,0.2,0.4,0.3,0.7,0.3c0.8,0.1,2.1-0.8,2.2-1.7c0.1-0.9,0.1-1.9-0.5-2.7
		c-0.3-0.5-0.7-1-1.1-1.4c-0.2-0.3-0.5-0.7-0.3-1.1c0.2-0.4,0.6-0.4,1-0.4c0.2,0,0.5,0,0.7,0c0.5,0,1,0,1.5,0c1.2,0,2.4-0.4,3.6-0.8
		c0.8-0.3,1.1-1,1.1-1.8C80.8,28.6,80.2,28.3,79.7,28.1z"/>
	<path class="st12" d="M79.8,176c-1-0.5-2-0.8-3.1-0.4c-0.6,0.2-1.1,0.2-1.7,0.1c-0.4-0.1-0.9-0.1-1.3-0.1c-0.8,0-1.6-0.1-2.3-0.3
		c-0.7-0.2-1.6-0.2-2.3-0.3c-0.6,0-0.9,0.3-1.1,0.8c-0.2,0.7-0.5,1.3-0.7,2c-0.1,0.3-0.1,0.7-0.2,1.1c0.1,0.4,0.2,1,0.4,1.4
		c1.1,1.8,2.1,3.7,3.5,5.4c0.3,0.4,0.7,0.7,1,1c0.2,0.1,0.5,0.2,0.7,0.2c1.7-0.3,2.5-1.5,2-3.1c-0.1-0.4-0.3-0.7-0.5-1.1
		c-0.2-0.4-0.5-0.8-0.8-1.2c-0.2-0.2-0.4-0.5-0.5-0.7c-0.4-0.6-0.2-1,0.5-1c0.5,0,1.1,0,1.6,0c1.4-0.1,2.8-0.3,4.2-0.7
		c0.3-0.1,0.6-0.2,0.8-0.3C80.7,178.3,80.9,176.5,79.8,176z"/>
	<path class="st12" d="M79.7,94.9c-0.2-0.3-0.5-0.5-0.9-0.5c-0.2,0-0.4,0.1-0.6,0.1c-1.5,0-3,0-4.4,0c-0.7,0-1-0.4-0.8-1.1
		c0.3-0.9,0.5-2,1-2.8c0.5-0.9,0.5-1.7,0-2.5c-0.3-0.5-0.4-1-0.7-1.5c-0.1-0.3-0.4-0.5-0.7-0.9c-0.8,0.8-1.1,1.6-1.4,2.5
		c-0.4,1.5-1.1,2.9-1.9,4.2c-0.1,0.2-0.3,0.4-0.4,0.7c-0.4,1-0.9,2-1.6,2.8c-0.3,0.3-0.4,0.7-0.2,1.1c0.9,2.2,1.5,2.9,3.8,2.7
		c0.1,0,0.3,0,0.4-0.1c0.8-0.1,1.6-0.1,2.4-0.2c0.4,0,0.9-0.1,1.3-0.2c1.2-0.3,2.3-0.4,3.5-0.4c0.5,0,1-0.1,1.5-0.2
		c0.7-0.2,0.9-0.8,0.7-1.4C80.4,96.3,80,95.6,79.7,94.9z"/>
	<path class="st12" d="M161.5,42.4c-0.7-0.2-1.5-0.4-2.3-0.6c-2.7-0.5-5.4-0.7-8.1-0.9c-0.5,0-1.1,0.1-1.6,0.3
		c-0.4,0.1-0.6,0.5-0.6,0.9c0.1,1.5,1.1,2.3,2.2,2.3c1.8,0,3.6,0.1,5.4,0.1c0.3,0,0.5,0.1,0.9,0.3c-0.1,0.3-0.2,0.5-0.3,0.6
		c-1.3,1.1-2.6,2.2-3.9,3.2c-0.6,0.4-1,0.9-1.3,1.6c-0.4,0.8-0.1,1.8,0.7,2.3c0.5,0.3,1,0.4,1.6,0.3c0.6-0.1,1.1-0.3,1.6-0.6
		c1.4-0.8,2.4-1.8,3.4-3c0.7-0.9,1.5-1.8,2.5-2.5c0.4-0.3,0.8-0.7,1.2-1.1c0.3-0.4,0.4-0.9,0.2-1.4
		C162.9,43.3,162.4,42.7,161.5,42.4z"/>
	<path class="st12" d="M23.4,34.6c-0.4,0.1-0.8,0.2-1.1,0.4c-2.9,1.3-5.7,2.7-8.6,4c-0.6,0.3-0.9,0.7-1,1.4c0,0.6,0,1.2,0,1.8
		c0,0.7,0.4,1.2,1.1,1.2c1.3,0.2,2.3,0.9,3.3,1.6c0.6,0.4,1.2,0.8,1.8,1.3c0.7,0.5,1.3,1,2,1.5c0.3,0.2,0.6,0.4,0.9,0.5
		c0.5,0.1,1-0.2,1.1-0.7c0.1-0.7,0.2-1.4-0.1-2c-0.3-0.6-0.8-0.7-1.3-0.8c0,0-0.1,0-0.1,0c-0.7-0.2-1.2-0.6-1.4-1.4
		c-0.1-0.4-0.3-0.8-0.6-1.4c0.3-0.2,0.4-0.4,0.7-0.5c0.4-0.2,0.9-0.3,1.2-0.5c1.2-0.9,2.4-1.8,3.8-2.5c0.4-0.2,0.8-0.6,0.9-1.2
		c0.1-0.9-0.4-1.6-1-2.2C24.5,34.4,24,34.4,23.4,34.6z"/>
	<path class="st12" d="M12.8,109.9c-0.3-1.9-0.3-1.9-2.1-2.6c-0.6-0.2-1.1-0.2-1.7,0c-1,0.4-2,0.8-2.9,1.4c-0.9,0.6-1.9,1.1-2.8,1.6
		c-0.6,0.4-1.3,0.7-1.9,1.1c-0.7,0.4-1.1,1-0.9,1.9c0.1,0.3,0.1,0.7,0.2,1c0,1,1.2,1.7,2.1,1.1c1.7-1.1,3.7-1.4,5.3-2.6
		c0.5-0.4,1-0.1,1.2,0.6c0,0.2,0,0.5,0.1,0.7c0.2,1.1,0.3,2.3,0.6,3.4c0.2,0.7,0.5,1.3,0.8,1.9c0.2,0.4,0.6,0.6,1,0.4
		c0.4-0.1,0.9-0.2,1.3-0.4c0.2-0.1,0.5-0.4,0.6-0.6c0.1-0.3,0.1-0.7,0.2-0.9c-0.1-0.9-0.3-1.7-0.3-2.4
		C13.3,113.5,13.1,111.7,12.8,109.9z"/>
	<path class="st12" d="M87.9,157.1c-0.4-0.3-0.9-0.5-1.4-0.5c-1.1,0-2.2-0.1-3.2,0.1c-2.1,0.4-4.1,0.9-6.2,1.4
		c-0.6,0.2-1.1,0.8-1,1.5c0,0.3,0.1,0.6,0.2,0.9c0.5,1.1,1.2,2.2,2,3.1c1.5,1.6,3.3,2.9,4.9,4.2c0.4,0.3,0.9,0.6,1.4,0.8
		c1,0.5,1.8-0.1,1.6-1.3c-0.1-0.5-0.3-1-0.5-1.4c-0.5-0.9-1.1-1.6-1.8-2.3c-0.4-0.4-0.9-0.7-1-1.4c0.3-0.1,0.5-0.2,0.7-0.3
		c0.9-0.3,1.9-0.5,2.8-0.8c0.5-0.1,0.9-0.3,1.3-0.6C89.1,159.5,89.1,157.9,87.9,157.1z"/>
	<path class="st12" d="M88.2,141c-0.1-0.5-0.4-0.7-0.9-0.8c-0.6-0.1-1.1,0.1-1.6,0.4c-1.5,0.8-3.1,1.2-4.5,2.2c0,0-0.1,0-0.1,0.1
		c-0.7,0.3-1.2,0.1-1.3-0.6c-0.1-0.4,0-0.8-0.1-1.2c-0.1-1.5-0.4-3-1-4.3c-0.3-0.7-0.8-1.2-1.6-0.7c-0.2,0.1-0.4,0.1-0.6,0.2
		c-0.9,0.3-1.2,0.7-1.2,1.7c0,0.2,0.1,0.6,0.2,0.9c0.1,1.1,0.3,2.2,0.4,3.2c0.1,1.5,0.2,3,0.4,4.4c0,0.6,0.3,1.1,0.8,1.3
		c0.9,0.4,1.8,0.7,2.9,0.4c1.1-0.4,2.2-0.8,3.2-1.5c0.6-0.4,1.4-0.8,2-1.2c0.9-0.5,1.7-0.9,2.6-1.4c0.6-0.3,0.9-0.8,0.8-1.5
		C88.4,142.1,88.3,141.5,88.2,141z"/>
	<path class="st12" d="M12.5,95.1c-0.5-1.1-1.1-2.1-2-3c-1.6-1.7-3.5-3-5.3-4.5C4.8,87.4,4.4,87.2,4,87c-1-0.4-1.6,0.2-1.5,1.2
		c0,0.2,0.1,0.4,0.1,0.6c0.2,1,0.8,1.8,1.5,2.5c0.4,0.5,0.9,0.9,1.3,1.4c0.4,0.4,0.3,0.9-0.3,1c-1,0.3-2,0.5-3,0.8
		c-0.8,0.2-1.3,0.6-1.8,1.2c-0.6,0.8-0.5,1.7,0.2,2.4c0.4,0.4,1,0.7,1.6,0.7c0.5,0,1.1,0,1.6,0c2.1,0.2,6.3-1.1,7.9-1.5
		c0.7-0.2,1-0.7,1-1.5C12.7,95.7,12.6,95.3,12.5,95.1z"/>
	<path class="st12" d="M164.3,148.2c-0.2-0.6-0.5-0.9-1-0.9c-0.5,0-1,0-1.4,0.2c-0.9,0.3-1.8,0.3-2.8,0c-0.7-0.2-0.9-0.4-0.7-1.1
		c0.2-0.9,0.6-1.7,0.9-2.5c0.4-1.2,0.8-2.4,1.1-3.7c0.1-0.5,0.1-1,0-1.5c0-0.4-0.4-0.6-0.7-0.6c-1.8-0.1-2.5,0.4-3.1,2.1
		c0,0.1-0.1,0.2-0.1,0.3c-0.8,2.5-2.1,4.7-3.6,6.8c-0.2,0.3-0.4,0.5-0.6,0.9c-0.1,0.3-0.2,0.6-0.1,0.9c0.3,1.1,0.9,1.9,2.1,2.1
		c1.8,0.3,3.7,0.5,5.6,0.8c0,0,0-0.1,0-0.1c0.5,0,1,0.1,1.5,0c0.8-0.1,1.7-0.3,2.4-0.6c0.8-0.3,1-0.9,0.9-1.7
		C164.5,149,164.4,148.6,164.3,148.2z"/>
	<path class="st12" d="M87.5,9c-0.3-0.1-0.7-0.1-1-0.1c-0.8,0-1.7,0-2.5,0c-0.9,0-1.8,0.1-2.6,0.4c-1.2,0.3-2.4,0.6-3.6,0.9
		c-1.4,0.3-1.8,1.2-1.2,2.6c0.5,1.2,1.3,2.2,2.2,3.2c1.6,1.8,3.7,3.1,5.6,4.5c0.2,0.1,0.4,0.3,0.7,0.3c0.8,0.3,1.4-0.1,1.5-0.9
		c0.1-0.7-0.1-1.3-0.4-1.8c-0.5-0.9-1.2-1.6-1.9-2.3c-0.4-0.4-0.9-0.7-1-1.4c0.2-0.1,0.3-0.2,0.5-0.2c1-0.3,2.1-0.5,3.1-0.8
		c0.5-0.2,1-0.4,1.4-0.7c0.7-0.5,0.9-1.2,0.8-2C88.8,9.7,88.2,9.3,87.5,9z"/>
	<path class="st12" d="M165.8,93.3c0.7-1.1,1.1-2.2,1-3.5c0-0.5,0-1.1-0.1-1.6c-0.1-0.8-0.5-1.4-1.3-1.7c-0.7-0.2-1.3,0.2-1.8,1
		c-0.3,0.5-0.6,1-0.8,1.6c-1,2.2-2.1,4.3-3.8,6c-0.6,0.6-0.9,1.3-1,2.1c-0.1,0.4-0.1,0.8,0.2,1.2c0.4,0.6,0.8,1.3,1.2,1.9
		c0.6,0.7,1.2,1.4,2,1.8c0.7,0.4,1.4,0.8,2,1.2c0.4,0.2,0.9,0.5,1.3,0.7c0.3,0.1,0.7,0.2,1-0.1c0.4-0.3,0.7-0.7,0.9-1.1
		c0.1-0.2,0.1-0.6-0.1-0.8c-0.3-0.5-0.7-1.1-1.2-1.5c-0.5-0.5-1.1-1-1.6-1.6c-0.4-0.4-0.5-0.7-0.2-1.2
		C164.2,96.2,164.9,94.7,165.8,93.3z"/>
	<path class="st12" d="M123,93.1c-0.6,0-1.2-0.1-1.7-0.3c-0.8-0.3-1.7-0.6-2.5-0.8c-2.2-0.4-4.4-0.8-6.6-1.2
		c-0.4-0.1-0.9-0.2-1.2,0.3c-0.3,0.4,0,0.9,0.2,1.3c0.1,0.2,0.3,0.4,0.4,0.6c0.7,0.8,1.6,1.3,2.6,1.6c0.9,0.2,1.8,0.4,2.7,0.7
		c0.6,0.2,1.3,0.3,1.9,0.8c-0.2,0.3-0.2,0.5-0.4,0.6c-1.3,1-2.5,2.1-3.8,3.1c-0.5,0.4-0.9,0.8-1.3,1.2c-0.6,0.8-0.4,1.8,0.3,2.4
		c0.9,0.7,1.6,0.8,2.6,0.1c0.4-0.2,0.7-0.6,1-0.9c0.4-0.3,0.7-0.7,1.1-1c1-0.9,2-1.7,3-2.6c0.6-0.6,1.2-1.1,1.8-1.8
		c0.5-0.5,0.9-1.2,1.4-1.7c0.2-0.3,0.3-0.7,0.1-1C124.4,93.7,123.9,93.1,123,93.1z"/>
	<polygon class="st12" points="76.1,68.6 76.1,68.6 76.1,68.6 	"/>
	<path class="st12" d="M87.3,77.1c-0.8-1.4-2.2-2.3-3.3-3.4c-0.1-0.1-0.2-0.1-0.2-0.2c-0.8-0.5-1.6-1-2.3-1.6
		c-0.7-0.4-1.3-1-1.9-1.4c-0.8-0.5-1.7-1-2.3-1.8c-0.3-0.4-0.7-0.3-1.1-0.2c0.1,1.2,0.5,2.3,1.3,3.2c1,1.1,2,2.2,3.3,3
		c0.8,0.5,1.5,1.1,2.3,1.6c0.2,0.2,0.3,0.4,0.6,0.7c-0.2,0.2-0.4,0.3-0.6,0.4c-0.8,0.3-1.7,0.6-2.5,0.8c-1.6,0.5-3.4,0.7-4.9,1.5
		c-0.3,0.1-0.6,0.2-0.8,0.4c-0.3,0.2-0.4,0.5-0.2,0.8c0.5,0.8,0.9,1.5,1.5,2.2c0.4,0.5,1.1,0.7,1.8,0.5c1.4-0.4,2.8-0.7,4.1-1.3
		c1.6-0.7,3.2-1.4,4.8-2c0.3-0.1,0.6-0.2,0.8-0.4c0.6-0.3,0.7-0.8,0.5-1.4C87.8,78.1,87.6,77.6,87.3,77.1z"/>
	<path class="st12" d="M142.6,103c-0.7-0.6-1.2-1.3-1.7-2c-1-1.6-2.5-2.9-3.7-4.4c-0.2-0.2-0.4-0.3-0.6-0.5c-0.3-0.2-0.6-0.3-1-0.2
		c-0.3,0.1-0.6,0.1-0.9,0.2c-0.7,0.3-1,0.7-0.9,1.5c0.2,0.9,0.6,1.8,1.2,2.5c0.5,0.6,1,1.2,1.5,1.9c0.3,0.4,0.5,0.9,0.6,1.3
		c0.1,0.3,0,0.6-0.3,0.8c-0.3,0.2-0.7,0.3-1.1,0.5c-1,0.4-2,0.8-3,1.3c-0.4,0.2-0.8,0.5-1.1,0.7c-0.6,0.5-0.7,0.9-0.4,1.7
		c0.1,0.2,0.2,0.4,0.3,0.7c0.3,0.6,0.8,0.9,1.7,0.8c0.2-0.1,0.7-0.2,1.1-0.3c0.5-0.2,1-0.4,1.5-0.6c2.3-0.7,4.4-1.7,6.6-2.7
		c0.3-0.1,0.6-0.3,0.9-0.6c0.3-0.3,0.5-0.7,0.2-1.1C143.4,104,143.1,103.4,142.6,103z"/>
	<path class="st12" d="M114.8,83.7c-0.2-0.6-0.6-0.8-1.3-0.7c-0.2,0.1-0.5,0.2-0.7,0.3c-1.2,0.5-2.6,0.5-3.9,0.7
		c-0.2,0-0.4-0.1-0.6-0.1c-0.1-0.7,0.2-1.1,0.5-1.5c0.3-0.5,0.5-1.1,0.8-1.6c0.5-1,0.9-2.1,1.4-3.1c0.1-0.3,0.3-0.5,0.4-0.8
		c0.3-0.8-0.3-1.9-1.2-2.1c-0.2,0-0.4,0-0.5,0.1c-0.4,0.4-0.8,0.8-1.1,1.2c-0.5,0.8-1,1.6-1.5,2.4c-0.2,0.4-0.5,0.8-0.7,1.1
		c-0.7,1.3-1.4,2.5-2.1,3.8c-0.5,0.8-1.1,1.6-1.7,2.4c-0.5,0.7-0.5,1.2,0.1,1.9c0.6,0.7,1.3,1.1,2.2,1c1-0.1,2-0.3,3.1-0.5
		c2-0.4,4-1.1,6.1-1.2c0,0,0.1,0,0.1,0c0.9-0.2,1.3-0.7,1.1-1.6C115.2,84.8,115,84.3,114.8,83.7z"/>
	<path class="st12" d="M167.6,69c-0.5-0.6-1.2-0.5-1.7,0.1c-0.4,0.5-0.6,1-0.7,1.6c-0.1,1.6-0.2,3.2-0.3,4.7c0,0.5-0.2,1.1-0.3,1.6
		c-0.2,0.5-0.5,0.7-1,0.6c-0.6-0.1-1.1-0.3-1.7-0.4c-1.4-0.4-2.9-0.5-4.2-0.6c-0.5,0-0.9,0-1.3,0.1c-1,0.1-1.5,1-1.2,2
		c0.6,1.5,1.7,2.3,3.2,2.5c0.5,0.1,1.1,0.1,1.6,0.1c2.1,0.2,4.2,0.4,6.3,0.5c0.3,0,0.7-0.1,0.8-0.3c0.5-0.7,1.1-1.4,1.1-2.4
		c0.1-1.5,0.3-3.1,0.5-4.6c0.2-1.7-0.1-3.3-0.7-4.8C167.9,69.4,167.7,69.2,167.6,69z"/>
	<path class="st12" d="M80.1,107.7c-0.2-0.2-0.5-0.4-0.7-0.5c-1-0.7-2-1.3-2.9-2c-1.1-0.8-2.1-1.7-3.2-2.6c-0.5-0.5-1.1-0.8-1.8-1
		c-0.3-0.1-0.6,0.2-0.6,0.5c0,0.1,0,0.3,0,0.4c0.4,1.1,0.8,2.2,1.8,3c1,0.7,2,1.5,2.9,2.3c0.3,0.3,0.7,0.6,1,0.9
		c0.3,0.4,0.2,0.7-0.2,1c-0.1,0-0.2,0.1-0.3,0.1c-1.7,0.8-3.5,1.6-5.2,2.5c-2.2,1.2-2.3,1.4-0.8,3.7c0.2,0.3,0.5,0.5,0.8,0.6
		c0.2,0.1,0.6,0.2,0.9,0.3c0.5-0.2,1-0.3,1.5-0.6c0.9-0.5,1.8-1,2.7-1.6c1.6-0.9,3.1-1.9,4.7-2.8c0.2-0.1,0.3-0.2,0.5-0.3
		c0.5-0.3,0.6-0.8,0.5-1.3C81.4,109.3,81,108.4,80.1,107.7z"/>
	<path class="st12" d="M113.7,142.7c-0.4,0.1-0.8,0.2-1.1,0.4c-1.4,0.8-2.9,1.4-3.9,2.9c-0.3,0.5-0.8,1-1.5,1.3
		c-0.2-0.2-0.5-0.4-0.6-0.6c-0.5-0.8-0.9-1.6-1.3-2.3c-0.6-1-1.3-2-2-2.9c-0.4-0.6-1.1-0.5-1.4,0.2c-0.3,0.6-0.3,1.1-0.2,1.7
		c0.2,0.9,0.5,1.7,0.8,2.6c0.7,2.2,2.1,4.1,2.6,6.3c0,0.2,0.2,0.4,0.3,0.5c0.3,0.4,0.6,0.8,1.1,0.9c1,0.1,2,0,2.7-0.9
		c0.6-0.7,1.1-1.4,1.6-2.1c0.8-1.2,1.6-2.4,2.4-3.5c0.5-0.8,1.1-1.5,1.6-2.3c0.3-0.4,0.4-0.8,0.3-1.3
		C115,142.9,114.4,142.5,113.7,142.7z"/>
	<path class="st12" d="M19,140c-0.4-0.7-1-1.1-1.8-1.1c-0.5,0.1-1,0.2-1.4,0.4c-0.7,0.3-1.3,0.7-1.9,1.1c-1.2,0.7-2.5,1.4-3.7,2.2
		c-0.8,0.5-1.7,1-2.5,1.6c-0.4,0.3-0.6,0.7-0.4,1.2c0.1,0.5,0.4,0.9,0.6,1.4c0.2,0.7,0.7,1.1,1.3,1.5c1.8,1.2,3.6,2.6,5.4,3.9
		c0.5,0.3,0.9,0.8,1.4,1.1c0.5,0.3,1,0.6,1.5,0.8c0.4,0.2,0.8-0.2,0.7-0.7c-0.3-1.2-0.8-2.3-1.8-3.1c-1.1-0.8-2.2-1.7-3.3-2.5
		c-0.3-0.2-0.5-0.4-0.8-0.7c-0.2-0.2-0.2-0.6,0.1-0.8c0.2-0.1,0.3-0.2,0.5-0.3c1.9-0.7,3.6-1.8,5.4-2.7c0.3-0.2,0.6-0.3,0.9-0.5
		c0.6-0.4,0.8-0.8,0.5-1.5C19.4,140.7,19.2,140.4,19,140z"/>
	<path class="st12" d="M163.5,106.3c-0.6-0.1-1.3-0.1-1.9,0c-1.8,0.4-3.7,0.5-5.6,0.5c-0.2,0-0.5,0-0.7,0c-0.8,0-1.5,0.4-2.1,1
		c-0.7,0.7-0.8,1.5-0.5,2.3c0.3,0.8,0.9,1.4,1.9,1.5c0.4,0,0.9,0,1.3-0.1c0.3,0,0.7-0.1,1-0.1c1.2,0.1,2.4,0.3,3.6,0.5
		c0.7,0.1,1,0.5,0.9,1.3c0,0.7-0.1,1.4-0.2,2.1c0,0,0,0,0.1,0c0,0.9,0,1.8,0,2.7c0,0.5,0.1,0.9,0.4,1.2c0.3,0.3,0.7,0.3,1,0
		c0.4-0.4,0.7-1,0.8-1.6c0.4-2.1,0.9-4.2,1.2-6.3c0.2-1.1,0.1-2.3,0.1-3.4C164.9,107,164.4,106.4,163.5,106.3z"/>
	<path class="st12" d="M82.5,46.3c-0.2-0.1-0.4-0.2-0.7-0.3c-1.8-0.8-3.6-1.6-5.4-2.4c-1-0.4-2-0.9-3.1-1.1c-1-0.2-2.2-0.2-3.2-0.1
		c-0.7,0-1,0.7-0.5,1.3c0.3,0.4,0.8,0.8,1.2,1.1c1.6,1,3.3,2,5,2.8c0.3,0.1,0.5,0.4,0.9,0.6c-0.2,0.2-0.3,0.4-0.4,0.5
		c-1,0.7-1.9,1.3-2.9,2c-0.3,0.2-0.6,0.4-0.9,0.6c-0.8,0.5-1.3,1.3-1.8,2.1c-0.4,0.6-0.2,1.3,0.2,1.6c0.4,0.4,0.8,0.2,1.2,0
		c1.8-0.9,3.7-1.7,5.2-3c1-0.8,2.1-1.5,3.2-2c0.3-0.1,0.6-0.4,0.8-0.6c0.3-0.5,0.7-0.8,1.2-1.1C83.3,47.7,83.3,46.8,82.5,46.3z"/>
	<path class="st12" d="M168.9,60.9c-0.2-0.1-0.3-0.2-0.5-0.4c-1.5-1.2-3-2.4-4.5-3.6c-0.9-0.7-1.8-1.5-2.8-2.2
		c-0.3-0.3-0.8-0.5-1.2-0.6c-0.9-0.2-1.5,0.5-1.3,1.4c0.2,0.6,0.5,1.1,1,1.5c0.4,0.3,0.7,0.5,1.1,0.8c1,0.9,2,1.7,3,2.6
		c0.3,0.2,0.5,0.6,0.9,1c-0.5,0.2-0.7,0.4-1,0.5c-2.2,0.7-4.3,1.3-6.5,2c-0.4,0.1-0.8,0.2-1.1,0.4c-0.9,0.5-1,1.7-0.2,2.4
		c0.8,0.7,1.7,1.2,2.9,0.9c0.5-0.1,1-0.2,1.4-0.4c2.5-0.9,4.9-1.8,7.3-2.7c1.1-0.4,1.6-1.3,1.9-2.3
		C169.4,61.7,169.3,61.3,168.9,60.9z"/>
	<path class="st12" d="M18.3,63.2c-1.6-1-3.2-2.1-5-2.9c-0.4-0.1-0.8-0.2-1-0.8c1-0.8,1.9-1.7,3.1-2.3c1.2-0.6,2-1.5,2.8-2.6
		c0.5-0.7,0.5-1.2,0.1-1.6c-0.5-0.5-1-0.4-1.5-0.1c-0.7,0.3-1.4,0.8-2.1,1.1c-0.9,0.4-1.7,0.9-2.4,1.4c-1.3,0.9-2.5,2-3.9,2.6
		c-0.2,0.1-0.4,0.2-0.5,0.4c-0.4,0.5-0.9,1-1.5,1.4c-0.8,0.6-0.6,1.6,0.3,2c0.2,0.1,0.4,0.1,0.6,0.2c0.6,0.2,1.2,0.4,1.8,0.7
		c1.7,0.8,3.4,1.6,5.1,2.3c1.4,0.6,2.8,0.7,4.3,0.7c0.1,0,0.3,0,0.4-0.1c0.6-0.2,0.9-0.8,0.6-1.3C19.1,63.8,18.7,63.4,18.3,63.2z"/>
	<path class="st12" d="M155.9,83c-0.8-0.3-1.7-0.6-2.5-1c-0.8-0.4-1.6-0.8-2.3-1.3c-0.6-0.3-0.7-0.7-0.4-1.3
		c0.7-1.2,1.4-2.5,2.2-3.7c0.5-0.7,0.7-1.4,0.7-2.2c0-0.3,0-0.7,0-1c0,0,0,0,0,0c0-0.5,0-1.1,0-1.6c0-0.3-0.2-0.7-0.3-1
		c-0.1-0.3-0.6-0.3-0.8-0.1c-0.1,0.1-0.2,0.2-0.3,0.3c-0.4,1-1.1,1.8-1.8,2.5c-0.2,0.2-0.4,0.5-0.6,0.8c-1.2,1.9-2.5,3.7-3.2,5.9
		c0,0,0,0.1-0.1,0.1c-0.5,0.8-0.3,1.6,0.3,2.3c0.4,0.6,1,1,1.6,1.3c1.9,1,3.8,2.1,5.8,3c0.9,0.5,1.9,0.8,2.9,1.1
		c0.7,0.2,1.2-0.2,1.2-1C158.3,84.5,157.6,83.5,155.9,83z"/>
	<path class="st12" d="M184,63.5c-0.9-0.4-1.7-0.3-2.5,0.1c-1.6,0.9-3.1,1.7-4.7,2.6c-0.5,0.3-1,0.6-1.8,0.6
		c-0.1-0.3-0.2-0.6-0.2-0.9c0-1.2-0.1-2.4,0.1-3.6c0.3-1.4-0.4-2.4-1-3.5c-0.2-0.4-0.7-0.3-1,0c-0.4,0.4-0.5,0.9-0.5,1.4
		c-0.1,1.9-0.2,3.8-0.3,5.6c0,0.8-0.1,1.7-0.3,2.5c-0.1,0.4-0.2,0.9-0.1,1.3c0.2,1.5,1.5,2.4,3,2.2c0.8-0.1,1.7-0.4,2.4-0.8
		c2-1.1,3.9-2.3,5.8-3.6c0.9-0.6,1.5-1.5,1.8-2.4C184.8,64.3,184.6,63.8,184,63.5z"/>
	<path class="st12" d="M110,97.3c-0.7-0.3-1.4-0.7-2.1-1.1c-0.4-0.2-0.8-0.4-1.2-0.6c-2.1-0.9-4.3-1.7-6.4-2.6
		c-0.1,0-0.2-0.1-0.3-0.1c-0.6-0.1-1.2,0.4-1.1,1c0.1,0.4,0.3,0.7,0.6,1c0.9,1,2,1.7,3.3,2.2c1.1,0.4,2.1,0.8,3.2,1.3
		c0.2,0.1,0.3,0.2,0.5,0.3c0.2,0.1,0.2,0.5,0,0.6c-0.2,0.1-0.4,0.3-0.6,0.4c-1.5,0.6-3,1.1-4.4,1.6c-0.6,0.2-1.3,0.5-1.9,0.9
		c-0.3,0.2-0.7,0.4-0.9,0.7c-0.9,1-0.5,2.2,0.7,2.5c0.2,0.1,0.5,0.1,0.6,0.1c0.8,0,1.2-0.1,2.1-0.5c1.6-0.7,3.1-1.4,4.7-2.1
		c1.6-0.7,3.1-1.4,4.7-2.2c0.6-0.3,0.8-0.7,0.5-1.3C111.6,98.5,111,97.7,110,97.3z"/>
	<path class="st12" d="M70.3,83.9c-0.6-0.6-1.2-1.1-1.9-1.7c-0.4-0.4-0.9-0.8-1.3-1.2c-1.1-0.8-2.2-1.7-3.3-2.5
		c-0.7-0.5-1.4-0.9-2.1-1.3c-0.2-0.1-0.4-0.2-0.6-0.2c-0.5-0.1-1,0.4-0.9,0.9c0.1,0.4,0.3,0.8,0.5,1.1c0.9,1.1,1.8,2.2,2.7,3.3
		c0.4,0.4,0.9,0.8,1.2,1.6c-0.8,0.5-1.6,0.8-2.4,1c-1.2,0.3-2.1,1.1-3.1,1.6c-0.6,0.3-0.8,0.9-0.6,1.5c0.1,0.4,0.2,0.8,0.3,1.1
		c0.2,0.6,0.6,0.9,1.2,0.9c1,0.1,1.9-0.3,2.9-0.6c0.4-0.2,0.8-0.3,1.2-0.5c1.6-0.6,3.2-1.1,4.7-1.7c0.8-0.3,1.4-0.9,1.8-1.7
		C71,84.8,70.9,84.4,70.3,83.9z"/>
	<path class="st12" d="M102.2,72.9c-1.3,0.2-2.6,0.4-3.9,0.6c-0.2,0-0.4,0-0.6,0c-0.2-0.5,0.1-0.9,0.3-1.3c0.5-1.3,1.1-2.7,1.6-4
		c0.2-0.6,0.2-1.2,0-1.7c-0.3-0.8-0.7-1.7-1-2.5c-0.1-0.3-0.3-0.6-0.8-0.7c-0.1,0.1-0.2,0.2-0.3,0.4c-0.7,1.8-1.3,3.5-2,5.3
		c-0.9,2.1-1.1,4.3-2.1,6.3c-0.5,1,0.2,2.1,1.3,2.4c0.6,0.1,1.3,0.2,1.9,0.1c2.3-0.4,4.6-0.9,6.9-1.4c0.3-0.1,0.6-0.2,0.8-0.3
		c0.6-0.3,0.9-1,0.6-1.6C104.4,73.3,103.4,72.7,102.2,72.9z"/>
	<path class="st12" d="M24.3,95.2c-1-0.9-2.1-0.9-3.2-0.1c-0.4,0.3-0.9,0.6-1.4,0.8c-1.2,0.3-2.2,0.9-3.2,1.6
		c-0.5,0.3-1.1,0.6-1.7,0.9c-0.2,0.1-0.5,0.2-0.7,0.3c-0.8,0.5-1.1,1.8-0.7,2.6c0.5,0.8,1.1,1,1.8,0.4c1-0.7,2.1-1,3.3-1.3
		c0.1,0.3,0.2,0.5,0.2,0.8c0,0.5-0.1,1.1-0.2,1.6c-0.1,1.6,0.1,3.1,1,4.4c0.4,0.5,0.7,0.6,1.2,0.2c0.3-0.2,0.6-0.5,0.9-0.7
		c0.5-0.3,0.8-0.7,1-1.3c0.3-1.3,0.7-2.6,1-3.9c0.1-0.5,0-0.9-0.2-1.3c-0.3-0.7-0.6-1.4-0.9-2.2c0.3-0.1,0.5-0.2,0.7-0.3
		c0.9-0.2,1.1-0.9,1.3-1.6C24.8,95.8,24.6,95.5,24.3,95.2z"/>
	<path class="st12" d="M73.4,6.1c-0.9,0.5-1.8,0.9-3.1,1.1c-0.1-0.5-0.1-0.9-0.1-1.3c0-0.8,0-1.7,0-2.5c0-0.8-0.2-1.6-0.5-2.3
		c-0.2-0.5-0.5-1-1.1-1.1c-0.6,0.4-1.2,0.8-1.7,1.2c-0.3,0.2-0.5,0.5-0.6,0.8c-0.5,1-0.7,2.1-0.9,3.1c-0.3,1.3-0.1,2.5,0.5,3.7
		c0.1,0.3,0.2,0.6,0.3,1c-0.4,0.2-0.7,0.3-1,0.4c-1,0.5-1.1,1.7-0.3,2.4c0.2,0.1,0.3,0.2,0.5,0.4c0.6,0.5,1.3,0.4,1.9,0
		c0.2-0.2,0.5-0.4,0.7-0.5c0.3-0.2,0.7-0.5,1-0.5c1.3-0.3,2.5-1,3.6-1.7c0.5-0.4,1.1-0.6,1.7-0.9c0.3-0.2,0.7-0.4,1-0.7
		c0.6-0.7,0.7-1.6,0.1-2.3C74.8,5.7,74.3,5.6,73.4,6.1z"/>
	<path class="st12" d="M27.4,116.5c-0.7-0.3-1.3-0.3-2,0c-0.5,0.2-1,0.5-1.5,0.7c-0.2,0.1-0.5,0-1.1,0c0.5-0.7,0.7-1.1,1-1.5
		c1.1-1.3,1.2-2.9,1.5-4.5c0.1-0.4-0.1-0.7-0.4-0.9c-0.3-0.2-0.7-0.1-1,0.2c-0.1,0.1-0.2,0.2-0.3,0.3c-0.8,0.9-1.6,1.8-2.4,2.6
		c-1.2,1.2-2.1,2.5-3,3.8c-0.5,0.7-0.8,1.5-1,2.3c-0.2,0.6-0.2,1.3-0.2,1.9c0,0.8,0.5,1.4,1.3,1.6c0.5,0.2,1,0.2,1.6-0.1
		c1.1-0.6,2.2-1.2,3.4-1.4c1.3-0.2,2.2-1,3.4-1.5c0.2-0.1,0.4-0.3,0.5-0.5c0.3-0.6,0.6-1.1,0.9-1.7C28.2,117.4,28,116.8,27.4,116.5z
		"/>
	<path class="st12" d="M101.2,133.5c-0.1-0.4-0.3-0.6-0.7-0.7c-1.5-0.5-2.8-1.2-4-2.1c-0.7-0.5-1.6-0.7-2.4-1.1
		c-1-0.6-1.8,0.1-2.7,0.1c0,0-0.1,0-0.1,0c-0.5,0.1-0.8,0.5-0.9,1.1c0,0.4,0.1,0.8,0.4,1.1c0.4,0.5,0.9,0.8,1.4,1
		c0.5,0.2,0.9,0.4,1.3,0.7c0.1,0.1,0.2,0.3,0.1,0.4c-0.1,0.2-0.2,0.3-0.4,0.4c-0.3,0.1-0.6,0-0.9,0c-0.6,0.1-1.2,0.1-1.7,0.3
		c-1.1,0.3-2,1-3,1.6c-0.4,0.2-0.5,0.6-0.3,0.9c0.1,0.4,0.4,0.6,0.8,0.6c0.2,0,0.5,0,0.7,0c0.6,0,1.2-0.1,1.8,0
		c1.1,0.1,2.3,0.2,3.4,0.3c0,0,0-0.1,0-0.1c0.6,0,1.2,0,1.8,0c1.4,0,2.6-0.4,3.9-0.9c0.6-0.3,1.2-0.7,1.6-1.3
		c0.3-0.3,0.4-0.7,0.3-1.1C101.4,134.1,101.3,133.8,101.2,133.5z"/>
	<path class="st12" d="M73.3,153.9c-0.1,0.1-0.2,0.2-0.4,0.3c-0.9,0.5-1.8,0.8-2.8,1c0-0.4-0.1-0.6-0.1-0.9c0-1,0.1-2,0.1-3
		c0-1.1-0.3-2.2-1-3c-0.2-0.2-0.4-0.3-0.6-0.5c-0.5,0.4-0.9,0.7-1.4,1c-0.5,0.3-0.8,0.7-1,1.2c-0.4,1.1-0.6,2.3-0.8,3.5
		c-0.1,0.8-0.1,1.6,0.3,2.3c0.2,0.5,0.4,1.1,0.7,1.7c-0.3,0.2-0.6,0.4-0.9,0.4c-0.8,0.3-1,0.9-1.1,1.6c0,0.2,0.1,0.5,0.2,0.7
		c0.5,0.4,1,0.7,1.5,0.9c0.2,0.1,0.5,0.1,0.7,0c0.3-0.1,0.5-0.2,0.8-0.4c0.6-0.5,1.3-0.8,2.1-1.1c0.6-0.2,1.2-0.5,1.7-0.8
		c1.1-0.6,2-1.4,3.2-1.8c0.8-0.3,1.1-1,1.1-1.9C75.4,153.8,74.4,153.2,73.3,153.9z"/>
	<path class="st12" d="M57,159.2c-0.4-0.2-0.8-0.2-1.3,0.1c-1.1,0.7-2.3,1.2-3.5,1.5c-1,0.3-1.8,0.7-2.7,1.1
		c-1.2,0.5-1.6,1.5-2.1,2.6c-0.2,0.6,0.1,1.2,0.7,1.4c0.8,0.2,1.6,0.2,2.3-0.2c0.6-0.3,1.1-0.6,2-0.7c-0.1,0.4-0.1,0.6-0.3,0.8
		c-0.3,0.5-0.7,1-1,1.5c-0.9,1.2-0.9,2.7-1.1,4.1c0,0.3,0.2,0.6,0.5,0.7c0.3,0.1,0.6,0,0.8-0.1c0.3-0.2,0.5-0.5,0.7-0.8
		c0.3-0.4,0.6-0.8,0.9-1.1c1.7-1.2,2.8-2.9,4-4.6c0.8-1,1.3-2.2,1.5-3.5C58.8,160.6,58.3,159.8,57,159.2z"/>
	<path class="st12" d="M70.5,132.3c-0.5-0.2-1-0.1-1.4,0.1c-0.7,0.4-1.5,0.8-2.2,1.1c-0.7,0.3-1.5,0.5-2.2,0.7
		c-1.4,0.5-2.7,1.1-3.3,2.7c0,0.1-0.1,0.2-0.2,0.2c-0.7,0.9-0.3,1.8,0.9,2c0.3,0,0.6,0,0.9,0c0.4-0.1,0.7-0.3,1.1-0.4
		c0.4-0.2,0.8-0.4,1.2-0.5c0.1,0,0.4,0,0.5,0.2c0.1,0.1,0.1,0.4,0,0.5c-0.3,0.4-0.6,0.8-0.8,1.2c-0.9,1.2-1.1,2.5-1.2,3.9
		c0,0.1,0,0.2,0,0.3c0,0.4,0.1,0.8,0.5,1c0.3,0.1,0.7,0,1-0.4c0.1-0.2,0.2-0.4,0.4-0.6c0.3-0.4,0.6-0.8,0.9-1.1
		c1.8-1.4,3.1-3.3,4.4-5.2c0.7-1,0.9-2.2,1-3.2C72,133.2,71.7,132.7,70.5,132.3z"/>
	<path class="st12" d="M40.4,89.5c-0.7-0.1-1.4,0-2,0.3c-0.4,0.2-0.9,0.4-1.4,0.6c-0.1,0-0.3,0-0.4-0.1c-0.1-0.1-0.1-0.3-0.1-0.4
		c0.2-0.4,0.4-0.8,0.7-1.1c1.2-1.4,1.2-3.1,1.4-4.8c0.1-0.5-0.6-0.9-1.1-0.6c-0.2,0.2-0.5,0.4-0.6,0.6c-0.7,0.8-1.3,1.6-2.1,2.3
		c-1.3,1.2-2.3,2.6-3.3,4c-0.8,1.1-1.1,2.3-1.4,3.6c0.1,0.4,0.2,0.9,0.4,1.4c0.3,0.8,1.7,1.3,2.4,0.9c1.4-0.9,3-1.3,4.5-1.8
		c1-0.3,1.9-0.9,2.8-1.4c0.2-0.1,0.4-0.3,0.5-0.6c0.2-0.5,0.4-1,0.6-1.5C41.6,90.2,41.2,89.7,40.4,89.5z"/>
	<path class="st12" d="M57.2,11.5c-0.5-0.2-0.9-0.1-1.4,0.1c-1,0.4-1.8,1-2.8,1.2c-1.3,0.3-2.5,0.9-3.7,1.5
		c-0.3,0.2-0.7,0.5-0.9,0.8c-0.3,0.5-0.6,1.1-0.9,1.7c-0.2,0.5-0.1,1,0.4,1.3c0.7,0.4,1.4,0.4,2.1,0.1c0.4-0.2,0.8-0.4,1.2-0.6
		c0.6-0.3,1.1-0.3,1.2,0c0.2,0.5-0.1,0.8-0.4,1c-1.2,1.2-1.4,2.8-1.7,4.3c-0.1,0.5-0.2,1.2,0.5,1.4c0.6,0.2,0.9-0.3,1.2-0.7
		c0.7-1.1,1.7-1.9,2.6-2.8c1.2-1.2,2.1-2.5,3-3.9c0.6-1,0.9-2.1,1-3c0-0.4,0-0.6,0-0.7C58.6,12.3,58.2,11.8,57.2,11.5z"/>
	<path class="st12" d="M94.6,30.5c-0.7-0.3-1.5-0.4-2.3-0.4c-1.2,0-2.5,0-3.7,0c-0.3,0-0.6-0.1-1.1-0.2c0.5-1.2,1.1-2,1.6-2.9
		c0.4-0.6,0.7-1.3,1.2-1.9c0.6-0.9,0.4-1.9,0.2-2.9c-0.1-0.6-0.6-0.8-1.1-0.6c-1,0.3-1.9,0.9-2.4,1.8c-0.6,1.1-1.2,2.2-1.9,3.4
		c-0.1,0.3-0.3,0.5-0.4,0.8c-0.3,1.1-0.7,2.2-1,3.3c-0.2,0.6-0.2,1.3-0.2,1.9c0,0.7,0.3,1.1,1,1.3c0.4,0.1,0.8,0.2,1.2,0.1
		c1.8-0.2,3.6-0.4,5.4-0.6c1.1-0.1,2.2-0.2,3.2-0.3c0.8-0.1,1.2-0.5,1.3-1.2C95.7,31.3,95.4,30.8,94.6,30.5z"/>
	<path class="st12" d="M39.9,28.3c-1.5-0.4-2.9-0.2-4.4-0.2c-1,0-2,0-3,0c-0.6,0-1.1,0.1-1.6,0.4c-1.1,0.7-1,1.2-0.6,2
		c0.6,1.2,1.4,2.4,1.6,3.8c0,0.2,0.2,0.5,0.3,0.7c0.4,0.8,0.8,1.7,1.3,2.5c0.6,0.9,1.2,1.8,1.9,2.6c0.4,0.5,0.9,0.4,1.3-0.1
		c0.8-1.1,1.1-2.3,0.5-3.6c-0.4-1-0.8-2.1-1.2-3.2c-0.1-0.2-0.1-0.4-0.1-0.6c0-0.4,0.3-0.8,0.7-0.8c0.3,0,0.6,0,0.9,0.1
		c0.9,0,1.9,0.1,2.8,0.1c0.3,0,0.6,0,0.9-0.1c0.6-0.2,0.9-0.7,0.8-1.3C41.8,29.4,41,28.6,39.9,28.3z"/>
	<path class="st12" d="M57.5,75.1c-0.7-2.4-2.1-4.5-3.4-6.6c-0.2-0.3-0.4-0.5-0.7-0.8c-0.4-0.3-0.9-0.3-1.2,0.1
		c-0.4,0.5-0.7,1-0.7,1.6c-0.1,0.9,0,1.8,0.4,2.6c0.4,1,0.8,2,1.2,3c0.2,0.5,0,0.9-0.6,0.9c-0.8,0-1.7,0-2.5-0.1
		c-0.7-0.1-1.4-0.1-2,0.2c-0.7,0.3-1,0.7-0.8,1.4c0.2,0.6,0.4,1.1,0.8,1.6c0.2,0.3,0.6,0.5,1,0.5c1.3,0.2,2.6,0.3,3.8,0.4
		c1.7-0.1,3.1-0.2,4.6-0.3c0,0,0.1,0,0.1,0c1.2-0.2,1.6-1.1,1.2-2.2C58.3,76.6,57.8,75.9,57.5,75.1z"/>
	<path class="st12" d="M11.8,128.4c-1.5-0.6-3.1-1.1-4.7-1.1c-0.9,0-1.9-0.1-2.8-0.2c-0.6,0-1.2-0.1-1.8,0c-0.9,0.1-1.4,0.4-2.3,1.3
		c0.3,0.3,0.6,0.5,0.8,0.8c0.2,0.4,0.4,0.8,0.6,1.2c0.1,0.1,0.1,0.3,0.2,0.4c0.2,0.4,0.5,0.6,0.9,0.6c1.2,0.2,2.3,0.5,3.5,0.7
		c1.1,0.3,1.3,0.7,0.8,1.8c-0.1,0.1-0.1,0.3-0.2,0.4c-0.2,0.4-0.2,0.8,0,1.1c0.1,0.3,0.3,0.6,0.5,0.9c0.4,0.7,1.1,0.9,1.7,0.4
		c0.8-0.6,1.7-1.2,2.3-2.1c0.3-0.5,0.7-1,1.1-1.4c0.7-0.7,0.9-1.5,1-2.4C13.4,129.7,12.9,128.8,11.8,128.4z"/>
	<path class="st12" d="M94.7,178.4c-0.9-0.4-1.7-0.7-2.7-0.5c-0.6,0.1-1.3,0.1-1.9,0.1c0,0,0,0,0,0c-0.4,0-0.8,0-1.2,0
		c-0.5,0-1.1,0.2-1.3-0.4c-0.2-0.5,0.2-0.8,0.4-1.2c0.1-0.2,0.3-0.4,0.4-0.6c0.3-0.5,0.7-1,1-1.5c0.3-0.6,0.7-1.2,1-1.8
		c0.4-1,0.3-1.9-0.2-2.9c-0.1-0.2-0.4-0.4-0.6-0.3c-1.1,0.4-2.1,0.8-2.7,1.9c-0.5,0.9-1,1.7-1.4,2.6c-0.2,0.4-0.4,0.8-0.6,1.2
		c-0.4,1.2-0.8,2.3-1.2,3.5c-0.3,0.8-0.2,1.6-0.2,2.4c0.1,0.6,0.4,0.9,0.9,1c0.4,0.1,0.9,0.1,1.3,0c2.5-0.3,5.1-0.6,7.6-0.7
		c0.5,0,1-0.1,1.4-0.3c0.5-0.1,0.7-0.5,0.7-1C95.6,179.2,95.4,178.7,94.7,178.4z"/>
	<path class="st12" d="M56.4,38.9c-0.2-0.1-0.4-0.2-0.5-0.2c-0.8-0.3-1.7-0.5-2.6-0.5c-0.6,0-1.2,0-1.7-0.5c0.2-0.2,0.2-0.4,0.3-0.5
		c1.1-0.7,1.6-1.8,2.4-2.8c0.5-0.6,0.6-1.3,0.5-2.1c-0.1-0.6-0.4-0.9-1-0.9c-0.3,0-0.6,0.1-0.9,0.2c-0.6,0.2-1.1,0.7-1.4,1.3
		c-0.6,1-1.4,1.9-2.3,2.7c-0.8,0.8-1.6,1.5-2.3,2.3c-0.4,0.4-0.7,0.9-1,1.4c-0.5,0.9-0.4,1.8,0,2.7c0.3,0.7,0.9,1.2,1.7,1.2
		c0.6,0,1.3,0,1.9-0.2c2.1-0.4,4.2-0.9,6.3-1.3c0.7-0.2,1.3-0.6,1.4-1.2C57.3,39.8,57,39.3,56.4,38.9z"/>
	<path class="st12" d="M86.2,124.1c-1.2-0.2-2.3-0.5-3.5-0.7c-1.2-0.3-1.4-0.6-0.8-1.7c0.3-0.6,0.4-1.2,0-1.8
		c-0.1-0.3-0.2-0.6-0.4-0.8c-0.3-0.5-0.9-0.7-1.4-0.3c-0.8,0.6-1.6,1.3-2.3,2.1c-0.4,0.4-0.7,0.9-1.2,1.3c-0.7,0.6-1,1.4-1,2.4
		c0,0.3,0,0.7,0,1c0,0.9,0.4,1.6,1.3,1.8c1.4,0.5,2.8,1,4.3,1c1,0,2,0.1,2.9,0.2c1,0.1,2,0.2,2.9-0.2c0.5-0.2,0.9-0.3,1.1-0.8
		c-0.3-0.8-0.6-1.5-0.9-2.2C87.2,124.6,86.8,124.2,86.2,124.1z"/>
	<path class="st12" d="M41.4,64.7c-0.6,0-1.3-0.1-1.9,0.1c-2.3,0.5-4.5,1-6.8,1.5c-0.9,0.2-1.3,1.2-0.8,2c0.3,0.4,0.7,0.7,1.2,0.9
		c1,0.2,2,0.4,3,0.6c0.4,0.1,0.7,0.1,1.4,0.2c-0.4,0.6-0.7,0.9-0.9,1.2c-0.6,0.7-1.2,1.4-1.8,2.2c-0.4,0.6-0.7,1.2-0.7,1.9
		c-0.1,0.9,0.5,1.4,1.4,1.2c0.8-0.2,1.4-0.7,1.9-1.4c1.3-1.5,2.5-2.9,3.8-4.3c0.4-0.4,0.8-0.8,1.1-1.2c1-1.1,1-2.3,0.7-3.6
		C42.8,65.2,42.2,64.7,41.4,64.7z"/>
	<path class="st12" d="M56.6,108.3c-0.5-0.5-0.9-1-1.3-1.6c-0.8-1.4-1.6-2.9-2.8-3.9c-0.2-0.2-0.3-0.5-0.5-0.7
		c-0.8-0.9-1.7-1.6-2.8-2.1c-0.5-0.3-1.2-0.5-1.7,0c-0.5,0.5-0.4,1.2-0.2,1.8c0.1,0.2,0.2,0.4,0.4,0.6c0.2,0.4,0.4,0.8,0.7,1.1
		c0.4,0.6,0.8,1.1,1.2,1.7c0.4,0.5,0.9,0.9,1.3,1.4c0.2,0.2,0.3,0.5,0.5,0.8c-0.5,0.5-1,0.5-1.5,0.7c-0.9,0.3-1.8,0.5-2.7,0.8
		c-0.5,0.2-1,0.5-1.4,0.8c-0.5,0.4-0.5,1-0.2,1.5c0.4,0.6,1,0.8,1.7,0.8c1.6-0.1,3.2-0.2,4.8-0.5c1.1-0.2,2.2-0.5,3.3-0.7
		c0.4-0.1,0.8-0.2,1.1-0.4C57.2,109.6,57.2,108.9,56.6,108.3z"/>
	<path class="st12" d="M42.5,144.1c-0.3-0.1-0.7-0.1-1-0.1c-0.9,0-1.8,0-2.7,0c-0.8,0.1-1.6,0.1-2.3,0.4c-0.9,0.3-1.9,0.5-2.9,0.6
		c-0.4,0-0.9,0.2-1.2,0.4c-0.8,0.5-0.8,1.3-0.1,2c0.3,0.3,0.7,0.7,1,1.1c1,1.7,2,3.3,3.3,4.7c0.9,1,1.9,1.8,2.9,2.4
		c0.4,0.2,0.8,0.3,1.3,0.4c0.4,0.1,0.8-0.2,0.9-0.6c0.1-0.6,0.2-1.3-0.2-1.9c-0.8-1.2-1.4-2.5-2.5-3.5c-0.4-0.3-0.7-0.7-1-1.1
		c-0.2-0.2-0.2-0.4-0.4-0.8c0.5-0.2,0.7-0.3,1-0.4c1.1-0.3,2.2-0.6,3.3-1c0.5-0.2,0.9-0.4,1.3-0.7C43.7,145.4,43.5,144.4,42.5,144.1
		z"/>
	<path class="st12" d="M68.7,166.1c-0.2-1.5-0.6-1.7-1.9-0.8c-0.5,0.3-1,0.8-1.6,1c-1.9,0.9-3.8,1.8-5.7,2.7c-1.1,0.5-2.2,1-3,1.8
		c-1,0.9-0.8,2.6,0.5,3.2c0.8,0.4,1.7,0.6,2.5,0.8c1.1,0.3,2.1,0.4,3.2,0.6c0.6,0.1,1.2,0.1,1.8,0.1c0.5,0,0.9-0.3,1.3-0.7
		c0.3-0.4,0.2-0.9-0.3-1c-0.5-0.1-1.1-0.2-1.5-0.5c-0.7-0.4-1.4-0.9-2.2-1.4c0.1-0.1,0.2-0.2,0.3-0.2c1.3-0.4,2.5-0.8,3.8-1.3
		c0.6-0.2,1.3-0.5,1.9-0.9c1-0.6,1.5-1.6,1.3-2.8C68.8,166.6,68.8,166.3,68.7,166.1z"/>
	<path class="st12" d="M31.8,81.4c-0.6-0.2-1.3-0.4-2-0.6c-0.7-0.2-1.3-0.3-2-0.4c-1.1-0.2-2.2-0.3-3.4-0.4c-0.6,0-1.1,0.3-1.4,0.9
		c-0.1,0.3,0,0.7,0.3,0.7c0.3,0.1,0.6,0.1,0.9,0.1c0.3,0.1,0.6,0.1,0.8,0.3c0.6,0.6,1.3,1,2.2,1.5c-0.2,0.1-0.5,0.3-0.7,0.4
		c-1.7,0.5-3.2,1.1-4.8,1.8c-1,0.4-1.5,1.1-1.5,2.2c0,0.5,0,1.1,0,1.6c0.1,1.3,0.7,1.5,1.7,0.8c0,0,0.1-0.1,0.1-0.1
		c0.7-0.7,1.6-1.1,2.6-1.4c0.4-0.2,0.8-0.3,1.2-0.5c1.3-0.6,2.6-1.3,3.9-1.9c1-0.5,2-1.1,2.9-1.8c0.5-0.4,0.7-1,0.6-1.6
		C33,82.3,32.6,81.7,31.8,81.4z"/>
	<path class="st12" d="M68,17.1c-0.4,0.1-0.8,0.3-1.2,0.5c-0.6,0.3-1.1,0.7-1.6,1c-1.9,0.9-3.9,1.8-5.8,2.7c-1.1,0.5-2.1,1-3,1.9
		c-0.8,0.8-0.6,2.7,0.6,3.1c0.8,0.3,1.6,0.6,2.4,0.8c1,0.2,2,0.4,3.1,0.5c0.7,0.1,1.4,0.1,2.1,0.1c0.4,0,0.8-0.1,1.1-0.5
		c0.4-0.4,0.3-1.1-0.3-1.1c-0.8-0.1-1.5-0.5-2.1-1c-0.3-0.2-0.6-0.3-0.9-0.4c-0.2-0.1-0.3-0.2-0.5-0.4c0.2-0.2,0.4-0.3,0.5-0.4
		c1.2-0.4,2.4-0.8,3.6-1.3c0.6-0.2,1.2-0.5,1.7-0.8c0.6-0.3,0.9-0.8,1.1-1.3c0.4-1,0.1-2.1-0.1-3.1C68.6,17.2,68.2,17.1,68,17.1z"/>
	<path class="st12" d="M35.2,101.4c-0.3-0.1-0.7-0.2-1-0.1c-1,0.4-2,0.7-2.9,1.4c-0.3,0.3-0.7,0.5-1.1,0.7c-0.9,0.7-1.8,1.4-2.7,2.1
		c-0.3,0.3-0.5,0.6-0.5,1c0,0.6,0.5,0.9,1,0.6c0.4-0.2,0.8-0.5,1.3-0.6c0.7,0,1.3-0.2,1.8-0.5c0.2-0.1,0.4-0.1,0.9-0.2
		c-0.1,0.4-0.1,0.6-0.2,0.7c-0.6,1.2-1.2,2.4-1.8,3.6c-0.3,0.6-0.5,1.2-0.7,1.8c-0.2,0.7-0.1,1.4,0.3,2c0.5,0.6,1.1,1.2,1.7,1.7
		c0.5,0.4,1.1,0.2,1.3-0.4c0.1-0.2,0.1-0.5,0.2-0.7c0.2-0.7,0.4-1.4,0.6-2.1c0.7-1.9,1.4-3.7,2.1-5.6c0.3-1,0.6-2,0.9-3
		C36.9,102.7,36.1,101.9,35.2,101.4z"/>
	<path class="st12" d="M61,148.1c-0.2,0.1-0.4,0.3-0.6,0.4c-0.3,0.3-0.6,0.4-1.1,0.5c-0.8,0.1-1.5,0.3-2.4,0.4c0-0.2,0-0.4,0.1-0.5
		c0.6-1.1,1.2-2.3,1.8-3.4c0.3-0.6,0.5-1.2,0.8-1.8c0.2-0.5,0.2-1.1,0-1.6c-0.3-0.9-1-1.5-1.6-2.1c-0.7-0.7-1.4-0.6-1.8,0.5
		c-0.1,0.2-0.1,0.4-0.1,0.6c-0.2,0.6-0.3,1.2-0.5,1.8c-0.5,1.3-1,2.6-1.5,3.9c-0.5,1.3-0.9,2.5-1.3,3.8c-0.2,0.6-0.3,1.3-0.2,1.9
		c0.2,1.2,1.4,2,2.5,1.6c0.9-0.3,1.8-0.6,2.5-1.3c0.4-0.3,0.8-0.5,1.2-0.8c1-0.5,1.9-1.3,2.7-2.1c0.4-0.4,0.6-0.9,0.4-1.5
		C61.7,148.2,61.3,148,61,148.1z"/>
	<path class="st12" d="M173.4,126c-0.6-1-1.3-2-2-3c-0.3-0.4-0.5-0.8-0.9-1.2c-0.3-0.3-0.7-0.5-1.1-0.9c0-0.9-0.1-1.2-0.8-1.5
		c-0.5-0.2-1.1-0.3-1.5,0.2c-0.4,0.5-0.9,0.7-1.5,1c-0.5,0.3-1.1,0.5-1.6,0.9c-0.9,0.7-1.8,1.1-2.9,1.3c-0.4,0.1-0.7,0.3-1,0.6
		c-0.4,0.6-0.6,1.3-0.6,2.1c0.1,1.2,0.9,2,2.1,2.1c0.7,0,1.3-0.2,1.8-0.5c1.3-0.9,2.8-1.5,4.3-2c0.8-0.3,1-0.2,1.6,0.4
		c0.5,0.6,1,1.2,1.5,1.9c0.5,0.7,1.1,1.1,1.8,1.6c0.4,0.3,0.9,0.2,1.2-0.2c0.3-0.4,0.4-0.9,0.2-1.4
		C173.8,126.8,173.6,126.4,173.4,126z"/>
	<path class="st12" d="M151.3,99c-0.5-0.3-0.9-0.6-1.4-0.8c-1.1-0.7-1.2-1.1-0.6-2.3c0.1-0.2,0.2-0.3,0.3-0.5
		c0.8-1.8,1.6-3.5,1.4-5.6c0-0.3,0-0.6,0-1c0-0.3,0-0.7-0.1-1c-0.1-0.2-0.3-0.5-0.6-0.6c-0.4-0.2-0.7,0.1-0.9,0.4
		c-0.2,0.2-0.3,0.5-0.4,0.8c-0.5,1.5-1.1,2.8-1.9,4.2c-0.7,1.1-1.1,2.3-2,3.2c-0.7,0.7-0.7,1.6-0.4,2.5c0.3,0.9,0.9,1.7,1.7,2.2
		c1,0.6,2,1.1,3,1.6c0.6,0.3,1.2,0.6,1.8,0.9c0.4,0.2,0.8,0.5,1.2,0.6c1.1,0.5,1.3,0.5,1.8-0.6c0.4-0.8,0.4-1.1-0.2-1.7
		C153.2,100.4,152.3,99.6,151.3,99z"/>
	<path class="st12" d="M117,132.1c-0.3,0-0.6,0-0.9,0.1c-0.6,0.2-1.1,0.4-1.6,0.7c-0.8,0.4-1.5,1-2.2,1.4c-0.7,0.4-1.2,0.4-1.7-0.3
		c-0.2-0.2-0.3-0.5-0.5-0.7c-0.8-1.2-1.9-2.2-2.9-3.2c-0.1-0.1-0.2-0.2-0.4-0.3c-0.5-0.3-1.1-0.1-1.1,0.5c0,0.7-0.1,1.4,0.1,2.1
		c0.4,1.2,0.7,2.4,1.4,3.4c0.4,0.6,0.6,1.2,0.4,1.8c-0.1,1,0.2,1.6,1,2.1c0.7,0.4,1.5,0.4,2.3,0c1.3-0.6,2.6-1.2,3.7-2.1
		c0.6-0.5,1.3-1,1.9-1.4c0.8-0.5,1.3-1,1.4-2c0-0.2,0.2-0.5,0.3-0.7C118.6,132.7,118.2,132.1,117,132.1z"/>
	<path class="st12" d="M146.5,19.8c-0.2,0-0.4,0.1-0.6,0.2c-0.7,0.4-1.4,0.7-2.1,1.1c-1.6,0.9-3.2,1.9-4.9,2.8
		c-0.7,0.4-1.4,0.9-1.9,1.6c-0.4,0.5-0.6,1-0.6,1.7c0,1,0.5,1.8,1.5,2.2c0.3,0.1,0.7,0.2,1,0.3c1.9,0.4,3.9,0.8,5.6,1.8
		c0.1,0.1,0.3,0.1,0.4,0.2c0.9,0.4,1.4-0.2,1.5-0.9c0.1-0.8-0.2-1.4-0.9-1.7c-0.2-0.1-0.4-0.2-0.5-0.3c-0.8-0.5-1.6-1-2.4-1.5
		c-0.5-0.4-0.5-0.8-0.1-1.2c0.3-0.2,0.6-0.4,0.9-0.6c0.5-0.3,1-0.6,1.6-0.8c0.6-0.3,1.1-0.7,1.3-1.4c0.3-0.9,0.6-1.8,0.9-2.7
		C147.5,20.1,147,19.7,146.5,19.8z"/>
	<path class="st12" d="M146.4,167.6c-0.1,0-0.4,0.1-0.7,0.2c-1,0.5-1.9,1.1-2.8,1.6c-0.6,0.3-1.1,0.6-1.6,1c-1.1,0.7-2.3,1.3-3.4,2
		c-1.1,0.7-1.4,1.7-1.3,3c0.1,0.8,0.5,1.4,1.3,1.6c0.8,0.2,1.5,0.4,2.3,0.6c1.4,0.3,2.8,0.6,4.1,1.3c0.3,0.2,0.7,0.3,1.1,0.4
		c0.7,0.2,1.3-0.4,1.2-1.1c-0.1-0.8-0.4-1.4-1.1-1.8c-0.9-0.4-1.7-1-2.6-1.5c-0.5-0.3-0.6-0.8-0.1-1.2c0.2-0.2,0.4-0.3,0.6-0.5
		c0.6-0.4,1.3-0.8,1.9-1.1c0.6-0.3,1-0.8,1.3-1.4c0.3-0.8,0.5-1.6,0.9-2.4C147.4,168.1,147,167.6,146.4,167.6z"/>
	<path class="st12" d="M58.9,52.3c-0.3,0.1-0.7,0.3-0.8,0.5c-0.5,0.6-0.9,1.2-1.2,1.8c-0.4,0.7-0.8,1.5-1.3,2.2
		c-1.4,1.9-2.7,3.9-4.6,5.4c-0.7,0.6-0.8,1.3-0.4,2.1c0.3,0.5,0.7,0.9,1.2,1.1c0.8,0.4,1.7,0.5,2.6,0.6c1.2-0.2,2.3-0.4,3.5-0.6
		c0.1,0,0.3-0.1,0.4-0.2c0.6-0.6,0.8-1.3,0.6-2.2c-0.2-0.8-0.6-1.3-1.5-1.4c0,0-0.1,0-0.1,0c-0.7-0.2-0.9-0.5-0.6-1.2
		c0.1-0.4,0.3-0.7,0.5-1.1c1.1-1.8,1.9-3.7,2.7-5.6c0.1-0.2,0.1-0.4,0.2-0.6C60,52.6,59.5,52.1,58.9,52.3z"/>
	<path class="st12" d="M37.2,42.4c-0.5-0.2-1.1-0.3-1.7-0.4c-1.3-0.1-2.6,0.1-3.9,0.3c-1,0.2-1.7,1.2-1.5,2.1
		c0.2,0.8,0.6,1.5,1.6,1.7c0.7,0.2,0.9,0.7,0.6,1.3c-0.1,0.3-0.3,0.5-0.4,0.8c-0.9,1.7-1.9,3.5-2.5,5.3c-0.1,0.3-0.3,0.7-0.3,1
		c0,0.3,0.1,0.6,0.3,0.8c0.3,0.3,0.6,0.2,1,0.1c0.2-0.1,0.4-0.3,0.5-0.5c0.5-0.6,0.9-1.3,1.3-2c1.5-2.8,3.3-5.3,5.6-7.3
		c0.2-0.2,0.4-0.4,0.6-0.7c0.1-0.2,0.1-0.4,0.2-0.5C38.6,43.6,38.2,42.8,37.2,42.4z"/>
</g>
</svg>
