<?xml version="1.0" encoding="utf-8"?>
<!-- Generator: Adobe Illustrator 21.0.0, SVG Export Plug-In . SVG Version: 6.00 Build 0)  -->
<svg version="1.1" id="Layer_1" xmlns="http://www.w3.org/2000/svg" xmlns:xlink="http://www.w3.org/1999/xlink" x="0px" y="0px"
	 viewBox="0 0 81.2 70.4" style="enable-background:new 0 0 81.2 70.4;" xml:space="preserve">
<style type="text/css">
	.st0{fill:none;stroke:#3CB6AB;stroke-miterlimit:10;}
	.st1{fill-rule:evenodd;clip-rule:evenodd;fill:#F79980;}
	.st2{fill-rule:evenodd;clip-rule:evenodd;fill:#F0D4D0;}
	.st3{fill-rule:evenodd;clip-rule:evenodd;fill:#F1D953;}
	.st4{fill-rule:evenodd;clip-rule:evenodd;fill:#3CB6AB;}
	.st5{fill-rule:evenodd;clip-rule:evenodd;fill:#CCE0E1;}
	.st6{fill-rule:evenodd;clip-rule:evenodd;fill:#C5C8D1;}
	.st7{fill-rule:evenodd;clip-rule:evenodd;fill:#06749C;}
	.st8{fill-rule:evenodd;clip-rule:evenodd;fill:#FFFFFF;}
	.st9{fill-rule:evenodd;clip-rule:evenodd;}
	.st10{fill:#06749C;}
	.st11{fill:#F79980;}
	.st12{fill:#F0D4D0;}
	.st13{fill:#F1D953;}
	.st14{clip-path:url(#SVGID_2_);}
	.st15{fill:none;stroke:#F1D953;stroke-width:0.75;}
	.st16{fill:#CCE0E1;}
	.st17{fill:none;stroke:#000000;stroke-width:0.75;}
	.st18{fill:none;stroke:#F0D4D0;stroke-miterlimit:10;}
	.st19{fill:none;stroke:#F1D953;stroke-miterlimit:10;}
	.st20{clip-path:url(#SVGID_4_);}
	.st21{clip-path:url(#SVGID_6_);}
	.st22{fill:#C5C8D1;}
	.st23{clip-path:url(#SVGID_8_);}
	.st24{fill:none;stroke:#000000;stroke-miterlimit:10;}
	.st25{clip-path:url(#SVGID_10_);}
	.st26{clip-path:url(#SVGID_12_);}
	.st27{fill:none;stroke:#F1D953;stroke-width:1.948;}
	.st28{fill:none;stroke:#000000;stroke-width:1.948;}
	.st29{fill:none;stroke:#F0D4D0;stroke-width:2.5973;stroke-miterlimit:10;}
	.st30{fill:none;stroke:#F1D953;stroke-width:2.5973;stroke-miterlimit:10;}
	.st31{fill:none;stroke:#000000;stroke-width:2.5973;stroke-miterlimit:10;}
	.st32{fill:#FFFFFF;}
	.st33{fill:#72B4A6;}
	.st34{fill:#F0D4D0;stroke:#C5C8D1;stroke-width:1.3638;stroke-miterlimit:10;}
	.st35{fill:none;stroke:#000000;stroke-linejoin:bevel;stroke-miterlimit:10;}
	.st36{fill:none;stroke:#C5C8D1;stroke-width:1.2346;stroke-miterlimit:10;}
	.st37{fill:#C5C8D1;stroke:#C5C8D1;stroke-width:1.2346;stroke-miterlimit:10;}
	.st38{fill:none;stroke:#C5C8D1;stroke-width:1.2346;stroke-linejoin:bevel;stroke-miterlimit:10;}
	.st39{fill:#F1D953;stroke:#72B4A6;stroke-miterlimit:10;}
	.st40{fill:#C5C8D1;stroke:#C5C8D1;stroke-width:0.5;stroke-miterlimit:10;}
	.st41{fill:none;stroke:#F79980;stroke-miterlimit:10;}
	.st42{fill:none;stroke:#72B4A6;stroke-miterlimit:10;}
	.st43{fill:none;stroke:#CCE0E1;stroke-width:2;stroke-miterlimit:10;}
	.st44{fill:#06749C;stroke:#06749C;stroke-miterlimit:10;}
	.st45{fill:none;stroke:#3CB6AB;stroke-width:0.6231;stroke-miterlimit:10;}
	.st46{fill:none;stroke:#3CB6AB;stroke-width:0.6231;stroke-linejoin:round;stroke-miterlimit:10;}
	.st47{fill:none;stroke:#06749C;stroke-miterlimit:10;}
	.st48{fill:none;stroke:#000000;stroke-linejoin:round;stroke-miterlimit:10;}
	.st49{fill:#F79980;stroke:#000000;stroke-width:0.5;stroke-miterlimit:10;}
	.st50{fill:#C5C8D1;stroke:#C5C8D1;stroke-width:1.3736;stroke-miterlimit:10;}
	.st51{fill:#E85B3F;}
	.st52{fill:#3CB6AB;stroke:#3CB6AB;stroke-width:1.3736;stroke-miterlimit:10;}
	.st53{fill:#F0D4D0;stroke:#F0D4D0;stroke-width:1.3736;stroke-miterlimit:10;}
	.st54{fill:none;stroke:#F0D4D0;stroke-width:1.3736;stroke-miterlimit:10;}
	.st55{fill:#CCE0E1;stroke:#CCE0E1;stroke-width:1.3736;stroke-miterlimit:10;}
	.st56{fill:#06749C;stroke:#06749C;stroke-width:1.3736;stroke-miterlimit:10;}
	.st57{fill:none;stroke:#3CB6AB;stroke-width:1.3736;stroke-miterlimit:10;}
	.st58{fill:#72B4A6;stroke:#72B4A6;stroke-width:1.3736;stroke-miterlimit:10;}
	.st59{fill:#F1D953;stroke:#F1D953;stroke-width:1.3736;stroke-miterlimit:10;}
	.st60{fill:none;stroke:#B3B3B3;stroke-miterlimit:10;}
	.st61{fill:none;stroke:#999999;stroke-miterlimit:10;}
	.st62{fill:#E6E6E6;stroke:#CCCCCC;stroke-miterlimit:10;}
	.st63{fill:none;stroke:#CCCCCC;stroke-miterlimit:10;}
	.st64{fill:#CCCCCC;}
	.st65{fill:#4D4D4D;}
	.st66{fill:#999999;}
	.st67{fill:#666666;}
	.st68{fill:#B3B3B3;}
	.st69{fill:#CCCCCC;stroke:#999999;stroke-width:1.3638;stroke-miterlimit:10;}
	.st70{fill:none;stroke:#CCCCCC;stroke-width:1.3746;stroke-miterlimit:10;}
	.st71{fill:#999999;stroke:#CCCCCC;stroke-width:1.1135;stroke-miterlimit:10;}
	.st72{fill:none;stroke:#CCCCCC;stroke-width:1.3746;stroke-linejoin:bevel;stroke-miterlimit:10;}
	.st73{fill:none;stroke:#808080;stroke-width:1.2346;stroke-miterlimit:10;}
	.st74{fill:#999999;stroke:#808080;stroke-width:1.2346;stroke-miterlimit:10;}
	.st75{fill:none;stroke:#808080;stroke-width:1.2346;stroke-linejoin:bevel;stroke-miterlimit:10;}
	.st76{fill:#808080;stroke:#CCCCCC;stroke-miterlimit:10;}
	.st77{fill:#999999;stroke:#999999;stroke-width:0.5;stroke-miterlimit:10;}
	.st78{fill:none;stroke:#C5C8D1;stroke-miterlimit:10;}
	.st79{fill:#C5C8D1;stroke:#C5C8D1;stroke-miterlimit:10;}
	.st80{fill:none;stroke:#999999;stroke-width:1.3428;stroke-miterlimit:10;}
	.st81{fill:#999999;stroke:#999999;stroke-miterlimit:10;}
	.st82{fill:none;stroke:#B3B3B3;stroke-width:2;stroke-miterlimit:10;}
	.st83{fill:#666666;stroke:#999999;stroke-miterlimit:10;}
	.st84{fill:none;stroke:#999999;stroke-width:0.8128;stroke-miterlimit:10;}
	.st85{fill:none;stroke:#999999;stroke-width:0.8128;stroke-linejoin:round;stroke-miterlimit:10;}
	.st86{fill:#B3B3B3;stroke:#999999;stroke-miterlimit:10;}
	.st87{fill:#666666;stroke:#666666;stroke-miterlimit:10;}
	.st88{fill:none;stroke:#666666;stroke-miterlimit:10;}
	.st89{fill:#CCCCCC;stroke:#F2F2F2;stroke-miterlimit:10;}
	.st90{fill:none;stroke:#F2F2F2;stroke-miterlimit:10;}
	.st91{fill:#808080;}
	.st92{fill:#E6E6E6;}
	.st93{fill:none;stroke:#B3B3B3;stroke-width:1.3736;stroke-miterlimit:10;}
	.st94{fill:#E6E6E6;stroke:#E6E6E6;stroke-width:1.3736;stroke-miterlimit:10;}
	.st95{fill:#06749C;stroke:#808080;stroke-width:1.3736;stroke-miterlimit:10;}
	.st96{fill:none;stroke:#CCCCCC;stroke-width:1.3736;stroke-miterlimit:10;}
	.st97{fill:#999999;stroke:#999999;stroke-width:1.3736;stroke-miterlimit:10;}
	.st98{fill:#3CB6AB;stroke:#E6E6E6;stroke-width:1.3736;stroke-miterlimit:10;}
	.st99{fill:#F1D953;stroke:#666666;stroke-width:1.3736;stroke-miterlimit:10;}
	.st100{fill:#F2F2F2;}
	.st101{clip-path:url(#SVGID_14_);fill:url(#);stroke:#231F20;stroke-width:0.36;}
	.st102{fill:#3CB6AB;}
	.st103{fill:url(#);}
	.st104{fill:none;}
	.st105{fill:#06749C;stroke:#3CB6AB;stroke-miterlimit:10;}
	.st106{fill:#1A1A1A;}
	.st107{fill:#F0D4D0;stroke:#F0D4D0;stroke-width:1.3638;stroke-miterlimit:10;}
	.st108{fill:#06749C;stroke:#06749C;stroke-width:1.2346;stroke-miterlimit:10;}
	.st109{fill:none;stroke:#F79980;stroke-width:1.2346;stroke-miterlimit:10;}
	.st110{fill:#3CB6AB;stroke:#F79980;stroke-width:1.2346;stroke-miterlimit:10;}
	.st111{fill:none;stroke:#F79980;stroke-width:1.2346;stroke-linejoin:bevel;stroke-miterlimit:10;}
	.st112{fill:#F79980;stroke:#F79980;stroke-width:0.5;stroke-miterlimit:10;}
	.st113{fill:none;stroke:#3CB6AB;stroke-width:1.3428;stroke-miterlimit:10;}
	.st114{fill:#3CB6AB;stroke:#3CB6AB;stroke-miterlimit:10;}
	.st115{fill:none;stroke:#3CB6AB;stroke-width:1.2346;stroke-miterlimit:10;}
	.st116{fill:#3CB6AB;stroke:#3CB6AB;stroke-width:1.2346;stroke-miterlimit:10;}
	.st117{fill:none;stroke:#3CB6AB;stroke-width:1.2346;stroke-linejoin:bevel;stroke-miterlimit:10;}
	.st118{fill:none;stroke:#3CB6AB;stroke-width:0.8128;stroke-miterlimit:10;}
	.st119{fill:none;stroke:#3CB6AB;stroke-width:0.8128;stroke-linejoin:round;stroke-miterlimit:10;}
	.st120{fill:#CCE0E1;stroke:#CCE0E1;stroke-miterlimit:10;}
	.st121{fill:none;stroke:#CCE0E1;stroke-miterlimit:10;}
</style>
<g>
	<g>
		<path class="st13" d="M10.7,39.6c1,0,1-1.5,0-1.5C9.8,38.1,9.8,39.6,10.7,39.6L10.7,39.6z"/>
	</g>
	<g>
		<path class="st13" d="M10.7,38.8c0.6-2.3-1-4.8-3.3-5.4c-2.3-0.6-4.8,0.7-5.9,2.7c-1.1,2.1-0.9,4.7,0.5,6.7c0.4,0.5,0.8,1,1.4,1.3
			c0.9,0.5,2.1,0.4,3.1,0.1c2.8-0.9,5-3.3,5.6-6.2"/>
		<path class="st13" d="M11.4,39c0.5-3-1.4-6.1-4.6-6.5c-3.4-0.4-6.4,2.4-6.8,5.7c-0.3,3.2,1.5,7.2,5.2,7c3.7-0.3,6.7-3.5,7.4-7
			c0.2-0.9-1.2-1.3-1.4-0.4c-0.5,2.1-1.7,3.9-3.5,5c-0.9,0.5-2.6,1.3-3.6,0.8c-1.5-0.6-2.3-2.4-2.5-3.9c-0.3-2.4,1-4.8,3.4-5.5
			c2.8-0.8,5.5,1.5,5,4.4C9.8,39.5,11.2,39.9,11.4,39L11.4,39z"/>
	</g>
	<g>
		<path class="st13" d="M9.4,42.5c10.9,8.7,22.2,17,33.8,24.7"/>
		<path class="st13" d="M8.9,43c11,8.8,22.3,17,34,24.8c0.8,0.5,1.6-0.8,0.8-1.3C32,58.9,20.8,50.7,9.9,42C9.2,41.4,8.1,42.4,8.9,43
			L8.9,43z"/>
	</g>
</g>
<path class="st11" d="M48.6,8.5c-1.8-0.6-3.4-1.5-4.8-2.8C43,5,42.4,4.2,41.9,3.3c0.9,0.1,1.8,0.3,2.7,0.4c1.9,1.1,4,6.4,5.2,8.4
	c3.3,5.3,6.5,10.6,9.8,15.9C66.3,38.7,73,49.5,79.8,60.3c0.5,0.8,1.8,0.1,1.3-0.8c-10.9-17.5-21.8-35-32.6-52.5
	c-0.6-1-6-10.8-8.3-5.4c-1.6,3.7,5.4,7.5,7.9,8.3C49.1,10.2,49.5,8.8,48.6,8.5L48.6,8.5z"/>
<path class="st13" d="M34.3,19.1c-1.8-0.6-3.5-1.4-4.8-2.6c-0.8-0.7-1.4-1.5-2-2.4c0.9,0.1,1.8,0.2,2.7,0.3c1.9,1,4.1,6.3,5.4,8.2
	c3.4,5.2,6.8,10.4,10.2,15.6c7,10.7,14,21.3,21.1,31.9c0.5,0.8,1.8,0,1.3-0.8c-11.4-17.2-22.7-34.4-34-51.6c-0.7-1-6.3-10.7-8.4-5.2
	c-1.5,3.7,5.6,7.3,8.2,8.1C34.8,20.8,35.2,19.3,34.3,19.1L34.3,19.1z"/>
</svg>
