<?xml version="1.0" encoding="utf-8"?>
<!-- Generator: Adobe Illustrator 21.0.0, SVG Export Plug-In . SVG Version: 6.00 Build 0)  -->
<svg version="1.1" id="Layer_1" xmlns="http://www.w3.org/2000/svg" xmlns:xlink="http://www.w3.org/1999/xlink" x="0px" y="0px"
	 viewBox="0 0 43.3 183.6" style="enable-background:new 0 0 43.3 183.6;" xml:space="preserve">
<style type="text/css">
	.st0{fill:none;stroke:#3CB6AB;stroke-miterlimit:10;}
	.st1{fill-rule:evenodd;clip-rule:evenodd;fill:#F79980;}
	.st2{fill-rule:evenodd;clip-rule:evenodd;fill:#F0D4D0;}
	.st3{fill-rule:evenodd;clip-rule:evenodd;fill:#F1D953;}
	.st4{fill-rule:evenodd;clip-rule:evenodd;fill:#3CB6AB;}
	.st5{fill-rule:evenodd;clip-rule:evenodd;fill:#CCE0E1;}
	.st6{fill-rule:evenodd;clip-rule:evenodd;fill:#C5C8D1;}
	.st7{fill-rule:evenodd;clip-rule:evenodd;fill:#06749C;}
	.st8{fill-rule:evenodd;clip-rule:evenodd;fill:#FFFFFF;}
	.st9{fill-rule:evenodd;clip-rule:evenodd;}
	.st10{fill:#06749C;}
	.st11{fill:#F79980;}
	.st12{fill:#F0D4D0;}
	.st13{fill:#F1D953;}
	.st14{clip-path:url(#SVGID_2_);}
	.st15{fill:none;stroke:#F1D953;stroke-width:0.75;}
	.st16{fill:#CCE0E1;}
	.st17{fill:none;stroke:#000000;stroke-width:0.75;}
	.st18{fill:none;stroke:#F0D4D0;stroke-miterlimit:10;}
	.st19{fill:none;stroke:#F1D953;stroke-miterlimit:10;}
	.st20{clip-path:url(#SVGID_4_);}
	.st21{clip-path:url(#SVGID_6_);}
	.st22{fill:#C5C8D1;}
	.st23{clip-path:url(#SVGID_8_);}
	.st24{fill:none;stroke:#000000;stroke-miterlimit:10;}
	.st25{clip-path:url(#SVGID_10_);}
	.st26{clip-path:url(#SVGID_12_);}
	.st27{fill:none;stroke:#F1D953;stroke-width:1.948;}
	.st28{fill:none;stroke:#000000;stroke-width:1.948;}
	.st29{fill:none;stroke:#F0D4D0;stroke-width:2.5973;stroke-miterlimit:10;}
	.st30{fill:none;stroke:#F1D953;stroke-width:2.5973;stroke-miterlimit:10;}
	.st31{fill:none;stroke:#000000;stroke-width:2.5973;stroke-miterlimit:10;}
	.st32{fill:#FFFFFF;}
	.st33{fill:#72B4A6;}
	.st34{fill:#F0D4D0;stroke:#C5C8D1;stroke-width:1.3638;stroke-miterlimit:10;}
	.st35{fill:none;stroke:#000000;stroke-linejoin:bevel;stroke-miterlimit:10;}
	.st36{fill:none;stroke:#C5C8D1;stroke-width:1.2346;stroke-miterlimit:10;}
	.st37{fill:#C5C8D1;stroke:#C5C8D1;stroke-width:1.2346;stroke-miterlimit:10;}
	.st38{fill:none;stroke:#C5C8D1;stroke-width:1.2346;stroke-linejoin:bevel;stroke-miterlimit:10;}
	.st39{fill:#F1D953;stroke:#72B4A6;stroke-miterlimit:10;}
	.st40{fill:#C5C8D1;stroke:#C5C8D1;stroke-width:0.5;stroke-miterlimit:10;}
	.st41{fill:none;stroke:#F79980;stroke-miterlimit:10;}
	.st42{fill:none;stroke:#72B4A6;stroke-miterlimit:10;}
	.st43{fill:none;stroke:#CCE0E1;stroke-width:2;stroke-miterlimit:10;}
	.st44{fill:#06749C;stroke:#06749C;stroke-miterlimit:10;}
	.st45{fill:none;stroke:#3CB6AB;stroke-width:0.6231;stroke-miterlimit:10;}
	.st46{fill:none;stroke:#3CB6AB;stroke-width:0.6231;stroke-linejoin:round;stroke-miterlimit:10;}
	.st47{fill:none;stroke:#06749C;stroke-miterlimit:10;}
	.st48{fill:none;stroke:#000000;stroke-linejoin:round;stroke-miterlimit:10;}
	.st49{fill:#F79980;stroke:#000000;stroke-width:0.5;stroke-miterlimit:10;}
	.st50{fill:#C5C8D1;stroke:#C5C8D1;stroke-width:1.3736;stroke-miterlimit:10;}
	.st51{fill:#E85B3F;}
	.st52{fill:#3CB6AB;stroke:#3CB6AB;stroke-width:1.3736;stroke-miterlimit:10;}
	.st53{fill:#F0D4D0;stroke:#F0D4D0;stroke-width:1.3736;stroke-miterlimit:10;}
	.st54{fill:none;stroke:#F0D4D0;stroke-width:1.3736;stroke-miterlimit:10;}
	.st55{fill:#CCE0E1;stroke:#CCE0E1;stroke-width:1.3736;stroke-miterlimit:10;}
	.st56{fill:#06749C;stroke:#06749C;stroke-width:1.3736;stroke-miterlimit:10;}
	.st57{fill:none;stroke:#3CB6AB;stroke-width:1.3736;stroke-miterlimit:10;}
	.st58{fill:#72B4A6;stroke:#72B4A6;stroke-width:1.3736;stroke-miterlimit:10;}
	.st59{fill:#F1D953;stroke:#F1D953;stroke-width:1.3736;stroke-miterlimit:10;}
	.st60{fill:none;stroke:#B3B3B3;stroke-miterlimit:10;}
	.st61{fill:none;stroke:#999999;stroke-miterlimit:10;}
	.st62{fill:#E6E6E6;stroke:#CCCCCC;stroke-miterlimit:10;}
	.st63{fill:none;stroke:#CCCCCC;stroke-miterlimit:10;}
	.st64{fill:#CCCCCC;}
	.st65{fill:#4D4D4D;}
	.st66{fill:#999999;}
	.st67{fill:#666666;}
	.st68{fill:#B3B3B3;}
	.st69{fill:#CCCCCC;stroke:#999999;stroke-width:1.3638;stroke-miterlimit:10;}
	.st70{fill:none;stroke:#CCCCCC;stroke-width:1.3746;stroke-miterlimit:10;}
	.st71{fill:#999999;stroke:#CCCCCC;stroke-width:1.1135;stroke-miterlimit:10;}
	.st72{fill:none;stroke:#CCCCCC;stroke-width:1.3746;stroke-linejoin:bevel;stroke-miterlimit:10;}
	.st73{fill:none;stroke:#808080;stroke-width:1.2346;stroke-miterlimit:10;}
	.st74{fill:#999999;stroke:#808080;stroke-width:1.2346;stroke-miterlimit:10;}
	.st75{fill:none;stroke:#808080;stroke-width:1.2346;stroke-linejoin:bevel;stroke-miterlimit:10;}
	.st76{fill:#808080;stroke:#CCCCCC;stroke-miterlimit:10;}
	.st77{fill:#999999;stroke:#999999;stroke-width:0.5;stroke-miterlimit:10;}
	.st78{fill:none;stroke:#C5C8D1;stroke-miterlimit:10;}
	.st79{fill:#C5C8D1;stroke:#C5C8D1;stroke-miterlimit:10;}
	.st80{fill:none;stroke:#999999;stroke-width:1.3428;stroke-miterlimit:10;}
	.st81{fill:#999999;stroke:#999999;stroke-miterlimit:10;}
	.st82{fill:none;stroke:#B3B3B3;stroke-width:2;stroke-miterlimit:10;}
	.st83{fill:#666666;stroke:#999999;stroke-miterlimit:10;}
	.st84{fill:none;stroke:#999999;stroke-width:0.8128;stroke-miterlimit:10;}
	.st85{fill:none;stroke:#999999;stroke-width:0.8128;stroke-linejoin:round;stroke-miterlimit:10;}
	.st86{fill:#B3B3B3;stroke:#999999;stroke-miterlimit:10;}
	.st87{fill:#666666;stroke:#666666;stroke-miterlimit:10;}
	.st88{fill:none;stroke:#666666;stroke-miterlimit:10;}
	.st89{fill:#CCCCCC;stroke:#F2F2F2;stroke-miterlimit:10;}
	.st90{fill:none;stroke:#F2F2F2;stroke-miterlimit:10;}
	.st91{fill:#808080;}
	.st92{fill:#E6E6E6;}
	.st93{fill:none;stroke:#B3B3B3;stroke-width:1.3736;stroke-miterlimit:10;}
	.st94{fill:#E6E6E6;stroke:#E6E6E6;stroke-width:1.3736;stroke-miterlimit:10;}
	.st95{fill:#06749C;stroke:#808080;stroke-width:1.3736;stroke-miterlimit:10;}
	.st96{fill:none;stroke:#CCCCCC;stroke-width:1.3736;stroke-miterlimit:10;}
	.st97{fill:#999999;stroke:#999999;stroke-width:1.3736;stroke-miterlimit:10;}
	.st98{fill:#3CB6AB;stroke:#E6E6E6;stroke-width:1.3736;stroke-miterlimit:10;}
	.st99{fill:#F1D953;stroke:#666666;stroke-width:1.3736;stroke-miterlimit:10;}
	.st100{fill:#F2F2F2;}
	.st101{clip-path:url(#SVGID_14_);fill:url(#);stroke:#231F20;stroke-width:0.36;}
	.st102{fill:#3CB6AB;}
	.st103{fill:url(#);}
	.st104{fill:none;}
	.st105{fill:#06749C;stroke:#3CB6AB;stroke-miterlimit:10;}
	.st106{fill:#1A1A1A;}
	.st107{fill:#F0D4D0;stroke:#F0D4D0;stroke-width:1.3638;stroke-miterlimit:10;}
	.st108{fill:#06749C;stroke:#06749C;stroke-width:1.2346;stroke-miterlimit:10;}
	.st109{fill:none;stroke:#F79980;stroke-width:1.2346;stroke-miterlimit:10;}
	.st110{fill:#3CB6AB;stroke:#F79980;stroke-width:1.2346;stroke-miterlimit:10;}
	.st111{fill:none;stroke:#F79980;stroke-width:1.2346;stroke-linejoin:bevel;stroke-miterlimit:10;}
	.st112{fill:#F79980;stroke:#F79980;stroke-width:0.5;stroke-miterlimit:10;}
	.st113{fill:none;stroke:#3CB6AB;stroke-width:1.3428;stroke-miterlimit:10;}
	.st114{fill:#3CB6AB;stroke:#3CB6AB;stroke-miterlimit:10;}
	.st115{fill:none;stroke:#3CB6AB;stroke-width:1.2346;stroke-miterlimit:10;}
	.st116{fill:#3CB6AB;stroke:#3CB6AB;stroke-width:1.2346;stroke-miterlimit:10;}
	.st117{fill:none;stroke:#3CB6AB;stroke-width:1.2346;stroke-linejoin:bevel;stroke-miterlimit:10;}
	.st118{fill:none;stroke:#3CB6AB;stroke-width:0.8128;stroke-miterlimit:10;}
	.st119{fill:none;stroke:#3CB6AB;stroke-width:0.8128;stroke-linejoin:round;stroke-miterlimit:10;}
	.st120{fill:#CCE0E1;stroke:#CCE0E1;stroke-miterlimit:10;}
	.st121{fill:none;stroke:#CCE0E1;stroke-miterlimit:10;}
</style>
<g>
	<path class="st22" d="M22.6,3.4C22.5,1.7,21,0.2,19.2,0C18-0.1,17,0.2,16,0.9c-1.1,0.7-1.7,1.6-1.6,3c0,0.3,0,0.5,0,0.8
		c0,1.4,0,2.7-0.4,4.1c-0.1,0.4-0.1,0.8,0,1.2c0.3,1,0.7,2,1.4,2.9c0.2,0.2,0.3,0.4,0.5,0.6c0.7,0.5,1.4,1,2.1,1.4
		c0.9,0.5,1.5,0.4,2.2-0.4c0.4-0.4,0.6-0.8,1-1.2c0.5-0.5,0.7-1.1,0.9-1.8c0.4-1.6,0.5-3.3,0.4-5C22.6,5.4,22.7,4.4,22.6,3.4z"/>
	<path class="st22" d="M13.8,21.8c-0.5-1.5-1.3-2.2-2.7-1.8c-0.6,0.2-1.1,0.2-1.7,0c-0.9-0.3-1.6,0.1-2.2,0.9
		c-0.1,0.2-0.3,0.4-0.4,0.5c-0.4,0.4-0.5,0.9-0.5,1.5c0,0.7,0,1.4,0,2.1c-0.2,1.9,0.2,3.7,0.5,5.5c0.1,0.6,0.3,1.2,0.6,1.8
		c0.8,1.7,1.8,1.9,3.3,0.8c0.4-0.3,0.7-0.6,1.1-0.6c0.5-0.1,0.8-0.5,1.1-0.9c0.7-1.3,1.1-2.7,1.2-4.2c0-1.2,0-2.5,0-3.7
		C14.1,23,14,22.4,13.8,21.8z"/>
	<path class="st22" d="M12.4,58c-0.3-0.5-0.8-1-1.4-1.1c-0.8-0.2-2.3,0.5-2.7,1.3c-0.3,0.5-0.5,0.9-1,1.2c-1.4,0.9-1.8,2.3-1.5,3.8
		c0.2,1.2,0.5,2.4,0.8,3.6C6.8,68.2,7.7,69,9,69.4c1.1,0.4,2.3,0.3,3.4-0.1c1-0.3,1.5-1,1.5-2.1c0-0.8,0-1.7,0-2.5c0,0,0,0,0,0
		c0-0.6,0-1.2,0-1.9C14,61.1,13.3,59.5,12.4,58z"/>
	<path class="st22" d="M28.5,98.5c-1.4-0.9-3.2-0.7-3.9,1c-0.6,1.4-1.4,2.7-1.2,4.3c0,0.2-0.1,0.4-0.1,0.7c-0.4,2.4,0.4,4.4,2.3,6
		c1.4,1.2,3.3,0.8,4.2-0.8c0.1-0.2,0.2-0.3,0.2-0.5c0.7-1.7,0.9-3.4,1.1-5.2c-0.1-0.5-0.2-1-0.2-1.5C30.7,100.7,29.9,99.5,28.5,98.5
		z"/>
	<path class="st22" d="M5.9,1.9C5.7,1.8,5.4,1.7,5.1,1.5c-0.7-0.5-1.3-0.4-2,0C2.9,1.7,2.6,1.9,2.3,2.1C0.6,3.5,0,5.4,0,7.9
		c-0.2,2.1,1,4.2,2.4,6.2c0.1,0.1,0.2,0.2,0.3,0.3c0.4,0.4,0.8,0.4,1.3,0.1c0.3-0.2,0.5-0.6,1-0.7c0.8-0.1,1.2-0.6,1.5-1.3
		c0.2-0.5,0.4-1,0.5-1.5c0.5-1.9,0.7-3.8,0.8-5.8c0-0.3,0-0.6,0-0.9C7.5,3.2,7.1,2.4,5.9,1.9z"/>
	<path class="st22" d="M15.1,119.2c-0.7-0.5-1.4-0.5-2.1,0c-0.3,0.2-0.5,0.5-0.8,0.7c-0.4,0.4-0.6,0.9-1,1.2
		c-0.9,0.8-1.1,1.8-1.1,2.9c0,0.7,0,1.3,0,2c0,0,0,0,0,0c0,0.5,0,1,0,1.5c-0.1,1.2,0.3,2.3,0.9,3.3c0.4,0.6,1,1,1.7,1.2
		c0.7,0.2,1.5,0.2,2.2,0c0.7-0.1,1.1-0.6,1.3-1.2c0.1-0.2,0.1-0.4,0.2-0.6c0.3-1.3,0.5-2.5,0.7-3.8c0.2-1.5,0.2-3-0.2-4.5
		C16.7,120.8,16.1,119.9,15.1,119.2z"/>
	<path class="st22" d="M14.4,140.2c-0.3-0.8-1-1.4-1.7-1.8c-0.7-0.4-1.4-0.3-2,0.3c-0.6,0.6-1.1,1.3-1.4,2.1
		c-0.6,1.7-0.9,3.4-0.9,5.2c0.1,0.9,0.2,1.8,0.3,2.6c0.1,0.7,0.4,1.3,1,1.7c0.8,0.6,1.7,0.9,2.7,0.9c0.8,0,1.5-0.3,2-0.9
		c0.8-1.1,1.4-2.3,1.6-3.7c0.1-1.5,0-2.9-0.6-4.3C15,141.6,14.7,140.9,14.4,140.2z"/>
	<path class="st22" d="M28.2,23.3c0-0.5-0.2-1-0.4-1.4c-0.3-0.7-0.8-1-1.5-1.1c-0.5-0.1-1,0-1.4,0.3c-0.8,0.6-1.7,1.2-2.5,1.7
		c-0.4,0.3-0.6,0.7-0.8,1.2c-0.5,1.9-0.4,3.8,0.3,5.6c0.7,1.9,2.1,3.3,3.7,4.5c0.9,0.7,1.6,0.4,2.2-0.6c0.4-0.8,0.7-1.7,0.7-2.7
		c0-0.7,0-1.4,0-2.1c0,0,0.1,0,0.1,0C28.4,26.9,28.3,25.1,28.2,23.3z"/>
	<path class="st22" d="M11.5,40.7c-0.2-0.6-0.5-1-1.1-1.2c-0.3-0.1-0.5-0.2-0.7-0.3c-0.9-0.3-1.7-0.2-2.5,0.3
		c-0.4,0.2-0.7,0.5-1.1,0.7c-1,0.5-1.5,1.4-1.7,2.4C4.1,43.4,4.1,44.2,4,45c-0.3,1.3,0.4,2.1,1.4,2.8c0.5,0.3,1,0.8,1.5,1.1
		c0.5,0.3,0.9,0.7,1.5,0.9c0.6,0.3,1.3,0.2,1.9,0c0.6-0.2,0.9-0.7,1-1.3c0-0.4,0-0.9,0.1-1.3c0.2-0.7,0.4-1.4,0.6-2
		c0.5-1.2,0.5-2.3,0-3.5C11.7,41.3,11.5,41,11.5,40.7z"/>
	<path class="st22" d="M30.5,156.8c-0.6-1.2-1.9-1.6-3-1.9c-0.4-0.1-1,0-1.4,0.1c-0.6,0.1-1,0.5-1.2,1.1c-0.1,0.3-0.2,0.6-0.2,0.9
		c-0.2,1.1-0.3,2.2-0.4,3.3c-0.1,1.6,0.5,3,1.5,4.1c1,1.1,2.3,1.4,3.7,1c1.4-0.4,2.2-1.2,2.6-2.6c0.2-0.6,0.2-1.3,0.3-2
		c0-1.3-0.3-2.4-1.2-3.3C30.8,157.3,30.6,157.1,30.5,156.8z"/>
	<path class="st22" d="M27.9,171.3c-0.5-0.5-1.1-0.5-1.7,0c-0.5,0.3-0.9,0.8-1.2,1.2c-1.5,1.9-2.3,4.1-2.5,6.6c-0.1,1.7,0.6,3,1.9,4
		c0.9,0.7,1.8,0.7,2.7,0c0.3-0.2,0.6-0.6,0.8-0.9c0.7-1,1.3-2.1,1.5-3.4c0.2-1,0.4-2,0.5-3C30.1,174,29.2,172.6,27.9,171.3z"/>
	<path class="st22" d="M41.1,22.3c-0.8-0.4-1.5-0.7-2.3-0.9c-0.9-0.3-1.5,0.1-1.7,1c-0.2,0.9-0.6,1.7-1,2.6
		c-0.2,0.4-0.3,0.9-0.5,1.4c-0.3,1.1-0.2,2.1,0.4,3.1c0.3,0.5,0.5,0.9,0.6,1.5c0.1,0.3,0.2,0.7,0.4,1c0.6,0.7,1.2,1.3,1.9,1.9
		c0.4,0.4,0.9,0.3,1.3-0.1c0.9-0.9,1.7-1.9,1.9-3.3c0.1-0.8,0.3-1.6,0.4-2.4c0.1-0.6,0.2-1.2,0.3-1.9c-0.1-0.8-0.3-1.6-0.5-2.4
		C42.1,23.1,41.6,22.6,41.1,22.3z"/>
	<path class="st22" d="M30,120c-0.2-0.5-0.5-1-0.9-1.2c-0.8-0.4-1.5-0.7-2.3-1c-1.1-0.3-1.7,0-1.9,1.2c-0.1,0.7-0.4,1.3-0.7,1.9
		c-0.2,0.4-0.4,0.8-0.5,1.2c-0.5,1.3-0.5,2.6,0.2,3.8c0.3,0.4,0.4,0.9,0.5,1.4c0.1,0.4,0.2,0.9,0.5,1.2c0.4,0.5,1,1,1.5,1.5
		c0.5,0.5,1.1,0.4,1.7-0.1c1-0.9,1.6-2,1.9-3.3c0.1-0.9,0.3-1.8,0.5-2.7c0.1-0.4,0.1-0.9,0.1-1.3c0-0.4-0.1-0.8-0.1-1.2
		C30.2,120.9,30.1,120.4,30,120z"/>
	<path class="st22" d="M13.1,84.9c-0.5-1.7-2.5-1.8-3.4-0.9c-0.6,0.6-1.1,1.2-1.4,1.9c-0.7,1.7-0.8,3.5-0.5,5.3
		c0.2,1.2,0.8,2.3,1.7,3.2c0.5,0.5,1.1,0.8,1.8,0.7c1.4-0.1,2.7-1.3,2.8-2.7c0-0.5,0-1,0-1.1C14.2,88.9,13.6,86.9,13.1,84.9z"/>
	<path class="st22" d="M41.5,43.7c-0.4-0.8-1-1.3-1.9-1.2c-0.2,0-0.4,0-0.8,0c-0.1,0-0.3-0.1-0.6-0.1c-0.8,0-1.2,0.3-1.4,1.1
		c-0.1,0.4-0.1,0.8,0,1.2c0.1,0.8,0.1,1.5-0.1,2.2c-0.3,1-0.2,1.9,0.3,2.8c0.6,1.2,1.4,2.3,2.4,3.2c0.4,0.4,0.9,0.7,1.5,0.7
		c0.8,0.1,1.5-0.2,1.9-1c0.1-0.2,0.2-0.5,0.3-0.7c0.5-2,0.4-4-0.3-5.9C42.3,45.3,41.9,44.5,41.5,43.7z"/>
	<path class="st22" d="M30.8,143.6c-0.2,0-0.4,0-0.5,0.1c-0.3,0.4-0.5,0.9-0.8,1.4c-0.2,0-0.3,0.1-0.5,0.1c-1.4,0.5-2.2-0.5-3.2-1.2
		c-0.3-0.2-0.3-0.6-0.3-1c0.1-0.9,0.5-1.7,1.2-2.3c0.1-0.1,0.2-0.1,0.4-0.2c0.3,0.1,0.5,0.3,0.8,0.4c0.3-0.2,0.6-0.3,0.9-0.5
		c0.7,0.4,0.6,1.4,1.5,1.7c0-0.2,0.1-0.3,0.1-0.4c-0.2-2.4-2.6-4.4-4.7-4.8c-0.7-0.1-1.2,0.2-1.6,0.7c-0.2,0.3-0.4,0.7-0.4,1.1
		c-0.4,1.6-0.6,3.3-0.6,5c0,1.1,0.4,2.2,0.9,3.2c0.5,1,1.3,1.6,2.4,1.6c0.4,0,0.7,0,1.1,0.1c1,0.2,1.8-0.2,2.4-1
		c0.7-0.9,1-2,1.2-3.1c0-0.2,0-0.4,0-0.7C31,143.8,30.9,143.6,30.8,143.6z"/>
	<path class="st22" d="M15.8,103.9c-0.4-1-1.2-1.3-2.3-0.9c-1.6,0.6-2.4,1.9-2.4,3.1c0.1,2,0.2,3.4,0.3,4.8c0,0.5,0.2,1,0.4,1.5
		c0.2,0.6,0.7,1.1,1.2,1.5c0.8,0.6,1.7,0.5,2.4-0.3c0.3-0.3,0.5-0.6,0.7-1c0.3-0.6,0.6-1.3,0.9-1.9c0.3-0.6,0.3-1.3,0.2-1.9
		C17,107.1,16.5,105.5,15.8,103.9z"/>
	<path class="st22" d="M13.7,160c-0.5-0.6-0.9-1.2-1.2-1.9c-0.3-0.8-0.9-1-1.7-0.8c-0.5,0.1-0.9,0.3-1.2,0.8
		c-0.2,0.4-0.5,0.7-0.6,1.2c-0.2,0.8-0.5,1.5-0.6,2.3c-0.4,2.3,0.3,4.4,1.6,6.2c0.9,1.3,2.5,1.1,3.1-0.3c0.4-1.1,0.8-2.3,1.1-3.4
		c0.1-0.4,0.1-0.8,0.2-1.3c-0.1-0.6-0.1-1.2-0.3-1.9C14.1,160.5,13.9,160.2,13.7,160z"/>
	<path class="st22" d="M28.2,79.3c-0.8-0.7-1.5-0.7-2.3,0c-1.2,1.1-2.2,2.4-2.6,4.1c-0.1,0.3-0.2,0.7,0.2,1.2
		c0.1-0.6,0.2-0.9,0.2-1.2c0.1-0.5,0.3-0.9,0.7-1.2c0.6-0.5,1.3-1.1,1.9-1.6c0.6-0.5,1.1-0.5,1.7,0c0.7,0.6,0.9,1.4,1,2.3
		c0.2,2.2,0,4.3-0.6,6.4c-0.2,0.8-0.6,1.4-1.2,1.8c-0.4,0.3-0.6,0.3-1,0.1c-0.8-0.5-1.6-1-1.8-2c-0.1-0.2-0.2-0.4-0.3-0.6
		c-0.1-0.1-0.2-0.3-0.5-0.1c0,0.2,0,0.5,0.2,0.7c0.4,0.7,0.8,1.5,1.2,2.2c0.2,0.3,0.5,0.5,0.7,0.8c0.5,0.4,1.2,0.5,1.7,0
		c0.7-0.6,1.4-1.4,1.7-2.3c0.8-2.1,1.2-4.4,1-6.6C29.9,81.6,29.4,80.3,28.2,79.3z"/>
	<path class="st22" d="M28.7,61.5c-0.4-0.7-0.9-1.5-1.4-2.1c-0.9-1.1-2.2-1.2-3.4-0.4c-0.7,0.4-1,1.1-1.3,1.8
		c-0.3,0.8-0.6,1.7-0.8,2.5c-0.2,0.7-0.1,1.4,0.6,2.1c0.2-0.4,0.3-0.7,0.3-0.9c0.1-0.4,0-0.8,0.1-1.2c0-1.5,0.8-2.7,2-3.5
		c0.9-0.6,1.7-0.4,2.2,0.6c0.2,0.3,0.4,0.7,0.5,1.1c0.3,1.1,0.5,2.1,0.7,3.2c0.1,0.5,0,1,0,1.4c-0.2,0.9-0.4,1.8-1,2.6
		c-0.1,0.2-0.3,0.5-0.3,0.7c0,0.2,0.1,0.4,0.3,0.5c0.2,0.2,0.4,0,0.6-0.2c0,0,0.1-0.1,0.1-0.1c0.5-1,1-2,1-3.1c0.1-1.4,0-2.7,0-4.1
		C28.9,62.2,28.9,61.8,28.7,61.5z"/>
	<path class="st22" d="M28.5,45c0-0.5,0-1.1,0-1.6c0-1-0.3-1.8-0.8-2.6c-0.4-0.6-0.9-1.1-1.4-1.5c-0.4-0.3-0.8-0.4-1.2-0.2
		c-0.1,0-0.3,0.2-0.3,0.3c0,0.2,0,0.4,0.1,0.5c0.3,0.2,0.6,0.3,1,0.4c0.4,0.2,0.8,0.5,0.9,0.9c0.3,1.1,0.7,2.2,0.9,3.3
		c0.2,1.4,0.2,2.8-0.4,4.2c-0.1,0.2-0.1,0.4-0.1,0.7c0.9-0.2,1.1-0.2,1.3-0.5c0.3-0.3,0.3-0.7,0.3-1.1C28.6,46.7,28.5,45.9,28.5,45z
		"/>
</g>
</svg>
