<?xml version="1.0" encoding="utf-8"?>
<!-- Generator: Adobe Illustrator 21.0.0, SVG Export Plug-In . SVG Version: 6.00 Build 0)  -->
<svg version="1.1" id="Layer_1" xmlns="http://www.w3.org/2000/svg" xmlns:xlink="http://www.w3.org/1999/xlink" x="0px" y="0px"
	 viewBox="0 0 84.5 166.6" style="enable-background:new 0 0 84.5 166.6;" xml:space="preserve">
<style type="text/css">
	.st0{fill:none;stroke:#3CB6AB;stroke-miterlimit:10;}
	.st1{fill-rule:evenodd;clip-rule:evenodd;fill:#F79980;}
	.st2{fill-rule:evenodd;clip-rule:evenodd;fill:#F0D4D0;}
	.st3{fill-rule:evenodd;clip-rule:evenodd;fill:#F1D953;}
	.st4{fill-rule:evenodd;clip-rule:evenodd;fill:#3CB6AB;}
	.st5{fill-rule:evenodd;clip-rule:evenodd;fill:#CCE0E1;}
	.st6{fill-rule:evenodd;clip-rule:evenodd;fill:#C5C8D1;}
	.st7{fill-rule:evenodd;clip-rule:evenodd;fill:#06749C;}
	.st8{fill-rule:evenodd;clip-rule:evenodd;fill:#FFFFFF;}
	.st9{fill-rule:evenodd;clip-rule:evenodd;}
	.st10{fill:#06749C;}
	.st11{fill:#F79980;}
	.st12{fill:#F0D4D0;}
	.st13{fill:#F1D953;}
	.st14{clip-path:url(#SVGID_2_);}
	.st15{fill:none;stroke:#F1D953;stroke-width:0.75;}
	.st16{fill:#CCE0E1;}
	.st17{fill:none;stroke:#000000;stroke-width:0.75;}
	.st18{fill:none;stroke:#F0D4D0;stroke-miterlimit:10;}
	.st19{fill:none;stroke:#F1D953;stroke-miterlimit:10;}
	.st20{clip-path:url(#SVGID_4_);}
	.st21{clip-path:url(#SVGID_6_);}
	.st22{fill:#C5C8D1;}
	.st23{clip-path:url(#SVGID_8_);}
	.st24{fill:none;stroke:#000000;stroke-miterlimit:10;}
	.st25{clip-path:url(#SVGID_10_);}
	.st26{clip-path:url(#SVGID_12_);}
	.st27{fill:none;stroke:#F1D953;stroke-width:1.948;}
	.st28{fill:none;stroke:#000000;stroke-width:1.948;}
	.st29{fill:none;stroke:#F0D4D0;stroke-width:2.5973;stroke-miterlimit:10;}
	.st30{fill:none;stroke:#F1D953;stroke-width:2.5973;stroke-miterlimit:10;}
	.st31{fill:none;stroke:#000000;stroke-width:2.5973;stroke-miterlimit:10;}
	.st32{fill:#FFFFFF;}
	.st33{fill:#72B4A6;}
	.st34{fill:#F0D4D0;stroke:#C5C8D1;stroke-width:1.3638;stroke-miterlimit:10;}
	.st35{fill:none;stroke:#000000;stroke-linejoin:bevel;stroke-miterlimit:10;}
	.st36{fill:none;stroke:#C5C8D1;stroke-width:1.2346;stroke-miterlimit:10;}
	.st37{fill:#C5C8D1;stroke:#C5C8D1;stroke-width:1.2346;stroke-miterlimit:10;}
	.st38{fill:none;stroke:#C5C8D1;stroke-width:1.2346;stroke-linejoin:bevel;stroke-miterlimit:10;}
	.st39{fill:#F1D953;stroke:#72B4A6;stroke-miterlimit:10;}
	.st40{fill:#C5C8D1;stroke:#C5C8D1;stroke-width:0.5;stroke-miterlimit:10;}
	.st41{fill:none;stroke:#F79980;stroke-miterlimit:10;}
	.st42{fill:none;stroke:#72B4A6;stroke-miterlimit:10;}
	.st43{fill:none;stroke:#CCE0E1;stroke-width:2;stroke-miterlimit:10;}
	.st44{fill:#06749C;stroke:#06749C;stroke-miterlimit:10;}
	.st45{fill:none;stroke:#3CB6AB;stroke-width:0.6231;stroke-miterlimit:10;}
	.st46{fill:none;stroke:#3CB6AB;stroke-width:0.6231;stroke-linejoin:round;stroke-miterlimit:10;}
	.st47{fill:none;stroke:#06749C;stroke-miterlimit:10;}
	.st48{fill:none;stroke:#000000;stroke-linejoin:round;stroke-miterlimit:10;}
	.st49{fill:#F79980;stroke:#000000;stroke-width:0.5;stroke-miterlimit:10;}
	.st50{fill:#C5C8D1;stroke:#C5C8D1;stroke-width:1.3736;stroke-miterlimit:10;}
	.st51{fill:#E85B3F;}
	.st52{fill:#3CB6AB;stroke:#3CB6AB;stroke-width:1.3736;stroke-miterlimit:10;}
	.st53{fill:#F0D4D0;stroke:#F0D4D0;stroke-width:1.3736;stroke-miterlimit:10;}
	.st54{fill:none;stroke:#F0D4D0;stroke-width:1.3736;stroke-miterlimit:10;}
	.st55{fill:#CCE0E1;stroke:#CCE0E1;stroke-width:1.3736;stroke-miterlimit:10;}
	.st56{fill:#06749C;stroke:#06749C;stroke-width:1.3736;stroke-miterlimit:10;}
	.st57{fill:none;stroke:#3CB6AB;stroke-width:1.3736;stroke-miterlimit:10;}
	.st58{fill:#72B4A6;stroke:#72B4A6;stroke-width:1.3736;stroke-miterlimit:10;}
	.st59{fill:#F1D953;stroke:#F1D953;stroke-width:1.3736;stroke-miterlimit:10;}
	.st60{fill:none;stroke:#B3B3B3;stroke-miterlimit:10;}
	.st61{fill:none;stroke:#999999;stroke-miterlimit:10;}
	.st62{fill:#E6E6E6;stroke:#CCCCCC;stroke-miterlimit:10;}
	.st63{fill:none;stroke:#CCCCCC;stroke-miterlimit:10;}
	.st64{fill:#CCCCCC;}
	.st65{fill:#4D4D4D;}
	.st66{fill:#999999;}
	.st67{fill:#666666;}
	.st68{fill:#B3B3B3;}
	.st69{fill:#CCCCCC;stroke:#999999;stroke-width:1.3638;stroke-miterlimit:10;}
	.st70{fill:none;stroke:#CCCCCC;stroke-width:1.3746;stroke-miterlimit:10;}
	.st71{fill:#999999;stroke:#CCCCCC;stroke-width:1.1135;stroke-miterlimit:10;}
	.st72{fill:none;stroke:#CCCCCC;stroke-width:1.3746;stroke-linejoin:bevel;stroke-miterlimit:10;}
	.st73{fill:none;stroke:#808080;stroke-width:1.2346;stroke-miterlimit:10;}
	.st74{fill:#999999;stroke:#808080;stroke-width:1.2346;stroke-miterlimit:10;}
	.st75{fill:none;stroke:#808080;stroke-width:1.2346;stroke-linejoin:bevel;stroke-miterlimit:10;}
	.st76{fill:#808080;stroke:#CCCCCC;stroke-miterlimit:10;}
	.st77{fill:#999999;stroke:#999999;stroke-width:0.5;stroke-miterlimit:10;}
	.st78{fill:none;stroke:#C5C8D1;stroke-miterlimit:10;}
	.st79{fill:#C5C8D1;stroke:#C5C8D1;stroke-miterlimit:10;}
	.st80{fill:none;stroke:#999999;stroke-width:1.3428;stroke-miterlimit:10;}
	.st81{fill:#999999;stroke:#999999;stroke-miterlimit:10;}
	.st82{fill:none;stroke:#B3B3B3;stroke-width:2;stroke-miterlimit:10;}
	.st83{fill:#666666;stroke:#999999;stroke-miterlimit:10;}
	.st84{fill:none;stroke:#999999;stroke-width:0.8128;stroke-miterlimit:10;}
	.st85{fill:none;stroke:#999999;stroke-width:0.8128;stroke-linejoin:round;stroke-miterlimit:10;}
	.st86{fill:#B3B3B3;stroke:#999999;stroke-miterlimit:10;}
	.st87{fill:#666666;stroke:#666666;stroke-miterlimit:10;}
	.st88{fill:none;stroke:#666666;stroke-miterlimit:10;}
	.st89{fill:#CCCCCC;stroke:#F2F2F2;stroke-miterlimit:10;}
	.st90{fill:none;stroke:#F2F2F2;stroke-miterlimit:10;}
	.st91{fill:#808080;}
	.st92{fill:#E6E6E6;}
	.st93{fill:none;stroke:#B3B3B3;stroke-width:1.3736;stroke-miterlimit:10;}
	.st94{fill:#E6E6E6;stroke:#E6E6E6;stroke-width:1.3736;stroke-miterlimit:10;}
	.st95{fill:#06749C;stroke:#808080;stroke-width:1.3736;stroke-miterlimit:10;}
	.st96{fill:none;stroke:#CCCCCC;stroke-width:1.3736;stroke-miterlimit:10;}
	.st97{fill:#999999;stroke:#999999;stroke-width:1.3736;stroke-miterlimit:10;}
	.st98{fill:#3CB6AB;stroke:#E6E6E6;stroke-width:1.3736;stroke-miterlimit:10;}
	.st99{fill:#F1D953;stroke:#666666;stroke-width:1.3736;stroke-miterlimit:10;}
	.st100{fill:#F2F2F2;}
	.st101{clip-path:url(#SVGID_14_);fill:url(#);stroke:#231F20;stroke-width:0.36;}
	.st102{fill:#3CB6AB;}
	.st103{fill:url(#);}
	.st104{fill:none;}
	.st105{fill:#06749C;stroke:#3CB6AB;stroke-miterlimit:10;}
	.st106{fill:#1A1A1A;}
	.st107{fill:#F0D4D0;stroke:#F0D4D0;stroke-width:1.3638;stroke-miterlimit:10;}
	.st108{fill:#06749C;stroke:#06749C;stroke-width:1.2346;stroke-miterlimit:10;}
	.st109{fill:none;stroke:#F79980;stroke-width:1.2346;stroke-miterlimit:10;}
	.st110{fill:#3CB6AB;stroke:#F79980;stroke-width:1.2346;stroke-miterlimit:10;}
	.st111{fill:none;stroke:#F79980;stroke-width:1.2346;stroke-linejoin:bevel;stroke-miterlimit:10;}
	.st112{fill:#F79980;stroke:#F79980;stroke-width:0.5;stroke-miterlimit:10;}
	.st113{fill:none;stroke:#3CB6AB;stroke-width:1.3428;stroke-miterlimit:10;}
	.st114{fill:#3CB6AB;stroke:#3CB6AB;stroke-miterlimit:10;}
	.st115{fill:none;stroke:#3CB6AB;stroke-width:1.2346;stroke-miterlimit:10;}
	.st116{fill:#3CB6AB;stroke:#3CB6AB;stroke-width:1.2346;stroke-miterlimit:10;}
	.st117{fill:none;stroke:#3CB6AB;stroke-width:1.2346;stroke-linejoin:bevel;stroke-miterlimit:10;}
	.st118{fill:none;stroke:#3CB6AB;stroke-width:0.8128;stroke-miterlimit:10;}
	.st119{fill:none;stroke:#3CB6AB;stroke-width:0.8128;stroke-linejoin:round;stroke-miterlimit:10;}
	.st120{fill:#CCE0E1;stroke:#CCE0E1;stroke-miterlimit:10;}
	.st121{fill:none;stroke:#CCE0E1;stroke-miterlimit:10;}
</style>
<g>
	<path class="st11" d="M11,158.5c0.1,0.7,0.3,1.5,0.5,2.2c0.3,1,0.6,2.1,0.9,3.1c0.1,0.3,0.2,0.6,0.3,1c0.4,1.1,1.3,1.5,2.3,1.8
		c0.9,0.2,1.5-0.2,2.1-0.8c0.3-0.3,0.8-0.5,1.2-0.7c0.9-0.4,1.3-1,1.2-1.9c-0.2-1.8-0.3-3.6-0.6-5.4c-0.1-1-0.4-2-0.6-3
		c0,0,0.1,0,0.1,0c-0.1-0.7-0.2-1.3-0.2-2c0-0.9,0.3-1.2,1.2-1.2c1.9,0.1,3.9,0.2,5.8,0.3c0.7,0,1.4,0.1,2,0
		c0.6-0.1,1.3-0.2,1.6-0.6c0.8-1,2.1-1.5,2.7-2.7c0.2-0.5,0-1.2-0.5-1.4c-0.8-0.3-1.7-0.5-2.5-0.6c-0.6-0.1-1.2,0-1.8-0.1
		c-2.2-0.2-4.4-0.5-6.6-0.7c-0.5,0-1-0.1-1.4,0c-1.6,0.5-3.2,0.4-4.8,0.4c-0.6,0-1.2,0.1-1.8,0.1c-0.3,0-0.7,0.1-1,0.2
		c-0.8,0.2-1.1,0.8-0.9,1.5c0,0.1,0,0.1,0.1,0.2c0.7,1,0.5,2,0,3.1c-0.3,0.7-0.4,1.5-0.2,2.2C10.8,155,10.8,156.7,11,158.5z"/>
	<path class="st11" d="M42.4,82.3c0,0.9,0.4,1.7,0.8,2.5c0.6,1.1,1.1,2.3,1.8,3.4c1,1.8,2.1,3.6,3.2,5.4c0.4,0.7,1,1.2,1.7,1.7
		c0.8,0.6,1.7,1.1,2.6,1.5c0.5,0.2,1,0.3,1.5,0.3c0.8,0,1.4-0.6,1.4-1.4c0-0.8-0.1-1.6-0.3-2.4c-0.4-1.3-0.9-2.5-1.3-3.8
		c-0.5-1.4-0.9-2.8-1.3-4.2c-0.1-0.2,0-0.4,0-0.6c0.5-0.7,1.2-0.9,2-0.9c1.3-0.1,2.5-0.1,3.8-0.1c0.8,0,1.6,0,2.4-0.1
		c1.1-0.2,1.5-0.9,1.2-1.9c-0.2-0.8-0.5-1.5-0.8-2.3c-0.4-1-1.2-1.6-2.1-2c-1.9-0.9-4-0.8-5.9-0.6c-2.1,0.2-4.2,0.8-6.3,1.3
		c-0.7,0.2-1.4,0.3-2.2,0.5c-0.7,0.2-1.4,0.4-2.1,0.6c-0.6,0.2-0.8,0.7-0.6,1.3C42,81,42.4,81.6,42.4,82.3z"/>
	<path class="st11" d="M42.9,66.1c0.5,0.7,1.3,1.2,2.2,1.2c1.6-0.1,3,0.6,4.5,1c2.3,0.7,4.7,1.2,7.1,1.3c0.9,0,1.7,0,2.6-0.2
		c0.8-0.1,1.2-0.7,0.9-1.4c-0.4-1.1-0.9-2.3-1.5-3.3c-0.9-1.5-2.1-2.2-3.9-1.9c-1.2,0.2-2.4,0-3.8-0.4c0.7-1,1.4-1.7,2.1-2.2
		c1.5-1.1,2.9-2.1,4.3-3.3c1.7-1.5,1.8-2.2,0.7-4.2c-0.1-0.2-0.2-0.4-0.3-0.5c-0.4-0.7-1.1-1-1.9-1c-1.4,0-2.6,0.3-3.7,1.2
		c-1.9,1.5-3.8,3-5.9,4.3c-1.9,1.2-3.5,2.7-5.1,4.2c-0.6,0.5-0.8,1.1-0.4,1.8C41.5,63.8,42.1,65,42.9,66.1z"/>
	<path class="st11" d="M25.1,46.6c0.4,0.9,1,1.2,1.9,1.1c0.3,0,0.5-0.1,0.8-0.2c0.8-0.3,1.5-0.1,2.1,0.3c1.2,0.7,2.5,1.3,3.9,1.6
		c0.4,0.1,0.8,0.3,1.1,0.5c1.7,0.8,3.4,1.7,5.1,2.5c0.8,0.4,1.6,0.6,2.5,0.8c1.2,0.2,1.7-0.4,1.3-1.5c-0.3-0.6-0.6-1.2-0.9-1.8
		c-0.6-1.3-1.6-2.3-3-2.7c-1.5-0.5-2.8-1.2-4.4-2.3c0.7-0.4,1-0.6,1.4-0.7c1.1-0.4,2.3-0.8,3.4-1.3c0.5-0.2,1.1-0.6,1.5-1
		c0.9-0.8,1.1-1.6,0.5-2.7c-0.3-0.7-0.8-1.4-1.1-2.1c-0.4-0.8-1.1-1.1-2-1.1c-1.6,0-3,0.3-4.5,1c-2,1-4.1,1.9-6.2,2.9
		c-1.2,0.6-2.4,1.2-3.5,1.9c-0.4,0.2-0.6,0.6-0.5,1c0.1,0.9,0.1,1.7,0.3,2.6C24.8,45.7,25,46.2,25.1,46.6z"/>
	<path class="st11" d="M29.2,134.9c1.9-0.1,3.7-0.4,5.6-0.6c0.5-0.1,1-0.3,1.6-0.3c0.9-0.1,1.3,0.3,1.2,1.2
		c-0.3,1.5-0.5,3.1-1.1,4.5c-0.6,1.4-0.9,3-0.7,4.5c0.1,0.7,0.2,1.3,0.7,1.9c0.9,1.1,1.9,2.1,2.8,3.2c0.3,0.3,0.6,0.5,1.1,0.3
		c0.4-0.2,0.5-0.6,0.6-1c0-0.2,0-0.4,0-0.6c-0.2-1.7,0.3-3.3,0.7-5c0.4-1.4,0.8-2.7,1.2-4.1c0.4-1.6,0.8-3.1,1.2-4.7
		c0.2-0.9,0.5-1.7,1.1-2.4c0.2-0.3,0.4-0.7,0.6-1.1c0.5-1.4-0.1-2.4-1.5-2.7c-0.5-0.1-0.9-0.1-1.4,0c-0.7,0-1.3,0.1-2,0.2
		c0,0,0-0.1,0-0.1c-1.6,0.3-3.1,0.6-4.7,0.9c-1.5,0.3-3,0.6-4.5,0.8c-1.4,0.2-2.7,0.8-4,1.3c-0.9,0.4-1.1,1.1-0.7,2
		C27.2,134.3,28,135,29.2,134.9z"/>
	<path class="st11" d="M32.1,5.6c2.4,0.3,4.9,0.8,7.7,1.2c-0.4,0.8-0.6,1.4-0.9,1.9c-0.7,1-1.4,2-2.1,3c-0.8,1.2-1.6,2.5-2.3,3.8
		c-0.3,0.5-0.3,1,0,1.5c0.4,0.6,0.9,0.8,1.6,0.7c1.9-0.4,3.7-1.1,4.7-3.1c0.5-1,1.1-1.8,1.9-2.5c0.9-0.8,1.6-1.8,2.4-2.7
		c1.2-1.4,1.9-3.1,3.2-4.3c0.5-0.5,0.5-1,0.3-1.7c-0.5-1.6-1.5-2.6-3.1-2.8c-2.7-0.4-5.3-0.7-8-0.3c-1.5,0.2-2.9,0.5-4.3,0.8
		c-0.9,0.2-1.8,0.6-2.6,1.1c-0.4,0.2-0.7,0.6-1,0.9c-0.3,0.4-0.3,0.9,0.1,1.3C30.3,5.1,31.1,5.4,32.1,5.6z"/>
	<path class="st11" d="M1.2,100.4c0.4,0.8,0.9,1.2,1.8,1.5c2.3,0.8,4.5,1.6,6.8,2.5c0.3,0.1,0.5,0.2,0.7,0.3
		c0.6,0.3,0.8,0.8,0.5,1.3c-0.3,0.5-0.5,1.1-0.9,1.6c-1.5,1.6-2.3,3.6-3.4,5.5c-0.5,0.8-0.6,1.6-0.5,2.8c0.4,1.3,0.9,2.8,1.4,4.3
		c0,0.1,0.1,0.2,0.2,0.3c0.4,0.5,1,0.5,1.4,0c0.4-0.5,0.7-1.1,1-1.7c1.8-3.3,3.8-6.5,6.2-9.4c0.9-1.1,1.5-2.4,2.2-3.6
		c0.3-0.5,0.2-0.9-0.1-1.3c-1.3-1.8-2.9-3.2-5.2-3.6c-1.7-0.3-3.2-0.8-4.8-1.5c-0.6-0.2-1.3-0.4-1.9-0.6c-1.1-0.3-2.2-0.7-3.2-1.1
		c-0.7-0.2-1.4-0.4-2.1-0.5c-0.5-0.1-0.9,0.1-1.2,0.5c-0.3,0.5-0.1,0.9,0.2,1.3C0.7,99.5,1,99.9,1.2,100.4z"/>
	<path class="st11" d="M13.5,57.1c1,0.2,2.1,0.3,3.2,0.5c2,0.2,4,0.4,6.3,0.9c-0.5,0.6-0.7,0.9-1,1.1c-1.4,1.1-2.6,2.3-4.1,3.2
		c-1.2,0.7-2.1,1.7-2.9,2.8c-0.5,0.7-0.3,1.4,0.4,2.2c0.6,0.6,1.2,0.7,2,0.2c1.6-0.9,3.1-1.8,4.7-2.7c3.1-1.9,6-4,8.9-6.2
		c0.6-0.5,1.2-1.1,1.7-1.7c1.4-1.6,0.2-3.7-1.4-3.9c-0.3-0.1-0.7-0.2-1-0.2c-1.7,0-3.3-0.1-5-0.1c-1.3,0-2.7,0-4,0
		C19.2,53.2,17,53,14.9,53c-0.5,0-0.9,0-1.4,0.2c-1,0.3-1.5,1-1.5,1.9C12,56.3,12.4,56.9,13.5,57.1z"/>
	<path class="st11" d="M45.6,157.6c0.4,1,1.2,1.4,2.2,1.2c1.7-0.3,3.4-0.7,5.1-1.1c0.4-0.1,0.8-0.3,1.1-0.4c0.7-0.2,1.4-0.5,2.1-0.7
		c1.5-0.5,3.1-0.9,4.6-1.4c0.6-0.2,1.2-0.4,1.7-0.7c1.2-0.8,1.7-2.2,1-3.5c-0.4-0.8-1-1.6-1.6-2.3c-1.6-1.9-3.5-3.6-5.5-5
		c-1.5-1.1-3.1-2.2-4.6-3.2c-0.5-0.3-1.1-0.4-1.7-0.5c-0.7-0.1-1.3,0.4-1.4,1.2c-0.1,0.4-0.1,0.8,0.1,1.2c0.3,0.7,0.6,1.4,1,1.9
		c1,1.4,2.4,2.4,3.6,3.5c0.8,0.7,1.7,1.3,2.1,2.4c-0.3,0.3-0.3,0.4-0.4,0.4c-0.9,0.3-1.7,0.7-2.6,1c-2.3,0.7-4.2,2.1-6.3,3.1
		c-0.6,0.3-0.8,0.9-0.7,1.5C45.4,156.7,45.5,157.1,45.6,157.6z"/>
	<path class="st11" d="M51.9,125.3c0.4,1,1.1,1.5,2.2,1.4c1.1-0.1,2.3-0.2,3.4-0.2c1.2,0,2.4,0.1,3.6,0.2c0.8,0.1,1,0.6,0.8,1.3
		c-0.3,1-0.7,2-1.2,3c-0.3,0.8-0.6,1.7-0.4,2.5c0.1,0.9,0.3,1.7,1,2.4c0.3,0.3,0.6,0.7,0.9,1.1c1.3,1.4,2.1,1.3,2.7-0.5
		c0.4-0.9,0.6-1.9,1-2.9c1.4-3.3,2.7-6.6,4.7-9.6c1.1-1.6,0.3-3.3-1.6-3.7c-0.4-0.1-0.8-0.1-1.2-0.1c-2.7,0.3-5.3,0.6-8,0.8
		c-2,0.2-3.9,0.9-6,0.5c-0.3,0-0.5,0-0.8,0.1c-1.4,0.3-1.8,0.9-1.6,2.3C51.6,124.4,51.7,124.9,51.9,125.3z"/>
	<path class="st11" d="M10.6,132.7c0.2,0.3,0.2,0.6,0.3,1c0.4,1.9,1.8,3.3,2.7,4.9c1.5,1.1,2.9,2.2,4.4,3.2c0.5,0.3,1.1-0.1,1.1-0.7
		c-0.2-1.3-0.3-2.5-0.5-3.8c-0.1-0.4-0.2-0.8-0.3-1.2c-1-3-1.9-6-2.9-9c-0.3-1,0-1.3,1-1.5c0.3-0.1,0.7-0.1,1-0.1
		c1.1-0.2,2.2-0.4,3.3-0.6c1.5-0.3,3-0.8,4.5-1c0.9-0.2,1.4-0.7,1.7-1.5c0.3-0.9-0.1-1.6-0.7-2.1c-0.7-0.6-1.5-0.8-2.4-0.8
		c-0.1,0-0.2,0-0.2,0c-4.4,0.7-8.5,2.2-12.8,3.5c-0.4,0.1-0.7,0.4-1.1,0.6c-1.2,0.8-1.5,1.3-1.1,2.7C9.2,128.4,9.5,130.7,10.6,132.7
		z"/>
	<polygon class="st11" points="72.5,115.1 72.5,115.1 72.5,115.1 	"/>
	<path class="st11" d="M47.9,18.5c0.2,0.7,0.7,0.9,1.4,1c0.8,0,1.5-0.3,2.1-0.7c1.9-1.3,4.1-2,5.9-3.5c0.1,0,0.1-0.1,0.2-0.1
		c0.9-0.5,1.6-0.3,1.8,0.7c0.1,0.5,0.2,1.1,0.2,1.6c0.3,2,0.9,4,1.9,5.7c0.5,0.9,1.2,1.5,2.3,0.7c0.2-0.2,0.5-0.2,0.7-0.3
		c1.2-0.5,1.5-1,1.4-2.5c-0.1-0.3-0.2-0.7-0.3-1.2c-0.3-1.4-0.6-2.9-0.9-4.4c-0.4-2-0.7-4-1-6c-0.1-0.8-0.6-1.4-1.3-1.7
		c-1.3-0.4-2.6-0.7-3.9-0.2C56.8,8.3,55.4,9,54.1,10c-0.8,0.7-1.7,1.3-2.6,1.9c-1.1,0.7-2.3,1.5-3.4,2.2c-0.8,0.5-1.1,1.2-0.9,2.1
		C47.4,16.9,47.6,17.7,47.9,18.5z"/>
	<path class="st11" d="M6,87.2c0.8-0.1,1.6,0.1,2.4,0.2c1.2,0.3,2.3,0.7,3.5,0.8c3,0.3,6,0.6,9,0.8c0.6,0.1,1.3,0.2,1.6-0.5
		c0.3-0.6-0.1-1.2-0.4-1.7c-0.2-0.3-0.4-0.5-0.7-0.8c-1-1-2.3-1.6-3.7-1.9c-1.3-0.2-2.5-0.4-3.8-0.6c-0.8-0.2-1.7-0.2-2.7-0.9
		c0.2-0.4,0.2-0.7,0.4-0.8c1.6-1.5,3.2-3.1,4.8-4.6c0.6-0.6,1.1-1.2,1.6-1.8c0.7-1.1,0.4-2.4-0.7-3.2c-1.3-0.9-2.2-0.9-3.5,0.1
		c-0.5,0.4-0.9,0.8-1.3,1.3c-0.5,0.5-0.9,1-1.4,1.5c-1.3,1.3-2.6,2.6-3.8,3.9c-0.8,0.8-1.5,1.7-2.2,2.6c-0.6,0.8-1.1,1.7-1.7,2.5
		c-0.3,0.4-0.3,0.9-0.1,1.4C4,86.6,4.8,87.4,6,87.2z"/>
	<path class="st11" d="M72.5,115.1C72.5,115.1,72.5,115.1,72.5,115.1C72.5,115.1,72.5,115.1,72.5,115.1L72.5,115.1z"/>
	<path class="st11" d="M56.4,104.9c1.3,1.8,3.2,2.8,4.9,4.2c0.1,0.1,0.2,0.1,0.4,0.2c1.1,0.6,2.2,1.2,3.3,1.8
		c0.9,0.5,1.8,1.2,2.8,1.7c1.2,0.6,2.4,1.2,3.3,2.2c0.4,0.5,1,0.4,1.5,0.1c-0.3-1.6-1-3.1-2.2-4.2c-1.5-1.4-3-2.7-4.8-3.6
		c-1.1-0.6-2.2-1.3-3.3-2c-0.3-0.2-0.5-0.5-0.8-0.9c0.3-0.3,0.5-0.5,0.7-0.6c1.1-0.5,2.2-0.9,3.3-1.4c2.2-0.9,4.5-1.3,6.5-2.6
		c0.3-0.2,0.7-0.4,1-0.6c0.4-0.3,0.5-0.7,0.2-1.1c-0.7-1-1.5-1.9-2.3-2.8c-0.6-0.6-1.6-0.8-2.5-0.5c-1.8,0.7-3.7,1.3-5.4,2.2
		c-2.1,1.1-4.1,2.3-6.3,3.2c-0.4,0.2-0.7,0.3-1.1,0.6c-0.7,0.5-0.9,1.1-0.5,1.9C55.5,103.5,55.9,104.2,56.4,104.9z"/>
	<path class="st11" d="M18.2,99c0.4,0.8,1,1.1,1.8,0.8c0.3-0.1,0.6-0.3,0.9-0.4c1.6-0.9,3.5-1,5.2-1.4c0.2-0.1,0.5,0.1,0.8,0.1
		c0.2,1-0.2,1.5-0.4,2.1c-0.3,0.7-0.6,1.5-0.9,2.3c-0.5,1.5-1,2.9-1.5,4.4c-0.1,0.4-0.4,0.7-0.5,1.1c-0.3,1.1,0.7,2.6,1.8,2.7
		c0.2,0,0.6-0.1,0.7-0.3c0.5-0.6,0.9-1.1,1.3-1.8c0.6-1.1,1.2-2.3,1.8-3.4c0.3-0.5,0.5-1.1,0.8-1.6c0.8-1.8,1.6-3.6,2.4-5.3
		c0.6-1.2,1.3-2.3,2-3.5c0.6-1,0.5-1.7-0.3-2.6c-0.9-0.9-1.9-1.3-3.1-1c-1.4,0.3-2.7,0.6-4.1,1c-2.7,0.8-5.3,2-8.1,2.3
		c-0.1,0-0.1,0-0.2,0c-1.2,0.3-1.7,1.1-1.3,2.3C17.6,97.5,17.9,98.3,18.2,99z"/>
	<path class="st11" d="M62.6,62.6c0.3,0.2,0.7,0.4,1,0.6c1.4,0.8,2.8,1.5,4.2,2.4c1.6,1,3.1,2.1,4.6,3.2c0.8,0.6,1.6,1,2.5,1.2
		c0.4,0.1,0.8-0.3,0.8-0.7c0-0.2,0-0.4-0.1-0.6c-0.6-1.5-1.4-2.9-2.8-3.8c-1.4-0.9-2.8-1.8-4.2-2.7c-0.5-0.3-1-0.7-1.4-1.1
		c-0.5-0.4-0.4-1,0.2-1.3c0.1-0.1,0.2-0.1,0.3-0.2c2.2-1.3,4.5-2.6,6.7-4c2.9-1.8,2.9-2.1,0.6-5.2c-0.3-0.4-0.7-0.6-1.1-0.8
		c-0.4-0.2-0.8-0.2-1.3-0.2c-0.6,0.3-1.3,0.6-1.9,1c-1.2,0.8-2.3,1.6-3.5,2.4c-2,1.4-4,2.9-6.1,4.3c-0.2,0.2-0.4,0.3-0.6,0.5
		c-0.6,0.5-0.7,1.1-0.5,1.8C60.6,60.6,61.4,61.8,62.6,62.6z"/>
	<path class="st11" d="M13,19c0.5-0.2,1-0.4,1.4-0.7c1.8-1.2,3.8-2.3,4.9-4.3c0.4-0.7,0.9-1.5,1.9-1.9c0.3,0.2,0.7,0.4,0.9,0.7
		c0.7,1,1.4,2,2.1,3c1,1.3,2,2.5,3.1,3.7c0.7,0.7,1.5,0.5,1.9-0.4c0.3-0.8,0.3-1.6,0.1-2.4c-0.4-1.1-0.8-2.3-1.3-3.4
		C26.7,10.4,24.6,8,23.7,5c-0.1-0.2-0.3-0.5-0.4-0.7c-0.4-0.5-0.9-1.1-1.6-1.1c-1.4,0-2.7,0.3-3.6,1.5c-0.7,1-1.3,2-2,3.1
		c-1,1.7-1.9,3.4-2.9,5.1c-0.6,1.1-1.3,2.2-1.9,3.3C11,16.8,10.8,17.3,11,18C11.2,18.9,12.1,19.4,13,19z"/>
	<path class="st11" d="M66.3,146c0.3,0.2,0.6,0.2,0.9,0.3c2.5,0.9,5.1,1.8,7.6,2.6c1.4,0.4,2.8,1,4.3,1.1c1.4,0.2,2.9,0,4.4-0.2
		c1-0.1,1.3-1.1,0.5-1.8c-0.5-0.5-1.1-1-1.8-1.3c-2.3-1.2-4.7-2.4-7.1-3.3c-0.4-0.1-0.8-0.4-1.2-0.7c0.2-0.3,0.3-0.6,0.5-0.7
		c1.2-1,2.5-2,3.7-3.1c0.4-0.3,0.7-0.6,1.1-0.9c1.1-0.8,1.6-2,2.2-3.1c0.4-0.8,0.2-1.7-0.5-2.2c-0.6-0.4-1.2-0.2-1.7,0.1
		c-2.3,1.5-4.8,2.7-6.8,4.7c-1.2,1.2-2.6,2.3-4.2,3.1c-0.4,0.2-0.8,0.6-1,0.9c-0.4,0.6-0.9,1.1-1.5,1.6
		C65.1,144.1,65.2,145.4,66.3,146z"/>
	<path class="st11" d="M23.2,80.1c1,0.4,2,0.8,3,1.2c0.6,0.2,1.1,0.5,1.7,0.7c3,0.9,6,1.9,9,2.8c0.1,0,0.3,0.1,0.4,0.1
		c0.9,0.1,1.6-0.7,1.3-1.5c-0.2-0.5-0.5-1-0.9-1.3c-1.3-1.3-2.9-2.1-4.7-2.6c-1.5-0.4-3-0.9-4.4-1.4c-0.3-0.1-0.5-0.2-0.7-0.3
		c-0.3-0.2-0.3-0.7-0.1-0.9c0.3-0.2,0.5-0.4,0.8-0.6c1.9-0.9,3.9-1.8,5.8-2.7c0.8-0.4,1.7-0.9,2.5-1.4c0.4-0.3,0.9-0.6,1.2-1.1
		c1.1-1.4,0.5-3-1.3-3.3c-0.3-0.1-0.7,0-0.8-0.1c-1.1,0.1-1.6,0.3-2.8,1c-2,1.2-4.1,2.3-6.2,3.4c-2.1,1.1-4.1,2.3-6.1,3.5
		c-0.8,0.5-1,1-0.6,1.9C20.9,78.7,21.8,79.6,23.2,80.1z"/>
	<path class="st11" d="M36.6,112.2c1.8-0.4,3.5-0.9,5.3-1.3c0.2-0.1,0.5,0,0.8,0c0.3,0.7-0.1,1.3-0.2,1.8c-0.6,1.9-1.1,3.7-1.7,5.6
		c-0.2,0.8-0.2,1.6,0.2,2.4c0.6,1.1,1.1,2.2,1.6,3.2c0.2,0.4,0.5,0.8,1.1,0.8c0.1-0.2,0.3-0.4,0.4-0.6c0.7-2.4,1.3-4.9,2.2-7.4
		c1-2.9,1-5.9,2.1-8.8c0.5-1.4-0.5-2.8-2.1-3.1c-0.8-0.1-1.8-0.2-2.6,0.1c-3.1,0.8-6.2,1.8-9.3,2.7c-0.4,0.1-0.8,0.3-1.1,0.5
		c-0.8,0.5-1.1,1.4-0.6,2.3C33.5,111.9,35,112.6,36.6,112.2z"/>
	<path class="st11" d="M31,30.1c0.2,0.5,0.5,0.8,1,0.9c2,0.5,3.9,1.4,5.7,2.4c1.1,0.6,2.3,0.7,3.4,1.3c1.4,0.7,2.5-0.3,3.7-0.4
		c0.1,0,0.1,0,0.2,0c0.7-0.2,1.1-0.8,1.1-1.5c0-0.6-0.2-1-0.6-1.4c-0.6-0.6-1.3-1-2-1.2c-0.6-0.2-1.2-0.5-1.8-0.8
		c-0.1-0.1-0.3-0.4-0.2-0.5c0.1-0.2,0.3-0.5,0.5-0.5c0.4-0.1,0.8,0,1.2-0.1c0.8-0.1,1.6-0.3,2.3-0.5C46.8,27,48,26,49.2,25
		c0.5-0.3,0.5-0.8,0.4-1.3C49.4,23.3,49,23,48.5,23c-0.3,0-0.7,0.1-1,0.1c-0.8,0.1-1.6,0.2-2.4,0.2c-1.5,0-3.1,0-4.6,0
		c0,0,0,0.1,0,0.1c-0.8,0.1-1.6,0.1-2.4,0.2c-1.8,0.2-3.5,0.8-5.1,1.7c-0.8,0.5-1.5,1.1-2.1,1.9c-0.3,0.5-0.5,1-0.3,1.5
		C30.7,29.2,30.9,29.7,31,30.1z"/>
	<path class="st11" d="M52.5,41.1c1.6,0.2,3.2,0.4,4.8,0.6c1.7,0.2,1.9,0.7,1.2,2.3c-0.4,0.9-0.3,1.7,0.1,2.5
		c0.2,0.3,0.4,0.7,0.6,1.1c0.5,0.7,1.3,0.9,1.9,0.3c1-1,2-2,2.9-3c0.5-0.6,0.9-1.3,1.4-1.9c0.9-1,1.3-2,1.1-3.3
		c-0.1-0.5-0.1-0.9-0.1-1.4c-0.1-1.2-0.8-2-1.9-2.3c-1.9-0.5-3.9-1-5.9-0.8c-1.3,0.1-2.7,0-4,0c-1.3,0-2.7,0-4,0.5
		c-0.6,0.3-1.3,0.5-1.3,1.2c0.5,1,1,2,1.5,2.9C51.1,40.5,51.6,41,52.5,41.1z"/>
	<path class="st11" d="M9.7,33.8c0.4,0,0.8-0.1,1.2-0.3c0.7-0.3,1.5-0.7,2.1-1.1c1-0.7,1.9-1.5,2.9-2.2c0.9-0.7,1.5-0.6,2.3,0.2
		c0.3,0.3,0.5,0.6,0.8,0.9c1.2,1.6,2.8,2.7,4.3,3.9c0.2,0.1,0.3,0.2,0.5,0.3c0.7,0.4,1.5,0,1.5-0.8c0-0.9,0-1.9-0.4-2.8
		c-0.6-1.5-1.2-3.2-2.3-4.5c-0.6-0.7-0.9-1.5-0.7-2.4c0-1.4-0.4-2.2-1.6-2.8c-1.1-0.5-2.1-0.3-3.1,0.2c-1.7,1-3.4,1.9-4.8,3.2
		c-0.8,0.7-1.6,1.4-2.5,2.1c-1,0.7-1.7,1.5-1.6,2.8c0,0.3-0.2,0.6-0.3,1C7.5,33.2,8.1,34,9.7,33.8z"/>
</g>
</svg>
