<?xml version="1.0" encoding="utf-8"?>
<!-- Generator: Adobe Illustrator 21.0.0, SVG Export Plug-In . SVG Version: 6.00 Build 0)  -->
<svg version="1.1" id="Layer_1" xmlns="http://www.w3.org/2000/svg" xmlns:xlink="http://www.w3.org/1999/xlink" x="0px" y="0px"
	 viewBox="0 0 109.6 84.5" style="enable-background:new 0 0 109.6 84.5;" xml:space="preserve">
<style type="text/css">
	.st0{fill:none;stroke:#3CB6AB;stroke-miterlimit:10;}
	.st1{fill-rule:evenodd;clip-rule:evenodd;fill:#F79980;}
	.st2{fill-rule:evenodd;clip-rule:evenodd;fill:#F0D4D0;}
	.st3{fill-rule:evenodd;clip-rule:evenodd;fill:#F1D953;}
	.st4{fill-rule:evenodd;clip-rule:evenodd;fill:#3CB6AB;}
	.st5{fill-rule:evenodd;clip-rule:evenodd;fill:#CCE0E1;}
	.st6{fill-rule:evenodd;clip-rule:evenodd;fill:#C5C8D1;}
	.st7{fill-rule:evenodd;clip-rule:evenodd;fill:#06749C;}
	.st8{fill-rule:evenodd;clip-rule:evenodd;fill:#FFFFFF;}
	.st9{fill-rule:evenodd;clip-rule:evenodd;}
	.st10{fill:#06749C;}
	.st11{fill:#F79980;}
	.st12{fill:#F0D4D0;}
	.st13{fill:#F1D953;}
	.st14{clip-path:url(#SVGID_2_);}
	.st15{fill:none;stroke:#F1D953;stroke-width:0.75;}
	.st16{fill:#CCE0E1;}
	.st17{fill:none;stroke:#000000;stroke-width:0.75;}
	.st18{fill:none;stroke:#F0D4D0;stroke-miterlimit:10;}
	.st19{fill:none;stroke:#F1D953;stroke-miterlimit:10;}
	.st20{clip-path:url(#SVGID_4_);}
	.st21{clip-path:url(#SVGID_6_);}
	.st22{fill:#C5C8D1;}
	.st23{clip-path:url(#SVGID_8_);}
	.st24{fill:none;stroke:#000000;stroke-miterlimit:10;}
	.st25{clip-path:url(#SVGID_10_);}
	.st26{clip-path:url(#SVGID_12_);}
	.st27{fill:none;stroke:#F1D953;stroke-width:1.948;}
	.st28{fill:none;stroke:#000000;stroke-width:1.948;}
	.st29{fill:none;stroke:#F0D4D0;stroke-width:2.5973;stroke-miterlimit:10;}
	.st30{fill:none;stroke:#F1D953;stroke-width:2.5973;stroke-miterlimit:10;}
	.st31{fill:none;stroke:#000000;stroke-width:2.5973;stroke-miterlimit:10;}
	.st32{fill:#FFFFFF;}
	.st33{fill:#72B4A6;}
	.st34{fill:#F0D4D0;stroke:#C5C8D1;stroke-width:1.3638;stroke-miterlimit:10;}
	.st35{fill:none;stroke:#000000;stroke-linejoin:bevel;stroke-miterlimit:10;}
	.st36{fill:none;stroke:#C5C8D1;stroke-width:1.2346;stroke-miterlimit:10;}
	.st37{fill:#C5C8D1;stroke:#C5C8D1;stroke-width:1.2346;stroke-miterlimit:10;}
	.st38{fill:none;stroke:#C5C8D1;stroke-width:1.2346;stroke-linejoin:bevel;stroke-miterlimit:10;}
	.st39{fill:#F1D953;stroke:#72B4A6;stroke-miterlimit:10;}
	.st40{fill:#C5C8D1;stroke:#C5C8D1;stroke-width:0.5;stroke-miterlimit:10;}
	.st41{fill:none;stroke:#F79980;stroke-miterlimit:10;}
	.st42{fill:none;stroke:#72B4A6;stroke-miterlimit:10;}
	.st43{fill:none;stroke:#CCE0E1;stroke-width:2;stroke-miterlimit:10;}
	.st44{fill:#06749C;stroke:#06749C;stroke-miterlimit:10;}
	.st45{fill:none;stroke:#3CB6AB;stroke-width:0.6231;stroke-miterlimit:10;}
	.st46{fill:none;stroke:#3CB6AB;stroke-width:0.6231;stroke-linejoin:round;stroke-miterlimit:10;}
	.st47{fill:none;stroke:#06749C;stroke-miterlimit:10;}
	.st48{fill:none;stroke:#000000;stroke-linejoin:round;stroke-miterlimit:10;}
	.st49{fill:#F79980;stroke:#000000;stroke-width:0.5;stroke-miterlimit:10;}
	.st50{fill:#C5C8D1;stroke:#C5C8D1;stroke-width:1.3736;stroke-miterlimit:10;}
	.st51{fill:#E85B3F;}
	.st52{fill:#3CB6AB;stroke:#3CB6AB;stroke-width:1.3736;stroke-miterlimit:10;}
	.st53{fill:#F0D4D0;stroke:#F0D4D0;stroke-width:1.3736;stroke-miterlimit:10;}
	.st54{fill:none;stroke:#F0D4D0;stroke-width:1.3736;stroke-miterlimit:10;}
	.st55{fill:#CCE0E1;stroke:#CCE0E1;stroke-width:1.3736;stroke-miterlimit:10;}
	.st56{fill:#06749C;stroke:#06749C;stroke-width:1.3736;stroke-miterlimit:10;}
	.st57{fill:none;stroke:#3CB6AB;stroke-width:1.3736;stroke-miterlimit:10;}
	.st58{fill:#72B4A6;stroke:#72B4A6;stroke-width:1.3736;stroke-miterlimit:10;}
	.st59{fill:#F1D953;stroke:#F1D953;stroke-width:1.3736;stroke-miterlimit:10;}
	.st60{fill:none;stroke:#B3B3B3;stroke-miterlimit:10;}
	.st61{fill:none;stroke:#999999;stroke-miterlimit:10;}
	.st62{fill:#E6E6E6;stroke:#CCCCCC;stroke-miterlimit:10;}
	.st63{fill:none;stroke:#CCCCCC;stroke-miterlimit:10;}
	.st64{fill:#CCCCCC;}
	.st65{fill:#4D4D4D;}
	.st66{fill:#999999;}
	.st67{fill:#666666;}
	.st68{fill:#B3B3B3;}
	.st69{fill:#CCCCCC;stroke:#999999;stroke-width:1.3638;stroke-miterlimit:10;}
	.st70{fill:none;stroke:#CCCCCC;stroke-width:1.3746;stroke-miterlimit:10;}
	.st71{fill:#999999;stroke:#CCCCCC;stroke-width:1.1135;stroke-miterlimit:10;}
	.st72{fill:none;stroke:#CCCCCC;stroke-width:1.3746;stroke-linejoin:bevel;stroke-miterlimit:10;}
	.st73{fill:none;stroke:#808080;stroke-width:1.2346;stroke-miterlimit:10;}
	.st74{fill:#999999;stroke:#808080;stroke-width:1.2346;stroke-miterlimit:10;}
	.st75{fill:none;stroke:#808080;stroke-width:1.2346;stroke-linejoin:bevel;stroke-miterlimit:10;}
	.st76{fill:#808080;stroke:#CCCCCC;stroke-miterlimit:10;}
	.st77{fill:#999999;stroke:#999999;stroke-width:0.5;stroke-miterlimit:10;}
	.st78{fill:none;stroke:#C5C8D1;stroke-miterlimit:10;}
	.st79{fill:#C5C8D1;stroke:#C5C8D1;stroke-miterlimit:10;}
	.st80{fill:none;stroke:#999999;stroke-width:1.3428;stroke-miterlimit:10;}
	.st81{fill:#999999;stroke:#999999;stroke-miterlimit:10;}
	.st82{fill:none;stroke:#B3B3B3;stroke-width:2;stroke-miterlimit:10;}
	.st83{fill:#666666;stroke:#999999;stroke-miterlimit:10;}
	.st84{fill:none;stroke:#999999;stroke-width:0.8128;stroke-miterlimit:10;}
	.st85{fill:none;stroke:#999999;stroke-width:0.8128;stroke-linejoin:round;stroke-miterlimit:10;}
	.st86{fill:#B3B3B3;stroke:#999999;stroke-miterlimit:10;}
	.st87{fill:#666666;stroke:#666666;stroke-miterlimit:10;}
	.st88{fill:none;stroke:#666666;stroke-miterlimit:10;}
	.st89{fill:#CCCCCC;stroke:#F2F2F2;stroke-miterlimit:10;}
	.st90{fill:none;stroke:#F2F2F2;stroke-miterlimit:10;}
	.st91{fill:#808080;}
	.st92{fill:#E6E6E6;}
	.st93{fill:none;stroke:#B3B3B3;stroke-width:1.3736;stroke-miterlimit:10;}
	.st94{fill:#E6E6E6;stroke:#E6E6E6;stroke-width:1.3736;stroke-miterlimit:10;}
	.st95{fill:#06749C;stroke:#808080;stroke-width:1.3736;stroke-miterlimit:10;}
	.st96{fill:none;stroke:#CCCCCC;stroke-width:1.3736;stroke-miterlimit:10;}
	.st97{fill:#999999;stroke:#999999;stroke-width:1.3736;stroke-miterlimit:10;}
	.st98{fill:#3CB6AB;stroke:#E6E6E6;stroke-width:1.3736;stroke-miterlimit:10;}
	.st99{fill:#F1D953;stroke:#666666;stroke-width:1.3736;stroke-miterlimit:10;}
	.st100{fill:#F2F2F2;}
	.st101{clip-path:url(#SVGID_14_);fill:url(#);stroke:#231F20;stroke-width:0.36;}
	.st102{fill:#3CB6AB;}
	.st103{fill:url(#);}
	.st104{fill:none;}
	.st105{fill:#06749C;stroke:#3CB6AB;stroke-miterlimit:10;}
	.st106{fill:#1A1A1A;}
	.st107{fill:#F0D4D0;stroke:#F0D4D0;stroke-width:1.3638;stroke-miterlimit:10;}
	.st108{fill:#06749C;stroke:#06749C;stroke-width:1.2346;stroke-miterlimit:10;}
	.st109{fill:none;stroke:#F79980;stroke-width:1.2346;stroke-miterlimit:10;}
	.st110{fill:#3CB6AB;stroke:#F79980;stroke-width:1.2346;stroke-miterlimit:10;}
	.st111{fill:none;stroke:#F79980;stroke-width:1.2346;stroke-linejoin:bevel;stroke-miterlimit:10;}
	.st112{fill:#F79980;stroke:#F79980;stroke-width:0.5;stroke-miterlimit:10;}
	.st113{fill:none;stroke:#3CB6AB;stroke-width:1.3428;stroke-miterlimit:10;}
	.st114{fill:#3CB6AB;stroke:#3CB6AB;stroke-miterlimit:10;}
	.st115{fill:none;stroke:#3CB6AB;stroke-width:1.2346;stroke-miterlimit:10;}
	.st116{fill:#3CB6AB;stroke:#3CB6AB;stroke-width:1.2346;stroke-miterlimit:10;}
	.st117{fill:none;stroke:#3CB6AB;stroke-width:1.2346;stroke-linejoin:bevel;stroke-miterlimit:10;}
	.st118{fill:none;stroke:#3CB6AB;stroke-width:0.8128;stroke-miterlimit:10;}
	.st119{fill:none;stroke:#3CB6AB;stroke-width:0.8128;stroke-linejoin:round;stroke-miterlimit:10;}
	.st120{fill:#CCE0E1;stroke:#CCE0E1;stroke-miterlimit:10;}
	.st121{fill:none;stroke:#CCE0E1;stroke-miterlimit:10;}
</style>
<g>
	<path class="st109" d="M23.1,73.4c0.4,1,0.9,2,1.3,3.1c4.5,2.6,32.8-1.5,46.5-13.1c-0.2-1.1-0.3-2.1-0.5-3.2
		C65.7,31.7,58.8,15.7,56.5,11c-5.1,3.4-13.3,7-22.9,9.7c-9.4,2.7-18.2,3.9-24.3,3.7C9.6,29.5,11.4,45.6,23.1,73.4z"/>
	<g>
		<path class="st110" d="M17.4,80.6c1.3,4.5,16,4.3,32.9-0.4c16.9-4.8,29.6-12.3,28.3-16.8c-0.5-1.9-3.6-3-8.3-3.2
			c0.2,1,0.3,2.1,0.5,3.2C57.2,74.9,28.9,79,24.4,76.4c-0.5-1-0.9-2.1-1.3-3.1C19.1,76,16.9,78.6,17.4,80.6z"/>
		<path class="st110" d="M29,4.3c16.9-4.8,31.6-4.9,32.9-0.4c0.6,2-1.5,4.5-5.4,7.1c-5.1,3.4-13.3,7-22.9,9.7
			c-9.4,2.7-18.2,3.9-24.3,3.7c-4.9-0.2-8-1.3-8.6-3.2C-0.6,16.6,12.1,9.1,29,4.3z M18.4,15.9c0.4,1.6,6.6,1.2,13.7-0.8
			s12.5-4.9,12.1-6.5s-6.6-1.2-13.7,0.8S17.9,14.3,18.4,15.9z"/>
	</g>
	<path class="st111" d="M57.8,13.9c0,0-36.4,17.9-48.1,14.9c3.7,3.4,49.1-11.4,49.1-11.4c-6.5,9.9-39.5,17.5-48,17.8
		c7.2,0.8,47.9-4.8,51.1-10.6c-12.2,8.8-41.3,17-50,16c5.5,2.2,40.5-1.1,51.9-10.2c-5.4,7.1-41.5,19.2-49.5,18.4
		c3,1.9,45.6-1.2,51.6-11c-8.4,9.2-44.1,18.8-49.1,18.7c4,1.9,45.6-1.7,51.2-9.5C51.8,57.6,20,65.6,20,65.6s48.6-15.3,49.1-12.8
		c0.5,2.5-40,16.6-47.9,15.8c6.5,1.2,42.8-2.7,49.2-8.4C55.3,70.1,30.2,77,23.8,75"/>
	<path class="st111" d="M58.4,15.3c0,0-17.7,10.6-21.6,11c5.9-0.2,19.9-2.4,23.5-4.5c-4.9,3.7-26.6,9.1-27.1,10.7
		c6.8,2.2,28.1-4.9,29.6-4.8c0,0-17.8,9.8-23.4,10.3c1.9,0.6,23-2.8,25.3-3.5c-3.9,4.5-19,9.9-23.1,10.5c3.6,3.6,25.3-2.1,25.3-2.1
		c-4.2,3.5-25.3,9.9-25.3,9.9c6.2,1.5,27.6-6.8,26.2-5.9c-1.5,0.9-22.4,14-26.4,14.9c-1.3,0.8,28.4-5,28.4-4.6
		c-6.6,4.6-27,11.9-32,12.4s29.7-3.6,33-6.4c3.3-2.7-28.5,10.2-28.5,10.2l28.3-11.7"/>
	<path class="st111" d="M105.6,18.8c0,0,1.2-3.2-1.7-6c-1.8-1.7-7.6-1.2-8.8,3.8s8.7,11.8,2.3,18.1s-10.8,7.4-12.9,4.5
		c-3.3-4.7,5.1-9.9,16.9-0.6s7,20.8,3.2,22.8c-12.3,6.4-20.6-7.9-34.4-2"/>
</g>
</svg>
