<?xml version="1.0" encoding="utf-8"?>
<!-- Generator: Adobe Illustrator 21.0.0, SVG Export Plug-In . SVG Version: 6.00 Build 0)  -->
<svg version="1.1" id="Layer_1" xmlns="http://www.w3.org/2000/svg" xmlns:xlink="http://www.w3.org/1999/xlink" x="0px" y="0px"
	 viewBox="0 0 134.6 204.6" style="enable-background:new 0 0 134.6 204.6;" xml:space="preserve">
<style type="text/css">
	.st0{fill:none;stroke:#3CB6AB;stroke-miterlimit:10;}
	.st1{fill-rule:evenodd;clip-rule:evenodd;fill:#F79980;}
	.st2{fill-rule:evenodd;clip-rule:evenodd;fill:#F0D4D0;}
	.st3{fill-rule:evenodd;clip-rule:evenodd;fill:#F1D953;}
	.st4{fill-rule:evenodd;clip-rule:evenodd;fill:#3CB6AB;}
	.st5{fill-rule:evenodd;clip-rule:evenodd;fill:#CCE0E1;}
	.st6{fill-rule:evenodd;clip-rule:evenodd;fill:#C5C8D1;}
	.st7{fill-rule:evenodd;clip-rule:evenodd;fill:#06749C;}
	.st8{fill-rule:evenodd;clip-rule:evenodd;fill:#FFFFFF;}
	.st9{fill-rule:evenodd;clip-rule:evenodd;}
	.st10{fill:#06749C;}
	.st11{fill:#F79980;}
	.st12{fill:#F0D4D0;}
	.st13{fill:#F1D953;}
	.st14{clip-path:url(#SVGID_2_);}
	.st15{fill:none;stroke:#F1D953;stroke-width:0.75;}
	.st16{fill:#CCE0E1;}
	.st17{fill:none;stroke:#000000;stroke-width:0.75;}
	.st18{fill:none;stroke:#F0D4D0;stroke-miterlimit:10;}
	.st19{fill:none;stroke:#F1D953;stroke-miterlimit:10;}
	.st20{clip-path:url(#SVGID_4_);}
	.st21{clip-path:url(#SVGID_6_);}
	.st22{fill:#C5C8D1;}
	.st23{clip-path:url(#SVGID_8_);}
	.st24{fill:none;stroke:#000000;stroke-miterlimit:10;}
	.st25{clip-path:url(#SVGID_10_);}
	.st26{clip-path:url(#SVGID_12_);}
	.st27{fill:none;stroke:#F1D953;stroke-width:1.948;}
	.st28{fill:none;stroke:#000000;stroke-width:1.948;}
	.st29{fill:none;stroke:#F0D4D0;stroke-width:2.5973;stroke-miterlimit:10;}
	.st30{fill:none;stroke:#F1D953;stroke-width:2.5973;stroke-miterlimit:10;}
	.st31{fill:none;stroke:#000000;stroke-width:2.5973;stroke-miterlimit:10;}
	.st32{fill:#FFFFFF;}
	.st33{fill:#72B4A6;}
	.st34{fill:#F0D4D0;stroke:#C5C8D1;stroke-width:1.3638;stroke-miterlimit:10;}
	.st35{fill:none;stroke:#000000;stroke-linejoin:bevel;stroke-miterlimit:10;}
	.st36{fill:none;stroke:#C5C8D1;stroke-width:1.2346;stroke-miterlimit:10;}
	.st37{fill:#C5C8D1;stroke:#C5C8D1;stroke-width:1.2346;stroke-miterlimit:10;}
	.st38{fill:none;stroke:#C5C8D1;stroke-width:1.2346;stroke-linejoin:bevel;stroke-miterlimit:10;}
	.st39{fill:#F1D953;stroke:#72B4A6;stroke-miterlimit:10;}
	.st40{fill:#C5C8D1;stroke:#C5C8D1;stroke-width:0.5;stroke-miterlimit:10;}
	.st41{fill:none;stroke:#F79980;stroke-miterlimit:10;}
	.st42{fill:none;stroke:#72B4A6;stroke-miterlimit:10;}
	.st43{fill:none;stroke:#CCE0E1;stroke-width:2;stroke-miterlimit:10;}
	.st44{fill:#06749C;stroke:#06749C;stroke-miterlimit:10;}
	.st45{fill:none;stroke:#3CB6AB;stroke-width:0.6231;stroke-miterlimit:10;}
	.st46{fill:none;stroke:#3CB6AB;stroke-width:0.6231;stroke-linejoin:round;stroke-miterlimit:10;}
	.st47{fill:none;stroke:#06749C;stroke-miterlimit:10;}
	.st48{fill:none;stroke:#000000;stroke-linejoin:round;stroke-miterlimit:10;}
	.st49{fill:#F79980;stroke:#000000;stroke-width:0.5;stroke-miterlimit:10;}
	.st50{fill:#C5C8D1;stroke:#C5C8D1;stroke-width:1.3736;stroke-miterlimit:10;}
	.st51{fill:#E85B3F;}
	.st52{fill:#3CB6AB;stroke:#3CB6AB;stroke-width:1.3736;stroke-miterlimit:10;}
	.st53{fill:#F0D4D0;stroke:#F0D4D0;stroke-width:1.3736;stroke-miterlimit:10;}
	.st54{fill:none;stroke:#F0D4D0;stroke-width:1.3736;stroke-miterlimit:10;}
	.st55{fill:#CCE0E1;stroke:#CCE0E1;stroke-width:1.3736;stroke-miterlimit:10;}
	.st56{fill:#06749C;stroke:#06749C;stroke-width:1.3736;stroke-miterlimit:10;}
	.st57{fill:none;stroke:#3CB6AB;stroke-width:1.3736;stroke-miterlimit:10;}
	.st58{fill:#72B4A6;stroke:#72B4A6;stroke-width:1.3736;stroke-miterlimit:10;}
	.st59{fill:#F1D953;stroke:#F1D953;stroke-width:1.3736;stroke-miterlimit:10;}
	.st60{fill:none;stroke:#B3B3B3;stroke-miterlimit:10;}
	.st61{fill:none;stroke:#999999;stroke-miterlimit:10;}
	.st62{fill:#E6E6E6;stroke:#CCCCCC;stroke-miterlimit:10;}
	.st63{fill:none;stroke:#CCCCCC;stroke-miterlimit:10;}
	.st64{fill:#CCCCCC;}
	.st65{fill:#4D4D4D;}
	.st66{fill:#999999;}
	.st67{fill:#666666;}
	.st68{fill:#B3B3B3;}
	.st69{fill:#CCCCCC;stroke:#999999;stroke-width:1.3638;stroke-miterlimit:10;}
	.st70{fill:none;stroke:#CCCCCC;stroke-width:1.3746;stroke-miterlimit:10;}
	.st71{fill:#999999;stroke:#CCCCCC;stroke-width:1.1135;stroke-miterlimit:10;}
	.st72{fill:none;stroke:#CCCCCC;stroke-width:1.3746;stroke-linejoin:bevel;stroke-miterlimit:10;}
	.st73{fill:none;stroke:#808080;stroke-width:1.2346;stroke-miterlimit:10;}
	.st74{fill:#999999;stroke:#808080;stroke-width:1.2346;stroke-miterlimit:10;}
	.st75{fill:none;stroke:#808080;stroke-width:1.2346;stroke-linejoin:bevel;stroke-miterlimit:10;}
	.st76{fill:#808080;stroke:#CCCCCC;stroke-miterlimit:10;}
	.st77{fill:#999999;stroke:#999999;stroke-width:0.5;stroke-miterlimit:10;}
	.st78{fill:none;stroke:#C5C8D1;stroke-miterlimit:10;}
	.st79{fill:#C5C8D1;stroke:#C5C8D1;stroke-miterlimit:10;}
	.st80{fill:none;stroke:#999999;stroke-width:1.3428;stroke-miterlimit:10;}
	.st81{fill:#999999;stroke:#999999;stroke-miterlimit:10;}
	.st82{fill:none;stroke:#B3B3B3;stroke-width:2;stroke-miterlimit:10;}
	.st83{fill:#666666;stroke:#999999;stroke-miterlimit:10;}
	.st84{fill:none;stroke:#999999;stroke-width:0.8128;stroke-miterlimit:10;}
	.st85{fill:none;stroke:#999999;stroke-width:0.8128;stroke-linejoin:round;stroke-miterlimit:10;}
	.st86{fill:#B3B3B3;stroke:#999999;stroke-miterlimit:10;}
	.st87{fill:#666666;stroke:#666666;stroke-miterlimit:10;}
	.st88{fill:none;stroke:#666666;stroke-miterlimit:10;}
	.st89{fill:#CCCCCC;stroke:#F2F2F2;stroke-miterlimit:10;}
	.st90{fill:none;stroke:#F2F2F2;stroke-miterlimit:10;}
	.st91{fill:#808080;}
	.st92{fill:#E6E6E6;}
	.st93{fill:none;stroke:#B3B3B3;stroke-width:1.3736;stroke-miterlimit:10;}
	.st94{fill:#E6E6E6;stroke:#E6E6E6;stroke-width:1.3736;stroke-miterlimit:10;}
	.st95{fill:#06749C;stroke:#808080;stroke-width:1.3736;stroke-miterlimit:10;}
	.st96{fill:none;stroke:#CCCCCC;stroke-width:1.3736;stroke-miterlimit:10;}
	.st97{fill:#999999;stroke:#999999;stroke-width:1.3736;stroke-miterlimit:10;}
	.st98{fill:#3CB6AB;stroke:#E6E6E6;stroke-width:1.3736;stroke-miterlimit:10;}
	.st99{fill:#F1D953;stroke:#666666;stroke-width:1.3736;stroke-miterlimit:10;}
	.st100{fill:#F2F2F2;}
	.st101{clip-path:url(#SVGID_14_);fill:url(#);stroke:#231F20;stroke-width:0.36;}
	.st102{fill:#3CB6AB;}
	.st103{fill:url(#);}
	.st104{fill:none;}
	.st105{fill:#06749C;stroke:#3CB6AB;stroke-miterlimit:10;}
	.st106{fill:#1A1A1A;}
	.st107{fill:#F0D4D0;stroke:#F0D4D0;stroke-width:1.3638;stroke-miterlimit:10;}
	.st108{fill:#06749C;stroke:#06749C;stroke-width:1.2346;stroke-miterlimit:10;}
	.st109{fill:none;stroke:#F79980;stroke-width:1.2346;stroke-miterlimit:10;}
	.st110{fill:#3CB6AB;stroke:#F79980;stroke-width:1.2346;stroke-miterlimit:10;}
	.st111{fill:none;stroke:#F79980;stroke-width:1.2346;stroke-linejoin:bevel;stroke-miterlimit:10;}
	.st112{fill:#F79980;stroke:#F79980;stroke-width:0.5;stroke-miterlimit:10;}
	.st113{fill:none;stroke:#3CB6AB;stroke-width:1.3428;stroke-miterlimit:10;}
	.st114{fill:#3CB6AB;stroke:#3CB6AB;stroke-miterlimit:10;}
	.st115{fill:none;stroke:#3CB6AB;stroke-width:1.2346;stroke-miterlimit:10;}
	.st116{fill:#3CB6AB;stroke:#3CB6AB;stroke-width:1.2346;stroke-miterlimit:10;}
	.st117{fill:none;stroke:#3CB6AB;stroke-width:1.2346;stroke-linejoin:bevel;stroke-miterlimit:10;}
	.st118{fill:none;stroke:#3CB6AB;stroke-width:0.8128;stroke-miterlimit:10;}
	.st119{fill:none;stroke:#3CB6AB;stroke-width:0.8128;stroke-linejoin:round;stroke-miterlimit:10;}
	.st120{fill:#CCE0E1;stroke:#CCE0E1;stroke-miterlimit:10;}
	.st121{fill:none;stroke:#CCE0E1;stroke-miterlimit:10;}
</style>
<g>
	<path class="st13" d="M126,183.1c-0.2-0.4-0.5-0.7-0.8-1c-0.3-0.3-0.6-0.6-0.8-1c-0.3-0.6-0.7-1.1-1.2-1.6c-0.6-0.6-1.3-1.2-1.7-2
		c-0.2-0.4-0.6-0.8-0.9-1.2c-0.2-0.2-0.5-0.4-0.8-0.6c-0.4-0.2-0.7-0.2-1,0.2c-0.3,0.3-0.7,0.5-1.1,0.7c-0.4,0.2-0.7,0.3-1.1,0.5
		c-0.4,0.2-0.8,0.4-1.1,0.6c-0.5,0.3-0.7,0.8-0.5,1.4c0.2,0.5,0.3,1.1,0.4,1.6c0.1,0.5,0.3,1,0.7,1.2c0.4,0.2,0.6,0.6,0.7,0.9
		c0.1,0.2,0.2,0.5,0.3,0.7l10.3,1.2c-0.1-0.1-0.2-0.2-0.3-0.2C126.8,184.2,126.4,183.7,126,183.1z"/>
	<path class="st13" d="M68.5,73c-0.2-0.3-0.4-0.6-0.6-0.9c-0.8-0.8-1.4-1.7-1.9-2.8c-0.1-0.2-0.2-0.3-0.3-0.5
		c-0.2-0.3-0.4-0.6-0.6-0.9c-0.7-1.5-1.5-3-2.4-4.4c-0.2-0.2-0.3-0.5-0.4-0.8c-0.4-1.1-1.1-2.2-1.8-3.1c-0.2-0.3-0.4-0.5-0.6-0.8
		c-0.9-1.6-2-3.1-3-4.6c-0.2-0.3-0.4-0.5-0.7-0.7c-0.8-0.4-1.6-0.4-2.3,0c-0.7,0.4-1.5,0.6-2.2,0.9c-1,0.4-1.8,0.9-2.3,2
		c-0.1,0.2-0.3,0.4-0.5,0.6c-0.2,0.3-0.4,0.6-0.4,1c0,0.5-0.2,0.9-0.5,1.2c-0.1,0.1-0.2,0.3-0.3,0.4c-0.4,0.5-0.4,1-0.1,1.5
		c0.3,0.4,0.6,0.8,0.8,1.2c0.3,0.5,0.7,0.9,1,1.4c0.3,0.5,0.6,1,0.9,1.4c0.2,0.3,0.4,0.5,0.6,0.8c0.6,0.9,1.2,1.7,1.7,2.6
		c0.1,0.2,0.2,0.3,0.3,0.5c0.6,1.3,1.5,2.4,2.3,3.6c0.2,0.3,0.5,0.7,0.8,0.9c0.6,0.4,1,0.9,1.4,1.4c0.3,0.3,0.5,0.7,0.8,1
		c0.6,0.6,1.1,1.1,2,1.2c0.2,0,0.4,0.2,0.6,0.3c0.4,0.2,0.7,0.5,1.1,0.7c0.3,0.2,0.7,0.3,1.1,0.5c0.4,0,0.8-0.1,1.2-0.3
		c1.3-0.6,2.4-1.3,3.5-2.1c0.4-0.3,0.8-0.6,1.2-0.9c0.5-0.5,0.5-1,0.1-1.5C68.9,73.6,68.7,73.3,68.5,73z"/>
	<path class="st13" d="M43.7,140.5c-0.3-0.6-0.7-1.1-1.2-1.6c-0.1-0.1-0.2-0.3-0.4-0.5c-0.8-0.9-1-2.2-1.9-3
		c-0.1-0.1-0.1-0.2-0.1-0.3c-0.5-1.1-1.1-2.1-1.6-3.2c-0.4-0.8-1-1.5-1.4-2.3c-0.5-1.1-1-2.1-1.8-3c-0.2-0.2-0.3-0.5-0.5-0.8
		c-0.4-0.7-0.8-1.3-1.2-2c-0.5-0.8-1.1-1.6-1.6-2.4c-0.4-0.7-1-1-1.7-1.1c-0.6-0.1-1.1,0-1.5,0.3c-0.7,0.4-1.4,0.7-2.1,0.9
		c-0.7,0.2-1.3,0.7-1.8,1.2c-0.5,0.6-0.9,1.2-1.2,1.9c-0.1,0.2-0.1,0.5-0.1,0.7c0,0.3-0.1,0.6-0.3,0.8c-0.3,0.3-0.5,0.7-0.8,1
		c-0.2,0.3-0.2,0.6,0,0.9c0.2,0.4,0.4,0.8,0.7,1.1c0.6,0.8,1.2,1.5,1.7,2.4c0.6,0.9,1.2,1.7,1.7,2.6c0.5,1,1.3,1.8,1.8,2.9
		c0.5,1,1.2,2,1.9,2.9c0.2,0.3,0.5,0.6,0.7,0.8c0.5,0.4,0.9,0.8,1.3,1.3c0.3,0.3,0.5,0.7,0.8,1c0.5,0.6,1.1,1.1,2,1.2
		c0.4,0.1,0.7,0.3,1.1,0.5c0.2,0.1,0.4,0.3,0.6,0.5c0.7,0.6,1.5,0.6,2.3,0.3c0.8-0.3,1.7-0.6,2.4-1.3c0.1-0.1,0.3-0.2,0.4-0.3
		c0.7-0.5,1.4-1,2.1-1.6c0.6-0.5,0.6-0.9,0.2-1.5C44,140.9,43.8,140.7,43.7,140.5z"/>
	<path class="st13" d="M21.3,132.3c-0.5-1-1-2.1-1.7-3c-0.4-0.5-0.7-1.1-1-1.6c-0.2-0.3-0.4-0.7-0.6-1c-0.2-0.3-0.4-0.5-0.5-0.7
		c-0.6-1-1.2-2.1-1.8-3.1c-0.9-1.5-2-2.9-2.9-4.4c-0.6-1-1.4-1.9-1.8-3c-0.2-0.6-0.8-0.8-1.4-1c-0.5,0-0.9,0-1.4,0.3
		c-0.4,0.2-0.8,0.4-1.2,0.7c-0.9,0.5-1.8,0.9-2.8,1.4c-0.2,0.1-0.4,0.3-0.6,0.5c-0.1,0.2-0.2,0.4-0.4,0.6c-0.4,0.4-0.4,0.8-0.3,1.3
		c0,0.1,0,0.2,0,0.3c0.1,0.4-0.1,0.6-0.4,0.9c-0.2,0.1-0.3,0.2-0.5,0.4c-0.3,0.4-0.6,0.8-0.3,1.3c0.3,0.6,0.5,1.3,1,1.8
		c0.4,0.5,0.8,1.1,1.1,1.7c0.2,0.3,0.4,0.6,0.6,0.9c0.2,0.3,0.4,0.5,0.6,0.8c0.5,0.7,0.9,1.4,1.3,2.1c0.2,0.4,0.5,0.7,0.9,0.9
		c0.3,0.2,0.5,0.4,0.7,0.7c0.2,0.3,0.5,0.7,0.7,1c0.2,0.3,0.5,0.6,0.7,1c0.4,0.8,1.1,1.4,1.6,2.1c0.2,0.3,0.5,0.5,0.8,0.5
		c0.5,0,0.7,0.2,1,0.6c0.1,0.2,0.2,0.3,0.3,0.5c0.2,0.4,0.5,0.7,1,1c0.4,0.2,0.8,0.5,1.1,0.8c0.3,0.3,0.6,0.4,1,0.4
		c1.5-0.1,2.8-0.8,4-1.6c0.7-0.5,1.3-1.1,2-1.7c0.4-0.4,0.4-0.6,0.1-1.1C22,133.5,21.6,132.9,21.3,132.3z"/>
	<path class="st13" d="M114.2,146.8c-0.5-0.8-1.1-1.5-1.6-2.3c-0.6-0.9-1.2-1.8-1.9-2.6c-0.1-0.1-0.2-0.3-0.3-0.5
		c-0.9-1.5-2-2.9-3-4.3c-0.5-0.7-1.1-1.4-1.6-2.1c-0.2-0.3-0.4-0.6-0.7-0.8c-0.2-0.2-0.4-0.5-0.6-0.7c-0.6-0.6-1-1.4-1.4-2.1
		c-0.3-0.5-0.7-0.7-1.3-0.8c-0.5,0-1,0-1.5,0.3c-1.1,0.7-2.2,1.4-3.4,2.1c-0.9,0.5-1.1,1.3-1.6,2.1c-0.1,0.1,0,0.3,0,0.4
		c0,0.1,0.1,0.3,0.1,0.4c0.3,0.5,0.1,0.9-0.4,1.3c-0.2,0.2-0.4,0.5-0.6,0.8c-0.2,0.3-0.1,0.6,0,0.8c0.4,0.6,0.8,1.2,1.2,1.8
		c0.4,0.5,0.8,1.1,1.2,1.6c0.7,0.7,1.3,1.5,1.9,2.3c0.3,0.4,0.6,0.8,0.9,1.2c0.1,0.2,0.3,0.4,0.4,0.5c0.7,0.4,1.2,0.9,1.6,1.6
		c0.1,0.1,0.2,0.2,0.3,0.3c0.2,0.2,0.4,0.4,0.6,0.7c0.5,0.9,1.4,1.5,2.1,2.2c0.2,0.2,0.5,0.4,0.8,0.4c0.6,0.1,1,0.4,1.4,0.9
		c0.3,0.5,0.7,0.8,1.2,1c0.4,0.2,0.7,0.4,1,0.6c0.5,0.4,1,0.5,1.6,0.3c0.6-0.3,1.3-0.6,1.9-0.9c1-0.5,1.7-1.3,2.5-2
		c0.3-0.3,0.6-0.6,0.9-0.9c0.2-0.2,0.3-0.5,0.1-0.8C115.4,148.5,114.8,147.7,114.2,146.8z"/>
	<path class="st13" d="M88.6,80.5c-0.7-1.9-1.6-3.7-2.5-5.4c-0.3-0.5-0.7-1-0.9-1.6c-0.5-1.1-1.1-2-1.8-3c-0.3-0.3-0.5-0.7-0.7-1.1
		c-0.4-0.7-0.8-1.4-1.3-2.1c-0.7-1-1.4-1.9-2-3c-0.5-0.8-1.1-1.3-2-1.6c-0.6-0.2-1.2-0.1-1.7,0.2c-0.4,0.3-0.9,0.5-1.4,0.6
		c-0.4,0.1-0.8,0.2-1.1,0.4c-0.6,0.2-1.1,0.6-1.3,1.3c-0.1,0.3-0.3,0.6-0.5,0.8c-0.2,0.2-0.3,0.6-0.5,0.8c-0.2,0.3-0.3,0.5-0.5,0.8
		c-0.4,0.5-0.6,1-0.9,1.6c-0.2,0.4-0.1,0.7,0.1,1c0.8,1.1,1.6,2.1,2.4,3.2c0.3,0.4,0.6,0.8,0.9,1.3c0.4,0.6,0.7,1.3,1.3,1.8
		c0.1,0.1,0.2,0.3,0.3,0.5c0.4,0.6,0.7,1.2,1.1,1.7c0.7,0.8,1.3,1.6,1.9,2.4c0.2,0.3,0.4,0.5,0.6,0.8c0.2,0.3,0.4,0.5,0.7,0.5
		c0.7,0.1,1.1,0.5,1.3,1.1c0.5,1,1.2,1.7,1.9,2.5c0.2,0.2,0.4,0.4,0.9,0.4c0.1,0,0.4-0.1,0.6-0.2c0.7-0.2,1.3-0.6,1.8-1
		c0.5-0.4,1-0.8,1.5-1.1c0.8-0.4,1.4-1.1,2.1-1.7c0.4-0.3,0.4-0.8,0.2-1.3C88.8,81.1,88.7,80.8,88.6,80.5z"/>
	<path class="st13" d="M91.2,60.4c-0.3-0.6-0.6-1.1-0.9-1.6c-0.7-1.1-1.4-2.2-2.2-3.2c-0.1-0.2-0.3-0.4-0.4-0.7
		c-0.4-0.7-0.8-1.4-1.4-1.9c-0.1-0.1-0.2-0.2-0.2-0.3c-0.4-0.7-0.8-1.4-1.2-2.1c-0.2-0.4-0.4-0.7-0.7-1.1c-0.8-1.2-1.6-2.3-2.2-3.6
		c-0.2-0.3-0.4-0.7-0.7-1c-0.4-0.4-0.8-0.7-1.2-1c-0.3-0.2-0.7-0.3-1-0.1c-0.3,0.2-0.6,0.4-0.9,0.6c-0.5,0.4-1,0.7-1.7,0.8
		c-0.2,0-0.4,0.1-0.5,0.2c-0.5,0.3-1,0.5-1.5,0.7c-0.7,0.3-1.4,0.5-2,0.8c-0.4,0.2-0.5,0.5-0.3,0.8c0.1,0.1,0.1,0.2,0.2,0.3
		c0.3,0.4,0.4,0.8,0.6,1.3c0.3,0.8,0.4,1.7,1.2,2.2c0.1,0.1,0.1,0.2,0.2,0.2c0.2,0.6,0.6,1.2,0.9,1.8c0.4,0.8,0.9,1.6,1.4,2.4
		c0.6,0.9,1.2,1.9,1.7,2.8c0.2,0.3,0.4,0.7,0.6,1c0.1,0.2,0.3,0.4,0.4,0.6c0.2,0.6,0.6,1.1,0.9,1.5c0.2,0.2,0.3,0.4,0.4,0.7
		c0.5,1.2,1.2,2.3,2.1,3.3c0.1,0.2,0.3,0.4,0.4,0.6c0.2,0.4,0.5,0.7,0.9,0.9c0.6,0.4,1.4,0.5,1.9,0.6c0.3,0,0.4,0,0.5,0.1
		c1.3,0.3,2.4-0.4,3.2-1.3c0.7-0.7,1.3-1.5,2-2.2c0.2-0.2,0.4-0.5,0.6-0.8c0.1-0.2,0.2-0.5,0.1-0.7C91.9,62.1,91.7,61.2,91.2,60.4z"
		/>
	<path class="st13" d="M100.6,178.2c-0.3-0.2-0.5-0.6-0.7-0.9c-0.4-0.7-0.7-1.4-1.1-2.1c-0.1-0.1-0.1-0.2-0.2-0.3
		c-0.7-0.8-1.2-1.6-1.7-2.5c-0.1-0.2-0.3-0.4-0.5-0.5c-0.8-0.5-1.6-1.1-2.3-1.7c-0.3-0.2-0.6-0.3-0.9-0.1c-0.4,0.2-0.8,0.4-1.1,0.7
		c-0.5,0.4-1.1,0.5-1.7,0.4c-0.6-0.1-1.2,0-1.8,0.2c-0.7,0.3-1.4,0.5-2.1,0.8c-0.4,0.2-0.5,0.5-0.2,0.8c0.4,0.6,0.6,1.2,0.8,1.9
		c0.2,0.5,0.3,1.1,0.6,1.5c0.4,0.5,0.7,1,1,1.5c0.3,0.6,0.6,1.2,1,1.7c0.2,0.4,0.5,0.7,0.7,1.1l12.9,1.5c-0.6-0.9-1.2-1.7-1.7-2.7
		C101.3,179,101,178.6,100.6,178.2z"/>
	<path class="st13" d="M24.9,114c-0.1-0.2-0.1-0.4-0.2-0.5c-0.9-1.3-1.7-2.7-2.5-4.1c-0.5-0.8-0.9-1.5-1.4-2.3c-0.4-0.5-0.7-1-1-1.6
		c-0.2-0.4-0.4-0.7-0.8-1c-0.2-0.1-0.4-0.4-0.5-0.6c-0.6-1.1-1.2-2.1-1.8-3.2c-0.2-0.4-0.4-0.8-0.6-1.1c-0.2-0.3-0.4-0.7-0.7-1
		c-0.2-0.3-0.4-0.4-0.8-0.3c-0.3,0.1-0.6,0.1-0.9-0.1c-0.4-0.2-0.7-0.1-1,0.1c-0.9,0.6-1.8,1.1-2.8,1.5c-1,0.5-1.6,1.2-2.3,2
		c-0.1,0.2-0.2,0.4-0.2,0.7c0,0.2,0,0.4,0.1,0.6c0.1,0.4,0,0.7-0.3,1c-0.1,0.1-0.2,0.2-0.3,0.3c-0.3,0.3-0.4,0.7-0.3,1.1
		c0.2,0.7,0.4,1.5,0.9,2.1c0.2,0.2,0.3,0.5,0.5,0.8c0.3,0.5,0.6,1,1,1.5c0.3,0.5,0.6,0.9,1,1.4c0.5,0.7,1.1,1.4,1.7,2.1
		c0.7,0.7,1.3,1.4,1.8,2.3c0.4,0.7,0.9,1.4,1.6,1.7c0.1,0.1,0.3,0.2,0.3,0.4c0.3,0.7,0.9,1,1.4,1.3c0.2,0.1,0.4,0.2,0.6,0.3
		c0.7,0.6,1.6,0.6,2.3,0.8c0.9,0.1,1.5-0.1,2-0.5c0.3-0.2,0.5-0.4,0.8-0.6c1.1-0.7,2.1-1.6,3.1-2.5c0.2-0.2,0.2-0.4,0.1-0.7
		C25.4,115.3,25.2,114.7,24.9,114z"/>
	<path class="st13" d="M116.7,128.7c-0.1-0.1-0.2-0.3-0.3-0.4c-0.5-0.7-1.1-1.3-1.5-2.1c-0.9-1.5-2-2.8-3.1-4.2
		c-0.3-0.4-0.6-0.8-0.9-1.3c-0.2-0.3-0.4-0.6-0.6-0.7c-0.6-0.2-0.9-0.6-1.1-1.1c-0.7-1.5-1.8-2.6-2.6-4c-0.4-0.6-0.9-1-1.6-0.8
		c-0.1,0-0.3,0-0.4,0c-0.5-0.1-0.8,0.1-1.2,0.3c-0.8,0.6-1.6,1.2-2.5,1.6c-1,0.5-1.5,1.4-2.2,2.3c-0.1,0.1-0.1,0.3-0.1,0.5
		c0,0.2,0,0.4,0.1,0.6c0.1,0.5,0,1-0.3,1.4c-0.5,0.5-0.4,1-0.2,1.5c0.1,0.2,0.2,0.4,0.3,0.6c0.3,0.5,0.7,1.1,1,1.6
		c0.4,0.6,0.9,1.1,1.4,1.7c0.2,0.3,0.5,0.6,0.7,0.9c0.4,0.5,0.8,1.1,1.3,1.5c0.4,0.4,0.8,0.8,1.3,1.1c0.8,0.7,1.4,1.5,2.1,2.3
		c0.3,0.4,0.6,0.8,1.1,0.9c0.2,0.1,0.4,0.3,0.5,0.5c0.3,0.6,0.8,0.8,1.3,1c0.5,0.2,0.9,0.4,1.4,0.6c1,0.4,2.1,0.7,3.2,0.2
		c0.4-0.2,0.8-0.4,1.1-0.7c0.4-0.5,0.9-0.6,1.3-1c0.4-0.4,0.6-0.9,1.1-1.2c0.2-0.1,0.3-0.3,0.4-0.4c0.3-0.4,0.4-0.7,0.2-1.2
		C117.3,130,117,129.4,116.7,128.7z"/>
	<path class="st13" d="M71.7,52.8c-0.1-0.1-0.2-0.3-0.3-0.5c-0.6-1.3-1.3-2.6-1.9-3.8c-0.8-1.5-1.7-2.8-2.6-4.2
		c-0.8-1.3-1.8-2.6-2.7-3.8c-0.7-0.9-1.6-1.3-2.6-1.7c-0.3-0.1-0.6,0-0.9,0.3c-0.2,0.2-0.3,0.4-0.5,0.5c-0.4,0-0.9-0.1-1.1,0.1
		c-1.1,0.5-2.1,1.1-2.5,2.4c0,0.2-0.2,0.3-0.2,0.4c-0.3,0.7-0.8,1.3-0.8,2.1c0,0.2-0.2,0.4-0.3,0.5c-0.7,1.1-0.6,1.6,0.2,2.6
		c0.6,0.8,1.4,1.6,1.7,2.6c0.1,0.2,0.2,0.3,0.3,0.5c0.7,0.8,1.2,1.7,1.8,2.6c0.4,0.6,0.7,1.2,1.2,1.7c0.6,0.6,1.1,1.3,1.6,2
		c0.2,0.2,0.4,0.5,0.7,0.5c0.9,0.2,1.6,0.8,2.3,1.3c0.5,0.4,1,0.7,1.6,1c0.5,0.3,1.1,0.4,1.6,0.1c0.3-0.1,0.6-0.2,0.9-0.3
		c0.3-0.1,0.6-0.3,0.9-0.4c0.4-0.2,0.9-0.5,1.3-0.8c0.6-0.4,1.3-0.8,1.9-1.2c0.4-0.3,0.5-0.6,0.3-1C72.9,55.1,72.5,53.8,71.7,52.8z"
		/>
	<path class="st13" d="M47,120.3c-0.2-0.4-0.4-0.7-0.6-1c-0.3-0.6-0.5-1.1-0.9-1.7c-0.2-0.3-0.4-0.7-0.5-1.1
		c-0.1-0.3-0.2-0.5-0.3-0.7c-0.7-1.2-1.5-2.5-2.2-3.7c-0.9-1.5-1.9-2.9-3-4.3c-0.7-0.9-1.5-1.4-2.5-1.8c-0.5-0.2-1-0.3-1.4,0.3
		c-0.2,0.3-0.4,0.4-0.8,0.4c-1,0-1.8,0.5-2.5,1.2c-0.2,0.2-0.4,0.5-0.5,0.7c-0.3,0.7-0.6,1.3-0.9,2c-0.4,0.7-0.5,1.5-0.9,2.2
		c-0.3,0.6-0.3,1.3,0.2,2c0.5,0.5,0.9,1.1,1.3,1.6c0.1,0.2,0.3,0.4,0.4,0.6c0.2,0.6,0.6,1,0.9,1.5c0.2,0.3,0.4,0.5,0.6,0.8
		c1,1.8,2.4,3.4,3.7,5c0.3,0.3,0.5,0.6,0.9,0.7c0.8,0.2,1.4,0.7,2,1.1c0.4,0.3,0.8,0.6,1.2,0.8c0.3,0.2,0.7,0.3,1,0.4
		c0.4-0.1,0.8-0.1,1.2-0.2c0.6-0.1,1.2-0.4,1.7-0.7c0.6-0.4,1.3-0.7,1.9-1.1c0.4-0.3,0.9-0.6,1.3-1c0.3-0.3,0.4-0.6,0.2-1
		C48,122.3,47.5,121.3,47,120.3z"/>
	<path class="st13" d="M133.2,174c0-0.3-0.1-0.6-0.3-0.9c-0.2-0.2-0.3-0.5-0.3-0.7c-0.1-0.6-0.3-1.1-0.7-1.5c-0.3-0.3-0.5-0.8-1-1
		c-0.2-0.5-0.4-0.9-0.6-1.4c-0.1-0.2-0.2-0.3-0.2-0.4c-0.2-0.4-0.5-0.7-0.9-0.9c-0.9-0.4-1.2-1-1-1.9c0-0.1,0-0.1-0.1-0.2
		c-0.8-0.3-0.9-0.2-1.4-1.5c-0.4-0.1-0.8,0.1-1.2-0.3c-0.4-0.4-0.2-0.9-0.2-1.3c-0.1-0.1-0.1-0.1-0.1-0.1c-0.1,0-0.1,0-0.2,0
		c-0.8-0.2-1.4-0.6-1.4-1.5c0-0.2-0.1-0.5-0.2-0.7c0-0.1-0.2-0.2-0.3-0.2c-0.2,0-0.3,0.1-0.4,0.3c0,0.2,0,0.4,0,0.6
		c0,0.2-0.2,0.3-0.4,0.2c-0.2-0.1-0.4-0.2-0.4-0.4c0-0.2,0-0.4,0-0.6c0.3-0.8,0.1-1.5,0.1-2.3c-1,0.2-1.3,0.1-1.9-0.6
		c-0.1-0.2-0.3-0.3-0.4-0.5c-0.4-0.5-0.9-0.9-1.5-1.2c-0.1-0.1-0.3-0.2-0.5-0.2c-0.6,0-1.3-0.1-1.9-0.1c-0.3,0-0.6,0-0.9,0.3
		c0,0.2-0.1,0.5-0.1,0.7c-0.7,0.3-0.6,0.4-1.1,1c-0.3,0.5-0.7,0.9-1,1.4c-0.1,0.2-0.2,0.3-0.4,0.6c0.5,0.3,0.6,0.8,0.4,1.3
		c-0.1,0.3,0.1,0.6,0.3,0.8c0.3,0.4,0.5,0.4,0.8,0.1c0.2-0.1,0.3-0.2,0.5-0.4c0.3,0.3,0.8,0.4,1,0.9c-0.1,0.4-0.4,0.8-0.2,1.2
		c0.1,0.2-0.1,0.4-0.2,0.5c-0.3,0.4-0.3,0.5,0,0.8c0.4,0.5,0.8,1,1.2,1.5c-0.1,0.3-0.1,0.5-0.2,0.8c-0.1,0.2,0,0.5,0.2,0.6
		c0.6,0.5,0.8,1.1,1,1.8c0.1,0.3,0.2,0.5,0.3,0.7c0.5,0.5,1,0.9,1.2,1.5c0,0.1,0.2,0.2,0.3,0.3c0.4,0.2,0.6,0.6,0.6,1.1
		c0,0.5,0.3,0.9,0.7,1.3c0.5,0.5,0.9,1,1.4,1.4c0.1,0.1,0.1,0.1,0.2,0.2c0.3,0.2,0.7,0.1,0.7-0.3c0-0.2,0-0.3,0-0.5
		c0.3-0.2,0.6-0.2,0.8,0c0.2,0.2,0.2,0.4,0.2,0.6c0,0.2-0.1,0.4-0.1,0.6c-0.1,0.6,0,1.1,0.5,1.5c0.6,0.5,1.1,1,1.6,1.5
		c0.8,0.8,1.6,1,2.6,0.6c0.3-0.1,0.7-0.3,1-0.5c0.3-0.1,0.6-0.3,0.9-0.4c0.4-0.1,0.8-0.3,1.1-0.6c0.5-0.6,1-1.2,1.5-1.8
		c0.2-0.2,0.2-0.5,0.2-0.8C133.2,174.9,133.2,174.5,133.2,174z M117.5,161.7c-0.4-0.2-0.8-0.4-1.2-0.7c-0.4-0.3-0.6-0.9-0.3-1.4
		c0.1-0.2,0.3-0.2,0.4-0.1c0.1,0.1,0.2,0.1,0.3,0.2c0.2,0.3,0.5,0.5,0.8,0.5c0.2,0,0.3,0.2,0.3,0.5
		C117.8,161,117.8,161.4,117.5,161.7z M118.1,166c-0.2,0.1-0.2,0.4-0.4,0.5c-0.1,0.1-0.2,0.1-0.3,0.1c-0.1,0-0.2-0.2-0.2-0.3
		c0-0.2-0.1-0.5,0-0.7c0.3-0.5,0.7-1,1-1.5c0.1-0.1,0.2-0.1,0.3-0.1c0.2-0.1,0.4,0,0.4,0.2c0,0.1,0,0.3,0,0.4
		C118.7,165.1,118.6,165.6,118.1,166z M120.7,170.5c-0.1,0-0.1,0-0.2,0c0-0.1,0-0.2,0-0.2c0.1,0,0.1,0,0.2,0.1
		C120.7,170.4,120.7,170.5,120.7,170.5z M122.2,170.1c-0.2,0.1-0.4,0-0.5-0.2c-0.2-0.6-0.8-1-0.8-1.7c0-0.1-0.3-0.3-0.4-0.4
		c-0.4-0.4-0.4-1,0-1.4c0.1-0.1,0.4,0,0.4,0.1c0.1,0.1,0.1,0.3,0.1,0.5c0,0.4,0.2,0.6,0.5,0.8c0.3,0.1,0.4,0.4,0.5,0.7
		c0.1,0.3,0.2,0.5,0.3,0.7c0.1,0.2,0.1,0.3,0.1,0.5C122.4,169.9,122.3,170.1,122.2,170.1z M124.1,171c0-0.1-0.1-0.1-0.1-0.2
		c0,0,0.1-0.1,0.2-0.1c0,0.1,0.1,0.2,0.1,0.2C124.3,170.9,124.2,170.9,124.1,171z M124.6,173c-0.2,0-0.3-0.2-0.3-0.3
		c0-0.2,0.1-0.3,0.2-0.6c0.2,0.3,0.3,0.4,0.4,0.5C125,172.8,124.8,173,124.6,173z M125.8,165.5c-0.2,0.1-0.3,0-0.4-0.2
		c-0.2-0.3-0.3-0.6-0.1-1c0.5,0.1,0.7,0.4,0.8,0.8C126,165.2,125.9,165.4,125.8,165.5z M126.8,173.7c-0.1,0.2-0.3,0.4-0.5,0.3
		c-0.2-0.1-0.3-0.2-0.4-0.4c0-0.2,0.2-0.4,0.5-0.4C126.7,173.3,126.9,173.5,126.8,173.7z M127.6,170.1c-0.2,0.2-0.6,0-0.7-0.3
		c-0.2-0.6-0.4-1.1-0.5-1.7c0,0,0.1-0.1,0.1-0.2c0.1,0,0.2,0,0.2,0c0.4,0.4,0.7,0.9,1,1.3C127.9,169.6,127.8,170,127.6,170.1z
		 M127.9,168.5c0-0.1,0-0.1,0-0.2c0,0,0.1,0,0.1,0C128,168.4,128,168.5,127.9,168.5C128,168.5,127.9,168.5,127.9,168.5z
		 M131.2,173.4L131.2,173.4L131.2,173.4L131.2,173.4z"/>
	<path class="st13" d="M92.9,110.4c0-0.1-0.1-0.1-0.2-0.2c-0.5-0.3-0.8-0.8-1.1-1.3c-0.5-0.9-1.1-1.7-2.1-2.2
		c-0.7-0.4-0.8-1.3-1.5-1.7c-0.2-0.1-0.2-0.4-0.3-0.6c-0.1-0.1-0.1-0.3-0.1-0.4c0-0.7-0.4-1.3-0.8-1.8c-0.4-0.5-0.7-1-1.1-1.5
		c-0.6-0.8-1.3-1.6-1.9-2.4c-0.8-0.3-1.7-0.6-2.5-0.9c0,0-0.1,0-0.1,0c-0.4-0.2-0.9-0.1-1.3,0.1c-0.6,0.3-1.2,0.5-1.9,0.7
		c-0.2,0-0.4,0.1-0.6,0.2c-0.5,0.2-0.6,0.5-0.6,1c0,0.1,0,0.3,0.1,0.4c0.2,0.7-0.1,1.4,0.1,2.1c0,0.1,0,0.2-0.1,0.3
		c-0.5,0.5-0.6,1.2-1.2,1.6c-0.3,0.2-0.3,0.5,0.1,0.7c0.2,0.2,0.4,0.3,0.4,0.6c0.2,0.9,0.7,1.3,1.6,1.5c0.1,0,0.2,0,0.4,0.1
		c-0.1,0.3-0.2,0.6-0.2,0.8c0.2,0.4,0.4,0.7,0.6,1c0.3,0.5,0.6,1,0.9,1.5c0.2,0.3,0.4,0.6,0.5,0.9c0.2,0.4,0.4,0.7,0.9,0.8
		c0.6,1.7,1.7,2.8,3.2,3.5c0.4,0.2,0.9,0.4,1.2,0.9c0.3,0.4,0.6,0.8,1,1.1c0.3,0.2,0.6,0.5,0.9,0.8c0.4,0.6,1,0.8,1.6,1.1
		c0.6,0.3,1.2,0.3,1.8,0c0.3-0.1,0.6-0.3,0.8-0.5c1.3-1,2.4-2.2,3.3-3.5c0.6-0.8,0.6-1.4,0-2.1C94.3,112.1,93.4,111.4,92.9,110.4z"
		/>
	<path class="st13" d="M74.5,135.5c-0.5-0.5-1-1.1-1.4-1.7c-0.4-0.7-0.9-1.4-1.7-1.8c-0.3-0.1-0.5-0.4-0.7-0.7
		c-0.2-0.4-0.5-0.7-0.8-1c-0.4-0.4-0.8-0.9-0.7-1.6c0-0.1-0.1-0.3-0.1-0.5c-0.3-0.4-0.5-0.8-0.8-1.3c-0.2-0.3-0.4-0.6-0.7-0.9
		c-0.6-0.8-1.1-1.6-1.7-2.3c-0.2-0.2-0.4-0.4-0.6-0.5c-0.9-0.4-1.8-0.8-2.8-1c-0.3-0.1-0.7,0-1,0.2c-0.5,0.3-1.2,0.5-1.8,0.7
		c-0.2,0.1-0.4,0.1-0.7,0.2c-0.7,0.3-0.8,0.7-0.5,1.4c0.3,0.7,0.1,1.5,0,2.2c0,0.1-0.1,0.2-0.2,0.3c-0.2,0.3-0.4,0.5-0.4,0.9
		c0,0.2-0.2,0.3-0.4,0.4c-0.3,0.2-0.3,0.4-0.1,0.7c0.2,0.3,0.4,0.5,0.5,0.8c0.3,0.9,0.7,1.3,1.7,1.4c0.1,0,0.2,0.1,0.3,0.1
		c-0.2,0.9-0.2,1,0.3,1.8c0.1,0.1,0.1,0.2,0.2,0.3c0.4,0.5,0.8,1,1.2,1.6c0.1,0.1,0.2,0.3,0.2,0.4c0.1,0.5,0.4,0.7,0.9,0.8
		c0.3,0.9,0.7,1.6,1.2,2.1c0.7,0.7,1.5,1.5,2.4,1.9c0.4,0.2,0.7,0.4,0.9,0.8c0.2,0.2,0.4,0.4,0.6,0.6c0.2,0.2,0.5,0.4,0.7,0.7
		c0.6,0.6,1.3,1.2,2.2,1.5c0.7,0.3,1.2,0.3,1.8-0.1c1-0.7,1.9-1.3,2.6-2.3c0.3-0.4,0.7-0.8,1-1.1c0.3-0.3,0.5-0.7,0.7-1.1
		c0.2-0.4,0.2-0.8-0.1-1.2C76.1,137.4,75.4,136.4,74.5,135.5z"/>
	<path class="st13" d="M85.3,176.8c-0.2-0.4-0.4-0.8-0.6-1.2c-0.2-0.4-0.4-0.7-0.6-1.1c-0.6-1.2-1.3-2.4-2-3.5
		c-0.1-0.1-0.1-0.2-0.2-0.2c-0.2-0.3-0.5-0.6-0.9-0.7c-0.4-0.1-0.7-0.4-0.9-0.7c-0.3-0.4-0.6-0.9-0.9-1.3c-0.2-0.3-0.4-0.5-0.6-0.8
		c-0.7-1.3-1.9-1.8-3.2-2.3c-0.2-0.1-0.5,0-0.6,0.2c-0.1,0.1-0.2,0.3-0.3,0.4c-0.2,0.3-0.5,0.3-0.8,0.4c-1.4,0.1-2.3,0.8-3,2
		c-0.2,0.4-0.4,0.7-0.7,1c-0.1,0.1-0.3,0.3-0.4,0.5c-0.1,0.5-0.3,0.9-0.5,1.3c-0.1,0.3-0.2,0.6-0.2,0.6c-0.1,0.8,0,1.2,0.3,1.6
		c0.2,0.3,0.5,0.6,0.7,0.9c0.4,0.5,0.8,1,1.1,1.5c0.1,0.2,0.2,0.3,0.3,0.5c0.7,1,1.3,1.9,2,2.9c0,0,0.1,0.1,0.1,0.1l13.7,1.5
		c-0.3-0.7-0.6-1.4-1.1-2.1C85.7,177.8,85.5,177.3,85.3,176.8z"/>
	<path class="st13" d="M61,87.2c-0.7-1.1-1.5-2.2-2.3-3.3c-0.7-1-1.6-2-2.2-3.1c-0.5-0.9-1.2-1.6-1.8-2.4c-0.5-0.6-1-1.3-1.5-1.9
		c-0.6-0.8-1.1-1.6-1.7-2.4c-0.3-0.5-0.8-0.6-1.3-0.4c-0.3,0.1-0.7,0.2-1,0.4c-1.1,0.7-2.3,1.4-3.4,2c-0.6,0.3-1,0.9-1.4,1.4
		c0.2,0.4,0.3,0.8,0.4,1.2c0.2,0.6,0.2,0.7-0.3,1.1c-0.4,0.2-0.7,0.5-0.9,0.9c0,0.3,0.1,0.7,0.1,0.9c0.4,0.6,0.6,1.1,0.9,1.5
		c0.5,0.8,1,1.5,1.7,2c0.2,0.2,0.4,0.4,0.5,0.6c0.3,0.7,0.7,1.3,1.1,1.9c0.2,0.3,0.4,0.7,0.7,1c0.4,0.4,0.7,0.9,1,1.4
		c0.1,0.2,0.2,0.3,0.3,0.5c0.4,0.6,0.8,1.2,1.2,1.8c0.5,0.8,1.2,1.5,2,2.1c0.3,0.3,0.7,0.4,1.1,0.3c0.3-0.1,0.7-0.1,1,0.1
		c0.4,0.2,0.7,0.1,1-0.1c0.7-0.3,1.3-0.8,1.8-1.3c0.5-0.5,1.1-1.1,1.8-1.4c0.2-0.1,0.3-0.3,0.5-0.4c0.6-0.6,1-1.2,1.5-1.9
		c0.2-0.3,0.3-0.7,0.1-1C61.6,88.1,61.4,87.6,61,87.2z"/>
	<path class="st13" d="M33.9,149.3c-0.5-0.6-0.9-1.3-1.4-1.9c-0.9-1.2-1.7-2.4-2.6-3.7c-1-1.5-2.2-2.9-3.3-4.4c-0.4-0.5-0.7-1-1-1.5
		c-0.8-1.3-1.4-1.5-2.7-0.7c-1.1,0.6-2.3,1.2-3.4,1.9c-0.6,0.4-1.1,0.9-1.5,1.4c0.1,0.3,0.2,0.6,0.3,0.9c0.2,0.7,0.3,1.2-0.5,1.7
		c-0.7,0.4-0.9,1.1-0.3,2c0.7,1.1,1.4,2.3,2.4,3.2c0.2,0.2,0.3,0.4,0.4,0.6c0.4,0.9,0.9,1.6,1.5,2.4c0.8,1.1,1.5,2.1,2.3,3.1
		c0.1,0.1,0.1,0.2,0.2,0.3c0.5,0.6,0.9,1.3,1.4,1.9c0.4,0.5,0.9,0.7,1.5,0.7c0.3,0,0.7-0.1,1,0c0.5,0.1,1.1-0.1,1.6-0.3
		c0.7-0.3,1.4-0.6,2.1-0.9c0.7-0.4,1.3-0.7,1.9-1.2c0.7-0.5,1.1-1.3,1.5-1.9c0.2-0.3,0.2-0.6,0.1-0.9
		C35,150.9,34.4,150.1,33.9,149.3z"/>
	<path class="st13" d="M86.2,162.1c-0.1-0.2-0.3-0.3-0.5-0.4c-0.5-0.1-0.6-0.5-0.6-0.9c-0.1-0.9-0.5-1.8-1-2.5
		c-0.6-0.7-1-1.5-1.6-2.2c-0.2-0.3-0.4-0.5-0.6-0.8c-0.9-1.4-1.8-2.9-2.6-4.3c-0.1-0.1-0.1-0.2-0.2-0.3c-0.6-0.6-0.9-1.5-1.3-2.2
		c-0.2-0.3-0.3-0.7-0.4-1c-0.3-0.7-0.7-1.2-1.2-1.7c-0.3-0.4-0.8-0.5-1.2-0.6c-0.6-0.1-1.1,0.1-1.5,0.5c-0.4,0.4-0.9,0.6-1.5,0.6
		c-0.5,0-0.9,0.2-1.2,0.6c-0.2,0.3-0.5,0.4-0.8,0.6c-0.7,0.3-0.7,0.4-0.7,1.1c0,0.3,0.1,0.5,0.2,0.7c0.3,0.5,0.4,1,0.6,1.5
		c0.2,0.7,0.4,1.3,0.7,2c0.7,1.2,1.6,2.4,2.2,3.7c0.1,0.1,0.2,0.2,0.3,0.4c0.6,0.9,1.1,1.7,1.7,2.6c0.1,0.2,0.1,0.4,0.2,0.7
		c0.1,0.3,0.3,0.7,0.5,1c0.6,0.9,1.3,1.8,1.9,2.7c0.2,0.2,0.4,0.5,0.4,0.8c0.2,0.8,0.6,1.4,1.1,2c0.3,0.5,0.6,0.9,1,1.4
		c0.3,0.3,0.5,0.7,0.8,1c0.2,0.3,0.6,0.4,0.9,0.3c0.4-0.1,0.8-0.3,1.2-0.5c0.4-0.2,0.8-0.5,1.2-0.8c0.2-0.1,0.4-0.3,0.6-0.4
		c0.9-0.8,1.5-1.8,2.2-2.7c0.3-0.3,0.3-0.8,0.1-1.1C86.8,163.1,86.5,162.6,86.2,162.1z"/>
	<path class="st13" d="M17.2,153c-0.2-0.3-0.4-0.6-0.8-0.7c-0.3-0.1-0.5-0.3-0.5-0.7c0-0.8-0.5-1.5-0.7-2.3
		c-0.1-0.2-0.2-0.4-0.3-0.5c-0.8-0.7-1.3-1.8-2-2.6c-0.8-1.6-2-3-2.8-4.6c0-0.1-0.1-0.2-0.2-0.2c-0.6-0.6-0.9-1.3-1.2-2
		c-0.2-0.4-0.3-0.7-0.5-1.1c-0.3-0.7-0.8-1.3-1.3-1.9c-0.3-0.4-0.7-0.6-1.2-0.6c-0.5-0.1-1,0.1-1.4,0.4c-0.5,0.4-1,0.7-1.7,0.7
		c-0.4,0-0.8,0.2-1,0.5c-0.3,0.4-0.6,0.6-1,0.7C0.1,138.3,0,138.6,0,139c0,0.4,0,0.7,0.3,1c0.3,0.4,0.4,0.8,0.5,1.3
		c0.2,0.6,0.3,1.3,0.7,1.9c0.5,1,1.2,1.9,1.7,2.8c0.4,0.7,0.7,1.4,1.3,2c0,0,0,0.1,0,0.1c0.3,0.4,0.5,0.9,0.8,1.3
		c0.3,0.4,0.6,0.8,0.7,1.3c0.1,0.3,0.1,0.5,0.3,0.7c0.7,0.9,1.2,2,2.1,2.8c0.2,0.2,0.4,0.5,0.5,0.7c0.2,0.9,0.7,1.6,1.2,2.3
		c0.3,0.4,0.6,0.8,0.9,1.2c0.2,0.3,0.4,0.5,0.6,0.8c0.5,0.7,0.9,0.7,1.6,0.4c0.2-0.1,0.3-0.2,0.5-0.3c0.6-0.4,1.2-0.8,1.7-1.2
		c0.2-0.1,0.3-0.2,0.5-0.4c0.7-0.8,1.3-1.6,1.9-2.4c0.3-0.4,0.3-0.8,0.1-1.2C17.6,153.8,17.4,153.4,17.2,153z"/>
	<path class="st13" d="M41.9,85.5c-0.1-0.1-0.3-0.2-0.5-0.3c-0.1-0.1-0.3-0.1-0.5-0.1c-0.1-0.2-0.1-0.3-0.1-0.4
		c-0.1-1.4-0.6-2.6-1.6-3.5c-0.1-0.1-0.2-0.2-0.2-0.3c-0.3-0.5-0.7-1-1-1.5c-0.2-0.3-0.4-0.6-0.6-0.9c-0.4-0.7-0.9-1.3-1.3-2
		c-0.2-0.3-0.4-0.6-0.6-0.9c-0.3-0.6-0.6-1.1-1-1.6c-0.5-0.6-0.9-1.3-1.1-2.1c-0.3-0.9-0.8-1.8-1.5-2.5c-0.6-0.7-1.3-0.8-2.2-0.5
		c-0.3,0.1-0.5,0.2-0.8,0.4c-0.4,0.3-0.8,0.5-1.3,0.5c-0.6,0-1.1,0.2-1.5,0.8c-0.2,0.2-0.4,0.4-0.7,0.5c-0.5,0.2-0.7,0.6-0.6,1.1
		c0,0.2,0.1,0.5,0.2,0.7c0.4,0.5,0.5,1.1,0.6,1.7c0.1,0.4,0.2,0.8,0.4,1.1c0.7,1.2,1.2,2.4,2.1,3.5c0.1,0.1,0.2,0.2,0.2,0.3
		c0.5,1,1.1,1.9,1.8,2.8c0.3,0.4,0.6,0.8,0.7,1.3c0.1,0.3,0.1,0.5,0.3,0.7c0.6,0.8,1.1,1.7,1.7,2.4c0.4,0.6,0.9,1.1,1,1.8
		c0,0.2,0.1,0.3,0.2,0.5c0.8,1.1,1.5,2.3,2.3,3.3c0.4,0.5,0.9,0.6,1.4,0.3c0.2-0.1,0.4-0.2,0.6-0.4c0.5-0.3,0.9-0.6,1.4-0.9
		c0.4-0.2,0.8-0.5,1.1-1c0.2-0.3,0.5-0.6,0.7-0.9c0.3-0.4,0.6-0.7,0.8-1.1c0.3-0.4,0.4-0.9,0.1-1.4C42.5,86.4,42.2,86,41.9,85.5z"/>
	<path class="st13" d="M71.5,35.5c-0.3-0.1-0.4-0.3-0.4-0.6c-0.1-0.4,0-0.8-0.2-1.1c-0.4-0.7-0.6-1.5-1.2-2.1c-0.9-1-1.6-2-2.2-3.2
		c-0.3-0.6-0.7-1.2-1.1-1.7c-0.4-0.5-0.8-1.1-1.1-1.7c-0.1-0.2-0.1-0.4-0.3-0.5c-0.7-0.7-1.1-1.7-1.5-2.6c-0.3-0.7-0.7-1.4-1.2-2.1
		C62,19.4,61.5,19.2,61,19c-0.6-0.1-1-0.1-1.4,0.3c-0.5,0.4-1.1,0.6-1.8,0.7c-0.4,0.1-0.9,0.2-1.1,0.6c-0.3,0.4-0.6,0.6-1,0.7
		c-0.5,0.2-0.5,0.3-0.5,0.8c0,0.3,0,0.7,0.3,0.9c0.3,0.4,0.4,0.8,0.5,1.3c0.1,0.6,0.2,1.2,0.5,1.7c0.7,1.1,1.1,2.3,2,3.2
		c0.1,0.1,0.2,0.3,0.2,0.4c0.2,0.3,0.4,0.6,0.6,0.9c0.2,0.3,0.3,0.5,0.5,0.8c0.2,0.3,0.4,0.6,0.6,0.9c0.4,0.4,0.6,0.9,0.7,1.4
		c0.1,0.6,0.4,1.1,0.7,1.6c0.4,0.7,1.1,1.3,1.6,1.9c0.3,0.4,0.5,0.8,0.7,1.3c0.1,0.3,0.2,0.7,0.4,1c0.6,0.9,1.3,1.8,1.9,2.7
		c0.5,0.7,1.3,0.9,2,0.5c0.8-0.5,1.6-0.9,2.2-1.5c0.8-0.8,1.5-1.7,2.2-2.6c0.2-0.3,0.3-0.7,0.2-1C72.7,36.7,72.4,35.8,71.5,35.5z"/>
	<path class="st13" d="M76.4,114.2c-0.4-0.4-0.8-0.8-0.9-1.4c0-0.1-0.1-0.2-0.2-0.3c-0.4-0.4-0.7-0.9-0.9-1.4c0-0.1-0.1-0.2-0.2-0.2
		c-0.4-0.4-0.8-0.8-1-1.3c-0.1-0.2-0.3-0.3-0.4-0.4c-0.3-0.2-0.5-0.4-0.5-0.7c-0.1-0.4-0.3-0.7-0.7-0.9c-0.3-0.1-0.5-0.3-0.8-0.5
		c-0.4-0.2-0.6-0.4-0.9-0.8c-0.4-0.6-0.9-1.2-1.4-1.7c-0.1,0.1-0.2,0.1-0.3,0.1c-0.4,0.1-0.6-0.1-0.5-0.4c0-0.2,0.1-0.4,0.2-0.6
		c-0.5-0.6-0.9-1.2-1.7-1.4c-0.3-0.1-0.4-0.3-0.5-0.6c-0.1-0.4-0.3-0.9-0.4-1.3c-0.3-0.7-0.7-1.3-1.6-1.4c-0.4,0-0.9-0.2-1.3-0.3
		c-0.5-0.1-0.9-0.1-1.2,0.3c-0.4,0.5-1,0.7-1.6,1c-0.2,0.1-0.5,0.2-0.7,0.3c-0.6,0.3-0.8,0.5-0.6,1.2c0,0.1,0,0.1,0,0.2
		c0.1,0.4,0.2,0.8-0.1,1.2c-0.1,0.1-0.1,0.4-0.1,0.6c0,0.5,0.1,0.9,0.1,1.4c0,0,0.1,0.2,0.2,0.2c0.7,0.4,1,1.1,1.3,1.9
		c0.2,0.5,0.4,0.9,0.7,1.2c0.8,0.8,1.3,1.8,2.3,2.5c0.1,0.1,0.2,0.2,0.3,0.3c0.3,0.4,0.7,0.8,1.2,1c0.6,0.3,1,0.7,1.4,1.2
		c0.8,1.3,2,2.2,3.1,3.2c0.4,0.3,0.8,0.6,1,1.1c0.1,0.2,0.3,0.4,0.5,0.6c0.4,0.2,0.7,0.6,0.9,0.9c0.6,0.7,1.3,1.2,2.1,1.6
		c0.4,0.2,0.7,0.1,1-0.1c0.3-0.2,0.5-0.4,0.8-0.6c0.8-0.6,1.6-1.1,2.4-1.7c0.5-0.4,0.6-0.5,0.3-1.2
		C77.6,115.8,77.1,114.9,76.4,114.2z"/>
	<path class="st13" d="M63.8,145.1c-0.4-0.4-0.6-0.7-0.8-1.3c-0.1-0.3-0.3-0.5-0.5-0.7c-0.1-0.2-0.3-0.4-0.4-0.6
		c-0.1-0.4-0.3-0.7-0.6-1c-0.2-0.2-0.3-0.4-0.4-0.6c-0.2-0.4-0.4-0.7-0.8-0.9c-0.2-0.1-0.4-0.3-0.4-0.6c0-0.4-0.3-0.7-0.6-0.9
		c-0.3-0.2-0.7-0.5-1-0.6c-0.3-0.1-0.6-0.3-0.8-0.6c-0.4-0.6-0.9-1.1-1.3-1.6c-0.7,0.2-0.7,0.2-1.1-0.3c0.1-0.2,0.2-0.4,0.3-0.6
		c-0.4-0.6-0.9-1.1-1.6-1.4c-0.4-0.1-0.6-0.4-0.7-0.9c-0.1-0.4-0.2-0.7-0.3-1.1c-0.2-0.6-0.5-1.1-1-1.3c-0.6-0.2-1.3-0.4-2-0.5
		c-0.4-0.1-0.7,0-1,0.3c-0.6,0.5-1.3,0.9-2.1,1.2c-1,0.4-1.1,0.7-0.8,1.7c0.1,0.3,0.1,0.5,0,0.8c-0.4,1-0.3,1.9,0.4,2.8
		c0.4,0.5,0.7,1,1,1.6c0.7,1.4,1.6,2.6,2.8,3.6c0.2,0.1,0.3,0.3,0.4,0.4c0.3,0.4,0.7,0.7,1.2,1c0.5,0.3,1,0.6,1.3,1.1
		c0.5,0.6,1,1.2,1.5,1.7c0.7,0.7,1.4,1.5,2.3,2.1c0.4,0.8,1.1,1.3,1.7,1.9c0,0,0.1,0.1,0.1,0.2c0.6,0.7,1.2,1.2,2,1.6
		c0.5,0.2,0.8,0.2,1.2-0.1c0.7-0.5,1.4-1,2.1-1.5c0.4-0.2,0.7-0.5,1.1-0.7c0.6-0.4,0.7-0.6,0.4-1.3C65,146.9,64.6,145.9,63.8,145.1z
		"/>
	<path class="st13" d="M62.2,161c-0.1-0.4-0.3-0.7-0.5-1c-0.4-0.6-0.8-1.2-1.2-1.9c-0.3-0.4-0.5-0.9-0.8-1.3
		c-0.2-0.3-0.3-0.5-0.5-0.8c-0.4-0.6-0.7-1.3-1.2-1.9c-0.4-0.6-0.8-1.2-1-1.8c-0.2-0.5-0.5-0.9-0.8-1.4c-0.4-0.7-0.9-1.4-1.2-2.2
		c-0.2-0.5-0.5-0.9-0.9-1.3c-0.5-0.5-1-1-1.3-1.5c-0.4-0.7-1-1.1-1.6-1.6c-0.4-0.3-0.8-0.4-1.3-0.1c-0.4,0.2-0.9,0.3-1.4,0.4
		c-0.9,0.2-1.6,0.6-2.3,1.1c-0.2,0.1-0.3,0.4-0.2,0.6c0.3,0.9,0.4,1.9,1.2,2.6c0.3,0.3,0.4,0.7,0.4,1.1c0,0.7,0.2,1.2,0.6,1.8
		c0.4,0.7,0.8,1.4,1.2,2.1c0.2,0.4,0.4,0.8,0.7,1.1c0.2,0.2,0.3,0.4,0.3,0.6c0,0.8,0.3,1.4,0.8,2c0.3,0.5,0.6,0.9,1,1.4
		c0.3,0.4,0.6,0.8,0.6,1.3c0,0.2,0.2,0.4,0.2,0.6c0.1,0.2,0.2,0.4,0.3,0.6c0.3,0.6,0.6,1.1,0.9,1.7c0.1,0.3,0.4,0.5,0.4,0.8
		c0.1,0.7,0.6,1.2,1,1.7c0.2,0.2,0.5,0.3,0.7,0.4c0.7,0,1.3-0.2,1.8-0.4c0.7-0.3,1.5-0.6,2.3-0.6c0.5,0,0.9-0.1,1.3-0.4
		c0.2-0.2,0.5-0.4,0.7-0.7c0.5-0.4,0.5-0.9,0.3-1.4C62.6,162.2,62.4,161.6,62.2,161z"/>
	<path class="st13" d="M95.4,145.5c-0.2-0.6-0.5-1.2-1.1-1.7c-0.3-0.3-0.5-0.6-0.6-1c-0.2-1.3-1-2.2-1.7-3.1
		c-0.2-0.3-0.5-0.5-0.6-0.9c-0.1-0.3-0.3-0.5-0.6-0.7c-0.4-0.2-0.6-0.6-0.6-1c0-0.5-0.2-0.9-0.6-1.2c-0.1-0.1-0.2-0.2-0.2-0.3
		c-0.3-0.5-0.7-1-1.2-1.3c-0.4-0.2-0.6-0.6-0.6-1c0-0.3-0.2-0.6-0.4-0.8c-0.3-0.3-0.5-0.6-0.7-1c-0.4-0.8-1.2-1.5-1.4-2.4
		c-0.5-0.5-0.9-1-1.4-1.4c-0.1-0.1-0.2-0.1-0.3-0.1c-0.1,0-0.2,0-0.3,0c-0.5,0.2-1.1,0.3-1.6,0.6c-0.8,0.4-1.5,0.8-2.4,0.9
		c-0.5,0-1,0.3-1.3,0.8c-0.1,0.2-0.4,0.4-0.5,0.6c-0.4,0.4-0.4,0.8-0.1,1.3c0.3,0.4,0.6,0.9,0.8,1.4c0.2,0.3,0.3,0.7,0.5,1
		c1.1,1.7,2.3,3.2,3.5,4.7c0.5,0.7,1.1,1.4,1.6,2.2c0.7,1,1.4,2,2.2,3c0.2,0.2,0.3,0.4,0.4,0.6c0.3,0.7,0.8,1.2,1.4,1.7
		c0.5,0.4,1,0.9,1.4,1.4c0.5,0.6,1.1,0.9,1.8,1.3c0.4,0.2,0.7,0.2,1-0.1c0.4-0.3,0.8-0.4,1.3-0.6c0.7-0.2,1.3-0.6,1.9-1
		c0.6-0.5,0.9-0.7,0.3-1.6C95.4,145.6,95.4,145.5,95.4,145.5z"/>
	<path class="st13" d="M104.9,106.9c-0.1-0.5-0.4-1-0.9-1.3c-0.5-0.4-0.8-0.9-0.8-1.5c0-0.6-0.3-1-0.7-1.4c-0.2-0.2-0.3-0.3-0.4-0.5
		c-0.4-0.7-1-1.1-1.3-1.9c0-0.1-0.2-0.3-0.3-0.4c-0.5-0.3-0.7-0.7-0.7-1.2c0-0.2-0.1-0.5-0.2-0.7c-0.6-0.6-0.9-1.5-1.6-2
		c-0.2-0.2-0.5-0.4-0.6-0.7c-0.2-0.6-0.5-1.1-0.8-1.6c-0.4-0.7-0.8-1.2-1.2-1.8c-0.1-0.2-0.3-0.4-0.4-0.6c-0.2-0.8-0.9-1.3-1.4-1.9
		c-0.1-0.1-0.3-0.2-0.4-0.3c-0.2,0.1-0.5,0.1-0.7,0.2c-0.5,0.2-1.1,0.5-1.6,0.7c-0.5,0.2-1,0.5-1.5,0.5c-1.2,0.1-1.9,0.9-2.5,1.8
		c-0.3,0.3-0.2,0.7,0.1,1.1c0.5,0.5,0.7,1.1,1,1.7c0.1,0.2,0.2,0.4,0.3,0.6c1.1,1.5,2.2,3,3.3,4.5c0.6,0.8,1.3,1.6,1.8,2.5
		c0.6,1,1.3,1.9,2.1,2.8c0.2,0.2,0.3,0.4,0.4,0.6c0.3,0.7,0.8,1.2,1.4,1.7c0.5,0.4,1,0.9,1.4,1.4c0.5,0.6,1.1,0.9,1.7,1.3
		c0.4,0.2,0.7,0.2,1.1,0c0.5-0.2,1-0.5,1.6-0.7c0.8-0.3,1.4-0.7,2-1.3c0.3-0.3,0.4-0.5,0.2-0.9C105.1,107.4,105,107.2,104.9,106.9z"
		/>
	<path class="st13" d="M74,9.3c-0.2-0.3-0.4-0.6-0.6-0.9c-0.4-0.5-0.8-1-1.2-1.6c-0.2-0.3-0.5-0.5-0.7-0.8c-0.6-0.9-1.3-1.9-2.1-2.6
		c-0.2-0.2-0.3-0.4-0.5-0.6c-0.4-0.5-0.7-1-1.1-1.5c-0.5-0.7-1.3-1.1-2-1.2C65.1,0,64.9,0,64.3,0.2c-0.8,0.3-1.5,0.5-2.3,0.8
		c-0.7,0.3-1.5,0.5-1.8,1.3c0,0.1-0.1,0.2-0.2,0.2c-0.4,0.3-0.5,0.7-0.4,1.2c0.2,0.5,0,0.9-0.5,1.1c-0.4,0.1-0.6,0.4-0.9,0.7
		C58,5.8,58,6.1,58.2,6.4c0.5,0.9,1,1.7,1.7,2.5c0.5,0.5,0.8,1,1.2,1.6c1,1.2,1.9,2.5,2.9,3.7c0,0.1,0.1,0.1,0.1,0.1
		c0.7,0.6,1.3,1.1,2,1.7c0.3,0.2,0.6,0.4,0.9,0.5c0.4,0.2,0.8,0.2,1.3,0.3c0.7,0.2,1.3,0,1.9-0.4c1-0.8,1.9-1.6,2.8-2.4
		c0.3-0.2,0.6-0.5,0.9-0.7c0.5-0.4,0.8-1.1,1.1-1.7c-0.1-0.5-0.3-1-0.4-1.4C74.4,9.9,74.2,9.6,74,9.3z"/>
	<path class="st13" d="M79.1,89.9c-0.3-0.4-0.7-0.9-1.1-1.3c-0.2-0.3-0.5-0.5-0.7-0.8c-0.5-0.7-1-1.3-1.5-2
		c-0.1-0.2-0.3-0.3-0.4-0.4c-0.4-0.3-0.6-0.6-0.8-1c-0.6-1-1.2-1.9-2.3-2.4c-0.6-0.3-1.3-0.4-1.9-0.2c-0.6,0.2-1.2,0.4-1.8,0.6
		c-0.5,0.2-1,0.4-1.6,0.6c-0.8,0.3-1.1,1-1.5,1.6c-0.1,0.1-0.1,0.4-0.1,0.6c0,0.2,0.1,0.4,0.1,0.6c0,0.2-0.1,0.4-0.2,0.5
		c-0.1,0.1-0.3,0.1-0.4,0.2c-0.5,0.2-0.9,0.6-1.1,1.1c0.5,1,1.2,1.9,1.8,2.8c0.4,0.5,0.8,0.9,1.1,1.4c0.9,1.2,1.9,2.4,2.8,3.6
		c0.1,0.1,0.2,0.2,0.3,0.3c0.7,0.6,1.5,1.3,2.2,1.9c0.2,0.1,0.4,0.3,0.6,0.3c0.5,0.2,0.9,0.3,1.4,0.5c0.7,0.2,1.4,0.1,1.9-0.4
		c0.9-0.9,2-1.7,3-2.5c0.8-0.6,1.4-1.3,1.8-2.2c-0.2-1.1-0.7-1.9-1.3-2.7C79.4,90.4,79.2,90.1,79.1,89.9z"/>
	<path class="st13" d="M55,169.3c-0.2-0.7-0.4-1.3-1-1.7c-0.3-0.2-0.4-0.5-0.5-0.8c-0.1-0.6-0.4-1.1-0.8-1.6
		c-0.4-0.6-0.8-1.2-1.1-1.9c-0.2-0.4-0.4-0.8-0.7-1.1c-0.3-0.2-0.4-0.5-0.4-0.9c0-0.3,0-0.7-0.2-1c-0.4-0.7-0.7-1.4-1.4-1.9
		c-0.4-0.3-0.6-0.8-0.7-1.3c-0.1-0.3-0.2-0.6-0.3-0.8c-0.5-0.9-0.8-1.9-1.5-2.7c0,0-0.1-0.1-0.1-0.2c-0.1-0.8-0.7-1.3-1.1-1.9
		c-0.2-0.3-0.5-0.4-0.9-0.4c-0.4,0.1-0.9,0.1-1.4,0.4c-0.9,0.4-1.9,0.8-3,0.8c-0.4,0-0.7,0.2-0.9,0.5c-0.2,0.2-0.4,0.4-0.6,0.5
		c-0.5,0.3-0.6,0.9-0.3,1.5c0.3,0.5,0.5,1,0.7,1.6c0.1,0.4,0.3,0.8,0.5,1.1c0.7,1,1.2,2.2,2.1,3.2c0.1,0.2,0.2,0.3,0.3,0.5
		c0.3,0.8,0.9,1.5,1.3,2.2c0.4,0.6,0.8,1.1,1.1,1.8c0.2,0.3,0.3,0.6,0.6,0.8c0.8,0.5,1.2,1.2,1.6,2c0.2,0.5,0.5,0.9,0.9,1.3
		c0.5,0.4,1,0.9,1.3,1.5c0.4,0.8,1.2,1.2,1.8,1.7c0.3,0.2,0.6,0.2,0.8,0c0.5-0.3,1.1-0.5,1.7-0.6c0.8-0.2,1.4-0.6,2-1
		c0.4-0.3,0.5-0.7,0.3-1.1C55,169.6,55,169.5,55,169.3z"/>
	<path class="st13" d="M59.1,175.9c-0.3-0.3-0.6-0.6-0.9-0.9c-0.3-0.2-0.5-0.5-0.7-0.8c-0.5-0.7-1.1-1.2-1.9-1.5
		c-0.4-0.1-0.7-0.1-0.9,0.2c-0.2,0.2-0.4,0.4-0.7,0.6c-0.8,0.5-1.5,1-2.3,1.6c-0.2,0.1-0.3,0.2-0.5,0.4c-0.3,0.2-0.4,0.4-0.3,0.7
		l9.9,1.1c-0.1-0.1-0.3-0.2-0.4-0.3C59.7,176.7,59.4,176.3,59.1,175.9z"/>
	<path class="st13" d="M54.3,108.9c-0.3-0.4-0.6-0.7-0.6-1.2c-0.1-0.6-0.4-0.9-0.9-1.1c-0.5-0.2-0.7-0.5-0.6-1
		c0-0.3,0.1-0.6-0.2-0.8c-0.6-0.5-0.9-1.3-1.4-1.8c-0.3-0.3-0.5-0.7-0.6-1.1c-0.1-0.3-0.3-0.7-0.5-0.9c-0.5-0.6-1-1.1-1.6-1.7
		c-0.3-0.3-0.5-0.6-0.8-0.9c-0.4-0.4-0.7-0.9-1.1-1.3c-0.4-0.5-1.5-0.7-2.2-0.4c-1,0.5-1.9,1-3,1.1c-0.3,0-0.6,0.2-0.8,0.3
		c-0.2,0.1-0.3,0.3-0.3,0.5c0.1,0.7,0,1.5,0.4,2.1c0.2,0.4,0.1,0.7,0,1c0.4,0.2,0.6,0.3,0.6,0.7c0,0.1,0,0.1,0,0.2
		c0,0.4,0.4,0.6,0.6,0.9c0.2,0.3,0.1,0.7,0.5,1c0.1,0.1,0.2,0.3,0.3,0.5c0.1,0.2,0.2,0.4,0.4,0.6c0.2,0.2,0.4,0.5,0.5,0.8
		c0.3,0.6,0.6,1.2,1,1.7c0.5,0.6,1,1.2,1.4,1.8c0.2,0.4,0.4,0.7,0.8,0.9c0.5,0.3,0.9,0.7,1.2,1.3c0.2,0.3,0.4,0.6,0.8,0.8
		c0.4,0.2,0.6,0.5,0.8,0.8c0.4,0.7,1.1,1.2,1.8,1.5c0.4,0.1,0.7,0.2,1-0.2c0.4-0.4,0.9-0.7,1.4-1c0.7-0.5,1.5-0.9,2.2-1.4
		c0.3-0.2,0.4-0.4,0.3-0.8C55.5,111,54.8,109.5,54.3,108.9z"/>
	<path class="st13" d="M107.3,164.8c-0.2-0.2-0.2-0.5-0.3-0.7c-0.2-0.5-0.4-1.1-0.9-1.4c-0.1-0.1-0.1-0.2-0.2-0.3
		c-0.2-0.2-0.4-0.5-0.5-0.7c-0.4-0.7-1-1.1-1.4-1.8c-0.3-0.5-0.7-1.1-1.2-1.4c-0.6-0.4-1-1-1.4-1.5c-0.3-0.3-0.6-0.6-1-0.8
		c-0.4-0.2-0.8-0.5-1.1-0.9c-0.4-0.4-0.8-0.8-1.3-1c-0.2-0.1-0.4-0.2-0.5-0.4c-0.5-0.8-1.3-1.1-2.1-1.5c-0.4-0.2-0.8-0.1-1.1,0.3
		c-0.5,0.7-1.2,1.1-1.9,1.7c-0.6,0.5-1.1,1-1.6,1.6c0.2,1.1,0.8,1.9,1.4,2.7c0.1,0.2,0.3,0.3,0.4,0.4c0.4,0.3,0.6,0.6,0.8,1
		c0.2,0.6,0.5,1,1.2,1.1c0.3,0,0.5,0.3,0.5,0.6c0,0.1,0,0.1,0,0.2c0,0.5,0.3,0.8,0.6,1.1c0.8,0.8,1.5,1.6,2,2.6
		c0.1,0.1,0.1,0.2,0.2,0.3c0.6,0.5,1.2,1.1,1.8,1.5c0.7,0.6,1.4,1.1,2,1.8c0.4,0.6,1,0.9,1.8,1c0.4,0,0.8,0,1.1-0.3
		c0.7-0.7,1.6-1.2,2.6-1.5c0.4-0.1,0.9-0.3,1.2-0.7C107.9,166.6,108,165.6,107.3,164.8z"/>
	<polygon class="st13" points="101.5,76.6 101.6,76.6 101.6,76.5 	"/>
	<polygon class="st13" points="69.3,163.6 69.4,163.5 69.3,163.5 	"/>
	<polygon class="st13" points="107.5,164.2 107.5,164.2 107.5,164.2 	"/>
	<polygon class="st13" points="125.8,162.9 125.8,162.8 125.7,162.8 	"/>
	<polygon class="st13" points="102.4,56.4 102.4,56.3 102.4,56.3 	"/>
	<polygon class="st13" points="57.8,136.9 57.9,136.9 57.8,136.8 	"/>
	<path class="st13" d="M90.9,181.6c0.7,1,1.4,1.9,1.8,3.1c0.1,0.2,0.3,0.5,0.4,0.7c0.5,0.7,1,1.4,1.4,2.2c0.4,0.6,0.7,1.3,1.1,1.9
		c0.4,0.7,0.9,1.3,1.3,2c0.6,1.1,1.5,1.6,2.7,1.7c0.4,0.1,0.8,0.1,1.2,0.1c1.2,0.2,2.1-0.4,2.8-1.2c0.7-0.7,1.3-1.5,2-2.2
		c0.6-0.6,0.8-1.3,0.6-2.1c-0.1-0.3-0.2-0.5-0.2-0.8c-0.5-1.3-1.2-2.4-1.9-3.5c-0.3-0.5-0.6-0.9-0.9-1.3c0,0,0,0,0-0.1l-12.9-1.5
		c0,0,0,0.1,0.1,0.1C90.5,181,90.7,181.3,90.9,181.6z"/>
	<path class="st13" d="M74.5,180.2c0.6,0.6,1.2,1.3,1.6,2c0.2,0.3,0.4,0.5,0.8,0.6c0.9,0.2,1.5,0.8,2.2,1.3c0.5,0.4,1,0.7,1.6,1
		c0.4,0.2,0.8,0.4,1.2,0.2c0.7-0.2,1.4-0.4,2-0.8c1.1-0.6,2.1-1.3,3.2-2c0.5-0.3,0.6-0.6,0.4-1.2c-0.1-0.4-0.3-0.8-0.4-1.1
		l-13.7-1.6C73.8,179.3,74.1,179.8,74.5,180.2z"/>
	<path class="st13" d="M117.6,185.3c0.1,0.6,0.4,1.1,1,1.4c0.4,0.2,0.6,0.5,0.8,0.8c0.2,0.5,0.6,1,1,1.3c0.4,0.3,0.6,0.7,0.6,1.2
		c-0.1,0.5,0.2,0.9,0.7,1.1c0.4,0.2,0.7,0.5,0.9,0.9c0.2,0.2,0.3,0.5,0.2,0.8c-0.2,0.7,0.1,1.2,0.5,1.6c0.4,0.5,0.8,1,1.2,1.4
		c0.3,0.4,0.6,0.7,0.7,1.2c0.1,0.5,0.4,1,0.7,1.4c0.3,0.4,0.7,0.9,0.7,1.4c0,0.7,0.4,1.2,0.9,1.6c0.3,0.2,0.6,0.5,0.7,0.8
		c0.1,0.2,0.3,0.4,0.4,0.5c0.3,0.2,0.4,0.5,0.5,0.8c0.1,0.4,0.3,0.6,0.7,0.8c0.4,0.2,0.8,0.2,1.3,0.1c0.8-0.2,1.5-0.4,2.3-0.6
		c0.1,0,0.3-0.1,0.3-0.2c0.3-0.4,0.7-0.8,0.7-1.4c0-1.1,0-2.1-0.4-3.2c-0.1-0.3-0.2-0.6-0.6-0.8c-0.5-0.2-0.5-0.6-0.4-1
		c0.1-0.4,0.2-0.8,0.4-1.1c0.1-0.3,0.1-0.5,0-0.8c-0.3-0.4-0.3-0.9-0.3-1.3c0-0.4-0.1-0.9-0.1-1.3c0-0.4-0.2-0.8-0.7-0.9
		c-0.4-0.1-0.6-0.3-0.8-0.7c-0.4-0.7-0.8-1.3-0.9-2.2c0-0.5-0.3-0.9-0.6-1.2c-0.4-0.4-0.5-0.4-1.1-0.1c0,0-0.1,0-0.2,0
		c-0.3-0.3-0.5-0.7-0.4-1.2c0.1-0.8-0.3-1.4-0.8-1.9l-10.3-1.2c0.1,0.3,0.2,0.7,0.2,1C117.5,184.9,117.6,185.1,117.6,185.3z"/>
	<path class="st13" d="M52.2,179.1c0.3,0.4,0.6,0.8,0.7,1.3c0.1,0.5,0.3,0.8,0.8,0.9c0.5,0.1,0.7,0.4,0.7,0.8c0,0.7,0.4,1.2,0.8,1.7
		c0.6,0.8,1.2,1.6,1.6,2.5c0.1,0.2,0.2,0.3,0.4,0.5c0.2,0.3,0.5,0.6,0.7,0.8c0.2,0.3,0.5,0.6,0.8,0.8c0.6,0.4,1,0.9,1.4,1.4
		c0.3,0.3,0.6,0.6,0.9,1c0.3,0.4,0.8,0.4,1.3,0.5c0.4,0.1,0.7-0.1,1-0.3c0.8-0.4,1.6-0.9,2.6-1.1c0.3-0.1,0.6-0.2,0.9-0.3
		c0.2-0.1,0.3-0.2,0.4-0.3c-0.1-0.7-0.2-1.3-0.3-1.9c0-0.2-0.1-0.4-0.2-0.6c-0.2-0.3-0.1-0.6,0-0.9c-0.3-0.2-0.6-0.4-0.6-0.7
		c-0.1-0.4-0.2-0.7-0.6-0.9c-0.1-0.1-0.2-0.3-0.3-0.5c-0.1-0.2-0.2-0.5-0.4-0.7c-0.4-0.7-1.1-1.2-1.3-2.1c0-0.1-0.1-0.2-0.2-0.3
		c-0.4-0.6-0.8-1.2-1.3-1.7c-0.3-0.2-0.5-0.6-0.6-0.9c-0.2-0.3-0.4-0.6-0.7-0.9l-9.8-1.1c0,0.1,0,0.1,0,0.2
		C51.1,177.4,51.7,178.2,52.2,179.1z"/>
</g>
</svg>
