<?xml version="1.0" encoding="utf-8"?>
<!-- Generator: Adobe Illustrator 21.0.0, SVG Export Plug-In . SVG Version: 6.00 Build 0)  -->
<svg version="1.1" id="Layer_1" xmlns="http://www.w3.org/2000/svg" xmlns:xlink="http://www.w3.org/1999/xlink" x="0px" y="0px"
	 viewBox="0 0 135.8 100.9" style="enable-background:new 0 0 135.8 100.9;" xml:space="preserve">
<style type="text/css">
	.st0{fill:none;stroke:#3CB6AB;stroke-miterlimit:10;}
	.st1{fill-rule:evenodd;clip-rule:evenodd;fill:#F79980;}
	.st2{fill-rule:evenodd;clip-rule:evenodd;fill:#F0D4D0;}
	.st3{fill-rule:evenodd;clip-rule:evenodd;fill:#F1D953;}
	.st4{fill-rule:evenodd;clip-rule:evenodd;fill:#3CB6AB;}
	.st5{fill-rule:evenodd;clip-rule:evenodd;fill:#CCE0E1;}
	.st6{fill-rule:evenodd;clip-rule:evenodd;fill:#C5C8D1;}
	.st7{fill-rule:evenodd;clip-rule:evenodd;fill:#06749C;}
	.st8{fill-rule:evenodd;clip-rule:evenodd;fill:#FFFFFF;}
	.st9{fill-rule:evenodd;clip-rule:evenodd;}
	.st10{fill:#06749C;}
	.st11{fill:#F79980;}
	.st12{fill:#F0D4D0;}
	.st13{fill:#F1D953;}
	.st14{clip-path:url(#SVGID_2_);}
	.st15{fill:none;stroke:#F1D953;stroke-width:0.75;}
	.st16{fill:#CCE0E1;}
	.st17{fill:none;stroke:#000000;stroke-width:0.75;}
	.st18{fill:none;stroke:#F0D4D0;stroke-miterlimit:10;}
	.st19{fill:none;stroke:#F1D953;stroke-miterlimit:10;}
	.st20{clip-path:url(#SVGID_4_);}
	.st21{clip-path:url(#SVGID_6_);}
	.st22{fill:#C5C8D1;}
	.st23{clip-path:url(#SVGID_8_);}
	.st24{fill:none;stroke:#000000;stroke-miterlimit:10;}
	.st25{clip-path:url(#SVGID_10_);}
	.st26{clip-path:url(#SVGID_12_);}
	.st27{fill:none;stroke:#F1D953;stroke-width:1.948;}
	.st28{fill:none;stroke:#000000;stroke-width:1.948;}
	.st29{fill:none;stroke:#F0D4D0;stroke-width:2.5973;stroke-miterlimit:10;}
	.st30{fill:none;stroke:#F1D953;stroke-width:2.5973;stroke-miterlimit:10;}
	.st31{fill:none;stroke:#000000;stroke-width:2.5973;stroke-miterlimit:10;}
	.st32{fill:#FFFFFF;}
	.st33{fill:#72B4A6;}
	.st34{fill:#F0D4D0;stroke:#C5C8D1;stroke-width:1.3638;stroke-miterlimit:10;}
	.st35{fill:none;stroke:#000000;stroke-linejoin:bevel;stroke-miterlimit:10;}
	.st36{fill:none;stroke:#C5C8D1;stroke-width:1.2346;stroke-miterlimit:10;}
	.st37{fill:#C5C8D1;stroke:#C5C8D1;stroke-width:1.2346;stroke-miterlimit:10;}
	.st38{fill:none;stroke:#C5C8D1;stroke-width:1.2346;stroke-linejoin:bevel;stroke-miterlimit:10;}
	.st39{fill:#F1D953;stroke:#72B4A6;stroke-miterlimit:10;}
	.st40{fill:#C5C8D1;stroke:#C5C8D1;stroke-width:0.5;stroke-miterlimit:10;}
	.st41{fill:none;stroke:#F79980;stroke-miterlimit:10;}
	.st42{fill:none;stroke:#72B4A6;stroke-miterlimit:10;}
	.st43{fill:none;stroke:#CCE0E1;stroke-width:2;stroke-miterlimit:10;}
	.st44{fill:#06749C;stroke:#06749C;stroke-miterlimit:10;}
	.st45{fill:none;stroke:#3CB6AB;stroke-width:0.6231;stroke-miterlimit:10;}
	.st46{fill:none;stroke:#3CB6AB;stroke-width:0.6231;stroke-linejoin:round;stroke-miterlimit:10;}
	.st47{fill:none;stroke:#06749C;stroke-miterlimit:10;}
	.st48{fill:none;stroke:#000000;stroke-linejoin:round;stroke-miterlimit:10;}
	.st49{fill:#F79980;stroke:#000000;stroke-width:0.5;stroke-miterlimit:10;}
	.st50{fill:#C5C8D1;stroke:#C5C8D1;stroke-width:1.3736;stroke-miterlimit:10;}
	.st51{fill:#E85B3F;}
	.st52{fill:#3CB6AB;stroke:#3CB6AB;stroke-width:1.3736;stroke-miterlimit:10;}
	.st53{fill:#F0D4D0;stroke:#F0D4D0;stroke-width:1.3736;stroke-miterlimit:10;}
	.st54{fill:none;stroke:#F0D4D0;stroke-width:1.3736;stroke-miterlimit:10;}
	.st55{fill:#CCE0E1;stroke:#CCE0E1;stroke-width:1.3736;stroke-miterlimit:10;}
	.st56{fill:#06749C;stroke:#06749C;stroke-width:1.3736;stroke-miterlimit:10;}
	.st57{fill:none;stroke:#3CB6AB;stroke-width:1.3736;stroke-miterlimit:10;}
	.st58{fill:#72B4A6;stroke:#72B4A6;stroke-width:1.3736;stroke-miterlimit:10;}
	.st59{fill:#F1D953;stroke:#F1D953;stroke-width:1.3736;stroke-miterlimit:10;}
	.st60{fill:none;stroke:#B3B3B3;stroke-miterlimit:10;}
	.st61{fill:none;stroke:#999999;stroke-miterlimit:10;}
	.st62{fill:#E6E6E6;stroke:#CCCCCC;stroke-miterlimit:10;}
	.st63{fill:none;stroke:#CCCCCC;stroke-miterlimit:10;}
	.st64{fill:#CCCCCC;}
	.st65{fill:#4D4D4D;}
	.st66{fill:#999999;}
	.st67{fill:#666666;}
	.st68{fill:#B3B3B3;}
	.st69{fill:#CCCCCC;stroke:#999999;stroke-width:1.3638;stroke-miterlimit:10;}
	.st70{fill:none;stroke:#CCCCCC;stroke-width:1.3746;stroke-miterlimit:10;}
	.st71{fill:#999999;stroke:#CCCCCC;stroke-width:1.1135;stroke-miterlimit:10;}
	.st72{fill:none;stroke:#CCCCCC;stroke-width:1.3746;stroke-linejoin:bevel;stroke-miterlimit:10;}
	.st73{fill:none;stroke:#808080;stroke-width:1.2346;stroke-miterlimit:10;}
	.st74{fill:#999999;stroke:#808080;stroke-width:1.2346;stroke-miterlimit:10;}
	.st75{fill:none;stroke:#808080;stroke-width:1.2346;stroke-linejoin:bevel;stroke-miterlimit:10;}
	.st76{fill:#808080;stroke:#CCCCCC;stroke-miterlimit:10;}
	.st77{fill:#999999;stroke:#999999;stroke-width:0.5;stroke-miterlimit:10;}
	.st78{fill:none;stroke:#C5C8D1;stroke-miterlimit:10;}
	.st79{fill:#C5C8D1;stroke:#C5C8D1;stroke-miterlimit:10;}
	.st80{fill:none;stroke:#999999;stroke-width:1.3428;stroke-miterlimit:10;}
	.st81{fill:#999999;stroke:#999999;stroke-miterlimit:10;}
	.st82{fill:none;stroke:#B3B3B3;stroke-width:2;stroke-miterlimit:10;}
	.st83{fill:#666666;stroke:#999999;stroke-miterlimit:10;}
	.st84{fill:none;stroke:#999999;stroke-width:0.8128;stroke-miterlimit:10;}
	.st85{fill:none;stroke:#999999;stroke-width:0.8128;stroke-linejoin:round;stroke-miterlimit:10;}
	.st86{fill:#B3B3B3;stroke:#999999;stroke-miterlimit:10;}
	.st87{fill:#666666;stroke:#666666;stroke-miterlimit:10;}
	.st88{fill:none;stroke:#666666;stroke-miterlimit:10;}
	.st89{fill:#CCCCCC;stroke:#F2F2F2;stroke-miterlimit:10;}
	.st90{fill:none;stroke:#F2F2F2;stroke-miterlimit:10;}
	.st91{fill:#808080;}
	.st92{fill:#E6E6E6;}
	.st93{fill:none;stroke:#B3B3B3;stroke-width:1.3736;stroke-miterlimit:10;}
	.st94{fill:#E6E6E6;stroke:#E6E6E6;stroke-width:1.3736;stroke-miterlimit:10;}
	.st95{fill:#06749C;stroke:#808080;stroke-width:1.3736;stroke-miterlimit:10;}
	.st96{fill:none;stroke:#CCCCCC;stroke-width:1.3736;stroke-miterlimit:10;}
	.st97{fill:#999999;stroke:#999999;stroke-width:1.3736;stroke-miterlimit:10;}
	.st98{fill:#3CB6AB;stroke:#E6E6E6;stroke-width:1.3736;stroke-miterlimit:10;}
	.st99{fill:#F1D953;stroke:#666666;stroke-width:1.3736;stroke-miterlimit:10;}
	.st100{fill:#F2F2F2;}
	.st101{clip-path:url(#SVGID_14_);fill:url(#);stroke:#231F20;stroke-width:0.36;}
	.st102{fill:#3CB6AB;}
	.st103{fill:url(#);}
	.st104{fill:none;}
	.st105{fill:#06749C;stroke:#3CB6AB;stroke-miterlimit:10;}
	.st106{fill:#1A1A1A;}
	.st107{fill:#F0D4D0;stroke:#F0D4D0;stroke-width:1.3638;stroke-miterlimit:10;}
	.st108{fill:#06749C;stroke:#06749C;stroke-width:1.2346;stroke-miterlimit:10;}
	.st109{fill:none;stroke:#F79980;stroke-width:1.2346;stroke-miterlimit:10;}
	.st110{fill:#3CB6AB;stroke:#F79980;stroke-width:1.2346;stroke-miterlimit:10;}
	.st111{fill:none;stroke:#F79980;stroke-width:1.2346;stroke-linejoin:bevel;stroke-miterlimit:10;}
	.st112{fill:#F79980;stroke:#F79980;stroke-width:0.5;stroke-miterlimit:10;}
	.st113{fill:none;stroke:#3CB6AB;stroke-width:1.3428;stroke-miterlimit:10;}
	.st114{fill:#3CB6AB;stroke:#3CB6AB;stroke-miterlimit:10;}
	.st115{fill:none;stroke:#3CB6AB;stroke-width:1.2346;stroke-miterlimit:10;}
	.st116{fill:#3CB6AB;stroke:#3CB6AB;stroke-width:1.2346;stroke-miterlimit:10;}
	.st117{fill:none;stroke:#3CB6AB;stroke-width:1.2346;stroke-linejoin:bevel;stroke-miterlimit:10;}
	.st118{fill:none;stroke:#3CB6AB;stroke-width:0.8128;stroke-miterlimit:10;}
	.st119{fill:none;stroke:#3CB6AB;stroke-width:0.8128;stroke-linejoin:round;stroke-miterlimit:10;}
	.st120{fill:#CCE0E1;stroke:#CCE0E1;stroke-miterlimit:10;}
	.st121{fill:none;stroke:#CCE0E1;stroke-miterlimit:10;}
</style>
<g>
	<path class="st42" d="M30,35.9c34.6-14,53.4-5.6,66.2-1.3c-3.6,0.6-12.2,2-12.9,2.9c-0.6,0.7-1.8,9.5-2.3,13
		c-3.8-2.7-14.6-9.4-16.1-8.8c-0.9,0.4-7.2,9.8-9.9,13.7c-1.7-3.9-1.3-14.8-1.9-15.9C52.4,38,36.1,36.4,30,35.9"/>
	<path class="st42" d="M53.2,39.6c-32.3,14.8-20.9,57.9-3.1,59.6c21,2,26.7-41.7,14.8-57.4"/>
	<path class="st42" d="M39.4,92.3c-36.1-5.9-20.5-51.6-2.8-55.5"/>
	<path class="st42" d="M35.2,46.9c-8.7-6-16.8-12.9-24.1-20.5"/>
	<path class="st42" d="M5.8,20.5c0.2-1.2,2.1-5.1,3.9-4.4c3.6,1.4,2,9.5,1.5,10.2c-0.8,1.2-6.9,2.2-10.1-1.1
		C-1.3,22.8,4.4,20.7,5.8,20.5z"/>
	<path class="st42" d="M68.5,27.8c0.4-6.2,0.9-12.4,1.3-18.6c0-0.5-7.1-4.3-2-8.2c3.2-2.5,6.3,4.7,2,8.2"/>
	<path class="st42" d="M103.8,68.3c8.2-1.8,16.5-3.3,24.8-4.4"/>
	<path class="st42" d="M128.4,63.1c0.1,0.7,0.3,1.4,0.7,2s1.1,1,1.8,0.7c0.4-0.1,0.8-0.5,1-0.9c0.5-0.8,0.6-1.9,0.2-2.8
		s-1.4-1.5-2.4-1.3C128.8,61.1,128.1,62.2,128.4,63.1"/>
	<path class="st42" d="M42.1,42.7c-1.8-8.9-3.6-17.9-5.3-26.9"/>
	<path class="st42" d="M28.3,53.2c-5.6-1.5-12.4-5.4-18-9.1"/>
	<g>
		<path class="st42" d="M79.7,29.7c1.4-4,2.2-6.4,2.9-13"/>
		<path class="st42" d="M82.6,16.8c-1.5-0.6-7.6-4.3-5.3-7.2c1.2-1.5,4.3,0.7,5,1.5c-0.2-1.4,0.5-4.1,2.8-3.2
			c2.4,0.9,1.9,3.1,0.7,4.3c1.5-0.3,5.4-2.3,5.1,0.3C90.5,16.4,84.1,16.5,82.6,16.8z"/>
	</g>
	<ellipse transform="matrix(0.9455 -0.3256 0.3256 0.9455 -2.0005 12.3798)" class="st42" cx="36" cy="12.2" rx="2.6" ry="3.2"/>
	<ellipse transform="matrix(0.9455 -0.3256 0.3256 0.9455 -21.6577 21.1266)" class="st42" cx="52.3" cy="75.3" rx="4.7" ry="4.7"/>
	<ellipse transform="matrix(0.4979 -0.8672 0.8672 0.4979 -32.8474 29.9862)" class="st42" cx="9.5" cy="43.4" rx="2.3" ry="1.3"/>
	<g>
		<path class="st42" d="M96.6,43.9c4.9-10.3,9.8-20.6,14.7-30.9"/>
		
			<ellipse transform="matrix(8.873826e-02 -0.9961 0.9961 8.873826e-02 92.8267 121.0476)" class="st42" cx="112.6" cy="9.8" rx="3.7" ry="4.3"/>
	</g>
	<g>
		<path class="st42" d="M99,51.1c2.5-2.6,4.9-5.2,7.3-7.9c7.1-7.8,14.1-15.6,21.2-23.4"/>
		<ellipse transform="matrix(0.7316 -0.6817 0.6817 0.7316 23.91 93.1996)" class="st42" cx="130.3" cy="16.2" rx="4.3" ry="5.7"/>
	</g>
	<path class="st42" d="M83.3,37.5c0,0,11.7,5.9,14.2,28.4s-14.2,44.6-36.7,29.6"/>
	<path class="st42" d="M89,94.3c0,0,30.1-9.1,26.4-33.1C111.7,37.2,91,35.5,91,35.5"/>
	<circle class="st42" cx="81.8" cy="61.3" r="3.3"/>
</g>
</svg>
