<?xml version="1.0" encoding="utf-8"?>
<!-- Generator: Adobe Illustrator 21.0.0, SVG Export Plug-In . SVG Version: 6.00 Build 0)  -->
<svg version="1.1" id="Layer_1" xmlns="http://www.w3.org/2000/svg" xmlns:xlink="http://www.w3.org/1999/xlink" x="0px" y="0px"
	 viewBox="0 0 185.6 135.9" style="enable-background:new 0 0 185.6 135.9;" xml:space="preserve">
<style type="text/css">
	.st0{fill:none;stroke:#3CB6AB;stroke-miterlimit:10;}
	.st1{fill-rule:evenodd;clip-rule:evenodd;fill:#F79980;}
	.st2{fill-rule:evenodd;clip-rule:evenodd;fill:#F0D4D0;}
	.st3{fill-rule:evenodd;clip-rule:evenodd;fill:#F1D953;}
	.st4{fill-rule:evenodd;clip-rule:evenodd;fill:#3CB6AB;}
	.st5{fill-rule:evenodd;clip-rule:evenodd;fill:#CCE0E1;}
	.st6{fill-rule:evenodd;clip-rule:evenodd;fill:#C5C8D1;}
	.st7{fill-rule:evenodd;clip-rule:evenodd;fill:#06749C;}
	.st8{fill-rule:evenodd;clip-rule:evenodd;fill:#FFFFFF;}
	.st9{fill-rule:evenodd;clip-rule:evenodd;}
	.st10{fill:#06749C;}
	.st11{fill:#F79980;}
	.st12{fill:#F0D4D0;}
	.st13{fill:#F1D953;}
	.st14{clip-path:url(#SVGID_2_);}
	.st15{fill:none;stroke:#F1D953;stroke-width:0.75;}
	.st16{fill:#CCE0E1;}
	.st17{fill:none;stroke:#000000;stroke-width:0.75;}
	.st18{fill:none;stroke:#F0D4D0;stroke-miterlimit:10;}
	.st19{fill:none;stroke:#F1D953;stroke-miterlimit:10;}
	.st20{clip-path:url(#SVGID_4_);}
	.st21{clip-path:url(#SVGID_6_);}
	.st22{fill:#C5C8D1;}
	.st23{clip-path:url(#SVGID_8_);}
	.st24{fill:none;stroke:#000000;stroke-miterlimit:10;}
	.st25{clip-path:url(#SVGID_10_);}
	.st26{clip-path:url(#SVGID_12_);}
	.st27{fill:none;stroke:#F1D953;stroke-width:1.948;}
	.st28{fill:none;stroke:#000000;stroke-width:1.948;}
	.st29{fill:none;stroke:#F0D4D0;stroke-width:2.5973;stroke-miterlimit:10;}
	.st30{fill:none;stroke:#F1D953;stroke-width:2.5973;stroke-miterlimit:10;}
	.st31{fill:none;stroke:#000000;stroke-width:2.5973;stroke-miterlimit:10;}
	.st32{fill:#FFFFFF;}
	.st33{fill:#72B4A6;}
	.st34{fill:#F0D4D0;stroke:#C5C8D1;stroke-width:1.3638;stroke-miterlimit:10;}
	.st35{fill:none;stroke:#000000;stroke-linejoin:bevel;stroke-miterlimit:10;}
	.st36{fill:none;stroke:#C5C8D1;stroke-width:1.2346;stroke-miterlimit:10;}
	.st37{fill:#C5C8D1;stroke:#C5C8D1;stroke-width:1.2346;stroke-miterlimit:10;}
	.st38{fill:none;stroke:#C5C8D1;stroke-width:1.2346;stroke-linejoin:bevel;stroke-miterlimit:10;}
	.st39{fill:#F1D953;stroke:#72B4A6;stroke-miterlimit:10;}
	.st40{fill:#C5C8D1;stroke:#C5C8D1;stroke-width:0.5;stroke-miterlimit:10;}
	.st41{fill:none;stroke:#F79980;stroke-miterlimit:10;}
	.st42{fill:none;stroke:#72B4A6;stroke-miterlimit:10;}
	.st43{fill:none;stroke:#CCE0E1;stroke-width:2;stroke-miterlimit:10;}
	.st44{fill:#06749C;stroke:#06749C;stroke-miterlimit:10;}
	.st45{fill:none;stroke:#3CB6AB;stroke-width:0.6231;stroke-miterlimit:10;}
	.st46{fill:none;stroke:#3CB6AB;stroke-width:0.6231;stroke-linejoin:round;stroke-miterlimit:10;}
	.st47{fill:none;stroke:#06749C;stroke-miterlimit:10;}
	.st48{fill:none;stroke:#000000;stroke-linejoin:round;stroke-miterlimit:10;}
	.st49{fill:#F79980;stroke:#000000;stroke-width:0.5;stroke-miterlimit:10;}
	.st50{fill:#C5C8D1;stroke:#C5C8D1;stroke-width:1.3736;stroke-miterlimit:10;}
	.st51{fill:#E85B3F;}
	.st52{fill:#3CB6AB;stroke:#3CB6AB;stroke-width:1.3736;stroke-miterlimit:10;}
	.st53{fill:#F0D4D0;stroke:#F0D4D0;stroke-width:1.3736;stroke-miterlimit:10;}
	.st54{fill:none;stroke:#F0D4D0;stroke-width:1.3736;stroke-miterlimit:10;}
	.st55{fill:#CCE0E1;stroke:#CCE0E1;stroke-width:1.3736;stroke-miterlimit:10;}
	.st56{fill:#06749C;stroke:#06749C;stroke-width:1.3736;stroke-miterlimit:10;}
	.st57{fill:none;stroke:#3CB6AB;stroke-width:1.3736;stroke-miterlimit:10;}
	.st58{fill:#72B4A6;stroke:#72B4A6;stroke-width:1.3736;stroke-miterlimit:10;}
	.st59{fill:#F1D953;stroke:#F1D953;stroke-width:1.3736;stroke-miterlimit:10;}
	.st60{fill:none;stroke:#B3B3B3;stroke-miterlimit:10;}
	.st61{fill:none;stroke:#999999;stroke-miterlimit:10;}
	.st62{fill:#E6E6E6;stroke:#CCCCCC;stroke-miterlimit:10;}
	.st63{fill:none;stroke:#CCCCCC;stroke-miterlimit:10;}
	.st64{fill:#CCCCCC;}
	.st65{fill:#4D4D4D;}
	.st66{fill:#999999;}
	.st67{fill:#666666;}
	.st68{fill:#B3B3B3;}
	.st69{fill:#CCCCCC;stroke:#999999;stroke-width:1.3638;stroke-miterlimit:10;}
	.st70{fill:none;stroke:#CCCCCC;stroke-width:1.3746;stroke-miterlimit:10;}
	.st71{fill:#999999;stroke:#CCCCCC;stroke-width:1.1135;stroke-miterlimit:10;}
	.st72{fill:none;stroke:#CCCCCC;stroke-width:1.3746;stroke-linejoin:bevel;stroke-miterlimit:10;}
	.st73{fill:none;stroke:#808080;stroke-width:1.2346;stroke-miterlimit:10;}
	.st74{fill:#999999;stroke:#808080;stroke-width:1.2346;stroke-miterlimit:10;}
	.st75{fill:none;stroke:#808080;stroke-width:1.2346;stroke-linejoin:bevel;stroke-miterlimit:10;}
	.st76{fill:#808080;stroke:#CCCCCC;stroke-miterlimit:10;}
	.st77{fill:#999999;stroke:#999999;stroke-width:0.5;stroke-miterlimit:10;}
	.st78{fill:none;stroke:#C5C8D1;stroke-miterlimit:10;}
	.st79{fill:#C5C8D1;stroke:#C5C8D1;stroke-miterlimit:10;}
	.st80{fill:none;stroke:#999999;stroke-width:1.3428;stroke-miterlimit:10;}
	.st81{fill:#999999;stroke:#999999;stroke-miterlimit:10;}
	.st82{fill:none;stroke:#B3B3B3;stroke-width:2;stroke-miterlimit:10;}
	.st83{fill:#666666;stroke:#999999;stroke-miterlimit:10;}
	.st84{fill:none;stroke:#999999;stroke-width:0.8128;stroke-miterlimit:10;}
	.st85{fill:none;stroke:#999999;stroke-width:0.8128;stroke-linejoin:round;stroke-miterlimit:10;}
	.st86{fill:#B3B3B3;stroke:#999999;stroke-miterlimit:10;}
	.st87{fill:#666666;stroke:#666666;stroke-miterlimit:10;}
	.st88{fill:none;stroke:#666666;stroke-miterlimit:10;}
	.st89{fill:#CCCCCC;stroke:#F2F2F2;stroke-miterlimit:10;}
	.st90{fill:none;stroke:#F2F2F2;stroke-miterlimit:10;}
	.st91{fill:#808080;}
	.st92{fill:#E6E6E6;}
	.st93{fill:none;stroke:#B3B3B3;stroke-width:1.3736;stroke-miterlimit:10;}
	.st94{fill:#E6E6E6;stroke:#E6E6E6;stroke-width:1.3736;stroke-miterlimit:10;}
	.st95{fill:#06749C;stroke:#808080;stroke-width:1.3736;stroke-miterlimit:10;}
	.st96{fill:none;stroke:#CCCCCC;stroke-width:1.3736;stroke-miterlimit:10;}
	.st97{fill:#999999;stroke:#999999;stroke-width:1.3736;stroke-miterlimit:10;}
	.st98{fill:#3CB6AB;stroke:#E6E6E6;stroke-width:1.3736;stroke-miterlimit:10;}
	.st99{fill:#F1D953;stroke:#666666;stroke-width:1.3736;stroke-miterlimit:10;}
	.st100{fill:#F2F2F2;}
	.st101{clip-path:url(#SVGID_14_);fill:url(#);stroke:#231F20;stroke-width:0.36;}
	.st102{fill:#3CB6AB;}
	.st103{fill:url(#);}
	.st104{fill:none;}
	.st105{fill:#06749C;stroke:#3CB6AB;stroke-miterlimit:10;}
	.st106{fill:#1A1A1A;}
	.st107{fill:#F0D4D0;stroke:#F0D4D0;stroke-width:1.3638;stroke-miterlimit:10;}
	.st108{fill:#06749C;stroke:#06749C;stroke-width:1.2346;stroke-miterlimit:10;}
	.st109{fill:none;stroke:#F79980;stroke-width:1.2346;stroke-miterlimit:10;}
	.st110{fill:#3CB6AB;stroke:#F79980;stroke-width:1.2346;stroke-miterlimit:10;}
	.st111{fill:none;stroke:#F79980;stroke-width:1.2346;stroke-linejoin:bevel;stroke-miterlimit:10;}
	.st112{fill:#F79980;stroke:#F79980;stroke-width:0.5;stroke-miterlimit:10;}
	.st113{fill:none;stroke:#3CB6AB;stroke-width:1.3428;stroke-miterlimit:10;}
	.st114{fill:#3CB6AB;stroke:#3CB6AB;stroke-miterlimit:10;}
	.st115{fill:none;stroke:#3CB6AB;stroke-width:1.2346;stroke-miterlimit:10;}
	.st116{fill:#3CB6AB;stroke:#3CB6AB;stroke-width:1.2346;stroke-miterlimit:10;}
	.st117{fill:none;stroke:#3CB6AB;stroke-width:1.2346;stroke-linejoin:bevel;stroke-miterlimit:10;}
	.st118{fill:none;stroke:#3CB6AB;stroke-width:0.8128;stroke-miterlimit:10;}
	.st119{fill:none;stroke:#3CB6AB;stroke-width:0.8128;stroke-linejoin:round;stroke-miterlimit:10;}
	.st120{fill:#CCE0E1;stroke:#CCE0E1;stroke-miterlimit:10;}
	.st121{fill:none;stroke:#CCE0E1;stroke-miterlimit:10;}
</style>
<g>
	<path class="st12" d="M7.1,30.7c0.2-1.6,2.7-7,5.2-6.2c5,1.7,3.1,13,2.4,14c-1,1.6-9.4,3.4-13.9-1.1C-2.5,34,5.2,31,7.1,30.7z"/>
	<path class="st50" d="M177.2,84.3c0.2,0.9,0.4,1.9,1,2.7c0.6,0.8,1.6,1.3,2.5,1c0.6-0.2,1-0.7,1.3-1.3c0.6-1.2,0.8-2.6,0.2-3.8
		c-0.6-1.2-2-2-3.3-1.7c-1.3,0.3-2.2,1.9-1.6,3.1"/>
	<ellipse transform="matrix(0.9357 -0.3529 0.3529 0.9357 1.0322 18.1414)" class="st51" cx="50.3" cy="6.2" rx="3.6" ry="4.4"/>
	<ellipse transform="matrix(0.4726 -0.8813 0.8813 0.4726 -47.6575 44.1914)" class="st52" cx="13.1" cy="61.9" rx="3.1" ry="1.8"/>
	<g>
		<path class="st53" d="M41,50.9c47-20.5,73-9.8,90.9-4.4c-4.9,1-16.6,3.2-17.6,4.5c-0.8,1-2.1,13.2-2.6,17.9
			c-5.3-3.5-20.5-12.3-22.5-11.4c-1.2,0.6-9.6,13.8-13,19.2C73.6,71.5,73.7,56.5,73,55C71.8,52.8,49.4,51.4,41,50.9"/>
		<path class="st11" d="M56.1,128C6.4,121.2,26,57.9,50.1,51.8L73,55C60.7,55.4,20.1,89.9,56.1,128"/>
		<path class="st54" d="M48.6,65.7c-12.2-7.9-23.5-17-33.9-27.2"/>
		<path class="st55" d="M93.5,38.2c0.3-8.5,0.7-17,1-25.5c0-0.7-9.9-5.6-3.1-11.2c4.3-3.6,8.9,6.2,3.1,11.2"/>
		<path class="st50" d="M143.6,92.4c11.2-2.8,22.5-5.1,33.9-7.1"/>
		<path class="st56" d="M59.8,47.9c-2.9-12.2-5.7-24.4-8.4-36.7"/>
		<path class="st57" d="M39.4,74.7c-7.8-1.8-17.2-6.9-25.1-11.8"/>
		<g>
			<path class="st53" d="M109,40.3c1.8-5.5,2.7-8.9,3.4-18"/>
			<path class="st53" d="M112.4,22.5c-2-0.8-10.5-5.6-7.6-9.7c1.6-2.2,6,0.8,6.9,1.8c-0.3-1.9,0.5-5.6,3.8-4.5
				c3.3,1.1,2.7,4.2,1.2,5.9c2-0.5,7.3-3.4,7,0.2C123.3,21.7,114.5,22.1,112.4,22.5z"/>
		</g>
		<path class="st11" d="M89.1,57.5c17,21.2,18.7,80.3-19.6,77.6c-28.3-2-40.3-58.6,3.4-80.2l3.2,21.8L89.1,57.5z M70.9,98
			c-3.3,1.2-5,4.9-3.7,8.2c1.2,3.3,4.9,5,8.2,3.7c3.3-1.2,5-4.9,3.7-8.2S74.2,96.8,70.9,98z"/>
		<g>
			<path class="st58" d="M132.7,59.1c6.3-14.4,12.6-28.7,18.9-43.1"/>
			
				<ellipse transform="matrix(5.982878e-02 -0.9982 0.9982 5.982878e-02 132.444 164.0487)" class="st58" cx="153.3" cy="11.7" rx="5.1" ry="5.9"/>
		</g>
		<g>
			<path class="st59" d="M136.4,68.9c3.3-3.6,6.5-7.4,9.7-11.1c9.4-11,18.8-22,28.2-33"/>
			
				<ellipse transform="matrix(0.7115 -0.7026 0.7026 0.7115 37.3791 130.7553)" class="st59" cx="177.9" cy="19.9" rx="5.8" ry="7.9"/>
		</g>
		<path class="st11" d="M124.3,128.7c0,0,40.9-13.7,34.9-46.5c-6-32.8-34.6-34.3-34.6-34.3s-10.9,3-8.6,3
			C120.3,50.8,158.6,92,124.3,128.7"/>
		<path class="st11" d="M114.2,51c0,0,16.2,7.6,20.7,38.4c4.4,30.8-13.5,57.4-49.1,42.1c19-4.9,28.3-55.8,3.4-74
			c8.9,3.4,22.5,11.4,22.5,11.4L114.2,51z M113,79.2c-2.5,0.1-4.4,2.1-4.3,4.6c0.1,2.5,2.1,4.4,4.6,4.3c2.5-0.1,4.4-2.1,4.3-4.6
			C117.6,81.1,115.5,79.1,113,79.2z"/>
		
			<ellipse transform="matrix(0.9996 -2.898653e-02 2.898653e-02 0.9996 -2.984 2.1637)" class="st33" cx="73.1" cy="104" rx="5.5" ry="5.5"/>
		
			<ellipse transform="matrix(0.9996 -2.898653e-02 2.898653e-02 0.9996 -2.3782 3.3152)" class="st13" cx="113.2" cy="83.7" rx="4.5" ry="4.5"/>
	</g>
</g>
</svg>
