<?xml version="1.0" encoding="utf-8"?>
<!-- Generator: Adobe Illustrator 21.0.0, SVG Export Plug-In . SVG Version: 6.00 Build 0)  -->
<svg version="1.1" id="Layer_1" xmlns="http://www.w3.org/2000/svg" xmlns:xlink="http://www.w3.org/1999/xlink" x="0px" y="0px"
	 viewBox="0 0 141.2 127.6" style="enable-background:new 0 0 141.2 127.6;" xml:space="preserve">
<style type="text/css">
	.st0{fill:none;stroke:#3CB6AB;stroke-miterlimit:10;}
	.st1{fill-rule:evenodd;clip-rule:evenodd;fill:#F79980;}
	.st2{fill-rule:evenodd;clip-rule:evenodd;fill:#F0D4D0;}
	.st3{fill-rule:evenodd;clip-rule:evenodd;fill:#F1D953;}
	.st4{fill-rule:evenodd;clip-rule:evenodd;fill:#3CB6AB;}
	.st5{fill-rule:evenodd;clip-rule:evenodd;fill:#CCE0E1;}
	.st6{fill-rule:evenodd;clip-rule:evenodd;fill:#C5C8D1;}
	.st7{fill-rule:evenodd;clip-rule:evenodd;fill:#06749C;}
	.st8{fill-rule:evenodd;clip-rule:evenodd;fill:#FFFFFF;}
	.st9{fill-rule:evenodd;clip-rule:evenodd;}
	.st10{fill:#06749C;}
	.st11{fill:#F79980;}
	.st12{fill:#F0D4D0;}
	.st13{fill:#F1D953;}
	.st14{clip-path:url(#SVGID_2_);}
	.st15{fill:none;stroke:#F1D953;stroke-width:0.75;}
	.st16{fill:#CCE0E1;}
	.st17{fill:none;stroke:#000000;stroke-width:0.75;}
	.st18{fill:none;stroke:#F0D4D0;stroke-miterlimit:10;}
	.st19{fill:none;stroke:#F1D953;stroke-miterlimit:10;}
	.st20{clip-path:url(#SVGID_4_);}
	.st21{clip-path:url(#SVGID_6_);}
	.st22{fill:#C5C8D1;}
	.st23{clip-path:url(#SVGID_8_);}
	.st24{fill:none;stroke:#000000;stroke-miterlimit:10;}
	.st25{clip-path:url(#SVGID_10_);}
	.st26{clip-path:url(#SVGID_12_);}
	.st27{fill:none;stroke:#F1D953;stroke-width:1.948;}
	.st28{fill:none;stroke:#000000;stroke-width:1.948;}
	.st29{fill:none;stroke:#F0D4D0;stroke-width:2.5973;stroke-miterlimit:10;}
	.st30{fill:none;stroke:#F1D953;stroke-width:2.5973;stroke-miterlimit:10;}
	.st31{fill:none;stroke:#000000;stroke-width:2.5973;stroke-miterlimit:10;}
	.st32{fill:#FFFFFF;}
	.st33{fill:#72B4A6;}
	.st34{fill:#F0D4D0;stroke:#C5C8D1;stroke-width:1.3638;stroke-miterlimit:10;}
	.st35{fill:none;stroke:#000000;stroke-linejoin:bevel;stroke-miterlimit:10;}
	.st36{fill:none;stroke:#C5C8D1;stroke-width:1.2346;stroke-miterlimit:10;}
	.st37{fill:#C5C8D1;stroke:#C5C8D1;stroke-width:1.2346;stroke-miterlimit:10;}
	.st38{fill:none;stroke:#C5C8D1;stroke-width:1.2346;stroke-linejoin:bevel;stroke-miterlimit:10;}
	.st39{fill:#F1D953;stroke:#72B4A6;stroke-miterlimit:10;}
	.st40{fill:#C5C8D1;stroke:#C5C8D1;stroke-width:0.5;stroke-miterlimit:10;}
	.st41{fill:none;stroke:#F79980;stroke-miterlimit:10;}
	.st42{fill:none;stroke:#72B4A6;stroke-miterlimit:10;}
	.st43{fill:none;stroke:#CCE0E1;stroke-width:2;stroke-miterlimit:10;}
	.st44{fill:#06749C;stroke:#06749C;stroke-miterlimit:10;}
	.st45{fill:none;stroke:#3CB6AB;stroke-width:0.6231;stroke-miterlimit:10;}
	.st46{fill:none;stroke:#3CB6AB;stroke-width:0.6231;stroke-linejoin:round;stroke-miterlimit:10;}
	.st47{fill:none;stroke:#06749C;stroke-miterlimit:10;}
	.st48{fill:none;stroke:#000000;stroke-linejoin:round;stroke-miterlimit:10;}
	.st49{fill:#F79980;stroke:#000000;stroke-width:0.5;stroke-miterlimit:10;}
	.st50{fill:#C5C8D1;stroke:#C5C8D1;stroke-width:1.3736;stroke-miterlimit:10;}
	.st51{fill:#E85B3F;}
	.st52{fill:#3CB6AB;stroke:#3CB6AB;stroke-width:1.3736;stroke-miterlimit:10;}
	.st53{fill:#F0D4D0;stroke:#F0D4D0;stroke-width:1.3736;stroke-miterlimit:10;}
	.st54{fill:none;stroke:#F0D4D0;stroke-width:1.3736;stroke-miterlimit:10;}
	.st55{fill:#CCE0E1;stroke:#CCE0E1;stroke-width:1.3736;stroke-miterlimit:10;}
	.st56{fill:#06749C;stroke:#06749C;stroke-width:1.3736;stroke-miterlimit:10;}
	.st57{fill:none;stroke:#3CB6AB;stroke-width:1.3736;stroke-miterlimit:10;}
	.st58{fill:#72B4A6;stroke:#72B4A6;stroke-width:1.3736;stroke-miterlimit:10;}
	.st59{fill:#F1D953;stroke:#F1D953;stroke-width:1.3736;stroke-miterlimit:10;}
	.st60{fill:none;stroke:#B3B3B3;stroke-miterlimit:10;}
	.st61{fill:none;stroke:#999999;stroke-miterlimit:10;}
	.st62{fill:#E6E6E6;stroke:#CCCCCC;stroke-miterlimit:10;}
	.st63{fill:none;stroke:#CCCCCC;stroke-miterlimit:10;}
	.st64{fill:#CCCCCC;}
	.st65{fill:#4D4D4D;}
	.st66{fill:#999999;}
	.st67{fill:#666666;}
	.st68{fill:#B3B3B3;}
	.st69{fill:#CCCCCC;stroke:#999999;stroke-width:1.3638;stroke-miterlimit:10;}
	.st70{fill:none;stroke:#CCCCCC;stroke-width:1.3746;stroke-miterlimit:10;}
	.st71{fill:#999999;stroke:#CCCCCC;stroke-width:1.1135;stroke-miterlimit:10;}
	.st72{fill:none;stroke:#CCCCCC;stroke-width:1.3746;stroke-linejoin:bevel;stroke-miterlimit:10;}
	.st73{fill:none;stroke:#808080;stroke-width:1.2346;stroke-miterlimit:10;}
	.st74{fill:#999999;stroke:#808080;stroke-width:1.2346;stroke-miterlimit:10;}
	.st75{fill:none;stroke:#808080;stroke-width:1.2346;stroke-linejoin:bevel;stroke-miterlimit:10;}
	.st76{fill:#808080;stroke:#CCCCCC;stroke-miterlimit:10;}
	.st77{fill:#999999;stroke:#999999;stroke-width:0.5;stroke-miterlimit:10;}
	.st78{fill:none;stroke:#C5C8D1;stroke-miterlimit:10;}
	.st79{fill:#C5C8D1;stroke:#C5C8D1;stroke-miterlimit:10;}
	.st80{fill:none;stroke:#999999;stroke-width:1.3428;stroke-miterlimit:10;}
	.st81{fill:#999999;stroke:#999999;stroke-miterlimit:10;}
	.st82{fill:none;stroke:#B3B3B3;stroke-width:2;stroke-miterlimit:10;}
	.st83{fill:#666666;stroke:#999999;stroke-miterlimit:10;}
	.st84{fill:none;stroke:#999999;stroke-width:0.8128;stroke-miterlimit:10;}
	.st85{fill:none;stroke:#999999;stroke-width:0.8128;stroke-linejoin:round;stroke-miterlimit:10;}
	.st86{fill:#B3B3B3;stroke:#999999;stroke-miterlimit:10;}
	.st87{fill:#666666;stroke:#666666;stroke-miterlimit:10;}
	.st88{fill:none;stroke:#666666;stroke-miterlimit:10;}
	.st89{fill:#CCCCCC;stroke:#F2F2F2;stroke-miterlimit:10;}
	.st90{fill:none;stroke:#F2F2F2;stroke-miterlimit:10;}
	.st91{fill:#808080;}
	.st92{fill:#E6E6E6;}
	.st93{fill:none;stroke:#B3B3B3;stroke-width:1.3736;stroke-miterlimit:10;}
	.st94{fill:#E6E6E6;stroke:#E6E6E6;stroke-width:1.3736;stroke-miterlimit:10;}
	.st95{fill:#06749C;stroke:#808080;stroke-width:1.3736;stroke-miterlimit:10;}
	.st96{fill:none;stroke:#CCCCCC;stroke-width:1.3736;stroke-miterlimit:10;}
	.st97{fill:#999999;stroke:#999999;stroke-width:1.3736;stroke-miterlimit:10;}
	.st98{fill:#3CB6AB;stroke:#E6E6E6;stroke-width:1.3736;stroke-miterlimit:10;}
	.st99{fill:#F1D953;stroke:#666666;stroke-width:1.3736;stroke-miterlimit:10;}
	.st100{fill:#F2F2F2;}
	.st101{clip-path:url(#SVGID_14_);fill:url(#);stroke:#231F20;stroke-width:0.36;}
	.st102{fill:#3CB6AB;}
	.st103{fill:url(#);}
	.st104{fill:none;}
	.st105{fill:#06749C;stroke:#3CB6AB;stroke-miterlimit:10;}
	.st106{fill:#1A1A1A;}
	.st107{fill:#F0D4D0;stroke:#F0D4D0;stroke-width:1.3638;stroke-miterlimit:10;}
	.st108{fill:#06749C;stroke:#06749C;stroke-width:1.2346;stroke-miterlimit:10;}
	.st109{fill:none;stroke:#F79980;stroke-width:1.2346;stroke-miterlimit:10;}
	.st110{fill:#3CB6AB;stroke:#F79980;stroke-width:1.2346;stroke-miterlimit:10;}
	.st111{fill:none;stroke:#F79980;stroke-width:1.2346;stroke-linejoin:bevel;stroke-miterlimit:10;}
	.st112{fill:#F79980;stroke:#F79980;stroke-width:0.5;stroke-miterlimit:10;}
	.st113{fill:none;stroke:#3CB6AB;stroke-width:1.3428;stroke-miterlimit:10;}
	.st114{fill:#3CB6AB;stroke:#3CB6AB;stroke-miterlimit:10;}
	.st115{fill:none;stroke:#3CB6AB;stroke-width:1.2346;stroke-miterlimit:10;}
	.st116{fill:#3CB6AB;stroke:#3CB6AB;stroke-width:1.2346;stroke-miterlimit:10;}
	.st117{fill:none;stroke:#3CB6AB;stroke-width:1.2346;stroke-linejoin:bevel;stroke-miterlimit:10;}
	.st118{fill:none;stroke:#3CB6AB;stroke-width:0.8128;stroke-miterlimit:10;}
	.st119{fill:none;stroke:#3CB6AB;stroke-width:0.8128;stroke-linejoin:round;stroke-miterlimit:10;}
	.st120{fill:#CCE0E1;stroke:#CCE0E1;stroke-miterlimit:10;}
	.st121{fill:none;stroke:#CCE0E1;stroke-miterlimit:10;}
</style>
<g>
	<path class="st106" d="M52.3,2.4C52.2,1.1,51.2,0.2,50,0c-0.8-0.1-1.6,0.1-2.3,0.6c-0.7,0.5-1.2,1.1-1.1,2.1c0,0.2,0,0.4,0,0.5
		c0,0.9,0,1.9-0.3,2.8c-0.1,0.2-0.1,0.6,0,0.8c0.2,0.7,0.5,1.4,1,2c0.1,0.1,0.2,0.3,0.4,0.4c0.5,0.3,1,0.7,1.5,1
		c0.6,0.4,1,0.3,1.5-0.3C51,9.6,51.2,9.3,51.4,9c0.3-0.3,0.5-0.8,0.6-1.2c0.3-1.1,0.4-2.3,0.3-3.5C52.3,3.7,52.4,3,52.3,2.4z"/>
	<path class="st106" d="M46.3,15c-0.3-1-0.9-1.5-1.9-1.2c-0.4,0.1-0.8,0.1-1.2,0c-0.6-0.2-1.1,0.1-1.5,0.6c-0.1,0.1-0.2,0.2-0.3,0.4
		c-0.3,0.3-0.3,0.6-0.3,1c0,0.5,0,1,0,1.5c-0.1,1.3,0.1,2.6,0.4,3.8c0.1,0.4,0.2,0.8,0.4,1.2c0.6,1.2,1.2,1.3,2.2,0.5
		c0.2-0.2,0.5-0.4,0.8-0.4c0.4,0,0.6-0.3,0.7-0.6c0.5-0.9,0.8-1.9,0.8-2.9c0-0.9,0-1.7,0-2.6C46.4,15.9,46.4,15.4,46.3,15z"/>
	<path class="st106" d="M15.8,24.9c-0.1-0.4-0.2-0.8-0.4-1.1C14.8,23,14,22.6,13,22.7c-0.9,0.1-1.5,0.6-1.8,1.5
		C11.1,24.5,11,24.8,11,25c-0.1,1.3-0.1,2.6,0.4,3.9c0.2,0.5,0.4,1.1,0.5,1.7c0.1,0.7,0.3,1.4,0.9,1.8c0.5,0.4,1.1,0.6,1.7,0.9
		c0.2,0.1,0.4,0,0.5-0.2c0.1-0.2,0.2-0.5,0.3-0.7c0.1-0.3,0.2-0.6,0.2-0.9c0.3-1.2,0.5-2.4,0.5-3.7C16.1,26.8,16,25.8,15.8,24.9z"/>
	<path class="st106" d="M108.2,23.8c-0.2-0.9-0.8-1.4-1.6-1.7c-1-0.4-2.1,0-2.7,1c-0.1,0.3-0.2,0.6-0.3,0.8c-0.4,1.5-0.1,3,0.4,4.5
		c0.2,0.4,0.3,0.8,0.3,1.2c0.1,0.9,0.4,1.7,1.2,2.2c0.4,0.3,1,0.5,1.5,0.7c0.2,0.1,0.4,0,0.6-0.2c0.1-0.2,0.2-0.4,0.3-0.7
		c0.1-0.3,0.2-0.7,0.3-1c0.4-1.2,0.6-2.4,0.5-3.6C108.6,26,108.5,24.9,108.2,23.8z"/>
	<path class="st106" d="M117.5,104.5c-0.6-0.4-1.1-0.3-1.6,0.1c-0.2,0.2-0.4,0.4-0.6,0.7c-0.8,1.3-1.2,2.7-1.3,4.2
		c0,0.6,0.1,1.3,0.3,1.9c0.2,0.6,0.6,1,1.1,1.3c0.9,0.4,1.8,0.5,2.7,0.1c0.6-0.2,1-0.6,1.2-1.1c0.8-1.8,0.8-3.6-0.2-5.3
		C118.8,105.6,118.3,104.9,117.5,104.5z"/>
	<path class="st106" d="M3.7,66.2c-0.5-0.1-1-0.1-1.5,0c-0.7,0.2-1.2,0.6-1.5,1.2C0.2,68.3,0,69.2,0,70.2c0.1,1.8,0.9,3.3,2.3,4.4
		C2.9,75,3.6,75,4.1,74.5c0.4-0.4,0.7-0.8,0.9-1.2c0.7-1.2,0.9-2.5,1-3.9c-0.1-0.3-0.1-0.8-0.2-1.2C5.5,67.1,4.8,66.5,3.7,66.2z"/>
	<path class="st106" d="M25,105.2c-0.5-0.4-1-0.4-1.5,0.1c-0.3,0.2-0.5,0.5-0.7,0.8c-0.8,1.2-1.2,2.6-1.3,4.1c0,0.4,0,0.7,0.1,1
		c0.1,0.7,0.3,1.4,0.9,1.9c1,0.9,2.9,0.9,3.9,0c0.2-0.2,0.4-0.4,0.5-0.6c0.5-0.9,0.7-2,0.6-3C27.3,107.7,26.4,106.3,25,105.2z"/>
	<path class="st106" d="M97.8,66.4c-1.2-1.6-4.2-1.3-4.9,0.7c-0.7,2.2-0.4,4.3,1.2,6c0.2,0.3,0.5,0.5,0.8,0.7
		c0.5,0.4,1.1,0.3,1.6-0.1c0.3-0.3,0.6-0.7,0.9-1.1c0.7-1.2,1-2.5,1.1-3.9c0-0.3,0-0.5,0-0.7C98.3,67.6,98.2,66.9,97.8,66.4z"/>
	<path class="st106" d="M82,29.1c-0.5-0.3-1-0.2-1.4,0.3c-0.3,0.4-0.6,0.9-0.8,1.4c-0.5,1.1-0.7,2.3-0.8,3.5c0,0.5,0,1-0.2,1.4
		c-0.3,0.8,0,1.6,0.2,2.3c0.1,0.3,0.3,0.5,0.6,0.5c0.3,0,0.6,0.1,0.9,0.3c0.3,0.1,0.5,0.1,0.8-0.1c0.6-0.5,1.1-1,1.6-1.4
		c0.4-0.4,0.6-0.8,0.6-1.4c0-0.5,0.1-1,0.2-1.4c0.2-0.6,0.3-1.2,0.3-1.5C84.2,31.1,83.3,30,82,29.1z"/>
	<path class="st106" d="M45.3,40c-0.2-0.4-0.5-0.7-1-0.8c-0.6-0.1-1.6,0.4-1.9,0.9c-0.2,0.3-0.4,0.6-0.7,0.8c-1,0.6-1.2,1.6-1.1,2.6
		c0.1,0.8,0.3,1.7,0.5,2.5c0.2,0.9,0.8,1.5,1.7,1.8c0.8,0.3,1.6,0.2,2.3,0c0.7-0.2,1-0.7,1-1.4c0-0.6,0-1.2,0-1.7c0,0,0,0,0,0
		c0-0.4,0-0.9,0-1.3C46.4,42.1,45.9,41,45.3,40z"/>
	<path class="st106" d="M67.3,107.6C67.3,107.6,67.3,107.6,67.3,107.6c0-0.3,0-0.6,0-0.9c-0.1-1.4-0.6-2.6-1.7-3.5
		c-0.9-0.8-2.2-0.6-2.8,0.5c-0.1,0.1-0.2,0.3-0.2,0.4c-0.6,1.7-0.9,3.3-0.5,5.1c0.3,1.1,0.9,1.8,1.9,2.3c0.4,0.2,0.9,0.3,1.3,0.2
		c0.3,0,0.5-0.2,0.7-0.4c0.1-0.2,0.3-0.5,0.4-0.7c0.2-0.4,0.4-0.8,0.6-1.1c0.2-0.3,0.4-0.7,0.4-1.1
		C67.3,108.1,67.3,107.8,67.3,107.6z"/>
	<path class="st106" d="M56.4,67.9c-1-0.7-2.2-0.5-2.7,0.7c-0.4,0.9-1,1.8-0.8,2.9c0,0.1,0,0.3-0.1,0.5c-0.3,1.7,0.3,3.1,1.6,4.1
		c1,0.8,2.3,0.6,2.9-0.5c0.1-0.1,0.1-0.2,0.2-0.3c0.5-1.1,0.6-2.3,0.7-3.6c0-0.3-0.1-0.7-0.1-1C57.9,69.4,57.3,68.5,56.4,67.9z"/>
	<path class="st106" d="M74,11.2c-0.2-0.2-0.4-0.4-0.6-0.6c-0.5-0.4-1.1-0.3-1.6,0c-0.4,0.2-0.6,0.6-0.9,0.9
		c-0.5,0.8-0.9,1.7-1.1,2.6c-0.2,0.8-0.3,1.7,0.1,2.4c0.6,1.2,1.3,2.1,2.7,2.6c1.3,0.4,1.8,0.2,2.2-1.1c0.4-1.1,0.5-2.2,0.5-3.1
		C75.2,12.6,75.2,12.9,74,11.2z"/>
	<path class="st106" d="M64.5,1.4c-1-0.6-1.9-0.2-2.4,0.8c-0.2,0.4-0.3,0.7-0.5,1.1c-0.2,0.4-0.3,0.7-0.3,1.1c0,0.6-0.1,1.2-0.1,1.7
		c0,0.3,0,0.7,0,1c0.2,1.2,0.9,2,1.8,2.7c0.8,0.6,2,0.4,2.6-0.5c0.2-0.2,0.3-0.5,0.3-0.7c0.4-1,0.5-2.1,0.6-3.4
		c0-0.3-0.1-0.8-0.2-1.4C66.2,2.6,65.5,1.9,64.5,1.4z"/>
	<path class="st106" d="M106.1,68.7c-0.7-0.6-1.3-0.5-1.8,0.1c-0.1,0.1-0.3,0.3-0.4,0.4c-0.9,1.2-1.5,2.5-1.5,4.1
		c0,1.2,0.5,2.9,1.2,3.9c0.2,0.3,0.6,0.6,0.9,0.9c0.2,0.2,0.5,0.3,0.7,0.3c0.3,0.1,0.5-0.1,0.7-0.4c0.1-0.3,0.2-0.6,0.3-0.8
		c0.3-0.4,0.5-0.9,0.6-1.4c0.1-0.6,0.2-1.1,0.5-1.6C108.3,72.2,107.6,70,106.1,68.7z"/>
	<path class="st106" d="M13.6,69.5c-0.5-0.5-1.2-0.6-1.9,0c-1.2,1.2-1.9,2.7-1.9,4.4c0,1.5,0.5,2.9,1.3,4.1c0.3,0.5,0.8,0.8,1.4,1
		c0.4,0.2,0.6,0,0.7-0.4c0.1-0.3,0.1-0.5,0.3-0.7c0.4-0.4,0.5-0.9,0.6-1.5c0.1-0.5,0.2-1.1,0.5-1.6c0.4-0.6,0.5-1.2,0.5-2
		C15.3,71.6,14.6,70.4,13.6,69.5z"/>
	<path class="st106" d="M108.9,101.4c-0.1-0.2-0.2-0.3-0.3-0.4c-0.3-0.4-0.8-0.7-1.3-0.9c-0.4-0.1-0.7,0-0.8,0.4
		c-0.1,0.3-0.1,0.5-0.3,0.7c-0.3,0.4-0.5,0.8-0.6,1.3c-0.1,0.7-0.3,1.4-0.6,2c-0.3,0.6-0.5,1.3-0.4,1.9c0.1,1.2,0.7,2.3,1.6,3.1
		c0.6,0.5,1.2,0.6,1.8,0.1c0.2-0.2,0.5-0.4,0.6-0.6c0.8-1.1,1.4-2.4,1.3-3.7C110.1,103.8,109.6,102.6,108.9,101.4z"/>
	<path class="st106" d="M40.8,1.3c-0.2-0.1-0.4-0.2-0.6-0.3c-0.5-0.3-0.9-0.3-1.4,0c-0.2,0.1-0.4,0.3-0.6,0.4c-1.1,1-1.6,2.3-1.6,4
		c-0.1,1.5,0.7,2.9,1.6,4.3c0,0.1,0.1,0.1,0.2,0.2c0.3,0.3,0.6,0.3,0.9,0c0.2-0.2,0.4-0.4,0.7-0.5c0.6,0,0.9-0.4,1-0.9
		c0.1-0.3,0.3-0.7,0.4-1c0.4-1.3,0.5-2.6,0.6-4c0-0.2,0-0.4,0-0.6C42,2.2,41.6,1.6,40.8,1.3z"/>
	<path class="st106" d="M33.5,12.9c-0.3-0.6-0.8-0.9-1.4-1c-0.2,0-0.4-0.1-0.6-0.1c-0.3,0-0.6,0.1-0.8,0.3c-0.3,0.4-0.6,0.8-0.9,1.3
		c-0.3,0.4-0.5,0.9-0.7,1.4C29,15.1,29,15.3,29,15.5c0,0.2,0,0.4,0,0.5c-0.1,1,0.2,1.9,0.6,2.7c0.3,0.6,0.7,1.1,1.1,1.6
		c0.7,1,1,1,2.1,0.5c0.4-0.2,0.7-0.5,0.8-0.9c0.1-0.4,0.1-0.8,0.1-1.2c0-0.4,0-0.7,0.3-1c0.3-0.4,0.4-0.9,0.4-1.4
		c-0.2-1-0.4-2-0.6-3C33.7,13.2,33.6,13.1,33.5,12.9z"/>
	<path class="st106" d="M19.7,79c-0.7-0.2-1.3-0.1-2,0.2c-0.2,0.1-0.4,0.2-0.5,0.4c-0.4,0.7-0.8,1.4-0.9,2.2
		c-0.1,0.9-0.2,1.8-0.2,2.5c0,1.3,0.2,2.3,0.8,3.3c0.2,0.2,0.4,0.5,0.6,0.7c0.5,0.4,1,0.3,1.4-0.2c1.1-1.3,1.9-2.7,2.2-4.4
		c0.2-1.2,0.1-2.3-0.4-3.4C20.6,79.6,20.2,79.1,19.7,79z"/>
	<path class="st106" d="M73.3,37.4c-0.5,0.3-0.9,0.7-1.2,1.1c-1,1.4-1.7,3-2,4.7c-0.3,1.3,0.2,2.4,1.5,3c0.4,0.2,0.9,0.4,1.1,0.9
		c0.9-0.2,1.3-0.7,1.4-1.4c0.1-0.6,0.4-1.2,0.6-1.7c0.2-0.5,0.4-1,0.5-1.5c0.1-0.6,0.2-1.2,0.3-1.8c0.2-1,0-1.9-0.4-2.8
		C74.7,37.1,74,36.9,73.3,37.4z"/>
	<path class="st106" d="M102.8,91.4c-0.5-0.7-1.2-0.7-1.8-0.1c-0.1,0.1-0.2,0.2-0.2,0.3c-0.6,0.8-1.1,1.7-1.5,2.6
		c-0.6,1.4-0.6,2.8-0.3,4.2c0.1,0.4,0.2,0.7,0.4,1c0.6,1.2,2.5,1.3,3.3,0.3c0.5-0.7,0.9-1.5,1-2.3c0.1-0.9,0.1-1.8,0.2-2.8
		c-0.1-0.6-0.1-1.4-0.5-2.1C103.3,92.1,103.1,91.7,102.8,91.4z"/>
	<path class="st106" d="M113.7,81c-0.1-0.7-0.2-1.4-0.6-2c-0.3-0.4-0.6-0.8-1.1-0.9c-0.5-0.1-1,0-1.4,0.1c-0.4,0.1-0.7,0.3-0.9,0.7
		c-0.5,0.9-0.9,1.9-0.9,2.9c0,0.5-0.1,0.9-0.1,1.4c-0.1,1,0.1,2.1,0.5,3c0.2,0.3,0.4,0.6,0.6,0.9c0.6,0.6,1.2,0.6,1.7-0.1
		c0.4-0.5,0.8-1,1.1-1.6c0.7-1.1,1.2-2.3,1.1-3.8C113.7,81.6,113.7,81.3,113.7,81z"/>
	<path class="st106" d="M11.3,94.6c-0.1-1-0.4-1.8-1.1-2.6c-0.6-0.6-1.2-0.6-1.7,0c-1.3,1.5-2.2,3.2-2.2,5.2c0,1,0.1,1.9,0.6,2.8
		c0.3,0.6,0.9,1,1.6,1c0.8,0,1.5-0.2,1.9-1c0.4-0.7,0.7-1.4,0.8-2.1c0.1-0.7,0.1-1.5,0.2-2.2c0,0,0,0-0.1,0
		C11.3,95.4,11.4,95,11.3,94.6z"/>
	<path class="st106" d="M140.9,83c-0.2-0.7-0.6-1.2-1.2-1.6c-0.5-0.3-1-0.3-1.5,0.1c-0.2,0.2-0.4,0.4-0.6,0.6
		c-0.2,0.3-0.4,0.5-0.6,0.8c-0.3,0.3-0.5,0.7-0.6,1.2c-0.2,0.7-0.1,1.5-0.1,2.2c0,0.4,0,0.7,0,1.1c0,0.8,0.3,1.4,0.7,2.1
		c0.4,0.6,0.9,0.9,1.7,0.9c0.2,0,0.4,0,0.6,0c0.8-0.1,1.2-0.4,1.3-1.2c0.1-0.5,0.2-1,0.3-1.5c0.2-1.1,0.3-2.2,0.3-3.3
		C141.1,83.8,141,83.4,140.9,83z"/>
	<path class="st106" d="M76.3,92.3c0-0.3,0-0.7,0-1c0-0.7-0.2-1.4-0.5-2c-0.4-0.8-1.1-1.1-1.9-1.1c-0.2,0-0.4,0-0.5,0
		c-0.8,0.1-1.1,0.3-1.3,1.1c-0.1,0.5-0.2,1.1-0.4,1.6c-0.2,1.1-0.3,2.2-0.2,3.4c0.1,1.1,0.5,2,1.4,2.7c0.4,0.3,0.9,0.4,1.4,0.1
		c0.2-0.1,0.4-0.3,0.6-0.5c0.2-0.2,0.4-0.5,0.7-0.7c0.7-0.7,0.9-1.5,1-2.4C76.3,93.1,76.3,92.7,76.3,92.3
		C76.3,92.3,76.3,92.3,76.3,92.3z"/>
	<path class="st106" d="M47.2,82.1c-0.5-0.4-0.9-0.4-1.4,0c-0.2,0.1-0.4,0.3-0.5,0.5c-0.2,0.3-0.4,0.6-0.7,0.8
		c-0.6,0.5-0.7,1.2-0.8,2c0,0.5,0,0.9,0,1.4c0,0,0,0,0,0c0,0.3,0,0.7,0,1c-0.1,0.8,0.2,1.6,0.6,2.2c0.3,0.4,0.7,0.7,1.1,0.8
		c0.5,0.1,1,0.1,1.5,0c0.5-0.1,0.8-0.4,0.9-0.8c0-0.1,0.1-0.3,0.1-0.4c0.2-0.9,0.4-1.7,0.5-2.6c0.2-1,0.2-2.1-0.1-3.1
		C48.3,83.2,47.8,82.6,47.2,82.1z"/>
	<path class="st106" d="M76.4,75.6c-0.3-0.2-0.7-0.4-1.1-0.5c-1-0.3-1.8,0-2.3,0.9c-0.3,0.5-0.5,1-0.7,1.5c-0.2,0.7-0.3,1.4-0.2,2.1
		c0.2,1.1,0.7,2.1,1.1,3.1c0.2,0.5,0.6,0.8,1,1.1c0.6,0.4,1.2,0.3,1.6-0.2c0.2-0.2,0.4-0.5,0.5-0.7c0.7-1.3,0.8-2.7,0.9-4.1
		c-0.1-0.6-0.1-1.3-0.2-1.9C77.1,76.2,76.9,75.8,76.4,75.6z"/>
	<path class="st106" d="M46.7,96.6c-0.2-0.6-0.7-0.9-1.2-1.2c-0.5-0.3-0.9-0.2-1.3,0.2c-0.4,0.4-0.7,0.9-0.9,1.4
		c-0.4,1.2-0.6,2.4-0.6,3.6c0.1,0.6,0.1,1.2,0.2,1.8c0.1,0.5,0.3,0.9,0.7,1.2c0.6,0.4,1.2,0.6,1.9,0.6c0.6,0,1-0.2,1.3-0.6
		c0.6-0.8,1-1.6,1.1-2.6c0.1-1,0-2-0.4-3C47.1,97.5,46.9,97.1,46.7,96.6z"/>
	<path class="st106" d="M36.9,100.2c-0.4-0.1-0.8-0.2-1.3-0.2c-0.8-0.1-1.4,0.3-1.7,1c-0.3,0.6-0.5,1.3-0.7,2
		c-0.2,0.9-0.3,1.7,0,2.6c0.2,0.6,0.4,1.2,0.6,1.7c0.2,0.5,0.4,0.9,0.8,1.2c0.4,0.4,0.8,0.4,1.3,0.2c1.1-0.6,1.8-1.4,1.9-2.7
		c0-0.3,0.1-0.6,0.1-0.9c0.1-0.5,0.1-1,0.2-1.4c0.1-0.5,0.1-1,0.2-1.3C38.4,101.2,37.9,100.5,36.9,100.2z"/>
	<path class="st106" d="M139.1,95.6c-0.2-0.5-0.7-0.8-1.1-1c-0.5-0.2-0.9-0.2-1.3,0.2c-0.2,0.2-0.4,0.5-0.6,0.7
		c-0.5,1-0.9,2-0.9,3.1c0,0.3,0,0.7,0,1c0,0,0,0,0,0c0,0.5,0,1.1,0,1.6c0,0.7,0.3,1.2,0.8,1.6c0.6,0.5,1.3,0.6,2.1,0.6
		c0.4,0,0.7-0.2,1-0.5c0.9-1.1,1.4-2.4,1.2-3.8C140.2,97.9,139.6,96.7,139.1,95.6z"/>
	<path class="st106" d="M129.7,99.6c-0.5-0.2-1.1-0.3-1.7-0.3c-0.7,0-1.2,0.3-1.4,0.9c-0.5,1.1-0.9,2.1-0.8,3.3
		c-0.1,1.3,0.4,2.5,0.9,3.6c0.1,0.3,0.3,0.5,0.5,0.7c0.4,0.4,0.9,0.5,1.4,0.2c0.3-0.2,0.5-0.4,0.7-0.5c0.5-0.4,0.8-0.9,1-1.5
		c0.1-0.4,0.2-0.7,0.2-1.1c0.1-0.9,0.2-1.7,0.3-2.6c0-0.4,0.1-0.7,0-1.1C130.8,100.4,130.4,99.9,129.7,99.6z"/>
	<path class="st106" d="M56.1,16c0-0.3-0.1-0.7-0.2-1c-0.2-0.5-0.5-0.7-1-0.8c-0.3,0-0.7,0-1,0.2c-0.6,0.4-1.2,0.8-1.7,1.2
		c-0.3,0.2-0.4,0.5-0.5,0.8c-0.3,1.3-0.3,2.6,0.2,3.9c0.5,1.3,1.5,2.2,2.5,3.1c0.6,0.5,1.1,0.3,1.5-0.4c0.3-0.6,0.5-1.2,0.5-1.8
		c0-0.5,0-1,0-1.5c0,0,0,0,0.1,0C56.3,18.5,56.3,17.3,56.1,16z"/>
	<path class="st106" d="M85.9,71.4c-0.1-0.2-0.3-0.5-0.5-0.7c-0.5-0.5-1-0.6-1.6-0.2c-0.2,0.1-0.4,0.3-0.7,0.5
		c-0.5,0.4-0.8,0.9-1,1.5c-0.1,0.4-0.2,0.8-0.2,1.2c-0.1,0.8-0.2,1.6-0.3,2.4c0,0.4-0.1,0.7,0,1.1c0.1,0.8,0.5,1.4,1.2,1.7
		c0.6,0.2,1.2,0.3,1.8,0.3c0.6,0,1.1-0.3,1.3-0.9c0.5-1.1,0.9-2.2,0.8-3.3C86.8,73.7,86.4,72.5,85.9,71.4z"/>
	<path class="st106" d="M62.9,40.2c-1.1,0.7-1.5,1.8-1.5,3.1c0,0.7,0.1,1.3,0.3,2c0.2,1,0.7,1.8,1.7,2.2c0.1,0,0.2,0.1,0.3,0.2
		c0.4,0.3,0.8,0.3,1.2,0.3c0.7,0,1-0.2,1.2-0.9c0.2-0.9,0.4-1.9,0.7-2.8c0-0.2,0-0.4,0.1-0.5c0-0.9-0.3-2.1-0.6-2.7
		C65.5,39.8,64,39.4,62.9,40.2z"/>
	<path class="st106" d="M8.5,39.1c-0.8-0.9-1.9-0.8-2.5,0.2c-0.3,0.6-0.7,1.3-1,2c-0.1,0.2-0.2,0.5-0.2,0.8
		c-0.1,0.7-0.1,1.4-0.2,2.1c0,0.5,0,0.9,0.3,1.3c0.3,0.4,0.7,0.8,1,1.2c0.3,0.4,0.8,0.6,1.3,0.6c0.7-0.1,1.3-0.4,1.7-1
		c0.3-0.5,0.5-1,0.4-1.6c0-0.6,0-1.2,0.2-1.7c0.1-0.3,0.1-0.6,0.2-1c-0.1-0.4-0.2-0.8-0.3-1.2C9.2,40.2,8.9,39.6,8.5,39.1z"/>
	<path class="st106" d="M98.6,38.4c-0.4,0.7-0.8,1.5-1.2,2.3c-0.1,0.1-0.1,0.3-0.1,0.4c-0.1,0.8-0.2,1.6-0.3,2.4
		c-0.1,0.5,0.1,1,0.4,1.4c0.3,0.4,0.6,0.8,0.9,1.1c0.4,0.5,0.9,0.7,1.6,0.5c1.2-0.3,2.1-1.5,1.9-2.7c-0.1-0.4,0-0.8,0.1-1.3
		c0.1-0.4,0.2-0.8,0.2-1c0-1.5-0.7-2.5-1.5-3.4C100.1,37.5,99,37.7,98.6,38.4z"/>
	<path class="st106" d="M79.1,14.7c-1-0.2-2,0.4-2.3,1.4c-0.3,1.1-0.5,2.1-0.4,3.2c0.1,0.9,0.3,1.8,1.1,2.4c0.2,0.2,0.4,0.4,0.6,0.7
		c0.4,0.5,1,0.6,1.6,0.3c0.5-0.2,0.8-0.5,1.1-1c0.5-1,0.7-2,0.8-3.1c0-0.7-0.1-1.5-0.4-2.1C80.9,15.6,80.2,15,79.1,14.7z"/>
	<path class="st106" d="M75.4,26.9c0-0.1,0-0.3-0.1-0.4c-0.3-0.7-0.6-1.5-0.9-2.2c-0.1-0.3-0.4-0.5-0.7-0.5c-0.5,0-1.1,0-1.6,0
		c-0.4,0-0.7,0.2-0.8,0.6C71.1,24.6,71,24.8,71,25c-0.1,0.8-0.2,1.5-0.3,2.3c0,1.3,0.2,2.6,0.8,3.7c0.2,0.4,0.5,0.7,0.8,1
		c0.5,0.5,1.1,0.5,1.7,0.2c0.6-0.3,1-0.7,1.1-1.4c0.1-0.4,0.1-0.8,0.2-1.3C75.5,28.7,75.4,27.8,75.4,26.9z"/>
	<path class="st106" d="M126.2,37.3c-0.5-1.5-2.4-2-3.7-1c-1.3,1-1.8,3.1-1,4.5c0.3,0.5,0.6,1.1,0.7,1.7c0.2,0.5,0.5,0.9,1,1.2
		c0.5,0.3,0.9,0.3,1.4,0c0.2-0.1,0.4-0.3,0.6-0.4c0.3-0.2,0.6-0.5,0.7-0.9c0.1-0.4,0.2-0.8,0.4-1.1c0.2-0.6,0.4-1.2,0.3-1.8
		C126.5,38.6,126.4,38,126.2,37.3z"/>
	<path class="st106" d="M29.6,37.3c-1,1-1.3,3-0.7,4.2c0.3,0.6,0.6,1.1,0.8,1.7c0.2,0.5,0.5,0.9,1,1.1c0.4,0.2,0.8,0.3,1.2,0
		c0.2-0.1,0.4-0.3,0.7-0.5c0.4-0.2,0.6-0.6,0.7-1c0.1-0.4,0.3-0.8,0.4-1.2c0.2-0.5,0.4-1.1,0.4-1.7c-0.1-0.6-0.2-1.1-0.3-1.7
		C33.2,36.3,30.9,36.1,29.6,37.3z"/>
	<path class="st106" d="M44.6,28c-0.1-0.4-0.3-0.7-0.8-0.8c-0.2,0-0.3-0.1-0.5-0.2c-0.6-0.2-1.2-0.2-1.7,0.2
		c-0.3,0.2-0.5,0.4-0.8,0.5c-0.7,0.4-1,0.9-1.1,1.7c-0.1,0.5-0.1,1.1-0.2,1.6c-0.2,0.9,0.3,1.5,0.9,1.9c0.4,0.2,0.7,0.5,1,0.8
		c0.3,0.2,0.6,0.5,1,0.6c0.4,0.2,0.9,0.2,1.3,0c0.4-0.2,0.6-0.5,0.7-0.9c0-0.3,0-0.6,0.1-0.9c0.1-0.5,0.2-0.9,0.4-1.4
		c0.3-0.8,0.4-1.6,0-2.4C44.8,28.5,44.7,28.2,44.6,28z"/>
	<path class="st106" d="M64.3,65.2c-1.6-0.2-2.9,0.5-3.1,2.3c-0.1,0.5,0,1.1,0,1.6c0,0.2,0.1,0.4,0.2,0.6c0.3,0.7,0.9,1.3,1.3,1.9
		c0,0,0.1,0.1,0.1,0.1c0.4,0.2,0.9,0.5,1.3,0.6c1.1,0.4,2-0.2,2.3-1.3c0.1-0.7,0.2-1.5,0.3-2.3c0.1-0.8-0.2-1.6-0.6-2.3
		C65.7,65.8,65.1,65.3,64.3,65.2z"/>
	<path class="st106" d="M57.8,108.1c-0.4-0.9-1.3-1.1-2.1-1.3c-0.3-0.1-0.7,0-1,0.1c-0.4,0.1-0.7,0.3-0.9,0.7
		c-0.1,0.2-0.1,0.4-0.2,0.6c-0.1,0.8-0.2,1.5-0.3,2.3c-0.1,1.1,0.3,2,1,2.8c0.7,0.8,1.6,1,2.6,0.7c0.9-0.3,1.5-0.8,1.8-1.8
		c0.1-0.4,0.2-0.9,0.2-1.3c0-0.9-0.2-1.6-0.8-2.3C58,108.4,57.8,108.2,57.8,108.1z"/>
	<path class="st106" d="M56,118c-0.4-0.4-0.7-0.4-1.2,0c-0.3,0.2-0.6,0.5-0.8,0.8c-1,1.3-1.6,2.9-1.7,4.5c-0.1,1.2,0.4,2.1,1.3,2.8
		c0.6,0.5,1.3,0.5,1.8,0c0.2-0.2,0.4-0.4,0.6-0.6c0.5-0.7,0.9-1.5,1.1-2.3c0.1-0.7,0.3-1.4,0.3-2.1C57.5,119.9,56.9,118.9,56,118z"
		/>
	<path class="st106" d="M66.3,53c-0.6-0.5-1.2-0.5-1.8,0.1c-0.2,0.2-0.4,0.3-0.5,0.5c-0.4,0.6-0.8,1.2-1,1.9
		c-0.2,0.8-0.4,1.6-0.5,2.4c-0.2,1.3,0.4,2.3,1.3,3.2c0.4,0.4,0.9,0.4,1.3,0.1c0.2-0.2,0.5-0.4,0.7-0.6c0.4-0.5,0.7-1,1-1.5
		c0.5-1,0.8-2,0.9-3.1C67.8,54.6,67.3,53.7,66.3,53z"/>
	<path class="st106" d="M104.2,120.6c-0.5-0.7-1.1-1.1-2-1.2c-0.2,0-0.4,0-0.6,0c0,0,0,0,0,0c-0.2,0-0.3,0-0.5,0
		c-0.7,0-0.8,0.2-0.9,0.9c0,0.4,0,0.9-0.1,1.3c-0.1,0.9-0.2,1.8-0.3,2.6c0,0.3,0,0.6,0,0.9c0,0.7,0.3,1.3,0.7,1.8
		c0.4,0.6,1.1,0.8,1.8,0.5c0.6-0.2,1-0.6,1.2-1.2c0.2-0.7,0.5-1.2,0.9-1.8c0.4-0.6,0.5-1.3,0.4-2.1
		C104.8,121.7,104.6,121.1,104.2,120.6z"/>
	<path class="st106" d="M17.8,51.6c-0.7,0.1-1.2,0.4-1.4,1.1c-0.2,0.7-0.6,1.3-0.9,2c-0.5,0.8-0.6,1.7-0.3,2.5
		c0.2,0.5,0.4,0.9,0.7,1.4c0.4,0.7,1,1,1.7,1.1c0.3,0,0.5,0,0.8,0c0,0,0,0,0,0c0.1,0,0.2,0,0.4,0c0.1,0,0.2,0,0.4,0
		c0.3,0,0.5-0.2,0.6-0.5c0-0.1,0-0.2,0-0.3c0-1.3,0.2-2.6,0.4-3.9c0.1-1-0.1-1.9-0.6-2.7C19.1,51.8,18.5,51.5,17.8,51.6z"/>
	<path class="st106" d="M85.7,82.5c-0.3-0.1-0.6-0.1-1-0.2c-0.4,0-0.7,0.2-0.9,0.4c-0.3,0.5-0.6,1-0.6,1.6c-0.1,0.8-0.1,1.5-0.1,2.3
		c0,0.7,0.1,1.5,0.7,2c0.6,0.4,1.2,0.9,1.8,1.2c0.8,0.4,1.6,0.2,2.1-0.6c0.1-0.2,0.2-0.4,0.3-0.7c0.2-0.7,0.4-1.4,0.4-2.1
		C88.5,84.8,87.6,83.2,85.7,82.5z"/>
	<path class="st106" d="M35.9,90.1c-0.7-0.1-1.1,0.1-1.4,0.7c-0.3,0.5-0.5,1-0.5,1.6c0,0.5-0.1,1-0.1,1.5c0,0.3,0,0.7,0,1
		c0.1,0.6,0.3,1.2,0.8,1.6c0.5,0.3,1,0.7,1.4,1c0.2,0.1,0.4,0.2,0.7,0.3c0.6,0.2,1.1,0,1.5-0.5c0.1-0.2,0.3-0.4,0.4-0.6
		c0.3-0.8,0.5-1.6,0.5-2.5c0-0.7-0.1-1.3-0.4-1.9C38.2,91.1,37.2,90.4,35.9,90.1z"/>
	<path class="st106" d="M110.4,50.9c-0.7,0.1-1.3,0.5-1.5,1.2c-0.2,0.6-0.4,1.1-0.7,1.6c-0.8,1.1-0.8,2.3-0.2,3.5
		c0.5,1.2,1.4,2,2.9,1.8c0.3,0,0.6,0,0.9,0c0.3,0,0.5-0.2,0.5-0.5c0-0.1,0-0.2,0-0.3c0.1-1.1,0.2-2.2,0.3-3.4c0-0.5,0.1-1,0.1-1.5
		c0-0.7-0.3-1.2-0.6-1.8C111.6,51,111,50.8,110.4,50.9z"/>
	<path class="st106" d="M65,15.4c-0.5-0.2-1.1-0.5-1.6-0.6c-0.6-0.2-1.1,0.1-1.2,0.7c-0.1,0.6-0.4,1.2-0.7,1.8
		c-0.1,0.3-0.2,0.6-0.3,0.9c-0.2,0.7-0.1,1.4,0.3,2.1c0.2,0.3,0.3,0.6,0.4,1c0,0.2,0.1,0.5,0.3,0.7c0.4,0.5,0.8,0.9,1.3,1.3
		c0.3,0.3,0.6,0.2,0.9,0c0.6-0.6,1.2-1.3,1.3-2.2c0.1-0.5,0.2-1.1,0.3-1.6c0.1-0.4,0.1-0.8,0.2-1.3c-0.1-0.5-0.2-1.1-0.3-1.7
		C65.7,15.9,65.4,15.6,65,15.4z"/>
	<path class="st106" d="M66.5,91.4c0-0.2-0.1-0.4-0.2-0.5c-0.4-0.5-0.9-0.9-1.4-1.3c-0.3-0.2-0.6-0.2-0.8,0
		c-0.6,0.6-1.2,1.3-1.3,2.2c-0.1,0.6-0.2,1.3-0.3,1.9c-0.2,0.9-0.1,1.8,0.2,2.7c0.1,0.5,0.4,0.8,0.8,1c0.5,0.2,1,0.4,1.4,0.6
		c0.7,0.2,1.1,0,1.3-0.7c0.2-0.6,0.4-1.1,0.7-1.7c0.3-0.6,0.4-1.1,0.5-1.9c-0.1-0.3-0.2-0.8-0.4-1.2C66.7,92.2,66.6,91.8,66.5,91.4z
		"/>
	<path class="st106" d="M57.4,82.7c-0.1-0.4-0.3-0.7-0.7-0.8c-0.5-0.3-1-0.5-1.6-0.7c-0.8-0.2-1.2,0-1.3,0.8
		c-0.1,0.5-0.3,0.9-0.5,1.3c-0.1,0.3-0.3,0.5-0.4,0.8c-0.4,0.9-0.3,1.8,0.2,2.6c0.2,0.3,0.3,0.6,0.3,0.9c0.1,0.3,0.2,0.6,0.3,0.8
		c0.3,0.4,0.7,0.7,1,1c0.4,0.3,0.8,0.3,1.2,0c0.7-0.6,1.1-1.3,1.3-2.3c0.1-0.6,0.2-1.3,0.3-1.9c0-0.3,0.1-0.6,0.1-0.9
		c0-0.3,0-0.6-0.1-0.8C57.6,83.3,57.5,83,57.4,82.7z"/>
	<path class="st106" d="M89.2,14.6c-0.3-0.7-0.7-1.3-1.3-1.8c-0.7-0.6-1.5-0.4-2,0.3c-0.1,0.1-0.2,0.3-0.2,0.4
		c-0.3,0.8-0.6,1.5-0.8,2.3c-0.2,0.5-0.2,1-0.2,1.5c0.1,0.8,0.4,1.5,0.6,2.2c0.1,0.2,0.2,0.4,0.4,0.6c0.4,0.4,1,0.6,1.5,0.8
		c0.3,0.1,0.6,0,0.8-0.3c0.9-1.1,1.6-2.3,1.5-3.8C89.7,16.2,89.5,15.4,89.2,14.6z"/>
	<path class="st106" d="M90.5,40.2c-0.6-0.3-1.3-0.4-2-0.3c-0.4,0-0.6,0.2-0.6,0.6c-0.1,1.2-0.1,2.4-0.2,3.6c0,0.6-0.1,1.2-0.1,1.8
		c0,0.4,0,0.9,0,1.3c0,0.4,0.3,0.6,0.7,0.7c0.5,0.1,1,0.2,1.6,0.2c0.4-0.4,0.8-0.8,1.1-1.2c0.2-0.3,0.5-0.6,0.6-1
		c0.3-0.7,0.5-1.4,0.6-2.1c0.2-0.9,0-1.7-0.4-2.6C91.4,40.8,91,40.5,90.5,40.2z"/>
	<path class="st106" d="M30.7,24.9c-0.3-0.6-0.8-0.8-1.5-0.6c-0.4,0.1-0.9,0.3-1.3,0.5c-0.7,0.3-1.1,0.9-1.2,1.6
		c-0.1,0.8-0.2,1.6-0.3,2.6c0.1,0.5,0.2,1.1,0.2,1.8c0,0.3,0.2,0.5,0.4,0.7c0.6,0.4,1.2,0.7,2,0.7c0.5,0,0.9-0.2,1.2-0.6
		c0.1-0.2,0.3-0.4,0.4-0.6c0.5-1.3,0.8-2.6,0.6-4C31.2,26.2,31,25.5,30.7,24.9z"/>
	<path class="st106" d="M124.4,87.4c-0.5-0.1-1.1-0.2-1.7-0.3c-0.3,0.3-0.5,0.6-0.8,0.9c-0.4,0.3-0.6,0.8-0.9,1.2
		c-0.7,1.2-0.7,2.5-0.6,3.8c0,0.5,0.3,1,0.6,1.4c0.8,0.9,1.8,1.1,2.9,1c0.4,0,0.6-0.2,0.6-0.6c0.1-1.1,0.1-2.1,0.2-3.2
		c0-0.6,0.1-1.3,0.1-1.9c0-0.5,0-1.1,0-1.6C124.9,87.7,124.7,87.4,124.4,87.4z"/>
	<path class="st106" d="M93.5,24.4c-0.6-0.1-1.1,0-1.5,0.4c-1,1-1.4,2.2-1.1,3.7c0.2,1,0.7,1.9,1.5,2.6c0.5,0.4,0.9,0.7,1.6,0.7
		c0.2,0,0.5,0.1,0.7,0.1c0.5,0,0.7-0.2,0.9-0.6c0.1-0.1,0.1-0.3,0.1-0.4c0.1-0.6,0.2-1.3,0.2-1.9c0-1.1-0.2-2.2-0.7-3.2
		C94.9,25,94.3,24.6,93.5,24.4z"/>
	<path class="st106" d="M77.4,48.6c-0.5-0.1-0.9,0.1-1.1,0.6c-0.7,1.3-1.1,2.7-0.9,4.1c0,0.4,0.1,0.8,0.1,1.3c0,0.2,0,0.4,0.1,0.6
		c0.2,0.4,0.4,0.7,0.7,1.1c0.4,0.6,1,0.7,1.6,0.4c0.6-0.3,1.2-0.7,1.3-1.4c0.1-0.4,0.3-0.7,0.4-1c0.2-0.6,0.3-1.2,0.4-1.8
		c-0.1-0.7-0.3-1.4-0.5-2C79.1,48.9,78.9,48.8,77.4,48.6z"/>
	<path class="st106" d="M37.6,67.9c-0.8-0.5-2.1-0.4-2.8,0.3c-0.3,0.3-0.6,0.6-0.9,0.8c-0.3,0.2-0.4,0.6-0.4,0.9
		c0,0.8,0.1,1.6,0.4,2.4c0.4,1,1.2,1.7,2.2,2.2c0.5,0.2,1.1,0.2,1.6,0.1c0.2,0,0.4-0.2,0.5-0.4c0.2-0.7,0.5-1.4,0.5-2.2
		c-0.2-1.1-0.3-2.1-0.5-3.2C38.1,68.5,37.9,68.1,37.6,67.9z"/>
	<path class="st106" d="M5.5,79.9c-0.2-0.1-0.3-0.3-0.4-0.5c-0.8-1-1.9-1.4-3.2-0.1c0,0-0.1,0.1-0.1,0.1c-0.1,0.2-0.2,0.4-0.2,0.6
		c0.1,0.6,0.1,1.1-0.1,1.6c0,0.1,0,0.2,0,0.4c-0.1,1,0.3,1.9,0.7,2.8c0.1,0.2,0.2,0.3,0.4,0.4c0.5,0.2,0.9,0.5,1.4,0.7
		c1.1,0.5,2.4-0.5,2.3-1.5c0-0.5,0-0.9,0-1.4c0,0,0,0,0,0c0-0.5,0-0.9,0-1.4C6.2,81,6,80.4,5.5,79.9z"/>
	<path class="st106" d="M25.1,94.8c-0.6-0.3-1.2-0.7-1.8-0.8c-0.8-0.3-2,0.3-2,1.5c0,0.8,0,1.6-0.1,2.4c-0.1,0.7,0.1,1.5,0.6,2
		c0.3,0.3,0.6,0.7,1,1c0.8,0.7,1.5,0.7,2.3,0.1c0.1-0.1,0.3-0.2,0.4-0.3c0.3-0.3,0.5-0.6,0.4-1c-0.1-0.3-0.1-0.7,0-1
		c0.1-0.3,0.1-0.7,0.1-1c0.1-0.9-0.3-1.7-0.6-2.5C25.4,95,25.3,94.9,25.1,94.8z"/>
	<path class="st106" d="M130.7,68.1c-0.1-0.6-0.5-1-1.1-1.1c-0.2-0.1-0.4-0.1-0.6-0.1c-0.7-0.1-1.3,0.1-1.8,0.7
		c-0.2,0.2-0.5,0.5-0.7,0.7c-0.4,0.3-0.5,0.6-0.5,1.1c0,0.9,0.2,1.8,0.6,2.6c0.5,1,1.3,1.6,2.3,2c0.4,0.2,0.9,0.1,1.4,0.1
		c0.3,0,0.4-0.2,0.5-0.4c0.2-0.8,0.5-1.5,0.4-2.1C131.1,70.1,130.9,69.1,130.7,68.1z"/>
	<path class="st106" d="M97.1,78.2c-0.6-0.5-1.4-0.6-2.1-0.1c-0.2,0.2-0.4,0.4-0.6,0.6c-0.2,0.2-0.3,0.5-0.2,0.8
		c0,0.3,0.1,0.5,0.1,0.8c0,0.5-0.1,1-0.1,1.5c0.1,1.4,0.4,2.6,1.9,3.1c0.1,0,0.3,0.1,0.4,0.2c0.9,0.4,2.4-0.2,2.3-1.5
		c0-0.4,0-0.9,0-1.3c0,0,0,0,0,0c0-0.4,0.1-0.7,0.1-1.1c0-0.7,0-1.4-0.5-1.9C97.9,78.9,97.5,78.6,97.1,78.2z"/>
	<path class="st106" d="M117.5,94c-0.4-0.2-0.9-0.5-1.3-0.7c-1.3-0.5-2.4,0.3-2.4,1.6c0,0.4,0,0.9,0,1.3c0,0,0,0,0,0
		c0,0.5,0,1.1,0,1.6c0,0.4,0.1,0.8,0.4,1.1c0.5,0.5,0.9,1,1.4,1.4c0.4,0.4,1,0.4,1.5,0.2c0.4-0.2,0.7-0.4,1-0.8
		c0.2-0.2,0.3-0.5,0.2-0.7c-0.1-0.5-0.1-1,0.1-1.4c0-0.1,0-0.2,0-0.4c0.1-1-0.2-2-0.7-2.9C117.8,94.2,117.6,94,117.5,94z"/>
	<path class="st106" d="M82.5,104.5c-0.3,0-0.6,0.2-0.7,0.5c-0.3,0.7-0.4,1.4-0.4,2c0,1.1,0.2,2,0.4,3c0,0.1,0.1,0.2,0.1,0.4
		c0.2,0.6,0.6,0.9,1.2,1c0.3,0.1,0.7,0.1,1,0.1c0.5,0,0.9-0.2,1.2-0.5c0.3-0.3,0.6-0.6,0.9-0.9c0.2-0.2,0.4-0.4,0.4-0.7
		c0-1.3-0.1-2.5-1-3.5C84.8,104.9,83.8,104.4,82.5,104.5z"/>
	<path class="st106" d="M76.5,114c-0.3-0.3-0.7-0.5-1.2-0.4c-0.9,0.1-1.8,1-1.9,2c0,0.3,0,0.6,0,0.7c0,1.6,0.3,3,0.7,4.3
		c0.3,1.1,1.6,1.5,2.5,0.6c0.3-0.3,0.6-0.7,0.8-1.1c0.5-1.2,0.6-2.4,0.4-3.6C77.8,115.5,77.3,114.7,76.5,114z"/>
	<path class="st106" d="M45.8,58.5c-0.3-1.2-1.7-1.2-2.3-0.6c-0.4,0.4-0.7,0.8-1,1.3c-0.5,1.2-0.5,2.4-0.3,3.7
		c0.1,0.9,0.5,1.6,1.2,2.2c0.3,0.3,0.7,0.5,1.2,0.5c0.9,0,1.9-0.9,1.9-1.9c0-0.3,0-0.7,0-0.8C46.5,61.2,46.1,59.9,45.8,58.5z"/>
	<path class="st106" d="M138.3,57.8c-0.3-1.1-1.6-1.4-2.5-0.6c-0.3,0.3-0.6,0.7-0.8,1.1c-0.5,1.2-0.6,2.5-0.4,3.8
		c0.1,0.8,0.5,1.5,1.1,2.1c0.3,0.4,0.7,0.6,1.3,0.6c0.9,0,1.9-0.9,2-1.8c0-0.4,0-0.7,0-1.1C139,60.5,138.6,59.1,138.3,57.8z"/>
	<path class="st106" d="M98.5,107.8c-0.3-0.3-0.7-0.5-0.9-0.9c-0.1-0.2-0.3-0.3-0.5-0.4c-0.9-0.4-2.2-0.2-2.5,1.2
		c0,0.1,0,0.2-0.1,0.4c-0.2,0.5-0.3,1-0.5,1.6c-0.1,0.3-0.2,0.6-0.2,0.8c0.1,1.1,0.5,2,1.2,2.7c0.4,0.4,0.9,0.5,1.4,0.3
		c0.7-0.2,1.3-0.6,1.7-1.1c0.5-0.7,0.8-1.4,1-2.2C99.5,109.2,99.3,108.4,98.5,107.8z"/>
	<path class="st106" d="M23.7,13c-0.2-0.8-0.6-1.3-1.3-1.5c-0.2-0.1-0.4-0.1-0.6-0.2c-0.7-0.2-1-0.2-1.3,0.5
		c-0.1,0.2-0.2,0.5-0.3,0.8c-0.2,0.9-0.4,1.7-0.4,2.7c-0.1,1.1,0.4,2.2,1.1,3.2c0.1,0.2,0.3,0.3,0.4,0.5c0.5,0.4,1.1,0.5,1.7,0.3
		c0.6-0.2,0.8-0.7,0.8-1.3c0-0.5,0.1-1,0.2-1.4c0.2-0.5,0.2-1.1,0.1-1.6C24,14.3,23.9,13.6,23.7,13z"/>
	<path class="st106" d="M25.1,66.2c-0.5-0.5-1.1-0.7-1.7-0.4c-0.4,0.1-0.8,0.4-1.1,0.6c-1,0.8-1.4,2-1.6,3.2
		c-0.1,0.7,0.2,1.2,0.7,1.7c0.3,0.2,0.6,0.5,0.9,0.8c0.4,0.5,0.9,0.7,1.4,0.6c1.1,0,1.5-0.4,1.8-1.3c0-0.1,0-0.1,0-0.2
		c0.1-0.6,0.3-1.2,0.5-1.7c0.1-0.3,0.2-0.6,0.2-0.9C26.1,67.7,25.7,66.9,25.1,66.2z"/>
	<path class="st106" d="M117.7,65.6c-0.6-0.7-1.2-0.8-2.1-0.5c-0.7,0.3-1.2,0.8-1.6,1.4c-0.4,0.6-0.6,1.2-0.8,1.9
		c-0.2,0.9,0,1.5,0.7,2.1c0.3,0.3,0.6,0.6,0.9,0.9c0.4,0.4,0.8,0.6,1.2,0.5c1.1,0,1.6-0.4,1.8-1.4c0,0,0-0.1,0-0.1
		c0.2-0.6,0.4-1.2,0.6-1.8c0.1-0.4,0.2-0.7,0.1-1.1C118.5,66.9,118.2,66.2,117.7,65.6z"/>
	<path class="st106" d="M65.4,30.1c-0.3-0.5-0.7-0.9-1.3-0.8c-0.2,0-0.3,0-0.6,0c-0.1,0-0.2,0-0.4,0c-0.6,0-0.9,0.2-1,0.8
		c0,0.3-0.1,0.6,0,0.8c0.1,0.5,0.1,1-0.1,1.5c-0.2,0.7-0.1,1.3,0.2,2c0.4,0.8,1,1.6,1.6,2.2c0.3,0.3,0.7,0.5,1.1,0.5
		c0.6,0.1,1-0.2,1.3-0.7c0.1-0.2,0.1-0.3,0.2-0.5c0.3-1.4,0.3-2.7-0.2-4C65.9,31.2,65.6,30.7,65.4,30.1z"/>
	<path class="st106" d="M27.6,76.6c-0.8-0.2-1.3,0.1-1.7,0.7c-0.4,0.5-0.5,1-0.6,1.6c0,0.5,0,0.9-0.1,1.4c0,0,0,0,0,0
		c0,0.4,0,0.8,0,1.2c0,0.7,0.2,1.4,0.6,2.1c0.1,0.2,0.3,0.5,0.5,0.7c0.6,0.6,1.5,0.5,2-0.2c0.1-0.1,0.2-0.3,0.3-0.5
		c0.8-1.6,1.1-3.2,0.8-5C29.1,77,28.6,76.9,27.6,76.6z"/>
	<path class="st106" d="M121,76.2c-0.4-0.1-0.8-0.2-1.1-0.3c-0.5-0.1-1,0.1-1.3,0.4c-0.4,0.4-0.6,0.8-0.7,1.3
		c-0.1,0.7-0.2,1.3-0.3,1.8c0.1,0.7,0.1,1.1,0.1,1.6c0.1,0.4,0.2,0.8,0.3,1.2c0.1,0.5,0.4,1,0.9,1.4c0.7,0.5,1.4,0.4,1.9-0.3
		c1.2-1.9,1.4-4,0.9-6.2C121.6,76.6,121.4,76.3,121,76.2z"/>
	<path class="st106" d="M94.8,97.9c-0.1-0.8-0.2-1.5-0.6-2.2c-0.2-0.3-0.4-0.6-0.6-0.8c-0.6-0.5-1.4-0.4-1.9,0.3
		c-0.1,0.1-0.2,0.3-0.2,0.4c-0.9,1.8-1.2,3.7-0.7,5.7c0.1,0.5,0.4,0.9,0.9,1c0.3,0.1,0.6,0.2,0.9,0.2c0.8,0.1,1.4-0.2,1.7-0.9
		c0.1-0.3,0.3-0.6,0.3-0.9c0.1-0.6,0.2-1.3,0.3-1.9c0,0-0.1,0-0.1,0C94.8,98.6,94.8,98.2,94.8,97.9z"/>
	<path class="st106" d="M113.5,40.3c-0.1-1-0.3-1.9-0.8-2.7c-0.3-0.5-0.7-0.7-1.3-0.5c-0.4,0.1-0.7,0.3-0.8,0.7
		c-0.2,0.8-0.5,1.6-0.6,2.4c-0.1,0.5-0.2,1-0.2,1.5c0,1.2,0.4,2.3,0.7,3.4c0.2,0.5,0.5,0.8,0.9,0.9c0.5,0.2,0.9,0.1,1.2-0.4
		c0.2-0.3,0.3-0.6,0.4-0.9c0.2-1.1,0.5-2.3,0.4-3.4C113.5,41,113.5,40.6,113.5,40.3z"/>
	<path class="st106" d="M21,41.4c-0.1-1.1-0.3-2.1-0.8-3.1c-0.2-0.4-0.5-0.6-0.9-0.6c-0.5,0-1,0.3-1.1,0.7c-0.4,1.1-0.6,2.2-0.8,3.3
		c-0.2,1.4,0.3,2.7,0.7,4c0.2,0.5,0.5,0.8,1,1c0.4,0.1,0.7,0.1,1-0.2c0.3-0.3,0.4-0.6,0.5-1c0.2-1.2,0.5-2.4,0.5-3.6
		C21,41.8,21,41.6,21,41.4z"/>
	<path class="st106" d="M58,98.9c-0.1,0-0.3,0-0.3,0.1c-0.2,0.3-0.4,0.6-0.6,0.9c-0.1,0-0.2,0-0.3,0.1c-1,0.3-1.5-0.3-2.2-0.8
		c-0.2-0.1-0.2-0.4-0.2-0.7c0-0.6,0.4-1.2,0.9-1.6c0.1-0.1,0.2-0.1,0.3-0.1c0.2,0.1,0.4,0.2,0.6,0.3c0.2-0.1,0.4-0.2,0.6-0.3
		c0.5,0.3,0.4,1,1,1.2c0-0.1,0.1-0.2,0.1-0.3c-0.1-1.6-1.8-3.1-3.3-3.3c-0.5-0.1-0.8,0.1-1.1,0.5c-0.1,0.2-0.2,0.5-0.3,0.8
		c-0.3,1.1-0.4,2.3-0.4,3.4c0,0.8,0.2,1.5,0.6,2.2c0.3,0.7,0.9,1.1,1.7,1.1c0.2,0,0.5,0,0.7,0.1c0.7,0.1,1.2-0.2,1.7-0.7
		c0.5-0.6,0.7-1.4,0.8-2.1c0-0.1,0-0.3,0-0.5C58.1,99,58,98.9,58,98.9z"/>
	<path class="st106" d="M140.9,73c-0.2-0.8-0.5-1.5-0.8-2.2c-0.2-0.4-0.5-0.7-1.1-0.7c-0.1,0-0.3,0.1-0.6,0.2
		c-1.1,0.5-1.6,1.5-1.5,2.8c0.1,0.7,0.1,1.4,0.1,2.1c0,0.7,0.2,1.3,0.5,1.8c0.2,0.4,0.5,0.7,1,0.9c0.5,0.2,1,0.1,1.3-0.3
		c0.1-0.1,0.3-0.3,0.3-0.4c0.3-0.6,0.6-1.2,0.9-1.8c0.2-0.4,0.2-0.8,0.1-1.3C141.1,73.8,141,73.4,140.9,73z"/>
	<path class="st106" d="M75.1,101.9c-0.2-0.4-0.4-0.8-0.7-1.1c-0.7-0.7-1.4-0.6-2,0.1c-0.1,0.1-0.1,0.2-0.2,0.3
		c-0.3,0.5-0.5,1.1-0.8,1.6c-0.2,0.4-0.2,0.8-0.1,1.3c0.1,0.5,0.2,1,0.3,1.4c0.2,0.7,0.4,1.4,0.7,2.1c0.3,0.7,0.8,0.8,1.4,0.6
		c1.1-0.4,1.8-1.3,1.8-2.2c-0.1-1.3-0.1-2.3-0.2-3.3C75.3,102.5,75.3,102.2,75.1,101.9z"/>
	<path class="st106" d="M65.4,76.9c-0.3,0-0.7-0.1-1-0.1c-0.7-0.1-1.3,0.2-1.7,0.8c-0.4,0.5-0.6,1.1-0.7,1.8c-0.1,0.3,0,0.5,0,0.8
		c0,0.1,0.1,0.2,0.2,0.3c0.6-0.3,0.5-1,0.9-1.3c0.7-0.2,1.2-0.1,1.8,0.3c0.1,0.1,0.3,0.2,0.5,0.2c0.4,0.2,0.5,0.5,0.5,0.9
		c-0.1,0.8-0.5,1.4-1.1,1.9c-0.2-0.2-0.4-0.3-0.6-0.4c-0.2,0.2-0.3,0.3-0.5,0.4c-0.6-0.3-0.5-1.1-1.1-1.3c-0.1,0.1-0.1,0.1-0.1,0.2
		c0,0.1,0,0.2,0,0.4c0.3,1.2,1,2.1,2.1,2.7c0.3,0.2,0.7,0.3,1,0.4c0.7,0.1,1.2-0.2,1.5-0.8c0.1-0.2,0.1-0.4,0.2-0.6
		c0-0.3,0.1-0.6,0.1-0.8c0.2-0.8,0.2-1.6,0.2-2.4c0-1-0.4-1.8-0.8-2.6C66.3,77.1,65.9,76.9,65.4,76.9z"/>
	<path class="st106" d="M47.7,71.6c-0.3-0.7-0.8-0.9-1.6-0.6c-1.1,0.4-1.7,1.3-1.7,2.1c0.1,1.4,0.1,2.4,0.2,3.3c0,0.4,0.2,0.7,0.3,1
		c0.2,0.4,0.5,0.8,0.9,1c0.6,0.4,1.2,0.3,1.6-0.2c0.2-0.2,0.3-0.4,0.5-0.7c0.2-0.4,0.4-0.9,0.6-1.3c0.2-0.4,0.2-0.9,0.2-1.3
		C48.5,73.8,48.1,72.7,47.7,71.6z"/>
	<path class="st106" d="M32.9,54.2c-0.5-0.5-1-1-1.6-1.4c-0.3-0.3-0.7-0.3-1.1-0.1c-0.8,0.4-1.2,1.1-1,1.9c0.1,0.7,0.3,1.4,0.3,2.1
		c0,1.4,0.6,2.4,1.8,3.2c0.7,0.5,1.4,0.3,1.7-0.5c0.2-0.4,0.3-0.7,0.4-1.1c0.2-0.6,0.4-1.2,0.3-1.8C33.8,55.6,33.5,54.8,32.9,54.2z"
		/>
	<path class="st106" d="M90.6,122.6c0-0.3,0-0.6-0.1-0.9c-0.2-1.1-0.9-1.9-1.8-2.5c-0.6-0.4-1.3-0.1-1.6,0.5c-0.1,0.3-0.2,0.7-0.4,1
		c-0.3,0.6-0.4,1.2-0.3,1.9c0,0.6,0,1.2,0.3,1.8c0.5,0.8,1.2,1.5,2.1,2c0.3,0.2,0.6,0.2,0.9,0.1c0.7-0.2,1.2-0.9,1.2-1.6
		c0-0.2,0-0.4-0.1-0.6C90.7,123.7,90.6,123.1,90.6,122.6z"/>
	<path class="st106" d="M125.9,54.2c-0.5-0.9-1.3-1.6-2.2-2.2c-0.3-0.2-0.6-0.2-0.9-0.1c-0.7,0.2-1.2,0.9-1.2,1.7
		c0,0.2,0,0.4,0.1,0.6c0.1,0.7,0.3,1.4,0.3,2.1c0,1.4,0.8,2.3,1.8,3c0.6,0.4,1.2,0.2,1.5-0.4c0.2-0.4,0.3-0.7,0.4-1.1
		c0.3-0.6,0.4-1.3,0.4-1.9C126.2,55.2,126.2,54.7,125.9,54.2z"/>
	<path class="st106" d="M115.9,117.7c-0.3-0.1-0.6-0.2-0.9-0.1c-0.7,0.1-1.2,0.5-1.4,1.2c-0.3,0.8-0.5,1.6-0.8,2.3
		c0,0.1-0.1,0.2-0.1,0.3c0.1,1,0.2,1.9,0.9,2.6c0.2,0.2,0.5,0.4,0.7,0.5c0.5,0.2,1,0.2,1.4-0.2c0.6-0.5,1.1-1.2,1.3-2
		c0.2-0.7,0.3-1.4,0.4-1.9C117.5,119.2,116.8,118,115.9,117.7z"/>
	<path class="st106" d="M99.3,55.1c-0.3-0.5-0.7-0.9-1.2-1.2c-0.6-0.2-1.1-0.1-1.6,0.4c-0.5,0.6-1,1.2-1.2,2
		C95.2,57,95.1,57.6,95,58c-0.1,1.1,0.7,2.4,1.6,2.7c0.1,0,0.2,0.1,0.3,0.1c1,0.2,1.7-0.3,2.1-1.2c0.2-0.7,0.5-1.4,0.7-2.1
		c0.1-0.2,0.1-0.4,0.1-0.6C99.7,56.3,99.5,55.7,99.3,55.1z"/>
	<path class="st106" d="M3.7,55.3c-0.1,0.1-0.1,0.1-0.2,0.2c-0.8,1-1,2.2-1,3.1C2.5,60,3,60.7,3.8,61.3c0.4,0.3,0.9,0.4,1.4,0.2
		c0.7-0.2,1.1-0.6,1.3-1.3c0.1-0.5,0.3-1.1,0.5-1.6c0.5-1.3,0.2-2.4-0.6-3.4C5.6,54.3,4.5,54.4,3.7,55.3z"/>
	<path class="st106" d="M76.3,63.6c-0.6-0.8-1.8-0.7-2.1,0.2c-0.2,0.6-0.4,1.2-0.6,1.8c-0.3,0.9-0.3,1.9,0,2.8
		c0.1,0.2,0.2,0.5,0.3,0.6c0.3,0.3,0.5,0.7,0.7,1.1c0.3,0.7,1.1,0.9,1.7,0.4c0.2-0.2,0.5-0.5,0.6-0.8c0.4-0.8,0.6-1.7,0.7-2.8
		c-0.1-0.4-0.2-1-0.3-1.6C77.1,64.7,76.7,64.1,76.3,63.6z"/>
	<path class="st106" d="M46.2,110.2c-0.3-0.4-0.6-0.8-0.8-1.3c-0.2-0.5-0.6-0.7-1.2-0.6c-0.3,0.1-0.6,0.2-0.8,0.5
		c-0.2,0.2-0.3,0.5-0.4,0.8c-0.2,0.5-0.3,1-0.4,1.6c-0.3,1.6,0.2,3,1.1,4.3c0.6,0.9,1.8,0.8,2.2-0.2c0.3-0.8,0.5-1.6,0.7-2.3
		c0.1-0.3,0.1-0.5,0.1-0.9c-0.1-0.4-0.1-0.9-0.2-1.3C46.4,110.6,46.4,110.4,46.2,110.2z"/>
	<path class="st106" d="M83.8,92.2c-0.4-0.6-1.1-0.6-1.6-0.1c-0.8,0.8-1.4,1.7-1.2,2.9c0,0.2,0.1,0.5,0.1,0.7c0.1,0.5,0.2,1,0.3,1.5
		c0.1,0.6,0.4,1.1,0.9,1.4c0.4,0.3,0.9,0.4,1.5,0.2c0.5-0.2,0.8-0.5,0.8-1c0.1-0.6,0.1-1.2,0.2-1.8c-0.1-1.1-0.1-2.1-0.5-3.2
		C84.1,92.7,84,92.5,83.8,92.2z"/>
	<path class="st106" d="M38.6,81.9c-0.1-0.6-0.5-1.1-1-1.5c-0.9-0.6-2.1-0.1-2.2,1c-0.1,0.5,0,0.9-0.1,1.4c0,0,0,0,0,0
		c0,0.3,0,0.6,0,0.9c0,0.9,0.2,1.7,0.5,2.5c0.1,0.3,0.3,0.6,0.5,0.8c0.4,0.4,1,0.4,1.5,0c0.9-0.9,1.4-1.9,1.1-3.2
		C38.8,83.2,38.7,82.5,38.6,81.9z"/>
	<path class="st106" d="M131,80.8c-0.2-0.9-1.1-1.5-2-1.4c-0.7,0.1-1.1,0.5-1.1,1.1c0,0.4,0,0.7-0.1,1.1c-0.1,1.1,0,2.2,0.3,3.3
		c0.1,0.4,0.2,0.7,0.4,1c0.1,0.2,0.3,0.4,0.5,0.5c0.4,0.3,0.9,0.3,1.3-0.1c0.7-0.7,1.4-1.5,1.3-2.7C131.3,82.7,131.2,81.8,131,80.8z
		"/>
	<path class="st106" d="M85.4,58.2c-1.2,0.4-1.9,1.6-1.7,2.7c0.1,0.6,0.3,1.2,0.7,1.8c0.6,0.9,1.1,1.1,2.2,0.8c0.1,0,0.1,0,0.2,0
		c0.4-0.1,0.6-0.3,0.8-0.7c0.2-0.5,0.3-0.9,0.5-1.4c0.1-0.3,0.1-0.6,0.2-1c-0.1-0.3-0.1-0.6-0.2-0.9C87.5,58,87.1,57.7,85.4,58.2z"
		/>
	<path class="st106" d="M128.1,115.8c-0.8-1.2-1.2-1.2-2.5-0.8c-0.3,0.1-0.5,0.3-0.6,0.6c-0.2,0.6-0.4,1.1-0.6,1.7
		c-0.1,0.2-0.1,0.5-0.1,0.6c0,0.9,0.3,1.6,0.8,2.2c0.3,0.3,0.6,0.5,1,0.4c0.4,0,0.7-0.1,1.1-0.2c1-0.3,1.8-1.5,1.7-2.5
		C128.7,117,128.5,116.4,128.1,115.8z"/>
	<path class="st106" d="M35.3,116.2c-0.3-0.3-0.5-0.6-1-0.6c-0.6,0-1.1,0.1-1.6,0.4c-0.1,0.1-0.2,0.3-0.3,0.4
		c-0.2,0.5-0.4,1-0.5,1.5c-0.1,0.3-0.1,0.7-0.2,1c0,0.7,0.3,1.4,0.7,1.9c0.2,0.3,0.6,0.5,1,0.4c0.4-0.1,0.9-0.1,1.3-0.3
		c0.9-0.5,1.5-1.2,1.5-2.3C36.2,117.7,35.9,116.9,35.3,116.2z"/>
	<path class="st106" d="M56.2,54.6c-0.6-0.5-1-0.5-1.6,0c-0.8,0.8-1.5,1.7-1.8,2.8c-0.1,0.2-0.1,0.5,0.1,0.9
		c0.1-0.4,0.1-0.6,0.2-0.8c0.1-0.3,0.2-0.6,0.5-0.9c0.4-0.4,0.9-0.8,1.3-1.1c0.4-0.3,0.7-0.3,1.1,0c0.5,0.4,0.6,1,0.7,1.6
		c0.1,1.5,0,3-0.4,4.4c-0.1,0.5-0.4,0.9-0.8,1.3c-0.2,0.2-0.4,0.2-0.7,0.1c-0.5-0.4-1.1-0.7-1.3-1.4c0-0.1-0.1-0.3-0.2-0.4
		c-0.1-0.1-0.2-0.2-0.3,0c0,0.1,0,0.3,0.1,0.5c0.3,0.5,0.6,1,0.9,1.5c0.1,0.2,0.3,0.4,0.5,0.5c0.4,0.3,0.8,0.3,1.2,0
		c0.5-0.4,1-1,1.2-1.6c0.5-1.5,0.8-3,0.7-4.6C57.4,56.2,57,55.3,56.2,54.6z"/>
	<path class="st106" d="M66.9,121.7c-0.1,0.3-0.1,0.7-0.4,0.9c-0.5,0.4-1,0.8-1.4,1.3c-0.3,0.3-0.7,0.3-1,0
		c-0.2-0.2-0.4-0.4-0.5-0.7c-0.1-0.4-0.3-0.8-0.3-1.2c0-0.6-0.1-1.3,0-1.9c0.1-0.8,0.3-1.7,0.4-2.5c0.1-0.5,0.5-0.9,0.9-1.2
		c0.2-0.2,0.4-0.2,0.6,0c0.5,0.4,1,0.7,1.2,1.4c0,0.2,0.2,0.3,0.3,0.5c0.1,0.1,0.2,0.1,0.3,0.2c-0.1-0.9-0.6-1.9-1.2-2.4
		c-0.5-0.4-0.9-0.4-1.4,0c-0.6,0.5-1.1,1.2-1.3,1.9c-0.4,1.4-0.6,2.8-0.5,4.2c0.1,1,0.5,1.8,1.2,2.5c0.4,0.4,0.9,0.4,1.4,0.2
		c0.2-0.1,0.5-0.3,0.6-0.5c0.3-0.4,0.6-0.8,0.9-1.3c0.3-0.5,0.5-1.1,0.6-1.6c0-0.1,0-0.3-0.1-0.5C66.9,121.1,67,121.4,66.9,121.7z"
		/>
	<path class="st106" d="M56.5,42.4c-0.3-0.5-0.6-1-1-1.4c-0.6-0.7-1.5-0.8-2.3-0.3c-0.5,0.3-0.7,0.8-0.9,1.2
		c-0.2,0.6-0.4,1.2-0.5,1.7c-0.1,0.5-0.1,1,0.4,1.5c0.1-0.3,0.2-0.5,0.2-0.6c0-0.3,0-0.5,0-0.8c0-1.1,0.5-1.9,1.4-2.4
		c0.6-0.4,1.2-0.3,1.5,0.4c0.1,0.2,0.2,0.5,0.3,0.8c0.2,0.7,0.4,1.5,0.5,2.2c0.1,0.3,0,0.7,0,1c-0.1,0.6-0.3,1.2-0.7,1.8
		c-0.1,0.1-0.2,0.3-0.2,0.5c0,0.1,0.1,0.3,0.2,0.4c0.1,0.1,0.3,0,0.4-0.1c0,0,0,0,0.1-0.1c0.4-0.7,0.7-1.4,0.7-2.2
		c0-0.9,0-1.9,0-2.8C56.7,42.9,56.7,42.6,56.5,42.4z"/>
	<path class="st106" d="M56.4,31c0-0.4,0-0.7,0-1.1c0-0.7-0.2-1.3-0.5-1.8c-0.2-0.4-0.6-0.8-1-1.1c-0.3-0.2-0.5-0.3-0.9-0.2
		c-0.1,0-0.2,0.1-0.2,0.2c0,0.1,0,0.3,0.1,0.3c0.2,0.1,0.4,0.2,0.7,0.3c0.3,0.1,0.5,0.3,0.6,0.6c0.2,0.8,0.5,1.5,0.6,2.3
		c0.1,1,0.1,2-0.3,2.9c-0.1,0.1-0.1,0.3-0.1,0.5c0.6-0.1,0.8-0.2,0.9-0.4c0.2-0.2,0.2-0.5,0.2-0.8C56.5,32.2,56.4,31.6,56.4,31z"/>
</g>
</svg>
