<?xml version="1.0" encoding="utf-8"?>
<!-- Generator: Adobe Illustrator 21.0.0, SVG Export Plug-In . SVG Version: 6.00 Build 0)  -->
<svg version="1.1" id="Layer_1" xmlns="http://www.w3.org/2000/svg" xmlns:xlink="http://www.w3.org/1999/xlink" x="0px" y="0px"
	 viewBox="0 0 864 864" style="enable-background:new 0 0 864 864;" xml:space="preserve">
<style type="text/css">
	.st0{fill:none;stroke:#3CB6AB;stroke-miterlimit:10;}
	.st1{fill-rule:evenodd;clip-rule:evenodd;fill:#F79980;}
	.st2{font-family:'MyriadPro-Regular';}
	.st3{font-size:13.3633px;}
	.st4{fill-rule:evenodd;clip-rule:evenodd;fill:#F0D4D0;}
	.st5{fill-rule:evenodd;clip-rule:evenodd;fill:#F1D953;}
	.st6{fill-rule:evenodd;clip-rule:evenodd;fill:#3CB6AB;}
	.st7{fill-rule:evenodd;clip-rule:evenodd;fill:#CCE0E1;}
	.st8{fill-rule:evenodd;clip-rule:evenodd;fill:#C5C8D1;}
	.st9{fill-rule:evenodd;clip-rule:evenodd;fill:#06749C;}
	.st10{fill-rule:evenodd;clip-rule:evenodd;fill:#FFFFFF;}
	.st11{fill-rule:evenodd;clip-rule:evenodd;}
	.st12{fill:#FFFDFD;}
	.st13{font-family:'Champagne&Limousines';}
	.st14{font-size:55.9896px;}
	.st15{font-size:23px;}
	.st16{font-family:'PerfectRedemption-Regular';}
	.st17{font-size:32px;}
	.st18{font-family:'BrightSundaySansSerif';}
	.st19{font-size:26px;}
	.st20{fill:#06749C;}
	.st21{fill:#F79980;}
	.st22{fill:#F0D4D0;}
	.st23{font-size:61.3523px;}
	.st24{fill:#F1D953;}
	.st25{clip-path:url(#SVGID_2_);}
	.st26{fill:none;stroke:#F1D953;stroke-width:0.75;}
	.st27{fill:#CCE0E1;}
	.st28{fill:none;stroke:#000000;stroke-width:0.75;}
	.st29{fill:none;stroke:#F0D4D0;stroke-miterlimit:10;}
	.st30{fill:none;stroke:#F1D953;stroke-miterlimit:10;}
	.st31{font-family:'PerfectRedemption-Extra';}
	.st32{font-size:63.136px;}
	.st33{clip-path:url(#SVGID_4_);}
	.st34{clip-path:url(#SVGID_6_);}
	.st35{fill:#C5C8D1;}
	.st36{clip-path:url(#SVGID_8_);}
	.st37{fill:none;stroke:#000000;stroke-miterlimit:10;}
	.st38{clip-path:url(#SVGID_10_);}
	.st39{clip-path:url(#SVGID_12_);}
	.st40{fill:none;stroke:#F1D953;stroke-width:1.948;}
	.st41{fill:none;stroke:#000000;stroke-width:1.948;}
	.st42{fill:none;stroke:#F0D4D0;stroke-width:2.5973;stroke-miterlimit:10;}
	.st43{fill:none;stroke:#F1D953;stroke-width:2.5973;stroke-miterlimit:10;}
	.st44{fill:none;stroke:#000000;stroke-width:2.5973;stroke-miterlimit:10;}
	.st45{font-size:42.9352px;}
	.st46{font-size:23.9669px;}
	.st47{font-size:46.8705px;}
	.st48{fill:none;}
	.st49{font-size:14px;}
	.st50{font-size:36px;}
	.st51{fill:#FFFFFF;}
	.st52{fill:#72B4A6;}
	.st53{fill:#F0D4D0;stroke:#C5C8D1;stroke-width:1.3638;stroke-miterlimit:10;}
	.st54{fill:none;stroke:#000000;stroke-linejoin:bevel;stroke-miterlimit:10;}
	.st55{fill:none;stroke:#C5C8D1;stroke-width:1.2346;stroke-miterlimit:10;}
	.st56{fill:#C5C8D1;stroke:#C5C8D1;stroke-width:1.2346;stroke-miterlimit:10;}
	.st57{fill:none;stroke:#C5C8D1;stroke-width:1.2346;stroke-linejoin:bevel;stroke-miterlimit:10;}
	.st58{fill:#F1D953;stroke:#72B4A6;stroke-miterlimit:10;}
	.st59{fill:#C5C8D1;stroke:#C5C8D1;stroke-width:0.5;stroke-miterlimit:10;}
	.st60{fill:none;stroke:#F79980;stroke-miterlimit:10;}
	.st61{fill:none;stroke:#72B4A6;stroke-miterlimit:10;}
	.st62{fill:none;stroke:#CCE0E1;stroke-width:2;stroke-miterlimit:10;}
	.st63{fill:#06749C;stroke:#06749C;stroke-miterlimit:10;}
	.st64{fill:none;stroke:#3CB6AB;stroke-width:0.6231;stroke-miterlimit:10;}
	.st65{fill:none;stroke:#3CB6AB;stroke-width:0.6231;stroke-linejoin:round;stroke-miterlimit:10;}
	.st66{fill:none;stroke:#06749C;stroke-miterlimit:10;}
	.st67{fill:none;stroke:#000000;stroke-linejoin:round;stroke-miterlimit:10;}
	.st68{fill:#F79980;stroke:#000000;stroke-width:0.5;stroke-miterlimit:10;}
	.st69{fill:#C5C8D1;stroke:#C5C8D1;stroke-width:1.3736;stroke-miterlimit:10;}
	.st70{fill:#E85B3F;}
	.st71{fill:#3CB6AB;stroke:#3CB6AB;stroke-width:1.3736;stroke-miterlimit:10;}
	.st72{fill:#F0D4D0;stroke:#F0D4D0;stroke-width:1.3736;stroke-miterlimit:10;}
	.st73{fill:none;stroke:#F0D4D0;stroke-width:1.3736;stroke-miterlimit:10;}
	.st74{fill:#CCE0E1;stroke:#CCE0E1;stroke-width:1.3736;stroke-miterlimit:10;}
	.st75{fill:#06749C;stroke:#06749C;stroke-width:1.3736;stroke-miterlimit:10;}
	.st76{fill:none;stroke:#3CB6AB;stroke-width:1.3736;stroke-miterlimit:10;}
	.st77{fill:#72B4A6;stroke:#72B4A6;stroke-width:1.3736;stroke-miterlimit:10;}
	.st78{fill:#F1D953;stroke:#F1D953;stroke-width:1.3736;stroke-miterlimit:10;}
	.st79{fill:none;stroke:#B3B3B3;stroke-miterlimit:10;}
	.st80{fill:none;stroke:#999999;stroke-miterlimit:10;}
	.st81{fill:#E6E6E6;stroke:#CCCCCC;stroke-miterlimit:10;}
	.st82{fill:none;stroke:#CCCCCC;stroke-miterlimit:10;}
	.st83{fill:#CCCCCC;}
	.st84{fill:#4D4D4D;}
	.st85{fill:#999999;}
	.st86{fill:#666666;}
	.st87{fill:#B3B3B3;}
	.st88{fill:#CCCCCC;stroke:#999999;stroke-width:1.3638;stroke-miterlimit:10;}
	.st89{fill:none;stroke:#CCCCCC;stroke-width:1.3746;stroke-miterlimit:10;}
	.st90{fill:#999999;stroke:#CCCCCC;stroke-width:1.1135;stroke-miterlimit:10;}
	.st91{fill:none;stroke:#CCCCCC;stroke-width:1.3746;stroke-linejoin:bevel;stroke-miterlimit:10;}
	.st92{fill:none;stroke:#808080;stroke-width:1.2346;stroke-miterlimit:10;}
	.st93{fill:#999999;stroke:#808080;stroke-width:1.2346;stroke-miterlimit:10;}
	.st94{fill:none;stroke:#808080;stroke-width:1.2346;stroke-linejoin:bevel;stroke-miterlimit:10;}
	.st95{fill:#808080;stroke:#CCCCCC;stroke-miterlimit:10;}
	.st96{fill:#999999;stroke:#999999;stroke-width:0.5;stroke-miterlimit:10;}
	.st97{fill:none;stroke:#C5C8D1;stroke-miterlimit:10;}
	.st98{fill:#C5C8D1;stroke:#C5C8D1;stroke-miterlimit:10;}
	.st99{fill:none;stroke:#999999;stroke-width:1.3428;stroke-miterlimit:10;}
	.st100{fill:#999999;stroke:#999999;stroke-miterlimit:10;}
	.st101{fill:none;stroke:#B3B3B3;stroke-width:2;stroke-miterlimit:10;}
	.st102{fill:#666666;stroke:#999999;stroke-miterlimit:10;}
	.st103{fill:none;stroke:#999999;stroke-width:0.8128;stroke-miterlimit:10;}
	.st104{fill:none;stroke:#999999;stroke-width:0.8128;stroke-linejoin:round;stroke-miterlimit:10;}
	.st105{fill:#B3B3B3;stroke:#999999;stroke-miterlimit:10;}
	.st106{fill:#666666;stroke:#666666;stroke-miterlimit:10;}
	.st107{fill:none;stroke:#666666;stroke-miterlimit:10;}
	.st108{fill:#CCCCCC;stroke:#F2F2F2;stroke-miterlimit:10;}
	.st109{fill:none;stroke:#F2F2F2;stroke-miterlimit:10;}
	.st110{fill:#808080;}
	.st111{fill:#E6E6E6;}
	.st112{fill:none;stroke:#B3B3B3;stroke-width:1.3736;stroke-miterlimit:10;}
	.st113{fill:#E6E6E6;stroke:#E6E6E6;stroke-width:1.3736;stroke-miterlimit:10;}
	.st114{fill:#06749C;stroke:#808080;stroke-width:1.3736;stroke-miterlimit:10;}
	.st115{fill:none;stroke:#CCCCCC;stroke-width:1.3736;stroke-miterlimit:10;}
	.st116{fill:#999999;stroke:#999999;stroke-width:1.3736;stroke-miterlimit:10;}
	.st117{fill:#3CB6AB;stroke:#E6E6E6;stroke-width:1.3736;stroke-miterlimit:10;}
	.st118{fill:#F1D953;stroke:#666666;stroke-width:1.3736;stroke-miterlimit:10;}
	.st119{fill:#F2F2F2;}
	.st120{clip-path:url(#SVGID_14_);fill:url(#);stroke:#231F20;stroke-width:0.36;}
	.st121{fill:#3CB6AB;}
	.st122{fill:url(#);}
	.st123{fill:#06749C;stroke:#3CB6AB;stroke-miterlimit:10;}
	.st124{fill:#1A1A1A;}
	.st125{fill:#F0D4D0;stroke:#F0D4D0;stroke-width:1.3638;stroke-miterlimit:10;}
	.st126{fill:#06749C;stroke:#06749C;stroke-width:1.2346;stroke-miterlimit:10;}
	.st127{fill:none;stroke:#F79980;stroke-width:1.2346;stroke-miterlimit:10;}
	.st128{fill:#3CB6AB;stroke:#F79980;stroke-width:1.2346;stroke-miterlimit:10;}
	.st129{fill:none;stroke:#F79980;stroke-width:1.2346;stroke-linejoin:bevel;stroke-miterlimit:10;}
	.st130{fill:#F79980;stroke:#F79980;stroke-width:0.5;stroke-miterlimit:10;}
	.st131{fill:none;stroke:#3CB6AB;stroke-width:1.3428;stroke-miterlimit:10;}
	.st132{fill:#3CB6AB;stroke:#3CB6AB;stroke-miterlimit:10;}
	.st133{fill:none;stroke:#3CB6AB;stroke-width:1.2346;stroke-miterlimit:10;}
	.st134{fill:#3CB6AB;stroke:#3CB6AB;stroke-width:1.2346;stroke-miterlimit:10;}
	.st135{fill:none;stroke:#3CB6AB;stroke-width:1.2346;stroke-linejoin:bevel;stroke-miterlimit:10;}
	.st136{fill:none;stroke:#3CB6AB;stroke-width:0.8128;stroke-miterlimit:10;}
	.st137{fill:none;stroke:#3CB6AB;stroke-width:0.8128;stroke-linejoin:round;stroke-miterlimit:10;}
	.st138{fill:#CCE0E1;stroke:#CCE0E1;stroke-miterlimit:10;}
	.st139{fill:none;stroke:#CCE0E1;stroke-miterlimit:10;}
</style>
<g>
	<g id="Rectangle_1_3_">
		<g>
			<rect x="58.7" y="146.9" class="st1" width="54.4" height="25"/>
		</g>
	</g>
	<text transform="matrix(1 0 0 1 66.1146 164.4281)" class="st2 st3">fe7c5a</text>
	<g id="Rectangle_1_copy_3_">
		<g>
			<rect x="58.7" y="177.6" class="st4" width="54.4" height="25"/>
		</g>
	</g>
	<g id="Rectangle_1_copy_2_3_">
		<g>
			<rect x="138" y="164.8" class="st5" width="54.4" height="25"/>
		</g>
	</g>
	<g id="Rectangle_1_copy_3_7_">
		<g>
			<rect x="219.3" y="146.2" class="st6" width="54.4" height="25"/>
		</g>
	</g>
	<g id="Rectangle_1_copy_3_3_">
		<g>
			<rect x="219.3" y="176.9" class="st7" width="54.4" height="25"/>
		</g>
	</g>
	<g id="Rectangle_1_copy_4_7_">
		<g>
			<rect x="304.4" y="146.2" class="st8" width="54.4" height="25"/>
		</g>
	</g>
	<g id="Rectangle_1_copy_4_3_">
		<g>
			<rect x="304.4" y="176.9" class="st9" width="54.4" height="25"/>
		</g>
	</g>
	<g id="Rectangle_1_copy_5_7_">
		<g>
			<rect x="390.2" y="146.9" class="st10" width="53.1" height="23.6"/>
		</g>
		<g>
			<path d="M442.6,147.5v22.3h-51.7v-22.3H442.6 M443.9,146.2h-54.4v25h54.4V146.2L443.9,146.2z"/>
		</g>
	</g>
	<g id="Rectangle_1_copy_5_3_">
		<g>
			<rect x="389.5" y="177.6" class="st11" width="54.4" height="25"/>
		</g>
	</g>
	<text transform="matrix(1 0 0 1 65.7806 195.1488)" class="st2 st3">fdbfb0</text>
	<text transform="matrix(1 0 0 1 146.3324 182.9886)" class="st2 st3">f1d953</text>
	<text transform="matrix(1 0 0 1 225.4623 163.7885)" class="st2 st3">00828b</text>
	<text transform="matrix(1 0 0 1 226.9501 194.5082)" class="st2 st3">75b5a7</text>
	<text transform="matrix(1 0 0 1 310.204 163.7885)" class="st2 st3">c5c8d1</text>
	<text transform="matrix(1 0 0 1 312.0458 194.5082)" class="st2 st3">eaeaec</text>
	<text transform="matrix(1 0 0 1 403.6757 163.7885)" class="st2 st3">ffffff</text>
	<text transform="matrix(1 0 0 1 396.077 194.5082)" class="st12 st2 st3">000000</text>
</g>
<text transform="matrix(1 0 0 1 154.7576 98.046)" class="st13 st14">Color Branding</text>
<text transform="matrix(1 0 0 1 411.0776 399.6908)" class="st13 st15">Fonts Used:  Champagne &amp; Limousines</text>
<text transform="matrix(1 0 0 1 433.7507 439.3239)" class="st16 st17">Fonts Used:  Perfect Redemption</text>
<text transform="matrix(1 0 0 1 386.4722 482.1492)" class="st18 st19">Fonts Used:  Bright Sunday San Serif</text>
<text transform="matrix(1 0 0 1 447.0779 518.4324)" class="st2 st19">Fonts Used:  Myriad Pro</text>
<path class="st22" d="M400.2,814.1c0.7,0.1,1.3,0.1,1.8-0.4c0.1-0.1,0.2-0.2,0.3-0.2h-2.9C399.4,813.9,399.8,814,400.2,814.1z"/>
<path class="st22" d="M395,830.3c0,0-0.2,0-0.3,0c0,0.1,0,0.2,0,0.3c0.3,0.5,0.7,1,1,1.5c0.1,0.1,0.2,0.1,0.4,0.4c0-0.3,0-0.4,0-0.5
	C395.8,831.4,395.4,830.8,395,830.3z"/>
<g>
	<text transform="matrix(1 0 0 1 495.0505 296.9007)" class="st16 st23">Sewing</text>
	<g>
		<rect x="432.9" y="260.9" class="st24" width="4.5" height="22.6"/>
		<g>
			<g>
				<defs>
					<path id="SVGID_1_" d="M449.5,279.7h-4.8v14.4h-4.5v-30h4.5v11.4h4.8V279.7z"/>
				</defs>
				<clipPath id="SVGID_2_">
					<use xlink:href="#SVGID_1_"  style="overflow:visible;"/>
				</clipPath>
				<g class="st25">
					<g>
						<rect x="432.8" y="256.2" class="st22" width="36.7" height="1"/>
					</g>
					<g>
						<rect x="432.8" y="259.1" class="st22" width="36.7" height="1"/>
					</g>
					<g>
						<rect x="432.8" y="262" class="st22" width="36.7" height="1"/>
					</g>
					<g>
						<rect x="432.8" y="264.8" class="st22" width="36.7" height="1"/>
					</g>
					<g>
						<rect x="432.8" y="267.7" class="st22" width="36.7" height="1"/>
					</g>
					<g>
						<rect x="432.8" y="270.6" class="st22" width="36.7" height="1"/>
					</g>
					<g>
						<rect x="432.8" y="273.5" class="st22" width="36.7" height="1"/>
					</g>
					<g>
						<rect x="432.8" y="276.3" class="st22" width="36.7" height="1"/>
					</g>
					<g>
						<rect x="432.8" y="279.2" class="st22" width="36.7" height="1"/>
					</g>
					<g>
						<rect x="432.8" y="282.1" class="st22" width="36.7" height="1"/>
					</g>
					<g>
						<rect x="432.8" y="285" class="st22" width="36.7" height="1"/>
					</g>
					<g>
						<rect x="432.8" y="287.8" class="st22" width="36.7" height="1"/>
					</g>
					<g>
						<rect x="432.8" y="290.7" class="st22" width="36.7" height="1"/>
					</g>
					<g>
						<rect x="432.8" y="293.6" class="st22" width="36.7" height="1"/>
					</g>
					<g>
						<rect x="432.8" y="296.5" class="st22" width="36.7" height="1"/>
					</g>
					<g>
						<rect x="432.8" y="299.3" class="st22" width="36.7" height="1"/>
					</g>
					<g>
						<rect x="432.8" y="302.2" class="st22" width="36.7" height="1"/>
					</g>
				</g>
			</g>
			<rect x="449.7" y="264.1" class="st22" width="2.2" height="30"/>
		</g>
		<polygon class="st24" points="475.5,290.3 471.2,290.3 463.1,290.3 458.8,290.3 464,260.4 470.3,260.4 		"/>
		<path class="st26" d="M429.7,294v-25.7h-3.8V264"/>
		<g>
			<path class="st27" d="M487.6,261.1v6.3h-3.8v25.7l0,0l-4.6-32L487.6,261.1z"/>
		</g>
		<g>
			<path class="st28" d="M439.9,262.1v4.3h-3.8v25.7h-4.6v-25.7h-3.8v-4.3H439.9z"/>
			<path class="st28" d="M455.4,262.1v30h-4.5v-14.4h-4.8v14.4h-4.5v-30h4.5v11.4h4.8v-11.4H455.4z"/>
			<path class="st28" d="M473.8,292l-4.3,0l-1.2-8l-2.8,0l-2.8,0l-1.2,8l-4.3,0l5.2-29.9h6.3L473.8,292z M467.8,280.8l-2.4-14.7
				l-2.4,14.7l2.4,0L467.8,280.8z"/>
			<path class="st28" d="M487.6,262.1v4.3h-3.8v25.7h-4.6v-25.7h-3.8v-4.3H487.6z"/>
		</g>
	</g>
	<g>
		<g>
			<g>
				<line class="st29" x1="631.5" y1="260.2" x2="635.8" y2="264.4"/>
				<line class="st29" x1="635.8" y1="260.2" x2="631.5" y2="264.4"/>
			</g>
			<g>
				<line class="st29" x1="631.5" y1="264.5" x2="635.8" y2="268.7"/>
				<line class="st29" x1="635.8" y1="264.5" x2="631.5" y2="268.7"/>
			</g>
			<g>
				<line class="st29" x1="631.5" y1="268.8" x2="635.8" y2="273"/>
				<line class="st29" x1="635.8" y1="268.8" x2="631.5" y2="273"/>
			</g>
			<g>
				<line class="st29" x1="631.5" y1="273.1" x2="635.8" y2="277.3"/>
				<line class="st29" x1="635.8" y1="273.1" x2="631.5" y2="277.3"/>
			</g>
			<g>
				<line class="st29" x1="631.5" y1="277.4" x2="635.8" y2="281.6"/>
				<line class="st29" x1="635.8" y1="277.4" x2="631.5" y2="281.6"/>
			</g>
			<g>
				<line class="st29" x1="631.5" y1="281.6" x2="635.8" y2="285.9"/>
				<line class="st29" x1="635.8" y1="281.6" x2="631.5" y2="285.9"/>
			</g>
			<g>
				<line class="st29" x1="631.5" y1="285.9" x2="635.8" y2="290.2"/>
				<line class="st29" x1="635.8" y1="285.9" x2="631.5" y2="290.2"/>
			</g>
		</g>
		<g>
			<path class="st27" d="M628.1,290.2H617v-30L628.1,290.2z"/>
		</g>
		<g>
			<path class="st24" d="M643.1,264.8v6.9h6v4.3h-6l-4.6-15.6h10.9v4.4H643.1z"/>
		</g>
		<g>
			<path class="st30" d="M649.6,279.9h-6v14.4H639"/>
		</g>
		<g>
			<path class="st22" d="M652.4,263.9v30h11.3L652.4,263.9z"/>
		</g>
		<g>
			<path class="st28" d="M629.8,288.4v3.6h-11.1v-30h4.6v26.4H629.8z"/>
			<path class="st28" d="M631.5,292v-30h4.3v30H631.5z"/>
			<path class="st28" d="M642.1,266.4v6.9h6v4.3h-6V292h-4.6v-30h10.9v4.4H642.1z"/>
			<path class="st28" d="M661.4,287.7v4.4h-11.3v-30H661v4.3h-6.3v8h6v4.2h-6v9.1H661.4z"/>
		</g>
	</g>
	<text transform="matrix(1 0 0 1 500.6678 311.8798)" class="st31 st32">B</text>
</g>
<g>
	<text transform="matrix(1 0 0 1 137.1923 393.7187)" class="st16 st23">Sewing</text>
	<g>
		<path class="st28" d="M82.1,358.9v4.3h-3.8v25.7h-4.6v-25.7h-3.8v-4.3H82.1z"/>
		<path class="st28" d="M97.6,358.9v30H93v-14.4h-4.8v14.4h-4.5v-30h4.5v11.4H93v-11.4H97.6z"/>
		<path class="st28" d="M116,388.9l-4.3,0l-1.2-8l-2.8,0l-2.8,0l-1.2,8l-4.3,0l5.2-29.9h6.3L116,388.9z M110,377.7l-2.4-14.7
			l-2.4,14.7l2.4,0L110,377.7z"/>
		<path class="st28" d="M129.7,358.9v4.3H126v25.7h-4.6v-25.7h-3.8v-4.3H129.7z"/>
	</g>
	<g>
		<path class="st28" d="M271.9,385.2v3.6h-11.1v-30h4.6v26.4H271.9z"/>
		<path class="st28" d="M273.6,388.9v-30h4.3v30H273.6z"/>
		<path class="st28" d="M284.2,363.3v6.9h6v4.3h-6v14.4h-4.6v-30h10.9v4.4H284.2z"/>
		<path class="st28" d="M303.5,384.5v4.4h-11.3v-30h10.9v4.3h-6.3v8h6v4.2h-6v9.1H303.5z"/>
	</g>
	<text transform="matrix(1 0 0 1 142.8096 408.6978)" class="st31 st32">B</text>
</g>
<g>
	<text transform="matrix(1 0 0 1 137.1923 453.0011)" class="st35 st16 st23">Sewing</text>
	<g>
		<path class="st35" d="M82.1,418.2v4.3h-3.8v25.7h-4.6v-25.7h-3.8v-4.3H82.1z"/>
		<path class="st35" d="M97.6,418.2v30H93v-14.4h-4.8v14.4h-4.5v-30h4.5v11.4H93v-11.4H97.6z"/>
		<path class="st35" d="M116,448.1l-4.3,0l-1.2-8l-2.8,0l-2.8,0l-1.2,8l-4.3,0l5.2-29.9h6.3L116,448.1z M110,436.9l-2.4-14.7
			l-2.4,14.7l2.4,0L110,436.9z"/>
		<path class="st35" d="M129.7,418.2v4.3H126v25.7h-4.6v-25.7h-3.8v-4.3H129.7z"/>
	</g>
	<g>
		<path class="st35" d="M271.9,444.5v3.6h-11.1v-30h4.6v26.4H271.9z"/>
		<path class="st35" d="M273.6,448.1v-30h4.3v30H273.6z"/>
		<path class="st35" d="M284.2,422.5v6.9h6v4.3h-6v14.4h-4.6v-30h10.9v4.4H284.2z"/>
		<path class="st35" d="M303.5,443.8v4.4h-11.3v-30h10.9v4.3h-6.3v8h6v4.2h-6v9.1H303.5z"/>
	</g>
	<text transform="matrix(1 0 0 1 142.8096 467.9802)" class="st35 st31 st32">B</text>
</g>
<g>
	<text transform="matrix(1 0 0 1 517.9441 121.829)" class="st16 st23">Sewing</text>
	<g>
		<rect x="549.9" y="41.2" class="st24" width="4.5" height="22.6"/>
		<g>
			<g>
				<defs>
					<path id="SVGID_7_" d="M566.5,60h-4.8v14.4h-4.5v-30h4.5v11.4h4.8V60z"/>
				</defs>
				<clipPath id="SVGID_4_">
					<use xlink:href="#SVGID_7_"  style="overflow:visible;"/>
				</clipPath>
				<g class="st33">
					<g>
						<rect x="549.8" y="36.5" class="st22" width="36.7" height="1"/>
					</g>
					<g>
						<rect x="549.8" y="39.4" class="st22" width="36.7" height="1"/>
					</g>
					<g>
						<rect x="549.8" y="42.3" class="st22" width="36.7" height="1"/>
					</g>
					<g>
						<rect x="549.8" y="45.1" class="st22" width="36.7" height="1"/>
					</g>
					<g>
						<rect x="549.8" y="48" class="st22" width="36.7" height="1"/>
					</g>
					<g>
						<rect x="549.8" y="50.9" class="st22" width="36.7" height="1"/>
					</g>
					<g>
						<rect x="549.8" y="53.8" class="st22" width="36.7" height="1"/>
					</g>
					<g>
						<rect x="549.8" y="56.6" class="st22" width="36.7" height="1"/>
					</g>
					<g>
						<rect x="549.8" y="59.5" class="st22" width="36.7" height="1"/>
					</g>
					<g>
						<rect x="549.8" y="62.4" class="st22" width="36.7" height="1"/>
					</g>
					<g>
						<rect x="549.8" y="65.3" class="st22" width="36.7" height="1"/>
					</g>
					<g>
						<rect x="549.8" y="68.1" class="st22" width="36.7" height="1"/>
					</g>
					<g>
						<rect x="549.8" y="71" class="st22" width="36.7" height="1"/>
					</g>
					<g>
						<rect x="549.8" y="73.9" class="st22" width="36.7" height="1"/>
					</g>
					<g>
						<rect x="549.8" y="76.8" class="st22" width="36.7" height="1"/>
					</g>
					<g>
						<rect x="549.8" y="79.6" class="st22" width="36.7" height="1"/>
					</g>
					<g>
						<rect x="549.8" y="82.5" class="st22" width="36.7" height="1"/>
					</g>
				</g>
			</g>
			<rect x="566.7" y="44.4" class="st22" width="2.2" height="30"/>
		</g>
		<polygon class="st24" points="592.5,70.6 588.2,70.6 580.1,70.6 575.8,70.6 581,40.7 587.3,40.7 		"/>
		<path class="st26" d="M546.7,74.3V48.6h-3.8v-4.3"/>
		<g>
			<path class="st27" d="M604.6,41.4v6.3h-3.8v25.7l0,0l-4.6-32L604.6,41.4z"/>
		</g>
		<g>
			<path class="st28" d="M556.9,42.4v4.3h-3.8v25.7h-4.6V46.7h-3.8v-4.3H556.9z"/>
			<path class="st28" d="M572.4,42.4v30h-4.5V58h-4.8v14.4h-4.5v-30h4.5v11.4h4.8V42.4H572.4z"/>
			<path class="st28" d="M590.8,72.3l-4.3,0l-1.2-8l-2.8,0l-2.8,0l-1.2,8l-4.3,0l5.2-29.9h6.3L590.8,72.3z M584.8,61.1l-2.4-14.7
				l-2.4,14.7l2.4,0L584.8,61.1z"/>
			<path class="st28" d="M604.6,42.4v4.3h-3.8v25.7h-4.6V46.7h-3.8v-4.3H604.6z"/>
		</g>
	</g>
	<g>
		<g>
			<g>
				<line class="st29" x1="565" y1="143.7" x2="569.2" y2="147.9"/>
				<line class="st29" x1="569.2" y1="143.7" x2="565" y2="147.9"/>
			</g>
			<g>
				<line class="st29" x1="565" y1="147.9" x2="569.2" y2="152.2"/>
				<line class="st29" x1="569.2" y1="147.9" x2="565" y2="152.2"/>
			</g>
			<g>
				<line class="st29" x1="565" y1="152.2" x2="569.2" y2="156.5"/>
				<line class="st29" x1="569.2" y1="152.2" x2="565" y2="156.5"/>
			</g>
			<g>
				<line class="st29" x1="565" y1="156.5" x2="569.2" y2="160.8"/>
				<line class="st29" x1="569.2" y1="156.5" x2="565" y2="160.8"/>
			</g>
			<g>
				<line class="st29" x1="565" y1="160.8" x2="569.2" y2="165.1"/>
				<line class="st29" x1="569.2" y1="160.8" x2="565" y2="165.1"/>
			</g>
			<g>
				<line class="st29" x1="565" y1="165.1" x2="569.2" y2="169.4"/>
				<line class="st29" x1="569.2" y1="165.1" x2="565" y2="169.4"/>
			</g>
			<g>
				<line class="st29" x1="565" y1="169.4" x2="569.2" y2="173.7"/>
				<line class="st29" x1="569.2" y1="169.4" x2="565" y2="173.7"/>
			</g>
		</g>
		<g>
			<path class="st27" d="M561.5,173.6h-11.1v-30L561.5,173.6z"/>
		</g>
		<g>
			<path class="st24" d="M576.5,148.2v6.9h6v4.3h-6l-4.6-15.6h10.9v4.4H576.5z"/>
		</g>
		<g>
			<path class="st30" d="M583,163.3h-6v14.4h-4.6"/>
		</g>
		<g>
			<path class="st22" d="M585.8,147.3v30h11.3L585.8,147.3z"/>
		</g>
		<g>
			<path class="st28" d="M563.2,171.9v3.6h-11.1v-30h4.6v26.4H563.2z"/>
			<path class="st28" d="M564.9,175.5v-30h4.3v30H564.9z"/>
			<path class="st28" d="M575.5,149.9v6.9h6v4.3h-6v14.4h-4.6v-30h10.9v4.4H575.5z"/>
			<path class="st28" d="M594.8,171.1v4.4h-11.3v-30h10.9v4.3h-6.3v8h6v4.2h-6v9.1H594.8z"/>
		</g>
	</g>
	<polyline class="st37" points="546.7,162.3 505.4,162.3 505.4,56 542.9,56 	"/>
	<polyline class="st37" points="605,56 642.1,56 642.1,162.3 600.4,162.3 	"/>
	<text transform="matrix(1 0 0 1 523.9744 138.3893)" class="st31 st32">B</text>
</g>
<text transform="matrix(1 0 0 1 52.1205 570.3138)" class="st16 st45">www.ThatSewingLife.com</text>
<text transform="matrix(1 0 0 1 63.89 618.2899)" class="st18 st46">www.ThatSewingLife.com</text>
<text transform="matrix(1 0 0 1 69.9418 336.5771)" class="st18 st47">LOGOs:</text>
<rect x="457.8" y="639.6" class="st48" width="299" height="424"/>
<text transform="matrix(1 0 0 1 457.8373 649.5697)"><tspan x="0" y="0" class="st2 st49">Lorem ipsum dolor sit amet, consectetuer adipisc</tspan><tspan x="286.2" y="0" class="st2 st49">-</tspan><tspan x="0" y="16.8" class="st2 st49">ing elit, sed diam nonummy nibh euismod tincid</tspan><tspan x="282.4" y="16.8" class="st2 st49">-</tspan><tspan x="0" y="33.6" class="st2 st49">unt ut laoreet dolore magna aliquam erat volutpat. </tspan><tspan x="0" y="50.4" class="st2 st49">Ut wisi enim ad minim veniam, quis nostrud exerci </tspan><tspan x="0" y="67.2" class="st2 st49">tation ullamcorper suscipit lobortis nisl ut aliquip </tspan><tspan x="0" y="84" class="st2 st49">ex ea commodo consequat. Duis autem vel eum </tspan><tspan x="0" y="100.8" class="st2 st49">iriure dolor in hendrerit in vulputate velit esse </tspan><tspan x="0" y="117.6" class="st2 st49">molestie consequat, vel illum dolore eu feugiat </tspan><tspan x="0" y="134.4" class="st2 st49">nulla facilisis at vero eros et accumsan et iusto odio </tspan><tspan x="0" y="151.2" class="st2 st49">dignissim qui blandit praesent luptatum zzril dele</tspan><tspan x="288.4" y="151.2" class="st2 st49">-</tspan><tspan x="0" y="168" class="st2 st49">nit augue duis dolore te feugait nulla facilisi.</tspan><tspan x="0" y="184.8" class="st2 st49">Lorem ipsum dolor sit amet, cons ectetuer adipisc</tspan><tspan x="289.2" y="184.8" class="st2 st49">-</tspan><tspan x="0" y="201.6" class="st2 st49">ing elit, sed diam nonummy nibh euismod tincid</tspan><tspan x="282.4" y="201.6" class="st2 st49">-</tspan><tspan x="0" y="218.4" class="st2 st49">unt ut laoreet dolore magna aliquam erat volutpat. </tspan><tspan x="0" y="235.2" class="st2 st49">Ut wisi enim ad minim veniam, quis nostrud exerci </tspan><tspan x="0" y="252" class="st2 st49">tation ullamcorper suscipit lobortis nisl ut aliquip </tspan><tspan x="0" y="268.8" class="st2 st49">ex ea commodo consequat.</tspan><tspan x="0" y="285.6" class="st2 st49">Lorem ipsum dolor sit amet, consectetuer adipisc</tspan><tspan x="286.2" y="285.6" class="st2 st49">-</tspan><tspan x="0" y="302.4" class="st2 st49">ing elit, sed diam nonummy nibh euismod tincid</tspan><tspan x="282.4" y="302.4" class="st2 st49">-</tspan><tspan x="0" y="319.2" class="st2 st49">unt ut laoreet dolore magna aliquam erat volutpat. </tspan><tspan x="0" y="336" class="st2 st49">Ut wisi enim ad minim veniam, quis nostrud exerci </tspan><tspan x="0" y="352.8" class="st2 st49">tation ullamcorper suscipit lobortis nisl ut aliquip </tspan><tspan x="0" y="369.6" class="st2 st49">ex ea commodo consequat. Duis autem vel eum </tspan><tspan x="0" y="386.4" class="st2 st49">iriure dolor in hendrerit in vulputate velit esse </tspan><tspan x="0" y="403.2" class="st2 st49">molestie consequat, vel illum dolore eu feugiat </tspan></text>
<rect x="418.1" y="581" class="st48" width="426.9" height="76.9"/>
<text transform="matrix(1 0 0 1 418.0601 606.5353)" class="st2 st50">Sample Blog Post Headline</text>
<g>
	<g>
		<path class="st22" d="M279.7,758.6L133.2,917.3c-32.7-19.2-54.6-54.7-54.6-95.3c0-61,49.5-110.5,110.5-110.5
			C226.6,711.4,259.7,730.1,279.7,758.6z"/>
	</g>
	<g>
		<path class="st51" d="M299.6,822c0,61-49.5,110.5-110.5,110.5c-20.4,0-39.5-5.5-55.9-15.2l146.5-158.7
			C292.2,776.5,299.6,798.4,299.6,822z"/>
	</g>
	<g>
		<g>
			<path d="M149.4,771.6v45.9h-3.5v-45.9h-24.3c0,0-7.7-1.1-8.4,8.8c-0.7,9.9,3.7,53.1,3.7,53.1h14.3v5.1h9.5v11.9h3.3v-11.9h8.6
				v-5.3h7.9v-15c0,0,0.9-10.4,7.3-10.4s33.1,0,33.1,0s8.6-1.1,8.6,9s0,38.8,0,38.8h-94.3c0,0-7.7,1.3-7.7,8.4s7.7,8.6,7.7,8.6h7.7
				v14.1h133.2v-108c0,0,0.2-7.3-6.6-7.3s-12.3,0-12.3,0V757h-3.3v14.3L149.4,771.6z"/>
		</g>
		<g>
			<path d="M261.6,789.2v30.5c0,0,9-0.3,9-6c0-5.7,0-17.2,0-17.2S269.1,789.2,261.6,789.2z"/>
		</g>
	</g>
</g>
</svg>
