<?xml version="1.0" encoding="utf-8"?>
<!-- Generator: Adobe Illustrator 21.0.0, SVG Export Plug-In . SVG Version: 6.00 Build 0)  -->
<svg version="1.1" id="Layer_1" xmlns="http://www.w3.org/2000/svg" xmlns:xlink="http://www.w3.org/1999/xlink" x="0px" y="0px"
	 viewBox="0 0 183.7 42.8" style="enable-background:new 0 0 183.7 42.8;" xml:space="preserve">
<style type="text/css">
	.st0{fill:none;stroke:#3CB6AB;stroke-miterlimit:10;}
	.st1{fill-rule:evenodd;clip-rule:evenodd;fill:#F79980;}
	.st2{fill-rule:evenodd;clip-rule:evenodd;fill:#F0D4D0;}
	.st3{fill-rule:evenodd;clip-rule:evenodd;fill:#F1D953;}
	.st4{fill-rule:evenodd;clip-rule:evenodd;fill:#3CB6AB;}
	.st5{fill-rule:evenodd;clip-rule:evenodd;fill:#CCE0E1;}
	.st6{fill-rule:evenodd;clip-rule:evenodd;fill:#C5C8D1;}
	.st7{fill-rule:evenodd;clip-rule:evenodd;fill:#06749C;}
	.st8{fill-rule:evenodd;clip-rule:evenodd;fill:#FFFFFF;}
	.st9{fill-rule:evenodd;clip-rule:evenodd;}
	.st10{fill:#06749C;}
	.st11{fill:#F79980;}
	.st12{fill:#F0D4D0;}
	.st13{fill:#F1D953;}
	.st14{clip-path:url(#SVGID_2_);}
	.st15{fill:none;stroke:#F1D953;stroke-width:0.75;}
	.st16{fill:#CCE0E1;}
	.st17{fill:none;stroke:#000000;stroke-width:0.75;}
	.st18{fill:none;stroke:#F0D4D0;stroke-miterlimit:10;}
	.st19{fill:none;stroke:#F1D953;stroke-miterlimit:10;}
	.st20{clip-path:url(#SVGID_4_);}
	.st21{clip-path:url(#SVGID_6_);}
	.st22{fill:#C5C8D1;}
	.st23{clip-path:url(#SVGID_8_);}
	.st24{fill:none;stroke:#000000;stroke-miterlimit:10;}
	.st25{clip-path:url(#SVGID_10_);}
	.st26{clip-path:url(#SVGID_12_);}
	.st27{fill:none;stroke:#F1D953;stroke-width:1.948;}
	.st28{fill:none;stroke:#000000;stroke-width:1.948;}
	.st29{fill:none;stroke:#F0D4D0;stroke-width:2.5973;stroke-miterlimit:10;}
	.st30{fill:none;stroke:#F1D953;stroke-width:2.5973;stroke-miterlimit:10;}
	.st31{fill:none;stroke:#000000;stroke-width:2.5973;stroke-miterlimit:10;}
	.st32{fill:#FFFFFF;}
	.st33{fill:#72B4A6;}
	.st34{fill:#F0D4D0;stroke:#C5C8D1;stroke-width:1.3638;stroke-miterlimit:10;}
	.st35{fill:none;stroke:#000000;stroke-linejoin:bevel;stroke-miterlimit:10;}
	.st36{fill:none;stroke:#C5C8D1;stroke-width:1.2346;stroke-miterlimit:10;}
	.st37{fill:#C5C8D1;stroke:#C5C8D1;stroke-width:1.2346;stroke-miterlimit:10;}
	.st38{fill:none;stroke:#C5C8D1;stroke-width:1.2346;stroke-linejoin:bevel;stroke-miterlimit:10;}
	.st39{fill:#F1D953;stroke:#72B4A6;stroke-miterlimit:10;}
	.st40{fill:#C5C8D1;stroke:#C5C8D1;stroke-width:0.5;stroke-miterlimit:10;}
	.st41{fill:none;stroke:#F79980;stroke-miterlimit:10;}
	.st42{fill:none;stroke:#72B4A6;stroke-miterlimit:10;}
	.st43{fill:none;stroke:#CCE0E1;stroke-width:2;stroke-miterlimit:10;}
	.st44{fill:#06749C;stroke:#06749C;stroke-miterlimit:10;}
	.st45{fill:none;stroke:#3CB6AB;stroke-width:0.6231;stroke-miterlimit:10;}
	.st46{fill:none;stroke:#3CB6AB;stroke-width:0.6231;stroke-linejoin:round;stroke-miterlimit:10;}
	.st47{fill:none;stroke:#06749C;stroke-miterlimit:10;}
	.st48{fill:none;stroke:#000000;stroke-linejoin:round;stroke-miterlimit:10;}
	.st49{fill:#F79980;stroke:#000000;stroke-width:0.5;stroke-miterlimit:10;}
	.st50{fill:#C5C8D1;stroke:#C5C8D1;stroke-width:1.3736;stroke-miterlimit:10;}
	.st51{fill:#E85B3F;}
	.st52{fill:#3CB6AB;stroke:#3CB6AB;stroke-width:1.3736;stroke-miterlimit:10;}
	.st53{fill:#F0D4D0;stroke:#F0D4D0;stroke-width:1.3736;stroke-miterlimit:10;}
	.st54{fill:none;stroke:#F0D4D0;stroke-width:1.3736;stroke-miterlimit:10;}
	.st55{fill:#CCE0E1;stroke:#CCE0E1;stroke-width:1.3736;stroke-miterlimit:10;}
	.st56{fill:#06749C;stroke:#06749C;stroke-width:1.3736;stroke-miterlimit:10;}
	.st57{fill:none;stroke:#3CB6AB;stroke-width:1.3736;stroke-miterlimit:10;}
	.st58{fill:#72B4A6;stroke:#72B4A6;stroke-width:1.3736;stroke-miterlimit:10;}
	.st59{fill:#F1D953;stroke:#F1D953;stroke-width:1.3736;stroke-miterlimit:10;}
	.st60{fill:none;stroke:#B3B3B3;stroke-miterlimit:10;}
	.st61{fill:none;stroke:#999999;stroke-miterlimit:10;}
	.st62{fill:#E6E6E6;stroke:#CCCCCC;stroke-miterlimit:10;}
	.st63{fill:none;stroke:#CCCCCC;stroke-miterlimit:10;}
	.st64{fill:#CCCCCC;}
	.st65{fill:#4D4D4D;}
	.st66{fill:#999999;}
	.st67{fill:#666666;}
	.st68{fill:#B3B3B3;}
	.st69{fill:#CCCCCC;stroke:#999999;stroke-width:1.3638;stroke-miterlimit:10;}
	.st70{fill:none;stroke:#CCCCCC;stroke-width:1.3746;stroke-miterlimit:10;}
	.st71{fill:#999999;stroke:#CCCCCC;stroke-width:1.1135;stroke-miterlimit:10;}
	.st72{fill:none;stroke:#CCCCCC;stroke-width:1.3746;stroke-linejoin:bevel;stroke-miterlimit:10;}
	.st73{fill:none;stroke:#808080;stroke-width:1.2346;stroke-miterlimit:10;}
	.st74{fill:#999999;stroke:#808080;stroke-width:1.2346;stroke-miterlimit:10;}
	.st75{fill:none;stroke:#808080;stroke-width:1.2346;stroke-linejoin:bevel;stroke-miterlimit:10;}
	.st76{fill:#808080;stroke:#CCCCCC;stroke-miterlimit:10;}
	.st77{fill:#999999;stroke:#999999;stroke-width:0.5;stroke-miterlimit:10;}
	.st78{fill:none;stroke:#C5C8D1;stroke-miterlimit:10;}
	.st79{fill:#C5C8D1;stroke:#C5C8D1;stroke-miterlimit:10;}
	.st80{fill:none;stroke:#999999;stroke-width:1.3428;stroke-miterlimit:10;}
	.st81{fill:#999999;stroke:#999999;stroke-miterlimit:10;}
	.st82{fill:none;stroke:#B3B3B3;stroke-width:2;stroke-miterlimit:10;}
	.st83{fill:#666666;stroke:#999999;stroke-miterlimit:10;}
	.st84{fill:none;stroke:#999999;stroke-width:0.8128;stroke-miterlimit:10;}
	.st85{fill:none;stroke:#999999;stroke-width:0.8128;stroke-linejoin:round;stroke-miterlimit:10;}
	.st86{fill:#B3B3B3;stroke:#999999;stroke-miterlimit:10;}
	.st87{fill:#666666;stroke:#666666;stroke-miterlimit:10;}
	.st88{fill:none;stroke:#666666;stroke-miterlimit:10;}
	.st89{fill:#CCCCCC;stroke:#F2F2F2;stroke-miterlimit:10;}
	.st90{fill:none;stroke:#F2F2F2;stroke-miterlimit:10;}
	.st91{fill:#808080;}
	.st92{fill:#E6E6E6;}
	.st93{fill:none;stroke:#B3B3B3;stroke-width:1.3736;stroke-miterlimit:10;}
	.st94{fill:#E6E6E6;stroke:#E6E6E6;stroke-width:1.3736;stroke-miterlimit:10;}
	.st95{fill:#06749C;stroke:#808080;stroke-width:1.3736;stroke-miterlimit:10;}
	.st96{fill:none;stroke:#CCCCCC;stroke-width:1.3736;stroke-miterlimit:10;}
	.st97{fill:#999999;stroke:#999999;stroke-width:1.3736;stroke-miterlimit:10;}
	.st98{fill:#3CB6AB;stroke:#E6E6E6;stroke-width:1.3736;stroke-miterlimit:10;}
	.st99{fill:#F1D953;stroke:#666666;stroke-width:1.3736;stroke-miterlimit:10;}
	.st100{fill:#F2F2F2;}
	.st101{clip-path:url(#SVGID_14_);fill:url(#);stroke:#231F20;stroke-width:0.36;}
	.st102{fill:#3CB6AB;}
	.st103{fill:url(#);}
	.st104{fill:none;}
	.st105{fill:#06749C;stroke:#3CB6AB;stroke-miterlimit:10;}
	.st106{fill:#1A1A1A;}
	.st107{fill:#F0D4D0;stroke:#F0D4D0;stroke-width:1.3638;stroke-miterlimit:10;}
	.st108{fill:#06749C;stroke:#06749C;stroke-width:1.2346;stroke-miterlimit:10;}
	.st109{fill:none;stroke:#F79980;stroke-width:1.2346;stroke-miterlimit:10;}
	.st110{fill:#3CB6AB;stroke:#F79980;stroke-width:1.2346;stroke-miterlimit:10;}
	.st111{fill:none;stroke:#F79980;stroke-width:1.2346;stroke-linejoin:bevel;stroke-miterlimit:10;}
	.st112{fill:#F79980;stroke:#F79980;stroke-width:0.5;stroke-miterlimit:10;}
	.st113{fill:none;stroke:#3CB6AB;stroke-width:1.3428;stroke-miterlimit:10;}
	.st114{fill:#3CB6AB;stroke:#3CB6AB;stroke-miterlimit:10;}
	.st115{fill:none;stroke:#3CB6AB;stroke-width:1.2346;stroke-miterlimit:10;}
	.st116{fill:#3CB6AB;stroke:#3CB6AB;stroke-width:1.2346;stroke-miterlimit:10;}
	.st117{fill:none;stroke:#3CB6AB;stroke-width:1.2346;stroke-linejoin:bevel;stroke-miterlimit:10;}
	.st118{fill:none;stroke:#3CB6AB;stroke-width:0.8128;stroke-miterlimit:10;}
	.st119{fill:none;stroke:#3CB6AB;stroke-width:0.8128;stroke-linejoin:round;stroke-miterlimit:10;}
	.st120{fill:#CCE0E1;stroke:#CCE0E1;stroke-miterlimit:10;}
	.st121{fill:none;stroke:#CCE0E1;stroke-miterlimit:10;}
</style>
<g>
	<path class="st10" d="M3.5,20.2c-1.8,0.1-3.2,1.5-3.4,3.3c-0.1,1.2,0.2,2.3,0.8,3.3c0.7,1.1,1.6,1.7,3,1.6c0.3,0,0.5,0,0.8,0
		c1.4,0,2.7,0,4.1,0.4c0.4,0.1,0.8,0.1,1.2,0c1-0.3,2-0.7,2.9-1.4c0.2-0.2,0.4-0.3,0.6-0.5c0.5-0.7,1-1.4,1.4-2.1
		c0.5-0.9,0.4-1.5-0.3-2.2c-0.4-0.4-0.8-0.7-1.2-1c-0.5-0.5-1.1-0.7-1.7-0.9c-1.6-0.4-3.3-0.5-5-0.5C5.4,20.2,4.4,20.1,3.5,20.2z"/>
	<path class="st10" d="M21.8,29.1c-1.5,0.5-2.2,1.3-1.8,2.7c0.2,0.6,0.2,1.1,0,1.7c-0.3,0.9,0.1,1.6,0.8,2.2
		c0.2,0.1,0.4,0.3,0.5,0.4c0.4,0.4,0.9,0.5,1.5,0.5c0.7,0,1.4,0,2.1,0c1.9,0.2,3.7-0.1,5.5-0.5c0.6-0.1,1.2-0.3,1.8-0.6
		c1.7-0.8,1.9-1.8,0.8-3.2c-0.3-0.4-0.6-0.7-0.6-1.1c-0.1-0.5-0.4-0.8-0.9-1.1c-1.3-0.7-2.7-1.2-4.2-1.2c-1.2,0-2.5,0-3.7,0
		C23,28.9,22.3,28.9,21.8,29.1z"/>
	<path class="st10" d="M57.9,30.9c-0.6,0.3-1,0.8-1.1,1.4c-0.2,0.8,0.5,2.3,1.3,2.7c0.5,0.3,0.9,0.6,1.2,1c0.9,1.4,2.2,1.8,3.8,1.6
		c1.2-0.2,2.4-0.5,3.6-0.8c1.3-0.3,2.1-1.2,2.6-2.4c0.4-1.1,0.3-2.3,0-3.4c-0.3-1-1-1.5-2-1.5c-0.8,0-1.7,0-2.5,0c0,0,0,0,0,0
		c-0.6,0-1.2,0-1.9,0C61,29.4,59.5,30.1,57.9,30.9z"/>
	<path class="st10" d="M98.6,15.4c-1,1.4-0.7,3.2,0.9,3.9c1.4,0.6,2.6,1.4,4.2,1.2c0.2,0,0.4,0.1,0.7,0.1c2.4,0.4,4.4-0.4,6-2.2
		c1.2-1.4,0.9-3.3-0.7-4.2c-0.2-0.1-0.3-0.2-0.5-0.2c-1.6-0.7-3.4-1-5.2-1.1c-0.5,0.1-1,0.2-1.5,0.2C100.8,13.1,99.6,14,98.6,15.4z"
		/>
	<path class="st10" d="M1.8,36.8c-0.1,0.3-0.2,0.6-0.4,0.8c-0.5,0.7-0.4,1.3,0,2c0.2,0.3,0.4,0.6,0.6,0.9c1.4,1.7,3.3,2.4,5.8,2.3
		c2.1,0.2,4.2-1,6.2-2.3c0.1-0.1,0.2-0.2,0.3-0.3c0.4-0.4,0.5-0.8,0.1-1.3c-0.2-0.3-0.6-0.5-0.7-1c0-0.8-0.6-1.2-1.3-1.5
		c-0.5-0.2-1-0.4-1.5-0.5C9,35.4,7.1,35.2,5.2,35c-0.3,0-0.6,0-0.9,0C3.1,35.2,2.2,35.7,1.8,36.8z"/>
	<path class="st10" d="M119.2,28.9c-0.5,0.7-0.5,1.4,0,2.1c0.2,0.3,0.5,0.5,0.7,0.8c0.4,0.4,0.9,0.6,1.2,1c0.8,0.9,1.8,1.1,2.9,1.2
		c0.7,0,1.3,0,2,0c0,0,0,0,0,0c0.5,0,1,0,1.5,0c1.2,0.1,2.3-0.3,3.3-0.9c0.7-0.4,1-0.9,1.2-1.7c0.2-0.7,0.2-1.5,0-2.2
		c-0.1-0.7-0.5-1.1-1.2-1.3c-0.2-0.1-0.4-0.1-0.6-0.2c-1.3-0.3-2.5-0.6-3.8-0.8c-1.5-0.2-3-0.3-4.5,0.1
		C120.7,27.4,119.8,28,119.2,28.9z"/>
	<path class="st10" d="M140.1,29.8c-0.8,0.3-1.4,0.9-1.8,1.7c-0.4,0.7-0.3,1.4,0.2,2c0.6,0.6,1.3,1.1,2.1,1.4c1.7,0.7,3.4,0.9,5.2,1
		c0.9-0.1,1.8-0.1,2.6-0.3c0.7-0.1,1.3-0.4,1.7-1c0.6-0.8,1-1.7,1-2.7c0-0.8-0.3-1.5-0.9-2c-1.1-0.8-2.3-1.5-3.7-1.6
		c-1.5-0.1-2.9,0-4.3,0.6C141.5,29.3,140.8,29.6,140.1,29.8z"/>
	<path class="st10" d="M23.4,14.8c-0.5,0-1,0.2-1.4,0.3c-0.7,0.2-1.1,0.8-1.1,1.5c-0.1,0.5,0,1,0.3,1.4c0.6,0.8,1.1,1.7,1.7,2.5
		c0.3,0.4,0.7,0.6,1.2,0.8c1.9,0.5,3.8,0.5,5.6-0.2c1.9-0.7,3.3-2.1,4.5-3.6c0.7-0.9,0.5-1.6-0.5-2.2c-0.8-0.5-1.7-0.7-2.7-0.8
		c-0.7,0-1.4,0-2.1,0c0,0,0-0.1,0-0.1C27,14.6,25.2,14.7,23.4,14.8z"/>
	<path class="st10" d="M40.6,31.7c-0.6,0.1-1,0.5-1.2,1.1c-0.1,0.3-0.2,0.5-0.3,0.7c-0.3,0.9-0.3,1.7,0.3,2.5
		c0.2,0.4,0.5,0.7,0.7,1.1c0.5,1,1.3,1.5,2.4,1.7c0.8,0.1,1.6,0.2,2.4,0.3c1.3,0.3,2.1-0.4,2.8-1.3c0.4-0.5,0.8-1,1.1-1.5
		c0.3-0.5,0.7-0.9,0.9-1.4c0.3-0.6,0.2-1.3,0-1.9c-0.2-0.6-0.7-0.9-1.3-1c-0.4,0-0.9,0-1.3-0.1c-0.7-0.2-1.4-0.4-2-0.6
		c-1.2-0.5-2.3-0.6-3.5,0C41.2,31.5,40.9,31.6,40.6,31.7z"/>
	<path class="st10" d="M156.9,14c-1.2,0.6-1.6,1.8-1.9,3c-0.1,0.4,0,1,0.1,1.4c0.1,0.6,0.5,1,1.1,1.3c0.3,0.1,0.6,0.2,0.9,0.3
		c1.1,0.2,2.2,0.4,3.3,0.5c1.6,0.1,3-0.5,4.1-1.5c1.1-1,1.4-2.3,1-3.7c-0.4-1.4-1.2-2.3-2.5-2.6c-0.6-0.2-1.3-0.2-1.9-0.3
		c-1.3,0-2.4,0.3-3.3,1.2C157.5,13.7,157.2,13.9,156.9,14z"/>
	<path class="st10" d="M171.4,16.7c-0.5,0.5-0.5,1-0.1,1.7c0.3,0.5,0.8,0.9,1.2,1.2c1.9,1.5,4.1,2.4,6.6,2.5c1.7,0.1,3-0.6,4.1-1.9
		c0.7-0.9,0.7-1.8,0-2.7c-0.2-0.3-0.6-0.6-0.9-0.8c-1-0.7-2.1-1.3-3.3-1.6c-1-0.2-2-0.4-3-0.5C174.1,14.5,172.7,15.5,171.4,16.7z"/>
	<path class="st10" d="M22.6,1.9c-0.4,0.7-0.7,1.5-1,2.3c-0.3,0.9,0.1,1.5,1,1.7c0.9,0.2,1.7,0.6,2.6,1c0.4,0.2,0.9,0.4,1.4,0.5
		c1.1,0.3,2.1,0.2,3.1-0.3c0.5-0.3,0.9-0.4,1.5-0.5c0.3-0.1,0.7-0.1,1-0.4c0.7-0.6,1.3-1.2,1.9-1.8c0.4-0.4,0.4-0.9,0-1.3
		c-0.9-0.9-1.9-1.7-3.2-2c-0.8-0.2-1.6-0.3-2.3-0.4c-0.6-0.1-1.2-0.2-1.9-0.3c-0.8,0.1-1.6,0.3-2.4,0.4C23.4,0.9,22.9,1.3,22.6,1.9z
		"/>
	<path class="st10" d="M120.1,14.1c-0.5,0.1-1,0.4-1.2,0.9c-0.4,0.7-0.8,1.5-1,2.3c-0.3,1.1,0,1.7,1.1,1.9c0.7,0.1,1.3,0.4,1.8,0.7
		c0.4,0.2,0.8,0.4,1.2,0.6c1.3,0.5,2.6,0.5,3.8-0.2c0.4-0.3,0.9-0.4,1.4-0.5c0.4-0.1,0.9-0.2,1.2-0.5c0.6-0.4,1-1,1.5-1.5
		c0.5-0.5,0.4-1.1,0-1.7c-0.9-1-1.9-1.7-3.3-1.9c-0.9-0.2-1.8-0.3-2.7-0.5c-0.4-0.1-0.9-0.1-1.3-0.2c-0.4,0-0.8,0-1.2,0.1
		C121,13.9,120.6,14,120.1,14.1z"/>
	<path class="st10" d="M84.8,30.6c-1.7,0.5-1.8,2.5-1,3.4c0.6,0.6,1.1,1.1,1.9,1.4c1.7,0.7,3.5,0.8,5.3,0.5c1.3-0.2,2.3-0.8,3.2-1.7
		c0.5-0.5,0.8-1.1,0.8-1.8c-0.1-1.4-1.3-2.7-2.7-2.8c-0.5,0-1,0-1.1,0C88.8,29.5,86.8,30.1,84.8,30.6z"/>
	<path class="st10" d="M43.9,1.7c-0.8,0.4-1.3,0.9-1.2,1.9c0,0.2,0,0.4,0,0.8c0,0.1-0.1,0.3-0.1,0.6c0,0.8,0.3,1.2,1.1,1.4
		c0.4,0.1,0.8,0.1,1.2,0c0.8-0.1,1.5-0.1,2.2,0.2c1,0.3,1.9,0.2,2.8-0.2C51.2,5.8,52.3,5,53.2,4c0.4-0.4,0.7-0.9,0.7-1.5
		C54,1.7,53.7,1,53,0.6c-0.2-0.1-0.5-0.2-0.7-0.3c-2-0.5-3.9-0.5-5.9,0.3C45.6,0.9,44.8,1.3,43.9,1.7z"/>
	<path class="st10" d="M143.7,13.5c0,0.2,0,0.4,0.1,0.5c0.4,0.3,0.9,0.6,1.4,0.8c0,0.2,0.1,0.3,0.1,0.5c0.5,1.4-0.5,2.2-1.2,3.2
		c-0.2,0.3-0.6,0.3-1,0.3c-0.9-0.1-1.7-0.5-2.2-1.3c-0.1-0.1-0.1-0.2-0.2-0.4c0.1-0.3,0.3-0.5,0.4-0.8c-0.2-0.3-0.3-0.6-0.5-0.9
		c0.4-0.7,1.5-0.6,1.7-1.5c-0.2,0-0.3-0.1-0.4-0.1c-2.4,0.2-4.5,2.6-4.8,4.7c-0.1,0.7,0.2,1.2,0.7,1.6c0.3,0.2,0.7,0.4,1.1,0.4
		c1.6,0.4,3.3,0.6,5,0.6c1.1,0,2.2-0.3,3.2-0.8c1-0.5,1.6-1.3,1.6-2.4c0-0.4,0-0.7,0.1-1.1c0.2-1-0.2-1.8-1-2.4
		c-0.9-0.7-2-1-3.1-1.2c-0.2,0-0.4,0-0.7,0C143.9,13.3,143.7,13.4,143.7,13.5z"/>
	<path class="st10" d="M103.9,28c-1,0.4-1.3,1.2-1,2.3c0.6,1.6,1.9,2.5,3.1,2.5c2-0.1,3.4-0.1,4.8-0.3c0.5,0,1-0.2,1.5-0.4
		c0.6-0.2,1.1-0.7,1.5-1.2c0.6-0.8,0.5-1.7-0.2-2.4c-0.3-0.3-0.6-0.5-1-0.7c-0.6-0.3-1.3-0.6-1.9-0.9c-0.6-0.3-1.3-0.4-1.9-0.2
		C107.1,26.9,105.5,27.4,103.9,28z"/>
	<path class="st10" d="M159.9,30.8c-0.6,0.5-1.2,0.9-1.9,1.1c-0.8,0.3-1,0.9-0.8,1.7c0.1,0.5,0.3,0.9,0.8,1.2
		c0.4,0.2,0.7,0.5,1.2,0.6c0.7,0.3,1.5,0.5,2.3,0.6c2.3,0.5,4.4-0.2,6.3-1.5c1.3-0.9,1.1-2.5-0.3-3.1c-1.1-0.5-2.2-0.8-3.4-1.1
		c-0.4-0.1-0.8-0.1-1.3-0.2c-0.6,0.1-1.2,0.1-1.9,0.3C160.5,30.5,160.2,30.6,159.9,30.8z"/>
	<path class="st10" d="M79.4,15.4c-0.7,0.8-0.8,1.5-0.1,2.3c1.1,1.2,2.4,2.2,4,2.7c0.3,0.1,0.7,0.2,1.2-0.2
		c-0.6-0.1-0.9-0.2-1.2-0.3c-0.5-0.1-0.9-0.3-1.2-0.7c-0.5-0.6-1.1-1.3-1.6-1.9c-0.5-0.6-0.5-1.1,0-1.7c0.6-0.7,1.4-0.9,2.3-0.9
		c2.2-0.2,4.3,0.1,6.4,0.7c0.8,0.2,1.3,0.7,1.8,1.2c0.3,0.4,0.3,0.6,0.1,1c-0.5,0.8-1,1.6-2,1.8c-0.2,0.1-0.4,0.2-0.6,0.3
		c-0.1,0.1-0.3,0.2-0.1,0.5c0.2,0,0.5,0,0.7-0.1c0.7-0.4,1.5-0.8,2.2-1.2c0.3-0.2,0.6-0.4,0.8-0.7c0.4-0.5,0.5-1.2,0-1.7
		c-0.6-0.7-1.4-1.4-2.3-1.7c-2.1-0.8-4.3-1.2-6.6-1.1C81.7,13.7,80.4,14.2,79.4,15.4z"/>
	<path class="st10" d="M61.6,14.7c-0.7,0.4-1.5,0.8-2.1,1.4c-1.1,0.9-1.2,2.2-0.5,3.4c0.4,0.7,1.1,1,1.8,1.3
		c0.8,0.3,1.7,0.6,2.5,0.8c0.7,0.2,1.4,0.2,2.1-0.6c-0.4-0.2-0.7-0.3-0.9-0.3c-0.4-0.1-0.8,0-1.2-0.1c-1.5-0.1-2.7-0.8-3.5-2.1
		c-0.6-0.9-0.3-1.7,0.6-2.2c0.3-0.2,0.7-0.4,1.1-0.4c1.1-0.3,2.2-0.5,3.2-0.7c0.5-0.1,1,0,1.4,0.1c0.9,0.2,1.8,0.4,2.6,1
		c0.2,0.1,0.5,0.3,0.7,0.3c0.2,0,0.4-0.1,0.5-0.3c0.2-0.2,0-0.4-0.2-0.6c0,0-0.1-0.1-0.1-0.1c-1-0.5-2-1-3.1-1
		c-1.4-0.1-2.7-0.1-4.1-0.1C62.3,14.5,61.9,14.5,61.6,14.7z"/>
	<path class="st10" d="M45.1,14.8c-0.5,0-1.1,0-1.6,0c-1,0-1.8,0.3-2.7,0.7c-0.6,0.3-1.1,0.8-1.6,1.4c-0.3,0.4-0.4,0.8-0.3,1.2
		c0,0.1,0.2,0.3,0.3,0.3c0.2,0,0.4,0,0.5-0.1c0.2-0.3,0.3-0.6,0.4-1c0.2-0.4,0.5-0.8,0.9-0.9c1.1-0.3,2.2-0.7,3.3-0.8
		c1.4-0.2,2.8-0.2,4.2,0.5c0.2,0.1,0.4,0.1,0.7,0.2c-0.2-0.9-0.2-1.1-0.5-1.4c-0.3-0.3-0.7-0.3-1.1-0.3C46.9,14.6,46,14.7,45.1,14.8
		z"/>
</g>
</svg>
